<?xml version="1.0" standalone="no"?>
<!DOCTYPE svg PUBLIC "-//W3C//DTD SVG 1.1//EN" "http://www.w3.org/Graphics/SVG/1.1/DTD/svg11.dtd" >
<svg xmlns="http://www.w3.org/2000/svg">
<metadata>
This is a custom SVG webfont generated by Font Squirrel.
Copyright   :  2007 Igino Marini wwwiginomarinicom With Reserved Font Name IM FELL English Roman
Designer    : Igino Marini
Foundry     : Igino Marini
Foundry URL : wwwiginomarinicom
</metadata>
<defs>
<font id="IMFELLEnglishRegular" horiz-adv-x="1384" >
<font-face units-per-em="2048" ascent="1638" descent="-410" />
<missing-glyph horiz-adv-x="447" />
<glyph unicode=" "  horiz-adv-x="447" />
<glyph unicode="&#x09;" horiz-adv-x="447" />
<glyph unicode="&#xa0;" horiz-adv-x="447" />
<glyph unicode="!" horiz-adv-x="558" d="M187 97q0 29 7.5 57t30.5 47h9q6 0 13.5 0.5t13.5 0.5h9q21 0 41.5 -4t36 -14.5t25 -27.5t9.5 -42q0 -54 -24 -80.5t-81 -26.5h-19q-12 0 -24.5 2t-17.5 10q-2 3 -6.5 11t-8.5 17l-9 17q-4 9 -5 12v21zM197 498v21q0 11 1 38.5t2.5 58t3 57.5t2.5 38q7 2 8.5 7t1.5 10v9 q0 13 -4 27t-9.5 27.5t-10 27t-5.5 27.5v126q0 1 -1 6l-3 9q-2 4 -3.5 8t-1.5 5l-3 15q-2 9 -3.5 18t-2.5 16.5t-1 9.5v81v81q3 9 9 19.5t14 19.5t17 15.5t17 6.5q2 0 8 -2l13 -4l13 -4q6 -2 8 -2q1 0 8 4.5t9 7.5h8h11l21 -15q11 -9 22 -19t20 -21.5t13 -24.5 q1 -3 1.5 -11.5t1 -18.5t0.5 -19v-13v-16q0 -10 -0.5 -20t-1 -17.5t-1.5 -8.5q0 -5 -2.5 -23l-5.5 -40l-7 -40q-3 -19 -4 -24q0 -4 1 -26.5t1 -42.5q0 -22 -2 -26q0 -3 -1 -10l-2 -15l-2 -13.5t-2 -9.5v-356q0 -8 -1.5 -22.5t-3.5 -30t-4 -28t-3 -16.5q-3 -14 -15.5 -26 t-27.5 -12h-6q-50 34 -72.5 75.5t-22.5 105.5z" />
<glyph unicode="&#x22;" horiz-adv-x="1022" d="M112 753q0 17 7.5 32.5t18.5 30.5l21 29q11 14 19 30q1 1 4 9l8 16l8 16q4 8 6 10q10 15 28 31l34 31q18 16 31 34.5t13 39.5q0 9 0.5 25.5t2.5 24.5q2 17 4.5 27t2.5 30q0 9 -7.5 18.5t-18 17.5t-22 14.5t-20.5 10.5q-1 0 -1 1v1l-17 -2l-21.5 -4t-19.5 -3.5t-13 -1.5 q-22 0 -44.5 12t-40.5 30t-29 40t-11 43t9 45.5t25 45.5t37 35t45 14q13 4 25 6.5t25 2.5q14 0 27 -2.5t27 -6.5q2 0 6 -3.5t6 -5.5q43 -15 82.5 -41.5t68.5 -62t46.5 -79.5t17.5 -95q0 -68 -12.5 -124.5t-38.5 -106t-65.5 -93.5t-93.5 -86l-28 -23q-14 -12 -28 -20.5 t-31.5 -13.5t-40.5 -5q-6 0 -14.5 0.5t-17 3t-14.5 8t-6 14.5zM548 753q0 15 7.5 30.5t19 29.5t24.5 26.5t25 22.5l71 108l64 104q2 2 4 10.5t5 10.5q0 40 -2 66.5t-7.5 43t-16 23.5t-28.5 7q-13 -5 -28 -7.5t-30 -2.5q-37 0 -70 10q-12 4 -27 16.5t-27.5 28.5t-21 32.5 t-8.5 29.5q0 34 13 63t35.5 50.5t53 34t65.5 12.5q17 0 45.5 -7t58 -18.5t54.5 -25.5t36 -27q3 -5 6.5 -11.5t3.5 -7.5l9 -23l10 -10l15 -17q8 -9 15 -18t10 -14q3 -22 14.5 -43.5t11.5 -44.5q0 -11 -1 -20t-4 -20q-5 -15 -7 -26.5t-2 -24.5q0 -7 1 -12.5t3 -12.5l4 -13 q1 -6 1 -11q0 -19 -4 -34t-11 -28.5t-15 -26.5l-17 -29q-18 -29 -29.5 -55t-34.5 -60q-22 -27 -52 -51.5t-64 -43t-70.5 -29t-70.5 -10.5h-25q-4 3 -8 10t-4 15z" />
<glyph unicode="#" horiz-adv-x="1644" d="M767 163q0 16 6 29.5t13.5 26t14 26t8.5 28.5q1 16 2.5 25t3.5 15t4.5 10.5t4.5 10.5q3 4 6.5 10.5t6.5 17.5q2 9 3 14.5t3 10.5t6.5 11.5t14.5 18.5q-1 7 -1 12v10v14q0 7 1 18q0 4 3.5 9t3.5 10h-2q-1 0 -2.5 0.5t-3.5 0.5q-15 0 -48 -3.5t-82 -10.5l-95 13 q-25 0 -25 -9h-64q0 -18 -13 -26q-5 -2 -9.5 -8t-9.5 -6q0 -8 0.5 -13.5t0.5 -10.5q0 -21 -3.5 -30t-10.5 -13q0 -32 -1 -54.5t-6 -34.5q-1 -4 -12 -12t-15 -10q-8 -13 -9.5 -22.5t-1.5 -22.5q0 -14 -1 -17q-3 -14 -7.5 -19.5t-8.5 -9.5t-7.5 -9t-6.5 -18l-53 -20 q-6 0 -15 10t-18 22t-15 22.5t-6 12.5q0 16 4 28.5t9 24.5l11 24q6 12 9 27q2 4 3 15t6 16q1 14 8.5 26.5t11.5 30.5q0 2 0.5 8.5t1.5 14t2 14t1 8.5q2 4 14 15t14 18q0 4 -0.5 10.5t-4.5 6.5q-17 -9 -32 -13t-16 -4q-5 2 -9 2h-7q-11 0 -19.5 -2.5t-16.5 -5.5t-16.5 -5.5 t-18.5 -2.5l-66 9q-20 -4 -26.5 -5.5t-11.5 -1.5q-13 0 -29.5 2t-31.5 7.5t-25.5 15.5t-10.5 27q0 8 5 20t12.5 23.5t16 21t15.5 13.5q49 7 81.5 9.5t61.5 2.5h44q22 0 45 -2q24 -7 32.5 -8.5t10.5 -1.5q45 13 64 35t26.5 50.5t12 61.5t21.5 69q3 8 8.5 11.5t10 7t8 8 t3.5 14.5q-1 1 -1 3q-1 2 -1 4q-7 0 -10.5 0.5t-7 2t-8.5 3t-14 3.5q-6 -2 -11 -3t-13 -1l-38 7q-9 0 -18 -4t-18 -9.5t-18.5 -9.5t-19.5 -4l-63 15q-20 -5 -26.5 -7.5t-11.5 -2.5q-13 0 -29.5 2.5t-31 8.5t-24.5 16.5t-10 27.5q0 8 4.5 19.5t11 23.5t15 21.5t16.5 13.5h28 l204 10l39 -12q15 0 30 7.5t33 11.5q5 0 15 -3.5t12 -3.5q1 1 3 2q3 3 3 5q23 38 40.5 86t26.5 93v26q0 4 5 10.5t7 11.5q9 8 12.5 15t3.5 18q0 22 8 41.5t21 36.5t30 31.5t36 25.5q14 0 23.5 -9t15 -21.5t7.5 -24.5t2 -18q0 -13 -8.5 -18.5t-8.5 -12.5q4 -8 6.5 -21.5 t3.5 -18.5q0 -10 -3 -16t-7.5 -11t-9.5 -9t-9 -10q-1 -3 -4 -13l-6 -22q-4 -13 -6.5 -25t-2.5 -17q0 -25 -5.5 -41.5t-13.5 -29.5l-16 -26q-8 -13 -12 -31l135 -7h75q17 0 35.5 0.5t36 3t32.5 7t25 12.5q0 1 6 19l14 39l14 42q7 19 6 23v31q2 6 7 11l12 10q6 5 11 11t5 13 q0 24 5.5 44.5t14 38.5t18 34.5t17.5 32.5q7 2 13 3t11 1q14 0 23.5 -3t9.5 -6q8 -17 17 -27.5t14 -15.5q0 -5 -3 -14t-7 -18t-7 -16.5t-3 -8.5q1 -12 1 -20v-13q0 -11 -1.5 -16t-4 -9t-6.5 -8t-10 -12q-5 -6 -6.5 -12t-3 -13.5t-4 -17t-9.5 -23.5l7 -33q0 -8 -1.5 -18 t-4.5 -20t-8 -18t-12 -11l68 5q11 0 19 -7.5t22 -7.5q11 0 23.5 7.5t28.5 7.5l102 -5l76 5q19 0 27.5 -16.5t12.5 -31.5q-26 -32 -58.5 -50t-72.5 -18h-15q-3 0 -3 2q-20 -3 -38 -7.5t-22 -6.5l-12 -5q-7 -4 -18 -4t-20 9q-16 -2 -22 -2h-9h-36q-9 0 -11 2q-21 -11 -33 -16 t-28 -5q-18 5 -26 5.5t-12 0.5q-17 -16 -25.5 -32t-13 -33t-6 -35t-5.5 -39q-4 -10 -14 -24l-19 -28l-17 -25q-7 -12 -7 -16q2 -7 4.5 -14t4.5 -9q10 3 26 5.5t33.5 4t34 2t28.5 0.5l39 -12q11 0 24 6t29 6l102 -7l76 7q19 0 28.5 -16t13.5 -30q-50 -71 -133 -71 q-5 0 -11.5 2.5t-7.5 2.5q-2 0 -13 -5t-15 -5q-8 0 -16.5 -2.5t-16.5 -4.5q-14 -6 -24 -6q-9 1 -16 3l-12 2q-6 1 -8 1q-5 -2 -10 -2h-10h-38q-7 0 -8 2q-18 -16 -31.5 -18.5t-27.5 -2.5l-78 15q-7 -5 -8 -15t-1 -19l-32 -76q-2 -4 -4 -12t-3 -16t-1.5 -15.5t-0.5 -10.5 q0 -20 -3 -32t-9 -22t-14.5 -20.5t-20.5 -27.5q-5 -12 -5 -16q0 -11 1 -16t1 -10q0 -4 -1 -7t-1 -5q-2 -4 -9.5 -13t-11.5 -11q-1 -5 -4 -14t-3 -14q-13 -8 -25.5 -11.5t-27.5 -3.5q-6 0 -15.5 8.5t-18.5 19.5t-15.5 22t-6.5 16zM741 877q-28 0 -44 -4.5t-25 -15t-12 -27 t-5 -41.5q-2 -26 -12.5 -40t-10.5 -15t-1 -6t-2 -11t-2 -11v-5q-8 -13 -15 -19t-12.5 -9.5t-9 -8.5t-3.5 -17q-3 -3 -3 -28v-29l170 10q6 0 25 -1.5t66 -8.5q23 0 44.5 1t37.5 9q2 0 8 21l13 48l15 53q7 25 10 34q3 6 5 7.5t4.5 2t5.5 1.5t6 6q17 35 17 87 q-15 17 -26.5 21.5t-25.5 4.5l-124 -24z" />
<glyph unicode="$" horiz-adv-x="1134" d="M568 -107v51q0 14 -1 22.5t-2 19.5l-4 42l-166 7q-26 9 -56 14l-58 9q-29 4 -56.5 11t-48.5 21.5t-33.5 39t-12.5 64.5v26l19 190q4 8 7 12.5t14 4.5q21 0 31 -19q39 -53 67 -104l61 -109q5 -12 32 -25t61.5 -24t70.5 -20t59 -12q-3 31 -3 64l17 45q0 8 -2.5 14.5 t-6 13.5t-6 14.5t-2.5 18.5q4 48 5.5 86t1.5 75q0 26 -1.5 55t-4.5 59v67q-10 9 -17.5 18.5t-21.5 16.5q-3 0 -10.5 1.5t-16 3.5t-16 3.5t-9.5 1.5l-52 54q-14 10 -25.5 15t-21.5 8.5t-19.5 8.5t-21.5 16q-9 8 -14 16t-8 16t-5.5 16t-7.5 16q-2 8 -9 19l-10 18 q-23 27 -37 46t-21.5 38t-10 41.5t-2.5 57.5q0 42 10 87.5t29 88.5t47 81t63 65q10 10 22.5 14.5t25.5 6.5t27 3t27 3q12 2 22 8l20 11q10 6 21 11t23 7l-5 117q0 5 0.5 11.5t3 12.5t7 10.5t12.5 5.5q14 3 24.5 4t20.5 1q20 0 31 -4.5t22 -8.5q0 -5 2.5 -21t2.5 -24 q3 0 5 -10l4 -22v-20l10 -47l-3 -16q9 -1 17 -3t16 -3q26 -7 47.5 -16.5t49.5 -9.5q19 0 34.5 11t30 24t31 24t37.5 11q10 0 16 -5t9.5 -13t4.5 -17t1 -16l-19 -66l9 -118v-26q0 -27 -2 -45.5t-9 -45.5q-1 -5 -6 -9.5t-8 -4.5q0 -2 -6 -2q-5 0 -16 13t-25 33l-31 44l-32 47 q-16 22 -30.5 40t-25.5 25q-23 14 -52 23.5t-58 13.5l-6 -31l16 -123l-9 -45q5 -15 7.5 -23.5t4 -13t1.5 -6.5v-4q0 -16 -2.5 -21.5t-10.5 -16.5q7 -8 12.5 -33.5t9.5 -55t6 -56.5t2 -38l-5 -37q18 -9 37 -17l47 -21l116 -74q2 -1 5 -3.5t6 -4.5q4 -3 7 -6l17 -50 q4 -7 7.5 -15.5t7.5 -12.5q3 -2 10 -10t14.5 -17.5t13.5 -18t6 -11.5q3 -6 7 -17l10 -24q4 -12 7 -22.5t3 -15.5v-148q0 -1 -4 -12.5t-9 -19.5q-4 -1 -6 -6q-1 -3 -1 -5q-2 -3 -5 -13l-8 -22l-7 -22q-4 -10 -6 -12q-3 -9 -10.5 -19t-16.5 -19t-17.5 -16t-12.5 -10 q-9 -12 -10 -26t-13 -21q-33 -12 -55.5 -26.5t-42 -28.5t-38.5 -25.5t-44 -17.5l-3 -14v14q-4 -2 -12 -2q-3 -15 -6 -42q0 -26 6.5 -48t7.5 -54q-10 -1 -10 -17v-3q0 -9 -1 -20.5t-7 -21t-18.5 -16t-34.5 -6.5q-17 0 -27 4.5t-19 27.5v63zM535 1346q-25 -3 -43.5 -11 t-33 -21t-26.5 -31.5t-22 -42.5q-10 -22 -16.5 -34.5t-11 -23.5t-6.5 -23.5t-2 -34.5q0 -45 13 -79.5t35.5 -61t52.5 -46t65 -32.5q3 20 9 46l-7 18q-5 13 -7 22l14 50q0 12 -7 27.5t-7 33.5l7 116zM670 242q2 -5 8 -28.5t12 -50.5h2l42 10q4 0 17 22l29 47q18 30 38 69 q0 2 1 11t2 20l2 20q1 9 1 13v16q0 11 -1 19.5t-2.5 17t-4.5 18.5l-6 25l-2 5q-8 11 -20 20.5t-23 20.5q-12 17 -16.5 26t-9.5 15t-14 11t-29 14q-2 0 -7.5 1.5t-10.5 3.5q-5 -26 -11 -51t-6 -46q0 -29 8 -60t8 -63l-6 -38v-46q0 -17 -0.5 -25t-0.5 -11v-6z" />
<glyph unicode="%" horiz-adv-x="1529" d="M246 -183q3 17 9 29t13 22l16 22q8 10 16 24l15 27q4 16 11 25t13 22l21 47q0 2 4.5 5t9.5 6l11 6q5 2 6 4l9 43q3 12 10 20.5t15 16.5l15 16q8 7 13 16q4 4 11 14t13.5 20.5t11.5 20t6 13.5q1 3 11 23.5t23.5 44t28 42.5t24.5 19q29 33 49 77l37 81l61 86l31 68 q11 25 18.5 37.5t12 16.5t7.5 6q11 27 30 60l40 68l44 70l42 65l33.5 56t19.5 39q10 23 22.5 40.5t41.5 17.5q13 0 28 -3q13 -2 25 -10.5t27 -22.5l-10 -52q-2 -2 -9 -10.5t-9 -10.5q-10 -18 -12.5 -38.5t-13.5 -40.5q-6 -13 -16.5 -17.5t-24.5 -13.5q-4 -7 -6 -13.5 t-4 -24.5q-31 -50 -50.5 -77.5t-31 -40.5t-15.5 -15t-5 -1.5t1 -1t2 -11.5q-4 -16 -8.5 -25.5t-9 -15t-9 -9t-8.5 -7.5q-3 -5 -9 -13.5t-11.5 -18.5t-9.5 -20t-5 -17q-5 -26 -15 -42.5t-19.5 -26.5t-17.5 -16t-10 -10q0 -4 -6 -10.5t-8 -8.5q-6 -20 -14 -34.5t-18.5 -26 t-23 -22.5t-25.5 -24q-9 -9 -13.5 -20t-9.5 -20q-4 -32 -6.5 -44.5t-6.5 -19.5q-19 -13 -27 -29t-10 -18q-1 -3 -7 -7t-13 -8l-13 -6q-6 -3 -8 -3q-7 -7 -13 -24t-12 -36.5t-12 -36.5t-13 -24q-2 -3 -7 -6t-10 -6.5t-8.5 -6.5t-2.5 -5q2 -7 2 -11v-8q0 -6 -2 -9 q-5 -23 -19.5 -34.5t-22.5 -14.5q-9 -20 -11.5 -31t-14.5 -15q-1 -4 -1.5 -13t-5.5 -20q-2 -15 -5.5 -25.5t-9 -19t-14.5 -15.5t-22 -14q-7 -4 -10.5 -10.5t-5.5 -13.5l-2 -16q-2 -8 -5 -16q-8 -11 -13.5 -14.5t-10 -6t-8.5 -7.5t-8 -19l-59 -6q-6 2 -12.5 13t-11.5 24 t-8 24t-2 13zM962 99q-17 35 -26 57.5t-9 40.5q0 43 4 80t24 66l41 66q7 9 23 21t34.5 23t36.5 19t29 8q10 -3 16.5 -4t10.5 -1q5 0 8 1.5t5 3.5h30q23 0 39 -5t36 -21l39 -38l22 -11q12 -8 17 -18.5t7 -22.5t4.5 -23.5t10.5 -20.5q6 -9 11 -13l9 -7q4 -4 7 -9.5t5 -16.5 q1 -10 2 -33t1 -41q0 -5 -3 -14l-6 -20l-7 -19t-4 -8q-2 -7 -7 -19l-12 -24q-6 -12 -12.5 -23t-9.5 -15q-14 -6 -22.5 -13.5t-14.5 -14.5l-11 -13q-6 -6 -16 -9q-16 -10 -35.5 -12.5t-37.5 -9.5h-30q-42 0 -69.5 7.5t-49 22t-42.5 35.5zM977 240q0 -13 6.5 -34.5t17 -44 t23 -42t24.5 -28.5q14 -10 34.5 -18t43 -14t44 -9.5t36.5 -3.5q8 0 12 6.5t12 8.5q9 4 14.5 5.5t9.5 4t8 6t9 11.5q6 9 13 15l14 11q7 6 12.5 13t7.5 18q1 4 2 14t2 11q4 15 8 24t4 27q0 20 -3.5 35.5t-20.5 28.5q-2 8 -2.5 11.5t-0.5 5.5q0 20 -9 30l-24 26 q-14 20 -25 28.5t-23 11.5l-23 8q-12 3 -28 13h-57q-1 0 -16 -6.5t-24 -12.5q-17 -9 -35 -28t-32.5 -42t-24 -47t-9.5 -43zM165 679q-17 35 -26 57.5t-9 40.5q0 43 4 80t24 66l41 66q7 9 23 21t34.5 23t36.5 19t29 8q10 -3 16.5 -4t10.5 -1q5 0 8 1.5t5 3.5h30q23 0 39 -5 t36 -21l39 -38l22 -11q12 -8 17 -18.5t7 -22.5t4.5 -23.5t10.5 -20.5q6 -9 11 -13l9 -7q4 -4 7 -9.5t5 -16.5q1 -10 2 -33t1 -41q0 -5 -3 -14l-7 -20q-3 -11 -6 -19t-4 -8q-2 -7 -8 -19l-11 -24q-6 -12 -12.5 -23t-9.5 -15q-14 -6 -22.5 -13.5t-14.5 -14.5l-12 -13 q-5 -6 -15 -9q-16 -10 -35.5 -12.5t-37.5 -9.5h-30q-42 0 -69.5 7.5t-49 22t-41.5 35.5zM180 820q0 -13 6.5 -34.5t17 -44t23 -42t24.5 -28.5q14 -10 34.5 -18t43 -14t44 -9.5t36.5 -3.5q8 0 12 6.5t12 8.5q9 4 14.5 5.5t9.5 4t8 6t9 11.5q6 9 13 15l14 11q7 6 12.5 13 t7.5 18q1 4 2 14t2 11q4 15 8 24t4 27q0 20 -3.5 35.5t-20.5 28.5q-2 8 -2.5 11.5t-0.5 5.5q0 20 -10 30l-23 26q-14 20 -25 28.5t-22 11.5l-24 8q-12 3 -28 13h-57q-1 0 -16 -6.5t-24 -12.5q-17 -9 -35 -28t-32.5 -42t-24 -47t-9.5 -43z" />
<glyph unicode="&#x26;" horiz-adv-x="1539" d="M90 389q0 32 8.5 70.5t24.5 64.5q17 25 39 50.5t47 49t51 44.5t52 36q9 2 14 4t9.5 4.5t10 6t16.5 8.5q13 5 33 9t38.5 11t31.5 19t13 33q0 2 -13 15l-29 31l-32 33q-15 15 -18 20q-6 10 -23 31l-34 45q-18 24 -31.5 44.5t-13.5 26.5l5 22q2 5 3.5 23t3.5 29q2 27 9.5 47 t20 37t29.5 33l38 37q16 16 38.5 24.5t47.5 13t50.5 5.5t46.5 1q78 0 137.5 -33t97.5 -101q0 -2 3 -6.5t7 -9.5t7.5 -10t3.5 -7q0 -55 -11.5 -87.5t-31.5 -55.5t-46 -43.5t-54 -51.5q0 -9 13.5 -32.5t31 -48t34.5 -45t24 -23.5q5 -3 14 -6t18.5 -7.5t18 -10t13.5 -12.5 q14 -20 26 -46t27 -49t35.5 -38.5t50.5 -15.5q22 0 34 17.5t18 41.5t9 49t8 41q4 18 13.5 35t9.5 37q0 18 -17 38t-37.5 39.5t-37.5 37.5t-17 31v20q32 9 69 16t69 7h23q14 0 29 -1t28.5 -2t21.5 -4q2 0 7 -3l11 -8l11 -9q5 -4 7 -4q2 -1 5 -1q3 -1 9 -1q11 0 21.5 1.5 t21.5 3.5q8 5 19.5 8t19.5 3l27 -6q10 -7 21 -11t19 -8.5t13.5 -12t5.5 -21.5q0 -16 -6.5 -20t-17.5 -13q-6 -2 -18 -7l-26 -11l-25 -11q-12 -5 -18 -7q-4 1 -11 1h-15q-36 0 -60.5 -23.5t-42 -57t-30.5 -69t-26 -59.5q-9 -17 -21 -33.5t-23.5 -34.5t-19 -37t-7.5 -40 q0 -12 7.5 -24.5t17.5 -24.5t21 -23t18 -20l68 -83q35 -41 81 -73q14 -10 45 -19.5t62 -21.5t54.5 -29t23.5 -42q0 -48 -32 -71.5t-75 -23.5q-17 0 -30 0.5t-25.5 2t-27.5 4.5t-35 8q-18 11 -29 28.5t-30 30.5q-8 6 -19 10l-21 7q-11 3 -20.5 8t-13.5 13q-9 12 -17 33 t-18 41t-23.5 34.5t-33.5 14.5q-15 0 -38.5 -26t-49.5 -60l-51 -69q-26 -34 -47 -51q-36 -27 -67.5 -45.5t-64 -31t-67.5 -22t-77 -19.5l-55 -10q-30 0 -52.5 5t-43.5 13t-42.5 19t-49.5 22q-14 4 -21.5 4t-18.5 4q-14 10 -21 13.5t-12 4t-10.5 2t-15.5 8.5q-5 0 -5 5 l-20 29l-22 32q-10 17 -18 33t-11 29q0 2 -2 12.5t-3 22.5q-5 13 -6 23t-3 15l-19 33q-3 4 -5.5 14.5t-4.5 24t-3 28.5t-1 28v29zM355 221q8 -17 15.5 -30t17.5 -24t23.5 -19.5t33.5 -16.5q6 -1 10.5 -2t9.5 -1q9 0 20 -9l28 -23q10 -8 32 -8q38 0 71 9t67 22q2 2 9 3.5 t15.5 3t16 2.5t10.5 3l27 28q1 1 7 4l12 7l14 8l11 5l35 19q18 9 23 30l78 74q7 7 9.5 20.5t2.5 22.5q-18 13 -29 28t-20 30t-18 28.5t-23 24.5q-15 11 -27 27l-25 33l-25 31q-12 14 -25 22q-31 11 -54 30l-49 39q-22 19 -34 36l-24 32q-12 15 -27.5 27t-43.5 21 q-12 0 -29 -11t-37 -29l-41 -39l-42 -42l-36 -38q-17 -17 -27 -26q-13 -21 -20 -46t-12 -50.5t-9.5 -51t-12.5 -48.5q0 -11 3 -24t7 -26.5t8.5 -24.5t7.5 -17zM464 1107q0 -24 12 -51t31.5 -49.5t43.5 -37t48 -14.5q4 0 11.5 1t8.5 9v36q0 9 -1 13l-4 20q-1 8 -1 14 q0 11 2 15.5t6 9.5q11 13 11 26q0 23 -3.5 48.5t-14 46.5t-29.5 34.5t-50 13.5q-19 0 -32.5 -16.5t-22 -38.5t-12.5 -45t-4 -35z" />
<glyph unicode="'" horiz-adv-x="560" d="M81 756q2 12 9 23.5t16 22.5l18 22q9 10 14 19q25 33 47.5 69.5t49.5 68.5l31 33q4 4 11 25.5t14 46t12 47t5 28.5q0 36 -16 51t-40.5 20t-52.5 6t-52.5 10t-40.5 31t-16 70v9l17 23q11 10 11 21.5t5 24.5q4 15 18.5 27.5t33.5 22t39 14.5t37 5l24 -5q32 -11 63.5 -28.5 t59.5 -28.5q8 -13 21.5 -23t21.5 -17q14 -29 20 -57.5t6 -58.5q0 -11 6 -14t16 -11q7 -10 9 -24t2 -28v-26q0 -33 -9.5 -58.5t-18.5 -54.5q0 -2 -0.5 -9t-1.5 -15t-1.5 -15t-1.5 -9q-9 -32 -26 -57.5t-38 -48t-44 -43t-44 -42.5l-59 -58q-14 -13 -31.5 -20.5t-37.5 -11.5 t-40.5 -5t-39.5 -1q-7 0 -10 1.5t-7 8.5l-7 7z" />
<glyph unicode="(" horiz-adv-x="526" d="M336 -296q-1 21 -9.5 41t-20.5 39l-22 37q-12 19 -18 37l-26 80q-10 22 -25.5 42.5t-22.5 38.5l-31 142q-21 35 -27 69t-6 74v25q-19 30 -19 67q0 -1 2 12l5 28l4 28q2 13 3 13q0 19 -2.5 42.5t-4.5 44.5q-4 23 -5.5 46.5t-1.5 50.5l19 40q3 44 8 84t11 79t13.5 78.5 t17.5 83.5q8 36 26.5 68t35.5 70q2 2 4 15.5t2 17.5l20 36l14 23q5 8 7.5 13t3.5 7.5t1 7.5q5 4 6 14.5t6 24.5q2 5 8 10l14 10q7 5 13 10t9 10q4 4 8.5 14.5t8.5 22.5l9 22q4 11 7 14q1 0 11 1.5t14 3.5q14 8 26 18t24.5 18.5t27 14.5t33.5 6q7 0 15.5 -1t16 -5t12.5 -10.5 t5 -16.5q0 -22 -18 -39.5t-41.5 -32.5t-46.5 -28t-34 -26q-23 -26 -41.5 -64t-34.5 -80t-28.5 -84t-23.5 -75q-7 -20 -14 -38l-13 -35q-7 -17 -12 -35.5t-8 -40.5v-31q0 -5 -0.5 -13t-1.5 -16t-2 -15t-1 -9t-5.5 -9t-10.5 -9q-5 -11 -6 -21.5t-1 -26.5v-31q0 -11 -2 -21.5 t-7 -16.5v-78l-5 -38q7 -24 10 -47.5t5 -47.5t5 -48t11 -49q2 -2 6.5 -12.5t4.5 -11.5q5 -38 4.5 -73t10.5 -73l56 -190q4 -11 11 -19l13 -15q6 -7 11 -16t5 -23l58 -133q13 -7 21 -19.5t13 -27.5l10 -28q5 -14 12 -25l26 -28q5 -5 10.5 -14t10 -21t7.5 -24.5t3 -23.5 q0 -4 -2 -19t-3 -19q-27 0 -55 19t-53 45t-47 53t-37 42z" />
<glyph unicode=")" horiz-adv-x="521" d="M-33 -424q11 26 25.5 39.5t19.5 22.5q0 2 2 10.5t3 10.5l30 31q0 16 5.5 28t9.5 19l26 31l15 19l8 9l3 3q13 33 34 71l43 78q21 39 37 77t19 70v52l30 55q16 64 21 130t5 132v40q0 18 -1 35l-2 36q-1 18 -4 39q-3 18 -9 35l-11 34q-5 17 -9 34.5t-4 36.5l14 54q0 9 -4 17 t-9 16l-10 17q-5 8 -7 19q0 3 -1 9l-2 13q-1 6 -1.5 12t-0.5 8v26l-22 24v36q-4 21 -15 32.5t-16 28.5l-19 64q-2 3 -6 10t-8.5 16t-9.5 18l-8 13q-9 14 -12 28.5t-12 31.5q-17 28 -40.5 57.5t-44.5 61t-35.5 64t-14.5 66.5q0 9 19 9q22 0 37.5 -8t27.5 -20.5t22 -27.5 l21 -30q8 -10 18 -18l20 -16q11 -8 21 -18t18 -23q10 -17 15 -40t17 -41l57 -109q0 -11 2.5 -18.5t6 -14t7.5 -13t8 -15.5l38 -101l33 -99q2 -5 4.5 -18.5t2.5 -18.5v-50q4 -23 14.5 -44t12.5 -49q7 -55 10.5 -114t3.5 -113q0 -21 -6 -46.5t-6 -41.5l-14 -152 q-1 -2 -4.5 -10.5t-5.5 -12.5v-34l-31 -99v-42q-7 -38 -26.5 -69t-32.5 -66q-3 -11 -6 -26l-7 -30q-4 -15 -8 -28.5t-10 -20.5l-31 -31l-7 -24q-2 -9 -15.5 -28t-33 -42.5t-43.5 -48.5t-47.5 -45.5t-44 -33.5t-34.5 -13q-21 0 -28 6.5t-7 27.5z" />
<glyph unicode="*" horiz-adv-x="1012" d="M344 751q0 20 5 39t10.5 38t10.5 38t5 39h-8q-2 0 -14 -9l-27 -21l-31 -26l-25 -22q-3 0 -10.5 -8.5t-8.5 -10.5q-5 -2 -16 -8l-21 -11l-21 -12q-9 -5 -12 -7h-10q-9 0 -16 5.5t-12 14t-7.5 18.5t-2.5 19q0 23 6.5 33.5t17 15.5t24.5 7.5t28 10.5q2 1 6 5l10 10 q5 5 9 9.5t5 5.5q3 3 14 11l25 18l25 18l15 10q0 2 3.5 9t3.5 12v5v3q0 3 -2.5 6t-4.5 5l-31 -5q-13 -2 -25 -3.5t-24.5 -2t-28.5 -0.5q-12 0 -36 3.5t-48 11t-41.5 19t-17.5 27.5q0 13 17.5 25t40 21.5t45 15t31.5 5.5q35 0 70.5 -6t70.5 -6h45q-9 21 -24 36.5t-33 29 t-37 26t-34 26.5q-5 4 -16 14l-23 23l-23 22q-10 11 -15 15q-6 9 -8 17.5t-2 17.5v19v34q7 16 17 18.5t21 2.5q20 0 38 -9t30 -20l185 -185q6 1 8 8.5t2 13.5v12q0 21 -5 39t-5 41q0 32 1.5 63t8.5 65q1 8 8.5 18.5t17.5 19.5t21.5 15t20.5 6q3 -3 7 -5q6 -5 12 -6 q12 -7 22.5 -12.5t18.5 -12t12.5 -15.5t4.5 -24q0 -26 -7.5 -51.5t-17.5 -51.5l-19 -51q-10 -26 -14 -53v-37q-2 -9 -7 -15l-10 -10q-5 -5 -9 -10.5t-4 -14.5q0 -5 2.5 -17t11.5 -12h5q2 4 5 16t6 13q9 17 26.5 42.5t40 53.5t48.5 56t52 50.5t51 36.5t45 14q10 0 21.5 -2.5 t21 -7.5t15.5 -13.5t6 -21.5v-4q-12 -35 -28.5 -66.5t-39.5 -57.5q-2 -4 -9.5 -11t-9.5 -12q-6 -4 -28 -21l-46 -35l-45 -36l-26 -20q-9 -9 -9 -10q0 -2 1 -5t1 -9q22 0 39.5 -3.5t39.5 -3.5q20 0 33 6t33 6q21 0 47.5 -1t50 -8.5t39 -23t15.5 -43.5q0 -41 -29 -61.5 t-68 -20.5q-20 0 -38.5 8.5t-38.5 12.5q-32 7 -52.5 9.5t-49.5 2.5q-4 0 -14 -2q-4 -1 -9 -1l-10 -19l107 -106q13 -14 21 -38.5t8 -42.5q0 -14 -4 -29t-11.5 -27t-20 -19.5t-28.5 -7.5q-27 0 -50.5 18t-44 45t-37.5 58l-30 58q-13 27 -23 45t-17 18q-2 0 -3.5 -1t-3.5 -1 q-2 -1 -4 -3q-3 -3 -3 -5v-154q-1 -15 -4 -35t-10.5 -38t-20 -30.5t-32.5 -12.5q-30 0 -45.5 10.5t-22 28t-8 40t-4.5 45.5v11z" />
<glyph unicode="+" horiz-adv-x="1153" d="M122 699q11 11 33 16.5t50 5.5q20 0 27 -1t12 -4h151q34 0 58.5 3.5t33.5 12.5q17 17 17 71l-19 235q0 26 4 48t15 33q16 14 50 14q23 0 44 -6.5t32 -17.5l28 -61q1 0 2 -2t2.5 -9t3 -21.5t4.5 -39.5q-8 -3 -16 -11q-8 -11 -11.5 -21t-3.5 -24q0 -23 3.5 -50.5t8.5 -47.5 q2 -14 2.5 -18t0.5 -8q0 -16 -1.5 -32t-1.5 -27q0 -2 1 -2q0 -1 1 -1q6 -7 8 -7q34 0 71.5 8.5t68.5 8.5q16 0 28 -3t23 -7h154q4 0 12 -3t10 -4q9 -11 9 -30v-76l-18 -19q-33 -33 -89 -33q-45 0 -91 10.5t-84 12.5l-23 -9l-62 -5q-5 -9 -9 -26.5t-7 -39.5t-4.5 -46.5 t-1.5 -46.5q0 -23 2 -41t6 -34q3 -9 4 -17t1 -12t-2.5 -17.5t-2.5 -15.5l4 -48q0 -12 -2.5 -19t-6.5 -11q-14 -10 -45 -10q-26 0 -49 6t-31 11q-13 24 -18 53t-7 60.5t-4.5 64t-9.5 63.5l20 77q0 5 -1 10.5t-6 10.5q-10 9 -20.5 14t-24.5 5q-17 0 -33.5 -4t-36.5 -4h-20 q-6 0 -10 1q-4 7 -24 7l-24 -2q-16 -4 -32.5 -5t-33.5 -1t-33 1t-33 5q-16 0 -26.5 3.5t-21.5 17.5q-7 12 -9.5 26.5t-2.5 34.5q2 31 4.5 39.5t2.5 10.5z" />
<glyph unicode="," horiz-adv-x="545" d="M94 -472q0 16 16 44t36.5 58t40.5 56l30 37l21 12q12 13 20 29l15 32l16.5 31.5t19.5 28.5q5 8 6 14.5t1 11.5v25q0 38 -17 57t-43 27.5t-56 12.5t-56 11.5t-43 24.5t-17 52q0 19 8 46.5t23 53t36 44t47 18.5q8 0 22 -1l28 -2l33 -2q6 0 16 -5.5t20 -12.5l19 -14 q9 -7 12 -8q23 -15 35 -21.5t19 -12.5t12 -14.5t14 -27.5l9 -12q14 -26 30 -47t16 -48v-26q0 -13 -3 -26q-2 -16 -3.5 -29.5t-1.5 -29.5v-26q-16 -26 -20.5 -53t-10.5 -54q-6 -24 -21 -42.5t-32 -35t-32 -33.5t-21 -38l-121 -123q-5 -5 -17.5 -7.5t-18.5 -2.5h-25 q-10 0 -21 0.5t-20 3t-15 8t-6 16.5z" />
<glyph unicode="-" horiz-adv-x="951" d="M625 372l-12 2l-79 -14q-23 0 -43.5 7t-43.5 7q-19 0 -35 -6q-19 -8 -41 -8q-39 0 -77 8.5t-77 8.5q-38 21 -53.5 40t-15.5 45q0 25 8 47.5t23 39t36.5 26.5t48.5 10l53 -5h25h13q6 0 14 1q12 2 25.5 3t24.5 1h33q12 0 23 -0.5t22 -4.5q9 -2 18 -3t17 -1h69q9 0 17.5 1 t17.5 3q13 6 21 8t18 2q18 0 39.5 -2.5t40.5 -9.5t32 -19.5t13 -32.5q0 -30 -7 -60.5t-23 -55t-41.5 -40t-61.5 -15.5h-4q-2 0 -7 3l-12 6l-12 6q-5 2 -7 2z" />
<glyph unicode="." horiz-adv-x="439" d="M97 142q0 60 26 91.5t89 31.5q21 0 37 -7l33 -14q22 -11 33.5 -21t17 -22.5t6.5 -28.5t1 -39v-59q-2 -8 -11.5 -20.5t-22 -24.5t-25.5 -20.5t-22 -8.5q-35 7 -64.5 16t-51 24t-34 39.5t-12.5 62.5z" />
<glyph unicode="/" horiz-adv-x="698" d="M25 7q3 17 9 29t13 23l16 21q8 10 16 24l15 27q4 16 11 25t13 22l21 47q0 2 4.5 5t9.5 6l11 6q5 2 6 4l9 43q3 12 10 20.5t15 16.5l15 16q8 7 13 16q4 4 11 14t13.5 20.5t11.5 20t6 13.5q1 3 11 23.5t23.5 44t28 42.5t24.5 19q29 33 49 77l37 81l61 86l30 68 q12 25 19.5 37.5t12 16.5t7.5 6l21 35q5 15 11 24.5t13 17.5l14 17q8 8 17 22q31 43 54 89t48 91q9 18 21.5 33t26.5 35q3 4 10 18l17 29q9 16 17 33t13 29q10 23 22.5 40.5t41.5 17.5q13 0 28 -3q13 -2 29 -10.5t23 -22.5l-10 -52q-2 -2 -9 -10.5t-9 -10.5 q-10 -18 -12.5 -38.5t-13.5 -40.5q-6 -13 -16.5 -17.5t-24.5 -13.5q-4 -7 -6 -13.5t-4 -24.5q-5 -12 -15.5 -24t-22.5 -23l-24 -22l-20 -20q-21 -21 -21 -31v-1l-10 -30q-11 -26 -26 -48t-31 -35q-2 -9 -2 -16t-1 -12q-4 -16 -8.5 -25.5t-9 -15t-9 -9t-8.5 -7.5 q-3 -5 -9 -13.5t-11.5 -18.5t-9.5 -20t-5 -17q-5 -26 -15 -42.5t-19.5 -26.5t-17.5 -16t-10 -10q0 -4 -6 -10.5t-8 -8.5q-6 -20 -14 -34.5t-18.5 -26t-23 -22.5t-25.5 -24q-9 -9 -13.5 -20t-9.5 -20q-4 -32 -6.5 -44.5t-6.5 -19.5q-19 -13 -27 -29t-10 -18q-1 -3 -7 -7 t-13 -7l-13 -7q-6 -3 -8 -3q-7 -7 -13 -24t-12 -36.5t-12 -36.5t-13 -24q-2 -3 -7 -6t-10 -6.5t-8.5 -6.5t-2.5 -5q2 -7 2 -11v-8q0 -6 -2 -9q-5 -23 -19.5 -34.5t-22.5 -14.5q-9 -20 -11.5 -31t-14.5 -15q-1 -4 -1.5 -13t-5.5 -20q-2 -15 -5.5 -25.5t-9 -19t-14.5 -15.5 t-22 -14q-7 -4 -10.5 -10.5t-4.5 -14.5l-4 -15q-1 -8 -4 -16q-8 -11 -13.5 -14.5t-10 -6t-8.5 -7.5t-8 -19l-59 -6q-6 2 -12.5 13t-11.5 24t-8 24t-2 13z" />
<glyph unicode="0" horiz-adv-x="1006" d="M169 180q-29 59 -43.5 96t-14.5 68q0 72 7 132.5t39 109.5l69 111q11 14 37.5 34.5t57.5 39t61.5 31.5t48.5 13q17 -5 27.5 -7t17.5 -2q9 0 13.5 3t8.5 6h50q37 0 65 -8.5t60 -34.5l64 -63l38 -19q20 -13 27.5 -31t11.5 -37l8 -39q4 -20 17 -35q11 -15 19 -21.5 t14.5 -12.5t11.5 -15t9 -28q0 -8 1 -22.5t2 -32t1.5 -35t0.5 -32.5q0 -8 -4.5 -24.5t-10.5 -33.5t-11.5 -30.5t-6.5 -14.5q-3 -11 -13 -31l-20 -40l-20 -39q-10 -18 -16 -25q-24 -11 -37.5 -23t-23.5 -23l-19 -22q-10 -10 -26 -15q-14 -8 -29 -12.5t-31 -7.5l-32 -7 q-16 -4 -31 -10h-50q-69 0 -115 13t-82.5 37.5t-70.5 59.5zM194 415q0 -22 11 -58t28 -73.5t38.5 -70t41.5 -47.5q23 -16 57.5 -29.5t71.5 -23.5t72.5 -15.5t61.5 -5.5q7 0 11.5 3t8.5 7t8.5 8t11.5 6q14 6 23.5 9.5t16.5 7t13.5 10t15.5 18.5q9 15 21 25l23 19 q11 10 20.5 21.5t13.5 29.5q1 3 2 10t1.5 13.5t1.5 12t2 6.5q3 13 6.5 22.5t6.5 18.5t5 19.5t2 25.5q0 32 -6 58.5t-35 47.5q-4 13 -4.5 19t-0.5 10q0 16 -4 27.5t-11.5 21.5t-17.5 20t-21 24q-23 33 -42 47t-37.5 20.5t-39 12t-47.5 22.5h-95q-1 0 -8.5 -3t-17.5 -8 l-22 -10q-11 -6 -18 -11q-29 -15 -58.5 -47t-54.5 -70.5t-40.5 -78.5t-15.5 -71z" />
<glyph unicode="1" horiz-adv-x="763" d="M110 36q0 20 11 32t28.5 18t39.5 9l41 6q20 3 36 8.5t24 16.5q3 7 7.5 19t8.5 24.5t7 24.5t3 19l-26 131q0 7 4 21l7 31q3 16 6.5 29t3.5 16l-21 184q0 10 3.5 18.5t8.5 19.5q-22 23 -44 38t-46 26q-15 5 -35 8.5t-38 9.5t-30.5 17.5t-12.5 31.5q0 12 7.5 19t18 10.5 t21.5 4.5t19 1l106 -7q13 0 20 1t23 6q22 -3 42 -5t41 -2q17 0 35.5 1t38.5 6q8 7 25 12t36.5 8t39 4.5t31.5 1.5q8 0 20 -1t23.5 -4.5t19.5 -10.5t8 -19q0 -25 -16.5 -40t-39.5 -24t-47.5 -14t-40.5 -10q-7 -3 -13.5 -11t-12 -18t-10.5 -21l-9 -18l-14 -188l18 -142 l-18 -26q0 -2 3.5 -11.5t5.5 -11.5v-1q0 -12 -4.5 -24t-4.5 -26q0 -24 9.5 -41.5t13.5 -40.5q3 0 11 -1.5t18 -2.5l20 -3l15 -3l26 -14l39 -23.5t35.5 -26.5t15.5 -26v-2q-2 -11 -9.5 -21t-18.5 -20l-142 -6q-1 2 -7.5 4t-7.5 2q-5 1 -12 1h-16h-45q-48 0 -98.5 -1.5 t-95.5 -8.5l-19 -10q-31 0 -54.5 14t-35.5 32z" />
<glyph unicode="2" horiz-adv-x="961" d="M92 12q1 5 7 21l12 26q4 6 15.5 13t24.5 14l27 14q13 6 19 11q17 13 35 24l38 21q19 11 37.5 23t34.5 27q31 27 65 66t62 83.5t46 91.5t18 91q0 21 -10 41t-26.5 35.5t-38 25.5t-45.5 10l-38 -13h-38q-9 0 -19 -1.5t-19 -12.5q-15 -11 -27 -29.5t-24.5 -35.5t-27.5 -29.5 t-37 -12.5q-11 0 -22 1.5t-18 10.5v29q0 27 4.5 40t12.5 21t19 15.5t23 25.5l14 17q23 30 48.5 57t65.5 39l76 10l49 10q24 0 56.5 -4t66 -13t63.5 -24t49 -37q7 -9 12 -20t9 -12l31 -51v-115q0 -19 -13.5 -34.5t-24.5 -29.5q-1 -1 -2 -4t-4 -11l-8 -22q-5 -14 -14 -36 q-1 -2 -2 -3q-2 -2 -3 -2q-11 -7 -16 -15t-8.5 -16.5t-7.5 -17t-13 -15.5q-11 -9 -21 -13.5t-20.5 -7t-21 -4.5t-20.5 -8q-1 0 -7.5 -5.5l-14.5 -12.5l-14 -13q-7 -6 -9 -7q-1 0 -9 -5t-17 -12l-17 -13q-8 -6 -9 -7q-5 -4 -14 -13t-17.5 -19t-14.5 -20t-6 -15t6 -5h32 q26 0 48 -2.5t42 -11.5h51q53 0 107 8t102 30q9 5 10 12t5 14q14 17 35 30t42 24l15 -51q0 -17 -7.5 -34.5t-18.5 -37.5q-3 -7 -6 -25t-9 -37t-16 -34t-26 -15l-17 -2q-39 -5 -76.5 -11t-75.5 -6q-12 0 -23.5 4t-22.5 9t-22 9t-22 4q-21 0 -46.5 -3t-42.5 -7 q-4 0 -12.5 -5.5t-13.5 -10.5l-91 26q-12 0 -23.5 -7t-25.5 -9q-19 -2 -36 -3l-34 -4l-35.5 -2t-41.5 -1q-17 0 -35 5.5t-18 22.5v3z" />
<glyph unicode="3" horiz-adv-x="765" d="M49 -337q0 19 2 30.5t8 18t17.5 10t30.5 8.5l26 10q16 7 25 7q15 0 29 -7.5t27.5 -16.5t28.5 -16.5t32 -7.5q24 0 46.5 8.5t42 23t35.5 33.5t27 39q2 4 3.5 16t1.5 17q4 4 9.5 6.5t10.5 5.5t9 7.5t4 13.5v100q0 6 -4.5 15t-10 18t-11 15.5t-7.5 8.5q-16 22 -33.5 38.5 t-37 31t-40.5 28.5l-41 28q-1 2 -4.5 6.5t-8 9.5t-8.5 8.5t-7 3.5q-11 0 -23 -4.5t-24 -9.5t-24 -9.5t-22 -4.5q-12 0 -23.5 14t-11.5 26q0 21 17 35.5t39.5 25t45.5 17.5t36 12q1 1 5 6l9 10q5 5 10 9.5t8 5.5q10 9 21 16l22 13q11 7 21 15t17 20l12 17q27 44 50 90t23 96 q0 2 -6 9t-15 16t-18 19.5t-15 19.5q-9 15 -27.5 19.5t-34.5 4.5q-37 -12 -62 -19t-58 -7l-46 2q-16 1 -21 15.5t-5 25.5q0 23 5 28l26 14q21 11 33.5 27t30.5 31q18 12 39.5 21t44.5 15.5t46.5 9.5t45.5 3q21 0 37 -9l38 -19q35 -13 57 -25.5t35.5 -29.5t22 -40t16.5 -57 q2 -11 6.5 -21.5t4.5 -21.5q0 -22 -7.5 -49.5t-19.5 -55.5t-27.5 -53t-30.5 -43q-7 -10 -16 -15t-18 -8l-19 -8q-9 -4 -16 -12q-16 -16 -20.5 -31t-16.5 -28q-20 -7 -20 -28q0 -4 0.5 -4.5t0.5 -2.5q6 -13 24 -29l40 -33l42 -32q20 -16 29 -27q3 -29 12 -48l19 -38 q10 -18 17.5 -38.5t7.5 -53.5q0 -11 -2 -32t-5.5 -44t-8 -43t-9.5 -28l-26 -33q-6 -7 -10.5 -17t-8.5 -20t-9 -20t-13 -17q-26 -28 -72 -61t-99 -61t-106 -46.5t-92 -18.5q-17 0 -29 13l-23 27q-14 8 -24.5 16t-18 18t-11.5 23t-4 33z" />
<glyph unicode="4" horiz-adv-x="1004" d="M440 -310l19 54l-7 62q0 21 4 39l10 37q5 21 8.5 41t3.5 41q0 9 -10.5 19.5t-15.5 14.5l-114 5q-14 0 -33 -1t-40 -5q-23 -5 -42 -8t-39 -3l-38 9q-2 0 -7.5 -2.5t-16.5 -6.5q-9 0 -13.5 3t-8.5 6.5t-10 6.5t-18 3q-14 0 -19 -2q-7 16 -9 27t-2 27q0 21 2 32t9 25 q45 63 85 127l79 129l22 38q5 7 11 10l12 5q6 2 12 5t12 11q2 5 3.5 14.5t1.5 13.5l8 8l12 12q7 6 12.5 12.5t5.5 9.5l14 36l19 17l8 16l13 24l15 24q7 11 11 16q0 2 1.5 10.5t3.5 8.5l54 55q0 5 1.5 8.5t3.5 7.5q0 1 1.5 5.5t3 10t3.5 10t2 5.5l32 33q13 16 21 29t17 22 t22 13.5t36 4.5q17 0 27 -24t15.5 -55t7 -61t1.5 -43l-2 -47q-13 -16 -15 -28t-2 -29t5 -26t5 -24l-9 -71v-18l9 -31l-14 -180q0 -14 3 -28t23 -17q17 -2 33.5 -2.5t33.5 -0.5t35 0.5t36 2.5q16 14 31.5 16t36.5 2q10 0 29.5 -6.5t39 -17t34.5 -24t15 -27.5q0 -25 -5.5 -49 t-18 -42.5t-32.5 -30t-48 -11.5q-11 0 -21 2.5t-20.5 5.5t-23.5 5.5t-29 2.5q-11 -2 -23 -3t-25 -1q-19 0 -37.5 -2t-33.5 -9.5t-24 -21.5t-9 -38q-2 -4 -2 -11v-15v-81v-16q0 -8 2 -13q-7 -13 -7 -30q0 -13 6.5 -18.5t10.5 -21.5q6 -36 6 -69q0 -37 -6 -67q0 -9 -9.5 -21 t-22 -23t-25 -19t-17.5 -8q-9 0 -18 9.5t-20 11.5q-33 7 -47.5 14.5t-20 19.5t-7.5 29.5t-10 46.5zM233 190q0 -12 9 -19t22 -10t28.5 -3.5t29.5 -0.5q12 0 42.5 3t63 9.5t57 16t24.5 23.5q0 12 -1.5 32t-3.5 40l-4 34q-1 15 -1 17l-9 17q-1 8 -1 19v23q0 18 -3 37.5t-10 35 t-19 26t-31 10.5q-17 0 -34 -14.5t-32 -35t-27 -41.5t-21 -34l-66 -133q-9 -18 -11 -27t-2 -25z" />
<glyph unicode="5" horiz-adv-x="742" d="M95 -375q0 26 16 54t43 39q42 38 77.5 75.5t56.5 76.5q8 14 8 37q0 9 2 17.5t3 14.5l19 51q0 9 1 12t1 8t2.5 8.5t6 7.5t6 10.5t2.5 18.5l-5 42l11 54q0 7 -9 23t-22 34l-26 35l-23 29q-2 1 -3 3.5t-4 4.5l-2 4q-5 7 -20 18l-31 24l-29 24q-14 12 -16 20l-6 31l-14 24 q-6 11 -10 20.5t-6.5 21t-2.5 28.5q0 13 0.5 23.5t2.5 20t5.5 21t9.5 26.5q-2 5 -3.5 12t-1.5 11q0 23 5 39.5t12.5 30.5t17 27t18.5 29v26l31 33l28 33q11 14 24.5 22t31 11t44.5 3q22 0 45.5 -4t47.5 -9.5t47.5 -9.5t44.5 -4q25 0 46.5 12.5t39.5 27.5l33 28q14 13 25 13 q4 0 6 -4t3 -10t1 -12v-10v-2l-11 -47l-9 -33q-4 -15 -7 -17q0 -5 -4.5 -11t-6.5 -10l-19 -19q-5 -10 -7.5 -24t-7 -27t-13 -22.5t-24.5 -9.5q-38 0 -71.5 6.5t-65.5 15t-64.5 15t-66.5 6.5h-46q-16 -5 -24.5 -24t-8.5 -36q0 -7 23 -33t53 -57l36 -36q17 -20 33 -41.5 t24 -35.5q9 -22 26 -41t33 -42l16 -39q19 -16 22.5 -21.5t3.5 -10.5q0 -17 2 -31t13 -19v-43l-8 -97l8 -26q0 -8 -1 -20t-3 -25t-4.5 -25.5t-5.5 -20.5l-22 -25q-5 -8 -7 -19.5t-3.5 -24t-4 -25t-6.5 -22.5q-10 -17 -29 -46t-44 -62l-54 -68q-28 -34 -56.5 -61.5t-55.5 -45 t-48 -17.5q-11 0 -24.5 4.5t-24.5 12.5t-18.5 20t-7.5 26z" />
<glyph unicode="6" horiz-adv-x="864" d="M101 337q0 39 10 79.5t16 76.5q5 5 7 17q10 18 17 39l14 41q7 21 16 43t24 43q12 21 25.5 36.5t24.5 26.5q16 13 27.5 25.5t21 26t19 28.5t22.5 32l47 42l12 27q1 1 11 8l24 16l30 18q16 9 29 15q11 5 15.5 8t6.5 5q2 0 7 1.5t11 3.5l11 4q6 2 9 4q10 10 17 19t13.5 16.5 t14 15t19.5 15.5l46 20q25 10 46 22q12 10 20 19t17 15.5t19.5 10t26.5 3.5q12 0 29 -1t32 -5.5t25.5 -14.5t10.5 -27q0 -14 -4.5 -22t-12 -13.5t-17.5 -9.5t-20 -9q-11 -13 -19 -29.5t-24 -24.5q-4 -1 -15 -5t-20 -12l-29 -14q-17 -11 -26.5 -24.5t-25.5 -27.5 q-12 -11 -29.5 -23t-33.5 -25.5t-27.5 -30t-11.5 -35.5q-13 -9 -28 -14l-30 -12q-15 -6 -29 -15t-25 -26q0 -2 -2 -13.5t-4 -12.5l-10 -12q0 -3 16 -7l39 -10l43 -11q21 -5 30 -10l38 -22q17 -11 31.5 -23t28.5 -26t30 -33q6 -5 15 -27t18 -47t15 -47t6 -28q-2 -26 -4.5 -37 t-2.5 -13q1 -12 2 -20t1 -15q0 -13 -1.5 -19t-1.5 -10q0 -21 -4.5 -39t-16.5 -39q-21 -32 -35 -59t-34 -57q-2 -2 -5.5 -3.5t-3.5 -3.5q-2 0 -12.5 -1.5t-15.5 -3.5l-7 -7l-11 -11q-6 -6 -11 -11.5t-7 -8.5q-5 0 -15 -0.5t-21.5 -1.5t-21.5 -2.5t-13 -4.5q-11 -2 -19 -7 l-15 -11q-7 -6 -15 -10.5t-20 -4.5q-22 0 -39.5 3.5t-34 9.5t-33.5 14l-35 15q-2 0 -10 2t-17.5 4t-17.5 4t-9 2q-12 2 -25.5 12.5t-26.5 24.5l-25 26q-11 13 -18 20q-2 1 -6.5 16t-9.5 34l-10 35q-5 17 -7 22q0 4 -2.5 13t-5.5 18.5t-6 17.5t-6 10q-2 11 -4 13t-2 11z M217 336l6 -25q2 -5 6 -18.5t10.5 -32.5t15.5 -41.5t21 -43.5q11 -23 31 -42.5t44 -30.5q1 -2 4 -2h8h64q11 2 22 6.5t18 9.5q2 2 11 10t19 18l18 19q9 9 10 12q23 19 37 40t21.5 44.5t10 51t2.5 59.5q0 17 -3 29.5t-8 24.5t-11 24.5t-11 28.5v33q-10 25 -24 34.5t-34 17.5 q-8 3 -20 12l-24 19q-13 10 -26.5 18.5t-26.5 11.5q-8 0 -23 -2t-31 -5.5t-29 -10t-16 -15.5l-66 -128l2 -16q0 -10 -1 -22l-1 -24q0 -12 -1.5 -21t-3.5 -12q0 -2 -4 -7l-7 -10q-3 -5 -7 -9z" />
<glyph unicode="7" horiz-adv-x="958" d="M497 -467l-7 9l7 32q-5 11 -5 30q0 10 5 21l-7 31q13 23 24 47.5t18 49.5l17 57q5 23 18.5 45t17.5 45q4 34 14 60t19 61q4 11 5.5 17t1.5 14q0 5 -2 9t-2 13l4 23l2 6q2 7 3 8q3 2 8 7l10 12q6 6 10 11.5t5 7.5l9 31q10 31 20 66t30 62v26q0 25 4 48t9 46l10 48 q5 25 8 55q0 25 -10 41t-25.5 24.5t-35.5 11.5t-40 3h-74l-82 8q-39 4 -83 4h-17l-12 8h-161q-13 0 -22 -21.5t-21 -47.5t-30 -47.5t-48 -21.5q-5 0 -5 9l2 24q0 19 3 34.5t6.5 28.5t7 24.5t3.5 23.5q3 14 4 44t6.5 60.5t18.5 53.5t39 23q12 -2 17 -5t7 -7.5t4 -9.5t8 -11 q1 -1 18.5 -5.5t39 -9t40 -8t23.5 -3.5t9.5 1t9.5 3t9 2h12q21 0 41.5 -4.5t41.5 -6.5q37 -1 71 -5.5t68 -4.5q19 0 41 7q18 3 38 3q11 0 16 -2t19 -13h109q3 0 8.5 -3.5t11 -8.5t9.5 -10t4 -8q0 -18 -3.5 -34.5t-8 -32t-8 -30.5t-3.5 -29l9 -67q-5 -23 -9.5 -51.5 t-10.5 -57t-16.5 -54.5t-27.5 -45v-83q-12 -14 -19 -31t-21 -33q-4 -7 -10.5 -16t-6.5 -14l12 -34q-1 -2 -4.5 -7.5t-8.5 -11.5l-9 -12q-4 -5 -6 -7q-8 -13 -9 -27.5t-2.5 -28t-6.5 -25.5t-20 -20v-17q0 -15 -2 -34t-5 -38l-6 -36q-3 -17 -6 -30q0 -7 -5 -12 q-11 -20 -15.5 -38.5t-6 -37.5t-1.5 -39t-3 -41q-4 -18 -16 -32t-17 -30l-5 -18q-8 -20 -17.5 -28t-41.5 -8q-15 0 -19 14z" />
<glyph unicode="8" horiz-adv-x="803" d="M481 644q14 -21 28.5 -36t29.5 -28l30 -27q16 -14 33 -32l19 -31l24 -21q8 -12 16.5 -38.5t15.5 -56.5t11.5 -57t4.5 -40q0 -16 -1 -37t-4.5 -43t-10 -41.5t-18.5 -32.5q-29 -33 -57 -57.5t-59 -41t-67.5 -25t-83.5 -8.5q-70 0 -132.5 27.5t-107.5 83.5q-9 30 -23.5 60.5 t-14.5 62.5q0 22 7 44.5t17 43.5t22 41l23 39q9 18 13 35.5t20 33.5q10 12 24.5 25t27.5 27t22 30.5t9 35.5q0 15 -11 32t-27 33t-35 31l-33 25q-5 4 -18 32l-26 59q-14 32 -24.5 61t-10.5 38q0 64 14.5 122t46 102t81 70t119.5 26q48 0 92 -8t90 -28q21 -13 40 -37.5 t35 -54t27 -60.5t14 -58q0 -27 -12.5 -64t-31 -73.5t-40 -69t-39.5 -50.5q-4 -6 -16 -14l-23 -15q-12 -8 -21 -17t-9 -18zM299 128q21 -23 51.5 -41t64.5 -18q24 0 45 12.5t37 31.5t25 42.5t9 45.5q0 14 -6 26.5t-6 28.5q0 2 1 7.5t6 15.5q4 6 7 14.5t5 12.5 q0 19 -15.5 50.5t-38 61t-48 51t-44.5 21.5q-40 0 -62.5 -22t-34.5 -54t-17 -68t-10 -64q-2 -4 -3.5 -15.5t-1.5 -15.5t5 -16.5t7 -16.5q1 -5 5 -17t8 -26l7 -28q4 -13 4 -19zM268 958q0 -25 10 -65t28.5 -78.5t44 -66t55.5 -27.5q5 0 16 1t22 6q0 2 0.5 8.5t1.5 12.5l2 13 q1 6 1 8t3 6l7 10q4 6 8 10.5t7 6.5q1 4 8 18.5t9 22.5l7 14l11 20l10 19q5 8 5 10q0 17 -6.5 35t-10.5 35q-4 21 -7 40.5t-8 37.5t-13.5 34t-23.5 30q-7 4 -16 11t-18 13l-16 10q-7 5 -9 6h-23q-38 0 -59.5 -20t-31.5 -50.5t-12 -65.5t-2 -65z" />
<glyph unicode="9" horiz-adv-x="894" d="M-23 -223l14 19q0 3 1 9.5t2 14t1.5 13.5t0.5 8q4 11 9 16t10 8t11 7t13 12q5 6 6.5 12t2.5 11.5t3.5 10.5t8.5 9q27 9 46.5 27t45.5 34l121 55q12 16 38 35l51 41q26 21 46 42.5t20 42.5q0 2 -23 8l-52 16q-30 9 -57.5 19t-36.5 19q-45 35 -75.5 66t-49.5 66t-27.5 78.5 t-8.5 104.5q0 35 13.5 70t35 66.5t48.5 58.5t54 47q11 9 22 14.5t22.5 10.5t22 11t21.5 16q23 5 46 7t49 2q21 0 42.5 -2t43.5 -7q5 -1 9.5 -5t8.5 -8l59 -11q19 -6 39 -17.5t38 -26.5t32 -33.5t22 -39.5q0 -5 1.5 -18.5t3.5 -14.5l24 -25q11 -15 19 -37.5t12.5 -46 t6.5 -45.5t2 -37q0 -6 -3.5 -22t-7 -34t-7 -32.5t-3.5 -16.5l-12 -12v-33q0 -1 -4 -4.5t-8.5 -8t-8.5 -8t-5 -3.5v-28q0 -5 -4.5 -10t-10 -10t-10.5 -9t-7 -7q0 -2 -2 -14t-4 -14q-8 -11 -18.5 -19t-22.5 -15.5t-23.5 -15.5t-19.5 -19q-41 -57 -89 -103l-97 -91 q-1 -2 -9.5 -11.5t-12.5 -11.5q-2 0 -10.5 -3t-13.5 -7q-23 -9 -47 -24.5t-45 -32.5l-22 -22l-42 -9l-22 -24q-15 -11 -35.5 -24.5t-42.5 -25.5t-45 -20t-42 -8l-57 10zM280 448v-19q2 -3 8 -13.5t13 -21.5l14 -21q7 -10 11 -13q14 -25 31.5 -35.5t38.5 -18.5l38 -19 q7 -2 11 -8.5t6 -14.5t5 -15t9 -10q21 9 36.5 20.5t28.5 26t25 32.5l26 37q2 19 8 38l11 38q5 19 9.5 38.5t4.5 39.5v19q0 5 -2 10q-2 7 -3 13.5t-1 17.5l6 40q-20 44 -32 79t-29 59.5t-45 37.5t-80 13h-32q-1 -12 -9 -23.5t-19 -22.5l-23 -21q-12 -10 -19 -18 q-11 -13 -19.5 -29.5t-15.5 -34.5t-12 -36l-11 -33q0 -26 3 -48.5t7 -45.5q2 -4 2 -10v-11v-17z" />
<glyph unicode=":" horiz-adv-x="540" d="M111 116q0 23 4 38.5t11.5 26.5t19.5 20t29 20q20 14 32 29t28 15q5 0 16 -2t22.5 -4.5t21.5 -5t13 -4.5q4 -2 13.5 -8.5t13.5 -6.5h37q8 -3 14.5 -15.5t10.5 -28.5t6 -31.5t2 -23.5q0 -20 -7.5 -45.5t-11.5 -46.5q-6 -8 -19 -15t-28.5 -12t-31.5 -8t-27 -3h-29 q-14 0 -31 2.5t-30 13.5l-7 7l-11 10q-6 6 -11 12t-7 9q-5 4 -12 11l-14 15q-7 7 -12 15t-5 16zM143 640l-1 10q0 23 7 52.5t21.5 56t35.5 45t48 18.5q15 0 34.5 -5.5t39.5 -13.5t37 -19t28 -21q3 -5 6.5 -15t6 -22.5t4.5 -24.5t2 -19q0 -23 -7.5 -39t-20.5 -27t-31.5 -19 t-39.5 -14q0 -1 -1 -1l-2 -1q-5 -2 -15 -5l-21 -6q-10 -3 -20 -5.5t-14 -2.5q-12 0 -28.5 8.5t-31.5 20.5t-26 25.5t-11 23.5z" />
<glyph unicode=";" horiz-adv-x="574" d="M68 -462q0 22 19.5 47t45.5 49l53 49q28 24 44 44q5 8 8 18l6 20q3 10 8.5 18t15.5 13q8 17 17.5 35t18 38.5t14.5 44t6 50.5q-5 10 -10.5 13.5t-12 5t-12.5 4t-10 10.5q-2 2 -5.5 9.5t-8.5 15.5t-11.5 14.5t-14.5 6.5q-9 0 -16 -3.5t-14 -7.5t-14 -7.5t-17 -3.5 q-43 0 -70.5 21t-27.5 67v14l14 19q11 25 24.5 49.5t31 43.5t41 30.5t53.5 11.5q61 0 108.5 -28.5t79.5 -73.5t48.5 -101t16.5 -110q0 -32 -6 -54.5t-17 -49.5l-27 -97q-10 -25 -25 -46t-32 -41l-36 -38q-19 -20 -35 -41q-2 0 -4.5 -8.5t-2.5 -10.5q-4 -10 -20.5 -18 t-37.5 -15.5t-42 -16t-34 -19.5q-10 -2 -19.5 -3t-19.5 -1q-11 0 -20 1t-18 3q-12 4 -22.5 10t-10.5 19zM178 728v35q2 10 17 21.5t33 21.5t35 16.5t24 6.5q39 0 62 -7t37 -23t21 -40.5t15 -59.5q0 -33 -16 -59.5t-40 -44.5t-51.5 -28t-49.5 -10q-25 0 -41.5 20.5t-26.5 48 t-14.5 56.5t-4.5 46z" />
<glyph unicode="&#x37e;" horiz-adv-x="574" d="M68 -462q0 22 19.5 47t45.5 49l53 49q28 24 44 44q5 8 8 18l6 20q3 10 8.5 18t15.5 13q8 17 17.5 35t18 38.5t14.5 44t6 50.5q-5 10 -10.5 13.5t-12 5t-12.5 4t-10 10.5q-2 2 -5.5 9.5t-8.5 15.5t-11.5 14.5t-14.5 6.5q-9 0 -16 -3.5t-14 -7.5t-14 -7.5t-17 -3.5 q-43 0 -70.5 21t-27.5 67v14l14 19q11 25 24.5 49.5t31 43.5t41 30.5t53.5 11.5q61 0 108.5 -28.5t79.5 -73.5t48.5 -101t16.5 -110q0 -32 -6 -54.5t-17 -49.5l-27 -97q-10 -25 -25 -46t-32 -41l-36 -38q-19 -20 -35 -41q-2 0 -4.5 -8.5t-2.5 -10.5q-4 -10 -20.5 -18 t-37.5 -15.5t-42 -16t-34 -19.5q-10 -2 -19.5 -3t-19.5 -1q-11 0 -20 1t-18 3q-12 4 -22.5 10t-10.5 19zM178 728v35q2 10 17 21.5t33 21.5t35 16.5t24 6.5q39 0 62 -7t37 -23t21 -40.5t15 -59.5q0 -33 -16 -59.5t-40 -44.5t-51.5 -28t-49.5 -10q-25 0 -41.5 20.5t-26.5 48 t-14.5 56.5t-4.5 46z" />
<glyph unicode="&#x3c;" horiz-adv-x="1116" d="M508 362l-24 29l-37 23q-14 9 -22.5 14t-11.5 6.5t-4 1.5q-11 0 -20.5 9t-17 21t-13 24t-8.5 17q-11 5 -18.5 8t-14.5 7t-13.5 11t-15.5 19l-64 66q-16 4 -37 14.5t-39.5 25.5t-31.5 33.5t-13 38.5q0 23 15.5 40t37.5 30.5t45 25t37 22.5q6 2 12 9.5t11.5 16t11.5 15.5 t12 7q12 13 21 20t17 12l14 10q7 5 17 15q4 5 6.5 11t2.5 10q0 10 15 22l64 21l66 66q16 0 25 3q5 2 9 4q7 4 9.5 11t13.5 11q20 16 33 25l20 14q8 5 11 8q14 2 28 16.5t27 31.5l24 33q12 16 23 19q17 6 25 13t13 14l11 15q5 8 17 16q15 10 32 17l33 15l33 14q16 8 30 19 q11 -9 23.5 -26t12.5 -38q0 -24 -9 -37.5t-23 -23.5l-31 -20q-16 -10 -30 -28q-10 0 -27 -10.5t-35.5 -24.5t-34.5 -27.5t-23 -18.5q-3 -2 -10.5 -8t-15.5 -14l-16 -14q-8 -6 -10 -9l-67 -45q-7 -7 -16 -18.5t-19.5 -22t-22 -18t-23.5 -7.5q-6 0 -7 2q-1 -3 -3 -8.5 t-4.5 -11.5t-5.5 -11t-6 -7t-7 -4q-6 -3 -9 -3q-11 -3 -18.5 -8t-13.5 -11l-12 -12q-5 -6 -13 -11q-25 -20 -43 -31l-33 -21q-16 -9 -33 -20.5t-41 -30.5q0 -17 11.5 -32t22.5 -15q43 -27 77 -55l72 -57q2 -2 10 -6.5t12 -6.5q3 0 15 -9l28 -19l28 -19q13 -9 18 -11 q10 -20 16 -25t12 -5.5t13.5 -2t20.5 -14.5q4 -7 17 -22.5t28.5 -31t30.5 -27t24 -11.5q23 -17 47 -33t45 -34q10 -8 17 -15l13 -13q6 -7 13 -12.5t19 -11.5q14 -9 33.5 -19.5t37.5 -24t30.5 -30.5t12.5 -39q0 -14 -8 -33t-22 -36.5t-33 -30t-40 -12.5q-17 0 -33 14t-33 26 q-9 6 -25 8t-32 11l-49 62l-24 10q-11 7 -20 20l-19 26q-11 13 -24 26t-32 22q-10 4 -24 15t-27 23l-24 22q-10 9 -12 9z" />
<glyph unicode="=" horiz-adv-x="939" d="M141 310q-5 2 -5 19v20q0 14 0.5 34t5 39.5t14.5 34.5t28 19h49q10 0 19 3l18 6q9 3 18.5 5.5t20.5 2.5l57 -12q16 0 23.5 2.5t17.5 2.5q17 0 35 -3t36 -7q14 -7 28 -9.5t28 -2.5q27 0 54 8.5t55 8.5l39 -5q8 0 14.5 2.5t12.5 6t12.5 6t14.5 2.5q23 0 44.5 -9.5 t35.5 -30.5v-26q0 -15 -1 -28l-3 -24q-2 -12 -3.5 -25.5t-1.5 -32.5q-7 -15 -18 -24t-24 -14.5t-26 -7t-25 -1.5l-104 7q-69 0 -138 -1.5t-139 -3.5q-29 -2 -59.5 -10t-61.5 -8q-11 0 -22.5 5t-21.5 12.5t-17.5 17.5t-9.5 21zM124 663v41q0 14 0.5 34t5 39t14.5 32.5 t28 15.5h47q10 1 19.5 4.5t19 7.5t19 7.5t21.5 3.5q16 0 27.5 -9t30.5 -9l39 7q17 0 33.5 -3t32.5 -7q17 -4 31.5 -6.5t27.5 -2.5l111 12l39 -5q8 0 14.5 3.5t12.5 8t12.5 8t14.5 3.5q22 0 43 -12.5t35 -32.5v-19l-7 -104v-26q-16 -20 -42.5 -27.5t-52.5 -7.5l-104 11 q-70 0 -138.5 -2t-136.5 -7q-29 -2 -61 -7t-62 -5q-8 0 -19.5 4.5t-23 12t-20 17t-11.5 20.5z" />
<glyph unicode="&#x3e;" horiz-adv-x="1114" d="M608 370h-34q-3 0 -13 -9.5t-24.5 -21.5t-30.5 -23t-29 -15q-14 -9 -25 -22t-21 -27l-20 -25q-9 -12 -21 -19l-22 -7l-50 -66q-14 -7 -31 -8.5t-28 -10.5l-32 -24q-15 -12 -32 -12q-22 0 -41 12t-32.5 29t-21 36t-7.5 33q0 22 12 38.5t30 29.5t37.5 23t34.5 20 q12 6 19 12t13 13l12 14q7 8 18 16q21 16 45 32l45 32q10 0 25.5 11.5t30.5 27t27 31t17 22.5q14 13 22 15t14 3t12 5.5t16 23.5q2 4 16 13l30 20l29 18q13 8 14 8q5 1 12 7t8 8l73 56q35 28 78 55q11 0 23 14t12 31q-24 20 -41 32t-34 22l-34 21q-18 11 -44 29 q-15 11 -24.5 24t-30.5 21h-4q-2 0 -5 1l-8 2q-8 9 -12 22.5t-16 13.5t-23.5 8.5t-21.5 19.5t-18.5 22t-14.5 16l-67 50q-3 0 -10.5 5.5t-15.5 12.5l-16 13q-7 7 -10 9q-8 4 -24 17l-34 28q-18 14 -35.5 25t-29.5 11q-13 19 -29 29l-30 19q-14 10 -23.5 23t-9.5 38 q0 21 13.5 38t26.5 26q13 -11 29 -18.5l32 -14.5l33 -15q17 -7 31 -17q11 -7 17 -15l12 -16q6 -7 14.5 -13.5t23.5 -12.5q9 -3 21 -19l25 -33q14 -18 28 -32.5t28 -16.5l4 -2l5 -3q24 -18 37.5 -29.5t20.5 -18.5t11 -10.5t9 -5.5q5 -1 10 -1q5 -1 10 -1h14q6 -5 14 -14 t16 -19t17 -19t17 -15q31 -15 47.5 -25.5t25 -18t11 -13t6.5 -11.5q9 -8 17 -12.5t16 -9.5t17 -11.5t21 -19.5q4 0 9 -8l12 -16q7 -9 12.5 -17.5t9.5 -10.5q16 -11 39 -22t44.5 -24.5t36.5 -31t15 -40.5q0 -20 -12.5 -38.5t-30.5 -33.5t-38.5 -25.5t-35.5 -14.5 q-8 -2 -17.5 -12.5l-19.5 -22.5l-17 -22q-8 -9 -12 -9q-9 -12 -16 -19t-13.5 -11t-14.5 -7t-18 -8q-4 -5 -10 -16.5t-13.5 -23.5t-17 -21.5t-20.5 -9.5q-1 0 -7 -2q-3 -1 -5 -1q-17 -5 -30.5 -11.5t-26.5 -19.5z" />
<glyph unicode="?" horiz-adv-x="742" d="M89 97q0 13 7.5 29.5t20 31t28 24.5t30.5 10q69 -5 94.5 -41t25.5 -96q0 -16 -9 -27t-22 -18t-27.5 -10t-26.5 -3q-27 0 -49 4.5t-38 16t-25 31t-9 48.5zM538 879v3l-20 59q-10 26 -22.5 47t-31 39t-47.5 35q-6 5 -12.5 14t-7.5 14l-44 54q-14 0 -26 4t-23 9l-24 10 q-12 6 -25 8q-23 27 -33 44.5t-10 45.5q0 15 5 32t20 26h25q26 0 43.5 -12t32.5 -28l30 -33q14 -16 34 -25l47 -14q18 -9 33 -22.5t29 -29t26.5 -31t26.5 -28.5q2 -1 9 -5l10 -5q15 -9 30 -28t27 -41.5t20 -45t8 -37.5q0 -30 -9 -57l-18 -52l-13 -116q-2 -11 -8.5 -19.5 t-14 -16.5l-14.5 -15l-14 -13q-1 -2 -3 -4q-4 -4 -4 -8q-24 -39 -50 -58t-56 -28t-65 -11.5t-78 -8.5q-11 -3 -15.5 -7.5t-7 -10.5t-5 -13.5t-7.5 -16.5q0 -2 -7.5 -13.5t-11.5 -12.5q-9 -19 -12 -43t-9 -45.5t-18.5 -36t-40.5 -14.5l-24 6q-4 1 -7 7t-3 10q-2 36 -3 71.5 t-1 73.5q0 23 0.5 46t3.5 48q0 33 15.5 52t40 29t55 14t61 6.5t58 6t46.5 13.5q11 5 13 17t7 21q6 11 12 12.5t17 1.5q12 0 16 1q11 2 19 19t13.5 38t8.5 41t3 27z" />
<glyph unicode="@" horiz-adv-x="1538" d="M820 417q1 3 4 9l6 13l7 15q3 7 5 10q7 10 7 29q-1 2 -1 5q-1 2 -1 4v5q0 4 -5 11.5t-12 7.5q-3 0 -4 -1l-3 -3q-2 0 -4.5 -1.5t-4.5 -1.5q-2 -2 -2.5 -3t-2.5 -2t-3 -2l-5 -5q-4 -4 -9 -8.5t-9.5 -9t-6.5 -5.5l-59 -38q-2 -3 -7 -8l-11 -11l-10 -10q-5 -5 -8 -7 q-23 -25 -58.5 -40.5t-67.5 -20.5h-30q-15 0 -29.5 0.5t-28.5 5.5q-2 0 -4.5 2t-4.5 5q-21 11 -35.5 32t-21.5 45q-4 14 -4.5 24.5t-0.5 24.5v22q0 14 4.5 28.5t10.5 28.5q14 34 30 66l34 64q7 8 12.5 17t10.5 16q0 1 2 7q1 2 3 5q4 4 11 13l16 19l15 18q7 9 10 12 q4 8 13.5 11.5t14.5 9.5l84 71l2 4q1 1 2 3l10 10l17 19l17 20q8 10 11 13q2 2 5.5 4.5t5.5 4.5l1 2h6q2 0 5 1q8 2 13.5 6.5t10.5 11.5q39 31 78 49t90 27q15 4 31.5 4.5t33.5 0.5h9q11 -2 17 -7t14 -7q6 -3 11 -3h24l2 1q9 7 14 14l11 16l27 24q14 12 34 12h12 q14 -14 20 -31.5t6 -35.5q0 -32 -11 -57t-25 -51q-3 -9 -4 -16.5t-3 -15.5q0 -7 -4 -11l-110 -226q-2 -5 -2 -8v-6v-8q0 -3 -2 -8l-16 -35q-8 -18 -17 -36v-3q-2 -8 -4 -13l-4 -9q-1 -4 -2 -6q-2 -4 -5.5 -9t-3.5 -13q0 -9 2 -18.5t14 -9.5q11 0 20 6t18 13l112 64l6 4 q4 3 8 5l60 51q29 27 53.5 56.5t41.5 62t22 70.5q4 17 5.5 36.5t1.5 38.5q0 13 -3.5 29t-5.5 33l-41 100q-18 44 -40 76h-2l-71 97q-32 12 -55 29.5t-51 32.5q-34 21 -61 35.5t-54 18.5q-15 -2 -22.5 -3.5t-12.5 -1.5h-17h-13q-5 0 -13 -2l-37 17q-29 0 -60 -4.5t-52 -27.5 q-62 -6 -105 -18.5t-75.5 -34t-59.5 -53t-58 -76.5l-27 -28l-38 -57q-7 -7 -10 -18t-3 -20l-50 -124q-5 -11 -8.5 -26t-6 -30t-4 -29.5t-3.5 -25.5q-1 -5 -4 -15l-8 -21l-7 -22q-4 -11 -4 -18q5 -84 25.5 -151.5t47.5 -123.5q8 -11 11 -25t7.5 -29t13 -30t27.5 -27 q11 -23 26 -48t36 -40q13 -11 23.5 -22t20.5 -24l22 -26q11 -13 28 -27q12 -2 27 -6.5t29 -9.5l26 -10q12 -4 18 -5l62 -19l94 2q24 4 43.5 5.5t35.5 1.5q30 0 46.5 -3t24.5 -3q7 0 12 -2.5t21 -2.5q13 0 22 2.5t16.5 6.5t16.5 8t23 6q2 2 21 13.5l42 24.5l42 23 q19 10 21 10q32 0 43.5 -8.5t11.5 -21.5q0 -17 -14.5 -36.5t-24.5 -30.5q-14 -21 -24 -33t-18 -17.5t-14.5 -7t-13.5 -1.5q-13 0 -23.5 -3t-21.5 -8q-26 -11 -57.5 -20t-71.5 -9l3 2q-6 -2 -17 -2h-23h-136h-26q-13 0 -19 2q-30 0 -60.5 4.5t-61.5 11.5t-61 14.5t-59 12.5 q-2 0 -7.5 2.5t-6.5 4.5l-58 42q-31 21 -63 38l-35 6q-5 1 -22 15l-36 31q-20 17 -36 33.5t-18 23.5l-80 140q-8 19 -21 58t-25 82t-21 81.5t-9 56.5q0 11 3.5 16.5t3.5 16.5l-7 59q0 22 5.5 56t12 70t13.5 68t10 52q1 6 8.5 20t12.5 19q10 12 15 24t8.5 24.5t7.5 24.5 t12 24q5 9 12 14l12 8q5 4 9 10t4 17l119 121l85 43q2 2 5.5 6.5t8.5 9.5l50 17l135 66l263 52h57l52 -25l26 4l71 -24l27 -11l40 -16q21 -8 39.5 -16.5t26.5 -14.5q13 -13 23.5 -22.5t20.5 -17.5l22 -15l26 -15q9 -5 25.5 -25t33 -43.5t29.5 -45t15 -28.5q3 -13 3 -25 t1 -22t5.5 -19t16.5 -16l16 -71l14 -70q7 -33 11 -56.5t4 -28.5q0 -23 -4.5 -35t-9.5 -31q-14 -22 -25 -36t-11 -25q-14 -18 -20 -32l-13 -27q-7 -13 -16 -25.5t-27 -27.5l-59 -48q-24 -18 -45 -32l-45 -28l-59 -34l-65 -55l-9 -7q-2 -2 -10 -9t-11 -8q-9 -8 -19 -10.5 t-21 -7.5q-15 -11 -28 -24t-29 -21l-34 -10h-4l-65 10q-2 1 -5 2l-4 2q-2 1 -4 1q-4 5 -11 10t-9 9q-7 10 -9.5 19t-2.5 20v10zM579 502q0 -14 4 -24.5t15 -15.5q4 -4 9 -7t10 -3q26 0 44.5 10.5t36.5 28.5q14 12 34 32l41 39l47 47l83 111l43 46l47 96l20 79q0 2 1 5.5 t1 4.5q0 8 -2 18t-8 15l-2 4l-2 4l-3 3h-4q-4 0 -5 1h-7q-5 0 -5 2h-16l-3 -2q-3 0 -11 -4l-16 -7l-18 -8q-8 -4 -12 -5q-5 -1 -7.5 -3.5t-4.5 -6.5q-3 -2 -12 -10l-20 -18l-20 -17q-9 -8 -12 -10l-9 -11h-12l-76 -81q-13 -13 -16 -30q-2 -5 -3 -11t-4 -11q-8 -13 -18 -22 t-18 -20l-6 -9l-7 -11q-3 -6 -6 -10.5t-3 -5.5l-64 -114v-9q-2 -14 -3 -29.5t-1 -30.5z" />
<glyph unicode="A" d="M-31 38q0 19 12.5 29t29.5 15.5t34.5 9t28.5 10.5q3 2 8 6l11 10q6 6 12 10.5t9 6.5l48 24q9 4 22.5 23t26.5 42l26 46q12 23 17 34q2 2 3 11t1 14q1 4 4 10.5t3 8.5q2 2 7 9.5t11 15.5t10.5 15.5t5.5 9.5q1 1 2 7.5l2 13.5l2 15q1 7 1 9q6 32 17 64l23 65q12 32 21 65 t12 67l69 190q14 40 16.5 84.5t14.5 87.5q17 39 41 76.5t44 80.5q7 22 8.5 46.5t15.5 45.5q5 7 25 27l43 41q23 21 45 37t32 16q19 0 26 -14q5 -4 10.5 -13t5.5 -11q5 -18 14 -36t15 -39l-1 -22q0 -14 6 -30l11 -25q11 -35 19.5 -68t13.5 -66q4 -20 13 -36.5t9 -37.5l-1 -16 q18 -16 27 -29t14.5 -26.5t11 -29t17.5 -37.5q10 -20 15 -37.5t8 -35.5l8 -38q4 -20 13 -43q1 -5 6.5 -17t5.5 -16v-38q0 -2 4 -9l9 -16q5 -8 9 -16t4 -11q0 -1 0.5 -5.5t1 -10t1.5 -10.5t2 -5l28 -28q7 -6 9 -14t3 -18l2 -19q1 -9 6 -18q12 -28 21 -57.5t24 -58.5 q9 -21 15 -44.5t6 -45.5v-12q13 -23 29 -41t26 -35q9 -22 19 -35t19.5 -21t18.5 -12.5t18 -9.5q22 -13 45.5 -19t59.5 -12l28 -7q13 -8 16 -23.5t3 -26.5q0 -21 -16.5 -30.5t-33.5 -9.5l-85 5h-21q-5 4 -13.5 6.5t-17.5 3.5t-16.5 1t-9.5 1h-119q-8 11 -14.5 12.5t-18.5 1.5 q-41 0 -85.5 -10.5t-94.5 -10.5h-22q-16 0 -30.5 1t-25.5 8q-5 3 -5 17l2 16q2 5 2 9v6q0 7 6 9q18 8 41 12t44 9t35.5 14t14.5 27v2q-1 23 -3.5 52.5t-2.5 58.5q0 10 -6.5 21t-7.5 20v61q-2 13 -12.5 41.5t-26 56.5t-33.5 49.5t-36 21.5q-26 0 -53.5 -11t-55.5 -11 q-24 0 -45.5 9.5t-50.5 9.5h-64q-21 0 -42.5 -2.5t-39.5 -13.5q-31 -18 -57 -48.5t-38 -75.5l-7 -70q0 -2 -2 -10t-4 -17t-4 -16.5t-2 -9.5t-1 -6t-1 -8q0 -18 6 -26t15 -24l14 -24q8 -15 17 -26q14 -12 37.5 -19t46.5 -15t39.5 -20t16.5 -33v-7q-5 -39 -29 -51.5t-62 -12.5 l-87 23h-36q-18 0 -37 -1t-36.5 -3t-31 -5.5t-20.5 -8.5q-25 0 -49.5 -1t-44 -2t-32 -1.5t-14.5 -0.5q-13 0 -29 4t-30.5 12t-24 18.5t-9.5 24.5zM484 716l-2 -22q-1 -10 -1 -19q0 -28 13 -37.5t40 -9.5q3 0 5 2q1 1 2 3q2 0 13.5 2t16.5 3q9 -1 17.5 -3t13.5 -2h157 q68 0 68 62q0 9 -6.5 23t-15.5 30.5t-17.5 34.5t-12.5 35q0 7 -5 12l-47 70q0 5 -3.5 10t-5.5 10l-5 21l-12 51q-7 30 -17 57t-22.5 46t-27.5 19q-9 0 -23 -26t-30.5 -66t-33 -88.5t-29.5 -92.5t-21.5 -78.5t-8.5 -46.5z" />
<glyph unicode="B" horiz-adv-x="1355" d="M87 33v5q3 3 16 8.5t31 11.5t38 12l38 11q18 5 30.5 9t14.5 5q18 25 27 51.5t13 54t5.5 56t4.5 58.5q7 23 11.5 44t4.5 44q0 17 -8 30t-8 29q0 26 8 52.5t8 49.5q0 8 -1 13.5t-2.5 10.5t-2.5 10t-1 13q0 10 2.5 17.5t6 14t6 13t2.5 14.5l-26 102q0 15 8 25.5t8 27.5 l-7 30v64q0 3 -2 8.5t-5 11.5t-5 11t-2 7q0 26 5 46t5 40l-5 159q-5 10 -11 16t-13 10l-16 8q-8 5 -17 13q-17 25 -45 34t-55 14.5t-46.5 14.5t-19.5 34q0 18 14.5 27.5t34.5 14t40 5.5t32 1h36q18 0 39 -0.5t39.5 -2t31.5 -4t15 -5.5l323 12l82 -5l41 5q36 -15 71 -24 t67.5 -21t62 -30.5t53.5 -52.5l37 -56q16 -23 26 -46.5t14.5 -50.5t4.5 -65q0 -29 -7 -64.5t-21 -64.5q-11 -17 -22.5 -28t-24.5 -20t-27.5 -17t-30.5 -18l-11 -21q-7 -9 -25.5 -13t-37.5 -9t-34 -14t-15 -28q0 -9 18 -16t41.5 -13t46 -11t32.5 -9q29 -15 51.5 -30.5 t48.5 -31.5l33 -22q14 -27 33 -55t36.5 -57.5t29.5 -61t12 -65.5q0 -37 -2.5 -70t-16.5 -58q-5 -9 -19 -26l-33 -37l-40 -42q-21 -22 -41 -40.5t-37.5 -32t-28.5 -16.5q-35 0 -48 -4.5t-18 -4.5q-53 -17 -96 -28t-96 -15l-45 -15q-27 10 -55 10q-34 0 -61 -10q-58 5 -114 9 t-117 4q-48 0 -97.5 -9.5t-103.5 -9.5q-5 0 -23.5 2.5t-39 8.5t-37 15.5t-16.5 22.5zM506 303l14 -47q3 -39 4 -60.5t5.5 -34t16.5 -21t38 -21.5q10 -5 16 -9t13 -8q21 -9 40.5 -21t45.5 -12q19 0 30.5 6t27.5 6l46 -5q12 0 26.5 6t28.5 15t26.5 19t20.5 19q5 2 14.5 10.5 t19.5 18.5t18.5 19.5t13.5 13.5q4 14 12.5 27t16 26.5t13.5 28t6 31.5q0 44 -3.5 88.5t-14.5 86t-31.5 79t-55.5 66.5q-32 23 -62.5 37.5t-69.5 19.5h-51q-41 4 -74 12.5t-67 8.5l-58 -6l-6 -11q-3 -8 -6.5 -16.5t-7 -15.5t-6.5 -10q0 -16 3.5 -25.5t3.5 -21.5l-14 -140 q0 -27 7 -58t7 -65zM526 761l13 -17l57 19q35 4 73.5 7t74.5 3h26q7 0 12 -1q29 24 52.5 54.5t42 63.5t33.5 68l28 68v17l-14 26q-10 36 -25 72t-37.5 66t-53 50.5t-71.5 24.5q-2 0 -8.5 1t-13.5 1.5t-13 1.5t-8 1q-13 2 -24.5 8t-22.5 13t-23.5 12t-26.5 5q-7 0 -20.5 -7 t-27 -17.5t-24 -21.5t-12.5 -20v-41l7 -80q0 -16 -4 -33l-7 -35l-7 -34q-3 -17 -3 -31q0 -65 11 -126t16 -118z" />
<glyph unicode="C" horiz-adv-x="1464" d="M109 529q0 3 -2 9l-3 12q-1 7 -2.5 12.5t-1.5 8.5q-2 7 -2 11v8q0 8 2 13t7 15l-12 200l5 56q2 3 4 7q2 3 3 5.5t2 4.5q9 21 14 40t12 40q5 20 5 38q0 22 8 36q13 30 29 57l41 65q2 3 4 6.5t4 6.5l19 29q11 16 12 18q12 18 23.5 27t27.5 24q34 26 60 48t62 44l25 11 q9 3 20 8l23 12l23 11q11 5 20 8l102 14q4 0 13 3t13 8q43 1 69 2t49 1q31 0 61 -1l60 -2l31 -8l19 -4q7 -1 10 -1h6q12 1 19.5 1.5t13.5 0.5h15h21q11 -6 24 -17t24 -11q4 0 8 3t6 3h59q13 2 24.5 8.5t23 14t22.5 13t25 5.5q17 0 29.5 -10.5t12.5 -30.5v-166q1 -5 3 -16 t2 -16q9 -48 21 -98.5t12 -98.5q-1 -6 -5 -13t-9.5 -13t-10.5 -10.5t-8 -4.5q0 -2 -7 -2q-20 0 -34.5 9t-24.5 23t-15 30t-7 30v33q-2 14 -5.5 22.5t-8.5 15t-11.5 13.5t-14.5 18q-11 11 -13 24.5t-11 27.5q-2 4 -9 8t-9 4l-64 46q0 1 -5 5l-9 10l-10 11q-4 5 -5 7 q-11 6 -12 6q-2 -2 -14 -2q-7 0 -7 2q-21 4 -40.5 13t-35.5 18l-121 5q-7 8 -14 10t-17 2q-34 0 -58 -6t-44 -17q-1 -2 -2 -3q-2 -2 -4 -2q-14 -11 -30.5 -17t-33.5 -11.5t-33.5 -12t-30.5 -18.5l-38 -32q-1 -2 -10 -8.5t-10 -10.5q-5 -11 -17 -20.5t-16 -11.5 q-8 -11 -11.5 -23.5t-7.5 -14.5l-23 -33l-28 -64l-13 -58q-1 -2 -4.5 -7t-8 -10.5t-9 -9.5t-6.5 -4q0 -1 -1 -8t-1.5 -16.5t-1.5 -19t-1 -14.5v-27l5 -102l12 -49l-12 -55q0 -48 13 -96t28 -93q2 -1 18 -24l10 -28q3 -8 9 -15.5t13 -14.5l15 -13q7 -6 12 -12l7 -25 q2 -7 4 -9.5t5 -4t10 -8.5q7 -3 11.5 -9.5t8.5 -14.5l8 -16q4 -8 11 -13q19 -3 32.5 -3.5t24.5 -12.5q24 -20 45 -34.5t42.5 -25t45.5 -18t54 -12.5l52 -15q26 0 42.5 7.5t32.5 7.5q15 0 28 -10.5t29 -10.5q13 0 21.5 8.5t21.5 12.5q2 0 12.5 2t13.5 3q4 0 13 5t13 9 q34 5 43.5 8.5t11.5 3.5q1 1 5 4.5t8.5 8t8.5 9t6 6.5q4 0 13 5t19 12l21 14q11 7 18 11q5 3 7 7.5t7 9.5q15 21 30 31t32 31q4 4 11.5 12.5t9.5 13.5q1 2 4.5 12.5t7.5 11.5q13 11 25 15t25 4q7 0 12.5 -6t9 -14t5.5 -17.5t2 -15.5q0 -20 -9 -35.5t-20 -29.5l-22 -29 q-10 -14 -14 -33q-4 -3 -13 -10.5t-18 -16.5l-17 -18q-8 -8 -10 -12q-22 -29 -40 -40.5t-34 -23.5q-7 -9 -10.5 -18.5t-15.5 -14.5q-14 -8 -31.5 -14.5t-37.5 -11.5q-32 -20 -57 -27t-52 -16l-40 -22q-53 -3 -73 -8.5t-24 -5.5q-32 1 -43.5 5.5t-15.5 4.5l-62 -20 q-11 1 -23.5 2t-24.5 2.5t-22 4t-15 6.5q-27 7 -56 10t-56 16l-74 29q-2 2 -12 4.5t-14 2.5q-29 38 -33 38h-24q-8 5 -18.5 19.5t-21.5 32.5q0 12 -13.5 15t-23.5 3q-6 3 -8 8.5t-3.5 12t-3.5 13.5t-7 12q-2 5 -10 14.5t-13 13.5q-7 4 -11 6l-7 4q-3 1 -6 4.5t-8 11.5 l-25 38l-22 24q0 35 -5 49t-7 15q0 4 -2.5 17.5t-4.5 15.5q-20 9 -25 13q-4 3 -6 4z" />
<glyph unicode="D" horiz-adv-x="1644" d="M106 61q0 15 14 22t36 12l46 9q25 5 46.5 16t35.5 31t14 55l-7 33q0 7 4 11.5t9 8.5t9 9t4 14l-8 69l5 40q2 5 2 21q0 32 -9.5 55.5t-9.5 46.5q0 14 1 17q12 38 19 78.5t7 77.5q0 16 -7 22l-8 182q-4 17 -11 37t-7 41q0 2 1 5t6 17q0 48 -4 95l-8 96l2 31q0 1 -5 6 l-11 11q-7 6 -12 12t-5 9q2 5 3 9t1 8q0 5 -1 10.5t-3 10.5q-1 5 -13.5 11.5t-30.5 12.5l-38 13l-38 12q-18 5 -29.5 10.5t-11.5 9.5q0 14 8 23.5t20 15t26.5 7.5t28.5 2q23 -9 47.5 -10.5t47.5 -1.5q61 0 111 6q39 4 82 9t79 11l32 11q11 3 13 3q12 0 18.5 -1t10.5 -2h102 q5 -2 12 -2h14h13q7 0 13 2q59 0 113 -15l111 -32q2 0 14 -2l27 -6l28.5 -5.5t16.5 -2.5q2 0 7.5 -4.5t12.5 -9t12.5 -8.5t7.5 -4l47 -6l3 -3q4 -3 8 -7t8 -7t6 -4q28 -21 60.5 -32.5t64.5 -31.5q32 -38 71 -76t74 -78q1 -1 2.5 -4t3.5 -10.5t6 -20.5t9 -34q0 -12 4 -16 q0 -3 5 -9t12 -13l12 -13q6 -6 9 -8q0 -20 4 -35.5t9 -29.5t9 -27t4 -26l-4 -57l12 -78q0 -30 -5 -58t-12 -55t-15 -54.5t-14 -57.5v-38q0 -1 -6.5 -9.5t-6.5 -12.5q-9 -22 -20 -43l-24 -42l-24 -44q-11 -22 -20 -46l-85 -74l-57 -33q-7 0 -7 -5q-22 -30 -54.5 -54 t-71.5 -24l-52 5q-9 0 -21.5 -6.5t-23.5 -10.5q-3 0 -12 -2l-18 -2q-10 -2 -18.5 -3.5t-10.5 -1.5q-3 0 -16 -3t-30 -6.5t-34 -7.5t-27 -6q-12 -10 -31 -10q-7 0 -18 2l-32 8q-1 0 -6.5 -1.5t-12 -3.5t-13.5 -3.5t-11 -1.5q-7 2 -18 6t-15 4q-45 -6 -87.5 -8t-84.5 -2 q-44 0 -85 2t-84 8q-26 5 -44 6t-44 1l-114 -22q-12 0 -24.5 3t-22.5 9.5t-16.5 16.5t-6.5 25zM511 320q0 -47 30 -90t74.5 -75t95.5 -51t92 -19q54 0 97.5 12t88.5 38q13 8 24 13l20 9q10 4 20.5 10t23.5 15q36 26 70.5 56t64.5 68l5 26q4 17 10 29.5t13 24.5t13.5 24.5 t11.5 28.5q0 1 1 7t2 13t2.5 13t1.5 7q7 18 16 36.5t17 37.5t13.5 39t5.5 41q-5 14 -6 19.5t-1 10.5t1 12t1 8q-2 8 -5 30t-5.5 46.5t-4.5 47t-2 30.5q-9 12 -11.5 28.5t-2.5 30.5q0 13 1 22.5t1 17.5q-17 12 -24 29.5t-11 36.5l-8 39q-5 19 -16 35q-1 2 -5 7l-9 10l-9 9 l-5 5l-17 23l-56 57q-23 22 -42.5 47t-45.5 43q-19 13 -36.5 18.5t-35.5 10.5t-37 14t-40 28q-12 10 -38.5 16t-56.5 9.5t-57.5 4.5t-40.5 1q-46 0 -99.5 -6.5t-96.5 -24.5q-8 -4 -13.5 -19t-9 -35t-5 -42t-1.5 -39v-30q0 -36 9.5 -68.5t9.5 -71.5q0 -5 -2.5 -13.5 t-4.5 -10.5q-3 -21 -4 -42t-1 -41q0 -17 1 -34.5t4 -33.5q7 -20 8.5 -33.5t1.5 -26.5t-0.5 -24t-2.5 -28l2 -24l-2 -18q-5 -9 -6 -15.5t-1 -16.5v-16q0 -45 3.5 -93t8.5 -94q4 -27 12.5 -54t8.5 -53z" />
<glyph unicode="E" horiz-adv-x="1419" d="M53 59q0 19 14.5 31t35 19.5t41.5 10.5t35 3h81q9 2 23 11t27.5 21.5t24 28t12.5 29.5q3 21 3 45q0 19 -3 40l14 22q-14 51 -19 102t-5 100q0 10 1.5 25t4 30.5t5.5 30t6 25.5q1 3 3 7q4 8 4 10q3 7 7 13q2 5 4.5 10.5t2.5 8.5q0 8 -8 14t-13 6q2 33 3.5 66.5t1.5 65.5 q0 34 -1.5 66.5t-3.5 66.5q-5 14 -6 20.5t-1 17.5l7 59l-7 107q0 12 -10.5 27t-24.5 28.5t-28.5 23t-23.5 11.5h-72l-8 4q-3 2 -6 3.5t-5 1.5q-14 4 -31.5 6.5t-32.5 8.5t-25 17.5t-10 33.5q0 18 5 27.5t14.5 14t23 5.5t30.5 1q27 0 52 -2t43 -15l10 2q5 1 9 1h19 q48 0 99.5 -7.5t94.5 -11.5l57 -10q13 0 26.5 4.5t28 10t28.5 10t28 4.5q10 0 17 -5t22 -5q5 0 9.5 5t15.5 5q10 0 15.5 -1t10.5 -9h39q21 0 44 7.5t46 7.5q14 0 22 -2t23 -13l180 -9q13 -1 24 -3q10 -2 21 -3.5t19 -3.5q5 0 12 -1t13 -4t10.5 -8t4.5 -13q3 -9 6 -29.5 t5.5 -43.5t4 -43t1.5 -28q5 -34 8 -69t3 -69h-16q-22 0 -36 34q-9 12 -13 16.5t-6 9.5q-14 19 -28 42l-27 42q-12 20 -21 36.5t-12 23.5q-12 5 -25 8l-25 5q-12 2 -22 6.5t-17 15.5q-8 15 -31 15q-9 0 -10 -2q-5 -1 -12.5 -2t-15.5 -1q-17 0 -34 1.5t-28 1.5q-7 0 -9 2t-7 2 q-2 0 -3.5 1t-3.5 2q-22 3 -44 4t-44 1t-43 -1t-43 -4q-7 -2 -16 -8t-17.5 -14.5t-15.5 -17.5t-9 -17q-8 -34 -10 -76.5t-2 -87.5v-104q-9 -11 -11 -22.5t-2 -27.5v-35q0 -24 1.5 -47t7.5 -45t17.5 -42.5t31.5 -39.5l161 -6q19 0 37 7q5 2 12 3.5t14 1.5l39 -1q17 0 31 10 q8 2 18.5 7.5t21 13t19.5 15t14 13.5q6 12 13.5 39t17 54t21 48t26.5 21q13 0 24 -19v-92q0 -13 -2.5 -23t-9.5 -28l-12 -16l5 -33q0 -4 2 -23.5t4 -45.5l4 -52q2 -26 2 -43l-5 -37q0 -17 6 -29t6 -22q0 -26 -9.5 -45t-35.5 -19q-13 0 -20 4.5t-10.5 11t-4.5 15t-1 17.5v13 q0 5 -2 11l-28 49v31q-1 13 -23 25t-55 22t-72.5 18t-77 14t-68 9t-44.5 3q-18 0 -31.5 -11.5t-23 -28t-14.5 -35t-7 -32.5v-79l13 -154v-87q2 -23 18.5 -46t39.5 -42t49 -31t47 -14l71 -5l19 -7h64h44q20 0 40 1l41 2q21 1 48 4l80 31q16 11 39 32t45.5 44.5t41.5 46.5 t28 38q5 3 10 15.5t11.5 27t15 25.5t20.5 11q11 0 16 -9t5 -18l-18 -63q-15 -52 -29 -105.5t-19 -108.5q-21 -32 -53 -38.5t-66 -6.5h-22q-11 0 -20 -2l-21 -5q-10 0 -16 2t-11 4l-10 4q-5 2 -13 2l-64 -7l-33 7l-154 -12q-73 0 -146 6t-151 6l-128 -12l-90 5q-18 0 -35 -4 t-33 -9t-31 -9t-29 -4q-17 0 -37 5t-37.5 15t-29.5 25t-12 35z" />
<glyph unicode="F" horiz-adv-x="1300" d="M1128 1208l-49 51q-25 22 -46.5 36t-42.5 22.5t-42.5 11.5t-47.5 3q-9 0 -11 -2h-43h-23h-11l-2 -1h-77q-17 -5 -35 -6t-35 -1q-38 0 -57.5 -1t-31.5 -8q-11 -4 -13 -10.5t-2 -11.5q0 -21 -5.5 -30.5t-22.5 -20.5q-3 -2 -4.5 -10t-3 -18t-2 -20t-0.5 -16q0 -23 7 -44 t7 -47l-9 -63q0 -23 10.5 -46t10.5 -50l-16 -149q0 -9 8 -20.5t13 -17.5q31 -4 63 -11.5t63 -7.5q7 0 12.5 1.5t10.5 12.5q11 1 26.5 2t35.5 1q27 0 58 0.5t61 3t55 8t39 16.5q14 9 21.5 26t11.5 36.5t7 39.5t8.5 36.5t16 27t30.5 10.5q6 0 11.5 -2t10.5 -13v-42 q0 -48 -10 -92q-5 -35 -9.5 -63.5t-4.5 -57.5q0 -25 7.5 -48.5t16 -46t16 -45.5t7.5 -47q0 -15 -0.5 -22.5t-4.5 -9.5q-5 -8 -7 -12t-11 -4q-15 0 -22.5 11t-18.5 22l-14 31l-21 46q-10 22 -23.5 41.5t-31 37t-42.5 31.5h-45q-35 0 -72 1.5t-64 6.5l-61 11q-26 0 -56.5 -9 t-57.5 -10q-9 -11 -21 -27.5t-12 -35.5q16 -74 27 -145.5t11 -143.5q0 -34 -1.5 -45.5t-3.5 -18.5q8 -24 22.5 -42.5t33.5 -33t40 -26.5t41 -22q1 0 6.5 -6t5.5 -8q4 -2 18 -3.5t18 -1.5h13q6 0 13 2q8 1 13 1h13h15q8 0 14 -1q7 -2 13 -2h13q5 -5 12.5 -10t14 -12t11 -15 t4.5 -18q0 -11 -5 -22.5t-13.5 -22t-18.5 -17t-20 -6.5h-2q-11 -2 -24.5 -2.5t-23.5 -0.5q-14 0 -26.5 0.5t-32.5 2.5l-19 5q-17 9 -38 16t-43.5 12t-45 7.5t-41.5 2.5q-21 0 -36 -1.5t-40 -8.5q-23 -4 -47.5 -5.5t-47.5 -1.5q-26 0 -48.5 1.5t-48.5 5.5q-12 -4 -22.5 -13 t-27.5 -13l-13 4q-5 1 -12 1q-5 -2 -15 -2h-38q-23 8 -37.5 16t-21.5 31q0 32 33 54q24 2 62.5 13t74.5 29t62.5 43t26.5 55q0 53 -2.5 91.5t-6 74.5t-6 75.5t-2.5 95.5q0 17 3 34l7 33l7 33q4 16 4 33q0 3 -0.5 8t-0.5 10.5t-1 10.5v4l-12 44v77q0 17 -4 34t-8.5 34 t-8 33.5t-3.5 32.5q0 4 1.5 13.5t3.5 13.5q4 20 6.5 40.5t2.5 41.5q0 20 -2 39.5t-7 39.5q0 18 -8.5 35.5t-22 33.5t-29.5 28.5t-30 18.5q-18 7 -49 9t-62 7.5t-53.5 19t-22.5 44.5v15q16 9 39.5 18.5t40.5 9.5h24q14 0 27.5 -3t22.5 -14q17 -3 34 -5t34 -2q15 0 33 2t36 5 q5 8 7.5 9t9.5 1q21 0 41 -8t46 -8h22q11 0 23 0.5t26 5.5q36 -6 79 -6q40 0 81 6q37 13 78.5 13t86.5 4q23 2 43.5 3.5t41.5 1.5q15 0 31 -1.5t33 -3.5q4 -2 10.5 -6.5t13 -9.5t12.5 -8.5t9 -3.5q9 0 15 3l17 8q16 4 33 5.5t35 1.5q31 0 62 -7q2 0 9 -6l16 -14l16 -14l8 -8 v-143q20 -49 20 -99q0 -12 -0.5 -24.5t-4 -23.5t-11.5 -18t-22 -7l-14 17l-17 21l-16 20q-7 10 -12 18q0 2 -4 11.5l-9 20.5l-9 20q-5 9 -7 12q-2 2 -3.5 16t-1.5 16z" />
<glyph unicode="G" horiz-adv-x="1628" d="M109 509q0 9 3.5 14t3.5 18q0 10 -5 14t-16 12q-3 19 -3 37v74q0 11 0.5 19t2.5 19q7 9 8 13.5t1 9.5l-14 46l14 59q0 12 -4.5 22.5t-4.5 20.5q0 8 4.5 14t10.5 12l11 12q5 6 7 14l9 32q14 53 46 94t76 80q1 21 17.5 42.5t41 42.5t55 41t61 37t57.5 30.5t45 21.5 q23 9 47 13.5t50 15.5q9 2 35 5t55.5 7t56.5 7t38 5q14 -1 25.5 -2t23.5 -1h97h26q14 0 26 -2q12 -7 34 -15.5t47 -15.5t49 -12t39 -5q21 0 33 9.5t21.5 21.5t19.5 21.5t28 9.5q13 0 22 -6.5t14.5 -16.5t8 -20.5t2.5 -18.5l5 -106q4 -8 6.5 -14.5t2.5 -11.5q0 -18 3 -24 q0 -7 2.5 -20.5t5.5 -27.5l6 -24q2 -10 2 -11q2 -16 6 -27t8.5 -21.5t8 -21.5t3.5 -27q0 -3 -4 -7.5t-9.5 -8.5t-11 -7t-8.5 -3q-24 0 -46 15.5t-40 38.5t-32.5 48t-23.5 45l-7 12l-5 26l-33 31q-3 3 -8.5 9.5t-11.5 14.5l-12 17l-10 13q-11 16 -29 24.5t-38.5 13.5t-41.5 9 t-38 12q-14 7 -24.5 13t-20.5 10.5t-22 7t-30 2.5q-23 0 -44.5 -12t-44.5 -16l-71 -5q-46 -8 -87 -31t-77.5 -54.5t-69.5 -67.5l-62 -70q-9 -12 -11 -29.5t-7 -34.5q-8 -22 -22 -45l-27 -46q-14 -23 -24.5 -46.5t-10.5 -47.5q0 -5 1.5 -18.5t2.5 -31t2 -38t1 -39.5l-2 -34 l15 -24v-56q5 -54 13 -104t34 -98q11 -20 25 -35l28 -30l28 -31q14 -16 26 -36q5 -9 16.5 -10t21.5 -11q48 -70 113.5 -106.5t143.5 -57.5q20 -4 33.5 -10.5t30.5 -6.5q8 0 19 3l12 4q6 0 19.5 1t29 2.5t30.5 3.5l21 3q1 0 14 8l31 20l39 26l40 27l31 23t16 12v31l-5 59 q0 21 2.5 39t2.5 32v21l-10 19v50q-2 18 -10.5 29.5t-19 21.5t-19 20t-10.5 24v31l-5 28q2 9 12.5 14t25 8t31.5 3.5t31 0.5h33l73 -12q23 0 44 3t37 7l5 2h182q3 0 11 -2t16 -6t14 -10t6 -13q0 -21 -19.5 -33t-45 -19t-50 -12t-34.5 -12l-59 -73q4 -9 9 -22.5t5 -27.5 l-14 -111q0 -16 7 -24t7 -18q0 -23 -3.5 -49t-12.5 -49.5t-25 -41.5t-42 -24l-54 -5q-14 -2 -32.5 -11.5t-38 -22t-37 -25t-30.5 -19.5q-12 -7 -25 -8t-22 -1h-36q-21 0 -37.5 -2t-37.5 -11h-166q-44 10 -93 10q-23 0 -46 1l-46 2q-11 0 -17.5 4.5t-11.5 9.5l-11 11 q-6 6 -13 8q-3 3 -14.5 7.5t-24.5 8.5t-24.5 7t-13.5 3l-64 33q-6 0 -19.5 4.5t-21.5 4.5q-14 3 -37.5 24t-49 47t-47 52t-30.5 38q0 4 -9 15.5t-14 15.5l-10 26q-2 3 -9 8t-14.5 11t-13 11t-5.5 8l-10 64q-3 10 -9 20l-14 20q-6 10 -11.5 21t-5.5 24z" />
<glyph unicode="H" horiz-adv-x="1759" d="M106 7h-12q-19 4 -19 19q0 18 3.5 29.5t24.5 20.5q17 8 39 13l44 10q22 5 41.5 11.5t32.5 17.5q10 8 17.5 20t13 25.5t9.5 27t9 24.5l10 239l-10 58q0 5 2.5 15t4.5 17q-5 38 -6 78t-1 82q0 37 1 74t6 75l-2 21q0 4 -3.5 27t-7.5 52l-7 57q-3 29 -3 46l-5 31l5 55 q0 21 -0.5 43.5t-4.5 37.5q-6 21 -22 33t-37 19.5t-43.5 11t-41.5 8t-31 11t-12 18.5q0 11 4.5 12.5t12.5 8.5l9 3q45 5 91 7.5t91 2.5q15 0 29 -2l28 -4q14 -2 29.5 -4t34.5 -2l206 12h79q18 -8 18 -15q0 -9 -6 -15t-14.5 -10t-18 -6t-15.5 -2h-45q-11 0 -20.5 -1t-17.5 -8 q-32 -17 -57.5 -37t-56.5 -41q-9 0 -9 -5q12 -20 16.5 -41t4.5 -42q0 -16 -6 -31l-11 -31l-4 -16q0 -19 2.5 -33.5t6 -28.5t8 -28.5t9.5 -33.5v-100l3 -33q0 -2 -0.5 -11.5t-2.5 -16.5q0 -11 11 -25.5t22 -21.5h26q21 0 36 3t35 8h48l184 -11l71 5q20 0 32 -8.5t26 -8.5 q21 0 39.5 6t35.5 6l98 -12l44 4q5 1 16.5 7.5t15.5 11.5l4 2l3 3q3 15 6.5 35t6 41.5t4 42t1.5 37.5q0 15 -6 31.5t-6 32.5q0 21 6 41.5t13 40t13 38t6 37.5q0 52 -26.5 84t-65.5 60q-7 6 -24 9t-39 5l-46 3q-23 1 -42.5 5t-32.5 11.5t-13 21.5q0 15 7 23t16.5 13.5 t20.5 9.5t20 11h57l391 -28h19q12 0 12 2l28 10h91q11 0 18.5 -8.5t7.5 -20.5q0 -16 -13.5 -24.5t-31.5 -13t-37 -6t-30 -3.5q-28 -5 -48 -25t-40 -47q-3 -48 -11 -93.5t-19 -93.5q-2 -4 -7 -15.5t-5 -15.5l5 -80l-5 -85q0 -4 2.5 -15t2.5 -12l-5 -30q0 -6 2.5 -12t2.5 -17 l-14 -97l21 -69l-24 -87l12 -43q0 -14 -6 -28t-6 -33l17 -65q0 -16 -8.5 -30.5t-8.5 -35.5q0 -120 73 -159q20 -12 51 -14t56 -2q9 0 16 -1t15 -2q21 -4 25 -19.5t4 -29.5q-1 -11 -11 -18l-16 -11q-46 -11 -94.5 -14t-102.5 -3h-37h-18q-8 0 -15 1l-124 16l-113 -10l-36 -6 h-71q-16 0 -28 11.5t-12 18.5q0 18 6 29t17 17q11 5 23 7t23 2h26q11 2 14.5 8t10.5 13q15 11 35 19.5t38 19t30.5 24.5t12.5 37l-7 62q0 38 4 75l9 71q2 11 7.5 20t5.5 18q0 7 -0.5 13t-5.5 13v140q0 15 -13.5 27.5t-32.5 21.5t-39.5 13.5t-33.5 4.5q-8 0 -16 -3l-15 -8 q-8 -4 -16.5 -7.5t-18.5 -3.5l-76 14q-11 0 -20 -5t-19 -11.5t-22.5 -11.5t-30.5 -5l-34 9q-14 4 -28 6.5t-29 4t-35 1.5h-33q-11 0 -18.5 -1t-8.5 -1q-14 -4 -28.5 -7t-32.5 -3q-6 2 -16 4l-20 3q-10 1 -17.5 2t-8.5 1l-28 22q-9 0 -19.5 -9t-14.5 -13q-13 -9 -21 -16 t-12 -15.5t-5.5 -19.5t-1.5 -27q0 -26 2.5 -56t9.5 -56q1 -3 2 -8.5t2.5 -12.5t2.5 -12.5t1 -8.5q2 0 2 -9q0 -10 -2.5 -19.5t-2.5 -23.5l5 -57q0 -3 -2 -5l-8 -24q1 -5 2 -9q2 -10 3 -12q4 -9 4.5 -20.5t0.5 -21.5v-24q0 -22 3.5 -42t24.5 -36q4 -2 14 -5l21 -7 q11 -4 21 -6l15 -4h21l96 5q55 0 59 -52v-2q0 -9 -4 -19t-14 -18.5t-26 -14t-40 -5.5q-21 2 -30 7t-21 9q-21 7 -55 7h-21q-4 0 -9 -1t-10 -3q-4 -1 -8.5 -2t-8.5 -1l-97 5h-76q-5 0 -15 -0.5t-20.5 -1.5t-19 -1.5t-11.5 -1.5l-21 -16q-44 0 -86 6q-21 5 -40 7.5t-40 2.5z " />
<glyph unicode="I" horiz-adv-x="881" d="M427 26q-14 0 -28.5 -3.5t-29.5 -8t-30.5 -8t-32.5 -3.5l-45 6q-15 0 -27.5 -3t-25.5 -3h-73q-9 0 -16 1t-13 3q-38 8 -38 48q0 12 2.5 20t19.5 17q17 7 42.5 10t52.5 5.5t51.5 6t38.5 12.5q6 3 14.5 16t16 28.5t13 29.5t5.5 20l-12 81l22 48l-22 42l22 230l-7 104 q-5 5 -5 22q0 16 2.5 27t6 18.5t6 14.5t2.5 16q0 26 -8.5 49.5t-8.5 51.5l12 71q0 10 -0.5 24t-2.5 29t-6.5 28.5t-12.5 22.5q0 4 2.5 12t2.5 24q0 13 -2.5 23.5t-2.5 14.5q0 5 -2 12t-4 7l-64 59q-12 0 -40.5 6t-58 16t-52.5 23.5t-23 28.5q0 28 18 37.5t39 9.5 q8 0 15.5 -1t13.5 -3q42 -2 83 -7t83 -5q32 0 64 5t64 7q14 5 39 8t52.5 4.5t53.5 2.5t42 3q32 5 64 12.5t64 7.5q21 0 40 -9t19 -39q0 -6 -6.5 -11t-14.5 -9l-16 -8q-7 -4 -8 -8q-3 -3 -11 -10l-18 -16l-19 -15q-9 -7 -14 -9q-15 0 -43.5 -5t-56.5 -15.5t-49 -25.5t-21 -34 v-147q0 -1 2 -7l3 -14q2 -8 3.5 -16.5t2.5 -12.5q10 -7 10 -19q-16 -29 -23.5 -59.5t-7.5 -60.5l10 -74l-5 -61q0 -14 3.5 -28t7.5 -28.5t7.5 -29t3.5 -30.5q0 -14 -3.5 -27.5t-7.5 -26t-7.5 -25.5t-3.5 -26q0 -14 2 -24t8 -26v-123q-4 -11 -4.5 -16.5t-0.5 -14.5 q0 -38 8 -68t23 -64q0 -3 10 -10.5t22.5 -15t23.5 -13.5t13 -6q21 0 34 4.5t27 4.5q12 0 34 -3t40 -13q10 -8 18 -17.5t8 -20.5q0 -15 -4 -30t-13 -20q-12 -12 -31 -12q-9 0 -20 -1t-20 -2l-40 -9q-21 0 -45.5 0.5t-49 1.5t-48 3t-42.5 4q-3 0 -11 3l-18 5q-10 3 -18.5 5 t-12.5 2q-1 0 -2 1q-1 0 -2 0.5t-2 0.5z" />
<glyph unicode="J" horiz-adv-x="837" d="M76 -576h-17q-14 -2 -27 -3t-25 -1q-16 3 -45 2.5t-60 13.5q-25 14 -43 39t-47 53q0 14 4 39t13 49.5t22.5 43.5t32.5 22q23 5 44 5q17 0 34 -5q9 0 19 -8.5t18.5 -20.5t14 -25.5t5.5 -23.5q0 -1 -1 -4.5t-3 -8.5t-3 -11q2 -5 3.5 -14.5t5.5 -13.5q8 -9 11 -18.5t3 -16.5 q-2 -23 -3.5 -28.5t-5.5 -7.5l73 -3q34 0 55 10q21 12 42 28t40 35.5t33.5 41t23.5 44.5v69q0 2 7.5 13t9.5 13l-12 52l17 79l-7 42l12 117q0 11 -0.5 18.5t-4.5 23.5q-3 21 -3 43v92q0 12 0.5 22.5t2.5 24.5q3 6 5 15t3.5 19t2 19.5t0.5 15.5q0 17 -9 29t-9 28q0 13 6 23 t6 25l-12 68l12 67q-7 29 -7 35l16 64l-14 199q0 4 0.5 14t1.5 20.5t2 19t1 10.5l9 24q-8 23 -11 33t-3 12v78l-17 38q0 10 2.5 18.5t6 16t6 14.5t2.5 15q0 12 -6 18l-11 12q-6 7 -11.5 19t-5.5 38l1 24q-10 2 -17.5 7.5t-14 12.5t-14.5 13.5t-18 9.5q-11 3 -36.5 8.5 t-51.5 13.5t-46 18.5t-20 23.5q0 6 4.5 16t11.5 19.5t14.5 16.5t13.5 7l143 -12q2 0 7 2.5t10 4.5l101 -23q11 0 16.5 3.5t16.5 3.5l90 -7l214 14h66q9 -11 17.5 -19t8.5 -21q0 -3 -6.5 -8.5t-14.5 -11.5t-16.5 -11.5t-11.5 -8.5h-107q-8 -9 -14 -13.5t-12 -7t-13.5 -5 t-17.5 -8.5q-20 -13 -30.5 -31.5t-16 -39t-6.5 -42t-1 -41.5v-28l21 -22q0 -11 -4 -21t-9 -19.5t-9 -20.5t-4 -24l7 -55l-21 -137q0 -11 2 -24t4.5 -26.5t5 -25t2.5 -18.5q3 -10 4 -19t1 -15q0 -9 -1.5 -14.5t-3.5 -8.5l-14 -76q11 -13 13.5 -20.5t2.5 -20.5 q0 -4 -3.5 -12.5t-19.5 -36.5q0 -1 8 -12t8 -15q1 -2 1.5 -8.5t1.5 -13.5t1.5 -13.5t0.5 -9.5q0 -5 -2 -21.5t-6 -34.5q-3 -20 -4.5 -37t-1.5 -20q0 -16 4.5 -21t4.5 -12q0 -13 -8 -21t-8 -24q0 -17 8 -31.5t8 -35.5l-16 -54l7 -38q0 -17 -5 -30t-7 -30q-2 -9 -5 -30l-6 -42 l-6 -42q-3 -20 -5 -28q-7 -9 -9 -15t-2 -16v-30q0 -6 -1 -8l-23 -70q-4 -32 -5.5 -64t-16.5 -58q-12 -23 -29 -41t-30 -44l-75 -78q-6 -5 -22.5 -11.5l-35.5 -13.5l-34 -12q-15 -5 -18 -8l-83 -5q-13 0 -18 5z" />
<glyph unicode="K" horiz-adv-x="1481" d="M1356 -10q-2 0 -9.5 -1t-17.5 -2l-18 -2q-9 -1 -15 -1q-9 0 -28 5t-41 12t-41.5 14.5t-28.5 12.5l-36 41q-2 3 -3.5 8.5t-12.5 10.5q-11 12 -25 22.5t-16 17.5q-11 10 -15.5 19t-8 17t-7.5 16t-13 17l-58 59l-23 38q-5 14 -17.5 27t-28 24.5t-32 22.5t-29.5 21 q-21 14 -32 35t-20 40q-9 12 -23 21l-28 20q-13 10 -23.5 22.5t-13.5 31.5l-94 90q-4 5 -14.5 8.5t-23 6t-25 3.5t-20.5 1q-9 0 -17 -5.5t-14.5 -13.5t-10 -17.5t-3.5 -17.5q0 -16 6 -32t8 -30q2 -32 4.5 -68t2.5 -71l-12 -38l5 -29l7 -57l12 -33l-12 -55q0 -27 7.5 -42 t20.5 -23t30 -11t36 -6h20q4 0 14.5 -4t21.5 -9.5t19 -11t8 -8.5q7 -11 13.5 -15.5t11 -7t7 -5t2.5 -8.5q0 -60 -62 -60q-23 0 -46 6t-46.5 13t-47 13t-47.5 6q-34 0 -67 -8t-71 -8l-52 5l-76 -5q-3 0 -9 1.5t-12 4t-11 5t-5 5.5q5 32 25 42.5t46 12.5q14 12 28 22.5 t24.5 23t17 27t6.5 33.5q0 24 -0.5 32t-2.5 13l5 65l16 31q-5 16 -8 32.5t-3 30.5v1q0 4 1 10l2 12q1 6 2 10t2 5t1 2q0 2 1 3q1 2 2 5l-4 23v100q-9 21 -15 41t-6 40q0 9 2 9l5 21q-3 21 -4 33.5t-2 20t-1 11.5v9l14 49q0 4 -2.5 7t-4.5 5l-1 39l8 73q0 14 -4 26.5t-4 23.5 l8 26q-9 45 -10.5 74.5t-1.5 55.5q0 10 -6.5 29t-16.5 38t-23 33t-25 14h-22q-8 0 -18 2q-12 6 -28 10.5t-30.5 11.5t-24.5 17.5t-10 27.5q0 12 2 19t14 11h22l92 -5l85 3q9 0 19.5 -1t19.5 -8q11 -4 22.5 -4.5t22.5 -0.5q21 0 44 5l46 16q5 2 10 2h11h24q14 0 26.5 -1 t25.5 -6l40 -11q4 -1 5.5 -13t1.5 -16q0 -13 -13.5 -24t-31.5 -20t-35.5 -16.5t-25.5 -12.5q-6 -8 -12 -26.5t-11.5 -40.5t-9 -42.5t-3.5 -30.5q0 -5 2.5 -9t2.5 -15l-21 -45q0 -8 2.5 -10.5t5.5 -3.5t6.5 -2.5t6.5 -7.5v-24q0 -15 -7 -30.5t-7 -28.5q0 -4 4.5 -13.5 t4.5 -11.5v-77q-2 -2 -5.5 -5t-3.5 -7q0 -5 6 -8t15 -3t14 4.5t9.5 11t9 14t12.5 12.5q16 11 34 20l38 18q19 9 36.5 20t31.5 25q21 20 30.5 47.5t19.5 50.5q4 7 12 10.5t16 6.5l18 6q9 4 15 10q7 7 25.5 29t37.5 48.5t33.5 51t14.5 36.5l-5 8l-11 17q-6 10 -12 18.5t-7 9.5 l-17 -2q-13 0 -26 2.5t-23.5 8t-17 14.5t-6.5 22q0 9 5 19t13.5 18.5t18 14t18.5 5.5l21 -7l90 -7q9 5 42 8.5t72 6t75 3.5t50 1q6 0 23 -2t34.5 -7t31 -13.5t13.5 -22.5q-2 -15 -11.5 -18.5t-24.5 -12.5l-33 -17q-18 -10 -35.5 -18t-32 -13t-22.5 -5q-13 -9 -18 -10.5 t-6 -1.5l-30 -14q-12 0 -27 -12.5t-29 -29t-26 -33.5l-18 -26l-16 -15q-43 -34 -73 -72.5t-67 -81.5l-14 -12l-29 -5q-13 -8 -22.5 -18.5t-18.5 -21.5l-16 -21q-8 -11 -19 -19q-5 0 -5 -5q0 -4 1.5 -11.5t3.5 -9.5v-43q8 0 24 -10t35.5 -25.5t40 -34t38.5 -36.5t31.5 -33 t18.5 -22q2 -2 9 -12t7 -14q9 -17 22 -29t27.5 -23.5t29 -25t25.5 -33.5q2 -5 7 -5q4 0 11 -0.5t15 -3.5t16 -10t15 -19q4 -11 9.5 -23t12.5 -22t16.5 -17t23.5 -7q10 -12 24 -25l30 -26l31 -28q15 -14 26 -27q1 -1 6.5 -7t5.5 -8q14 -20 33 -35l39 -29q19 -14 36.5 -30 t28.5 -38q6 -12 24.5 -15t38.5 -7.5t35.5 -15.5t15.5 -39q0 -19 -7 -32t-18.5 -21t-26.5 -11.5t-31 -3.5q-11 0 -19 2.5t-14.5 5.5t-12.5 5.5t-15 2.5z" />
<glyph unicode="L" horiz-adv-x="1456" d="M40 50q0 16 7.5 34t23.5 18l83 7q25 5 49 9t46.5 10.5t42.5 17.5t37 32q4 7 6.5 13.5t2.5 14.5q0 16 8 29q0 25 -0.5 45.5t-4.5 46.5q-2 12 -2 20v13q0 16 1 22.5t6 22.5q0 29 -1 48.5t-1 37.5q0 34 11 70l-9 148q-2 4 -3.5 16t-1.5 17q5 12 9.5 26t4.5 31q-3 29 -3.5 56 t-5.5 57q-2 8 -7 13t-5 14q0 11 5 15.5t7 9.5v48q0 21 -0.5 47.5t-3 54.5t-8.5 56.5t-17 54.5q-5 4 -14 10.5t-17 13.5l-15 12q-7 5 -8 5q-9 7 -25.5 12.5t-36.5 10.5l-40 12q-21 6 -38 14.5t-27.5 20t-10.5 27.5q0 6 7 10t17 6.5t19 3.5t14 1q12 -2 18 -2h10q8 0 10 2 q34 2 70 3.5t72 1.5q34 0 65.5 -1.5t69.5 -3.5q4 -5 9.5 -7t9.5 -2q45 4 77.5 9t59.5 10.5t52 11.5t55 11h24q19 0 46.5 -1t52 -6t42 -14.5t17.5 -27.5q0 -9 -1 -21.5t-6 -21.5q-5 -8 -29.5 -13t-53.5 -8t-57 -4t-40 -1q-5 -2 -10 -3t-9.5 -1.5t-8.5 -0.5l-17 -5 q-36 -4 -55 -7t-29 -9t-12.5 -15.5t-5.5 -27.5q-2 -17 -2.5 -34.5t-4.5 -39.5l-14 -32q0 -13 5 -28t11.5 -30.5t11.5 -31.5t5 -31l-7 -77l14 -64q0 -23 -4 -40l-10 -38q-5 -29 -6 -64t-1 -63l-2 -31q0 -25 9 -33v-202q-5 -9 -6 -13.5t-1 -9.5q0 -15 7 -27.5t7 -23.5 q0 -21 -4.5 -45.5t-9.5 -41.5q0 -2 -1 -6t-2 -9t-2 -11q3 -16 19 -32t37 -29t43 -21t37 -8l44 9q4 0 10.5 -4.5t22.5 -4.5q13 0 23.5 7t26.5 7l31 -14l64 -5l28 -7h17q28 4 55.5 7.5t54 9t51.5 15t46 27.5l3 3q4 4 4 9q5 16 13 26.5t17.5 19t20 16t20.5 18.5q14 11 25 31.5 t25 37.5q10 10 24 21.5t29 21t29.5 15.5t26.5 6q5 0 13 -1t15.5 -3t13 -5.5t5.5 -8.5q0 -22 -4 -36.5t-11.5 -26.5t-17 -23t-19.5 -24q-4 -5 -6 -14t-2 -16q0 -6 1.5 -15.5t1.5 -13.5q-3 -13 -9.5 -24t-15.5 -20l-16 -17q-8 -8 -13 -15l-5 -31q-11 -51 -44.5 -76t-83.5 -25 l-79 16l-32 -16h-109q-20 12 -35.5 14t-36.5 2q-23 0 -43 -8t-38 -8h-14l-154 21l-19 7h-90q-11 11 -18.5 12.5t-21.5 1.5q-11 0 -16.5 -1t-14.5 -8h-161q-15 -12 -47 -19.5t-67.5 -11.5t-68.5 -5.5t-51 -1.5q-13 0 -23 6t-17 15.5t-11 20.5t-4 22z" />
<glyph unicode="M" horiz-adv-x="1926" d="M82 31q0 16 3 21t12 12q16 11 40 23l49 24l48 23q23 11 38 20q22 39 31 83t9 90v29v16q0 8 1 16q1 2 2 7t2 11t1.5 11.5t0.5 8.5l12 20l1 37q0 5 -1.5 11.5t-11.5 19.5l17 55q0 8 -1.5 13t-3.5 10q-2 2 -4 8t-2 12v19l11 78l-11 68q0 23 10.5 46t10.5 45l-5 39 q0 16 3.5 34t8 36.5t8.5 38t4 38.5q-4 6 -12 16t-12 18q0 13 -2.5 33t-10 38.5t-20 31.5t-31.5 13l-83 -7h-21q-21 3 -39.5 6t-33 9.5t-23 18.5t-8.5 34q0 18 2 27t8 13t16.5 5.5t27.5 4.5l24 10h33q68 0 130 -8.5t128 -8.5q16 0 27.5 3.5t24.5 3.5q54 -21 81.5 -55 t41.5 -89l1 -12q3 -20 6 -32t9.5 -21t18.5 -17.5t34 -19.5l-2 -21q0 -15 3.5 -29.5t9 -29t10.5 -29.5t8 -33q0 -3 1 -10.5t2.5 -15.5t2.5 -15t1 -9q6 -15 18 -34l23 -37l24 -38q12 -19 20 -34q26 -55 50 -111l47 -113l29 -48q6 -11 9 -23.5t7.5 -22.5t11.5 -16.5t21 -6.5 q15 0 21 3t8 10t3 16.5t6 23.5q0 2 9.5 8t11.5 8q19 25 32 53.5t23.5 59t19.5 61.5t20 61q0 1 5 11l10 22l11 25l7 17q15 38 24.5 70t25.5 66l7 19l43 79q22 42 48 68q0 16 -2.5 23t-2.5 12t2 15.5t5 22t5 21t2 12.5q2 4 4.5 16t2.5 17l21 22q0 3 1 10.5t1.5 15t1.5 13.5 t1 8q6 13 20.5 23.5t32 17t34.5 10t29 3.5q20 0 40 -11q21 -7 43 -7l90 18q36 0 63.5 -1.5t65.5 -9.5q30 -5 30 -33q0 -26 -18 -40.5t-45 -24t-58 -16t-58 -15t-45 -22t-18 -36.5q0 -21 7 -40.5t15.5 -39.5t15.5 -40.5t7 -41.5l-16 -94v-200q5 -8 5 -21l4 -107l22 -38v-64 q0 -2 0.5 -9.5t1.5 -16.5t2 -17t1 -11q2 -16 5 -46.5t7.5 -64.5t11 -65t16.5 -47q11 -19 30 -28.5t41.5 -15.5t45.5 -10t41.5 -11.5t30.5 -20.5t12 -37q0 -20 -10 -31t-25 -17t-32 -7.5t-30 -1.5h-52q-21 0 -44.5 1t-44.5 3t-37 4.5t-23 6.5q-3 2 -20 2h-19l-108 -17l-93 10 q-4 0 -11.5 -4t-9.5 -6q-18 0 -36 3t-32.5 10t-24 18.5t-9.5 28.5q0 22 29 30l23 2q11 1 24 1q37 0 70.5 6.5t55.5 35.5q1 5 3 9l2 6q1 3 1 4q0 2 2 5l3 7l7 24q6 23 8 46t2 46q0 29 -2.5 56.5t-7.5 57.5l-2 9q-2 6 -2 15v21v32q0 18 -1.5 33.5t-4.5 28t-8 18.5q2 5 2 7v7 v16l-22 164l5 121q0 9 -1 23.5t-1.5 29t-1.5 24.5l-1 11q0 9 -0.5 26t-3.5 34t-10 30t-19 13q-4 0 -7.5 -2t-3.5 -4l-15 -69q-14 -6 -16.5 -20t-2.5 -30v-16q0 -7 -2 -13q-16 -29 -36.5 -52.5t-36.5 -49.5q-5 -5 -9 -17.5t-8 -27t-7 -27t-5 -18.5q-13 -35 -30 -70t-37 -69 l-7 -15q-2 -2 -3 -15.5t-3 -17.5q-3 -2 -8 -7l-12 -11q-6 -6 -11 -11.5t-8 -7.5l-14 -72q-3 -14 -10 -26l-14 -24l-15 -23q-7 -11 -11 -24q0 -2 -1 -10t-2.5 -18t-2.5 -19t-1 -12t-3.5 -19.5t-8.5 -35.5t-9.5 -34.5t-6.5 -17.5l-24 -28q-2 -3 -2 -19q0 -8 -1 -18.5t-5 -19.5 t-10.5 -15t-16.5 -6q-9 0 -18.5 7t-19 18t-18 23t-15.5 23q0 2 -4 7.5t-4 8.5q-19 32 -25 68t-17 74q-2 9 -12.5 29l-23.5 43l-25 43q-12 21 -18 33l-47 90l-47 90l-22 70q-29 65 -61 122l-64 116q-2 4 -7 11t-7 8l-22 24q-3 6 -3.5 13t-1.5 13t-5 10t-14 4q-5 0 -6.5 -1 t-4.5 -6l-12 -116v-48v-66q0 -33 2 -67q3 -65 3 -133l3 -9q2 -5 4 -13l5 -22l-8 -20q0 -17 -4.5 -29.5t-4.5 -38.5v-17l19 -37q2 -4 2 -9v-11v-33q0 -26 2 -51t15 -41l78 -88q0 -20 10 -30t25 -16t32.5 -9t32.5 -8.5t25 -15.5t10 -28q0 -3 -0.5 -8.5t-2 -11t-4.5 -9.5t-7 -4 h-95l-26 10h-24q-22 0 -41.5 2.5t-39 5.5t-40 5.5t-44.5 2.5q-10 0 -20 -8.5t-21 -12.5q-26 -2 -53 -7t-54 -5q-8 0 -19 -2.5t-26 -2.5q-7 0 -15.5 1t-16.5 7q-25 10 -25 40z" />
<glyph unicode="N" horiz-adv-x="1772" d="M219 102l15 4q8 4 14 12.5t11.5 18.5t12 20.5t14.5 18.5q0 11 -3.5 16t-3.5 10l31 38l28 239q13 17 15 36t2 35l-5 118q0 16 2.5 25t6.5 25q4 9 5.5 22.5t3.5 24.5v93q0 5 3 12t5 9v121l4 59q1 1 3 11t2 11q-9 32 -13 63.5t-22 57.5q-2 0 -3 3q-1 1 -2 3l-40 17l-52 52 q-9 7 -23 9.5t-28.5 4t-28.5 4t-23 9.5l-33 26q-5 5 -12.5 6t-18.5 1l-25 -1q-14 5 -24.5 17t-16.5 29q0 18 14.5 28.5t34.5 15t40.5 5.5t31.5 1q21 -7 40.5 -9.5t39.5 -3.5l41 -1q21 0 43 -3q1 0 9 -2.5l17 -5.5l19 -5q9 -2 11 -2h13l73 22q8 0 18.5 -4.5t21 -11t20 -13.5 t15.5 -11l6 -8q10 -18 26.5 -42.5t35 -49t37.5 -46.5t35 -34l48 -27q4 -2 10 -10t6 -9l8 -26q6 -11 10.5 -16.5t9 -9.5t10.5 -7.5t15 -10.5l32 -32q14 -13 23.5 -26t17.5 -29t17 -42q1 0 14 -12l29 -25l28 -25q13 -11 12 -11l11 -26q0 -3 3 -9l6 -11q4 -6 8 -11t7 -7l22 -10 l44 -42q23 -22 43.5 -46.5t37 -49.5t24.5 -49l100 -95q15 -43 51 -72t79 -29v40q0 9 1 20t3 20q0 1 2.5 6t4.5 12l5 13q3 7 3 10q0 11 -5 15.5t-5 9.5l10 57q0 27 -4 61t-6 60q0 2 -0.5 8t-1.5 13t-2 13t-1 9v2q0 9 2 15q1 3 3 4l9 19l17 92q-7 11 -9 21.5t-2 19.5l6 95 l-6 99q0 11 2 19.5t14 13.5v26q0 12 -6 27t-16 29.5t-22 26t-25 14.5q-2 0 -8 1t-13 2.5t-13.5 2.5t-8.5 2l-23 16q-2 1 -13.5 3t-15.5 2q-20 8 -35 15.5t-27 16.5t-22 21t-22 28q-5 7 -10.5 7.5t-10.5 11.5q2 6 12.5 9.5t23 6t23.5 3t14 0.5q5 0 5 -1q4 0 14.5 -2t15.5 -4 q63 -6 117.5 -13t115.5 -7l152 15q13 0 27.5 -1t26.5 -5.5t20 -14t8 -26.5q0 -28 -18.5 -41t-44.5 -20t-53 -12t-45 -16l-11 -33l-48 -45q-2 -2 -3.5 -8.5t-1.5 -10.5q1 -5 4 -13t7 -16l8 -16l7 -14v-5q0 -7 -2 -21t-5 -29t-5 -27t-2 -15q-2 -2 -2 -12v-10q0 -5 2 -7v-61 q0 -21 -3.5 -41.5t-13.5 -34.5v-123q0 -13 -0.5 -29t-2.5 -31.5t-6 -30.5t-12 -25v-28q0 -40 -4 -78l-8 -79q-2 -21 -8 -39t-6 -39v-46q0 -25 1.5 -51.5t4.5 -51.5t8 -45q6 -20 10 -35.5t6.5 -31.5t4 -33t1.5 -40v-50q-10 -17 -27 -17q-18 0 -39.5 13.5t-44 34.5t-45.5 47 l-44 53l-42 49q-20 23 -36 38q-2 4 -5.5 18t-8.5 18q-16 17 -34 40.5t-35 39.5q-21 16 -38 33t-32 35l-30 38l-30 39q-6 8 -14 13.5t-16.5 10t-15 10t-9.5 13.5q-35 48 -70 86.5t-81 67.5q-8 4 -13 10l-9 13q-4 7 -10 13.5t-16 11.5q-2 3 -8 13l-15 23l-15 24q-7 12 -9 15 l-12 10q-5 21 -12.5 35.5t-18 26.5t-24 25t-30.5 31l-9 14q-5 15 -15 25t-22 19l-24 17q-13 9 -22 20q-7 8 -10 15l-6 15q-3 7 -9 11.5t-20 6.5q-6 0 -18.5 -8.5t-12.5 -15.5l5 -29q0 -11 -5 -27t-5 -32l10 -31l-10 -28q0 -14 4 -35t13 -32q5 -16 7 -33t2 -37 q0 -22 -2 -41.5t-7 -37.5q7 -9 7 -16q0 -17 -3 -31t-6.5 -26.5t-6.5 -24.5t-3 -25v-33q0 -13 0.5 -28t2 -29.5t4 -26.5t5.5 -18q-5 -13 -8 -22t-5 -17t-3 -16t-1 -19q0 -30 6 -61.5t18.5 -61t31.5 -55.5t46 -45q8 -5 17 -7l19 -4q10 -2 19 -6t16 -13q16 0 34 -1.5t34.5 -4.5 t30.5 -8.5t22 -13.5q8 -18 13.5 -33t5.5 -41q-17 -22 -34.5 -34.5t-46.5 -12.5h-19l-40 21q-30 5 -73.5 8t-83.5 3h-68q-11 0 -22 -1t-25 -6h-160q-3 10 -11.5 12t-17.5 3t-15.5 3t-6.5 11q0 23 10.5 37.5t27 23.5t36.5 14l39 8h7z" />
<glyph unicode="O" horiz-adv-x="1697" d="M100 502q0 13 7 25.5t7 27.5l-26 111q0 29 3.5 65t8.5 63q8 25 13 53.5t8 57t4 54t1 43.5q11 14 22 24t20 19.5t15 22t9 31.5l55 57l26 12q6 3 14 14t16 25l17 28q9 14 17 21q57 41 112.5 76t121.5 68q5 1 10 3q5 1 9.5 2t7.5 1q16 2 26 7.5t19 11t19.5 10t25.5 4.5 l49 -8l15 8l37 11q45 6 87.5 7t86.5 1q14 0 46.5 -6t68 -14.5t65.5 -17.5t40 -14q29 -20 52.5 -48t49.5 -48q16 -12 31 -20l31 -16q15 -7 30 -15.5t29 -21.5q5 -2 12 -8t14 -13.5t12.5 -14t8.5 -9.5l7 -31q2 -12 10.5 -22.5t18.5 -21.5l20 -20q10 -10 13 -21q8 -12 18 -30.5 t20 -39.5t17 -41.5t9 -35.5v-59q4 -17 7.5 -27t10.5 -21q4 -11 7 -21.5t3 -27.5q0 -2 -1 -7t-1.5 -11t-1.5 -11.5t-1 -8.5l10 -26l-5 -43q2 -5 2 -12v-16q0 -32 -4 -56.5t-8 -31.5q-11 -32 -25 -59l-29 -53l-30 -55q-14 -28 -27 -61q-6 -6 -12 -9t-12 -5t-12 -6t-11 -11 q-3 -5 -7 -13l-8 -17q-4 -10 -9 -19t-11 -15l-20 -12q-8 0 -15.5 -7.5t-7.5 -13.5l-20 -24l-28 -32l-29 -31q-14 -14 -23 -21l-12 -7q-5 -2 -9.5 -4t-6.5 -2l-111 -38q-7 -8 -10 -12.5t-6 -6.5t-7 -3.5t-13 -3.5l-66 -6l-71 -31q-9 -2 -18 -3q-8 -1 -16.5 -1.5t-16.5 -0.5 q-11 0 -27 3l-32 5q-17 3 -34 7l-29 6q-20 5 -42 6t-44 1q-38 0 -73 2.5t-69 16.5l-15 21q-11 3 -26 4.5t-30.5 4.5t-29 8t-20.5 15q-15 18 -24 30.5t-18 22t-22.5 18t-37.5 18.5l-31 7q-10 5 -22 20t-24 35t-24.5 43t-22.5 45l-18 38l-12 26q-9 24 -22 34l-26 20 q-12 10 -21 26t-9 52zM311 725q0 -20 7.5 -37t17.5 -33t18.5 -32t10.5 -35q2 -3 2 -12l-2 -48q0 -9 2 -20t10 -22q6 -11 13 -16l14 -9q6 -4 11.5 -10t8.5 -19l1 -10q0 -7 -0.5 -13t-0.5 -18q0 -17 5 -28q4 -11 15 -14t18 -12q15 -39 30 -64.5t41 -47.5q35 -28 71.5 -54 t75.5 -46.5t82 -32.5t91 -12q13 0 22 2t18 5l17 6q9 3 22 6l64 9q35 6 64 6q21 16 47 30t51.5 29.5t47 34.5t34.5 45l52 105q14 10 20.5 26t10.5 33t8.5 34t15.5 30l21 138q0 16 -2.5 30t-2.5 34l12 33q0 16 -7.5 38.5t-17.5 45.5l-22 46l-19 38l-10 17l5 28q0 15 -5 26.5 t-11 20.5l-12 19q-6 10 -8 22l-9 49q-9 28 -37 65.5t-63 73.5t-71 63.5t-61 34.5q-15 5 -41 6t-42 1l-26 32q-7 3 -24.5 8.5t-37 11t-38.5 9t-29 3.5q-20 0 -51.5 -4t-64.5 -12t-61 -20t-41 -28l-5 -16q-8 -6 -16.5 -9.5t-16 -8t-13 -11t-8.5 -19.5q-23 -6 -31.5 -11 t-12.5 -11l-7 -14q-4 -7 -18 -18q-39 -26 -63 -67t-36.5 -89t-17 -98.5t-4.5 -93.5l5 -71q0 -9 -8 -21.5t-8 -26.5z" />
<glyph unicode="P" horiz-adv-x="1184" d="M71 62q0 6 4 12.5t9.5 12.5t11 11t8.5 8h26q22 0 43.5 1.5t41 6.5t37 17t32.5 33l31 38q5 5 6 9.5t1 15.5l-7 131q0 32 10.5 61t10.5 57q0 31 -10.5 64t-10.5 67q0 8 3 13l5 12l5 11q2 6 2 14l-10 71l10 95v39l-15 27q-2 25 -5 48l-4 40q-2 20 -3 33l14 47q0 14 -6 46 t-16 66t-21.5 62t-22.5 34q-17 5 -47 9.5t-59.5 14t-51.5 25.5t-22 44q0 9 5 9q16 0 28 3t22.5 7t21 7t23.5 3l80 -10l161 16l33 -11l52 11q29 4 57 5.5t57 1.5q27 0 54 -1.5t53 -5.5q21 -11 42.5 -12.5t43.5 -1.5q24 0 47 -2t45 -7q18 -3 47 -16.5t59.5 -32t56 -40.5 t36.5 -42q9 -23 16.5 -50t13.5 -54.5t9.5 -55t3.5 -51.5q0 -12 -0.5 -32t-3 -41t-6.5 -39t-10 -27l-30 -38l-7 -38q-5 -12 -22.5 -32.5t-39 -42t-42 -39.5t-32.5 -23q-9 -5 -22 -11l-27 -14q-14 -7 -26.5 -12.5t-20.5 -7.5l-70 -5l-44 -14q-12 0 -29 3.5t-32.5 10.5 t-27 15.5t-11.5 19.5q0 16 21 24l116 24q1 5 7.5 8.5t11.5 5.5q35 18 65 47.5t52 65.5t34.5 76.5t12.5 82.5q-2 8 -5.5 14.5t-4.5 11.5q0 1 -1 2.5t-1 5.5l-9 65q-5 38 -15 65q-4 10 -21.5 27.5t-39.5 37.5l-46 40l-40 33l-89 21h-79q-9 -5 -25.5 -9t-32 -10t-27.5 -16.5 t-12 -28.5v-116q7 -9 8 -14t1 -17l-9 -38q0 -2 4.5 -12.5t4.5 -15.5v-17l-18 -52l23 -116q0 -9 -0.5 -14.5t-4.5 -16.5v-154q4 -9 4.5 -16.5t0.5 -16.5l-14 -58q0 -37 10 -73.5t12 -74.5q1 -28 1 -57.5t1 -59t4 -58t12 -55.5q1 -7 22.5 -22t48.5 -30.5t51.5 -27t31.5 -11.5 h31q11 0 16 -0.5t12 -4.5q0 -1 5 -5l10 -10l12.5 -10t11.5 -8q2 -5 3.5 -8t1.5 -8v-3q-9 -20 -27.5 -31t-40.5 -16t-45 -6t-42 -1l-76 14q-11 0 -21.5 -4.5t-22.5 -4.5l-83 23h-12q-8 0 -10 -2q-43 -5 -86 -15.5t-92 -10.5q-20 0 -49.5 1t-57.5 7t-48 18.5t-20 35.5z" />
<glyph unicode="Q" horiz-adv-x="1678" d="M77 753q0 28 12.5 53t16.5 52q0 2 1 12t2.5 21.5t3 21.5t2.5 13q2 3 8 15l13 24q6 12 12.5 23t8.5 14q0 1 1 5.5t2.5 9t2.5 9t1 5.5q31 68 82 122.5t110 99.5l10 5l15 9q8 4 15 8.5t8 6.5q7 2 18 9.5t13 9.5q1 1 5 6l9 9q4 5 9 9.5t7 4.5q1 1 7.5 2.5t15 3t15.5 2.5t10 1 q1 1 6 4t11.5 6.5t12.5 6t8 2.5h2h7q11 3 22 10t22.5 13.5t23 11.5t23.5 5h6q1 -2 8.5 -6.5t10.5 -4.5q4 2 14.5 8.5t14.5 10.5q32 5 64 8t64 3t65 -3t67 -8q1 0 11.5 -2t24.5 -5l28 -6q14 -3 22 -6q2 0 9.5 -4t9.5 -4q1 -2 7 -8l12 -13q6 -7 12 -12.5t9 -6.5 q4 -2 13.5 -3.5t21 -3t23 -2t20.5 -0.5h8q1 -3 4.5 -7.5t8 -9t9 -8t6.5 -4.5q1 -1 5.5 -2.5t9.5 -3t10 -2.5l4 -2q2 0 10 -9t9 -10q10 -7 21 -11.5t23 -8.5l22 -8q11 -4 21 -11q2 0 9 -8t12 -11q42 -48 77 -93.5t66 -98.5q10 -17 21.5 -45.5t21.5 -59t16.5 -59.5t8.5 -48 v-76q0 -5 4 -16.5t6 -13.5v-5q0 -25 -4 -46t-10 -40.5t-13 -39.5t-13 -42q-4 -18 -5 -31t-2.5 -25t-5.5 -24.5t-14 -28.5q-1 -1 -6 -5l-9 -8l-9 -9l-6 -6q-1 -1 -5.5 -8t-9 -15.5t-9 -15.5t-5.5 -9q-14 -22 -31 -41t-36 -37l-38 -34l-39 -33q-7 -5 -22 -18l-33 -27l-32 -26 l-20 -16q-8 -6 -25.5 -12t-35.5 -13t-31.5 -14.5t-13.5 -17.5q0 -11 4 -15.5t16 -13.5q4 -2 10 -7l12 -10l11 -8q5 -4 6 -5q1 0 8 -1t15 -2.5t15 -3t9 -1.5q3 -2 14.5 -7.5t24.5 -12.5t24.5 -12.5t14.5 -5.5q29 -14 57.5 -18t58.5 -12q2 0 9.5 -4.5t9.5 -5.5q7 -3 21 -8 l27 -9l24 -8q11 -3 14 -3q4 -1 19.5 -4t33.5 -6l34 -6q15 -2 19 -3t23 -8l41 -14l46 -15l35 -11q18 -7 35.5 -12t34.5 -11.5t33.5 -14.5t31.5 -21l37 -7l56 -11l55 -12q25 -5 34 -8q4 0 15.5 -4.5t13.5 -6.5q34 -13 69 -19.5t71 -10.5t71.5 -7t70.5 -9q2 -2 13 -6.5t13 -4.5 h16h15q2 0 14 4l16 7h95l10 8h144q2 0 9 4l12 7q17 10 34 16.5t34.5 11.5t36 9.5t38.5 10.5q19 4 36 15l33 23q16 12 33 21t38 9q16 0 26.5 -5.5t16.5 -14.5t8.5 -21t2.5 -25q0 -19 -7 -35.5t-18 -31t-25 -27.5t-28 -24q-42 -34 -84 -55l-89 -42q-13 -6 -27 -9l-27 -5 q-14 -2 -27.5 -5.5t-25.5 -9.5q-3 -2 -12 -7l-21 -11l-21 -12q-10 -5 -14 -8q-75 -2 -147 -10.5t-147 -8.5h-83q-23 10 -45 11t-50 8q-2 0 -9 5t-8 5h-44h-17q-5 1 -26 6l-47 11l-51 12l-38 9q-2 0 -10.5 4.5t-10.5 6.5h-9q-8 0 -18 -1t-22 -1q-11 0 -23.5 2t-22.5 8 q-2 1 -6 5l-8 10l-9.5 9.5t-6.5 5.5h-7h-24h-7q-2 0 -11.5 2.5l-20.5 5.5l-22 7q-10 3 -13 4q-2 0 -10.5 1.5t-18.5 3t-18.5 3t-11.5 2.5q-2 0 -9.5 8.5t-9.5 10.5q-3 1 -14 3.5t-24 6t-24 6t-14 3.5l-10 5l-19 9l-18 9q-9 4 -12 5q-1 1 -6.5 2.5t-11.5 3.5l-13 3q-6 1 -7 1 q-5 2 -16 5.5t-14 5.5q-2 0 -13 6l-24 13l-24 12q-12 6 -15 7h-12h-38h-9q-2 0 -9 5.5t-15 12.5l-14 13q-7 5 -8 7q-16 11 -34 11.5t-34 7.5q-29 13 -52.5 30.5t-54.5 28.5q-2 0 -10 1.5t-17.5 3t-18 2.5t-11.5 1q-5 2 -16.5 5.5t-12.5 5.5q-1 0 -3 4l-6 10q-3 5 -6 9.5 t-4 5.5h-21h-9q-2 0 -9.5 4.5t-9.5 4.5q-4 2 -12.5 5l-17.5 6l-18 5q-7 3 -9 3h-19q-2 0 -8 4l-12 10q-7 5 -12 9.5t-6 5.5q-4 2 -16 5.5t-14 3.5q-3 1 -11 5.5t-17 8.5l-17 9q-9 5 -13 6q-2 1 -6 4l-8 6q-5 4 -9 6.5t-5 2.5q-2 1 -7.5 2.5t-12 3t-12 3t-8.5 2.5q-3 0 -13 1 t-21.5 2.5t-21 3t-11.5 1.5l-29 13l-42 21l-39 20q-18 10 -23 14q-4 3 -16 14.5l-25 24.5l-23 25q-11 12 -14 14q-2 0 -6 3t-9 6t-9.5 6t-6.5 4l-26 21l-35 28l-30 25q-13 11 -15 12q-1 1 -5 7l-8 13l-9 16l-7 13q-3 7 -10 21l-15 30l-13 28q-6 13 -7 17q-5 10 -13 29 l-16 40l-14 36q-7 16 -8 20v19v48q0 3 -5 10.5t-5 8.5l-4 25l-5 38l-6 38.5t-4 27.5v19zM288 718v-7q3 -2 6.5 -13t3.5 -13q14 -54 22.5 -108.5t28.5 -105.5q29 -75 66 -141t88 -129q1 -2 4.5 -5.5t5.5 -3.5q2 -2 13.5 -5.5t14.5 -4.5q3 -2 14 -12l24 -21l25 -22 q12 -10 15 -13q1 -1 7.5 -2t15 -2.5t15.5 -2.5t10 -1q1 -1 9 -5.5t18 -9.5l19 -9q8 -5 11 -6t16 -2.5t27.5 -3t27.5 -3t16 -1.5q1 0 7 -1l11 -3l12 -3q6 -2 8 -2h4q4 -1 9 -1t10 -0.5t8 -0.5q6 0 16 1t11 1t5 2.5t8.5 6t9 6.5t5.5 4q14 5 34 6.5t34 12.5q2 2 8.5 9.5 t14.5 15.5l15 15q7 7 10 9q2 0 10.5 1.5t18.5 3t18.5 3t11.5 2.5l7 7l12 12l12 13q5 5 7 6q4 3 12 10l15 12q7 6 13.5 10.5t7.5 5.5t6.5 3t12 3.5t12.5 2.5t7 1q3 1 8 6l9 9q4 4 7.5 8t5.5 5q1 2 2 8t2.5 12.5t2.5 12t1 7.5q2 5 5.5 15.5t5.5 12.5q1 2 4 6.5t6.5 9t6 8.5 t2.5 5q1 3 3 15l3 25l3 25q1 12 1 15q0 1 3 8l7 14l6 15q3 6 3 8q1 3 2.5 10t3 15t2.5 14.5t1 8.5v35v83q2 27 11.5 57t9.5 59q-1 0 -1 1v2q-1 1 -1 3q0 5 -8.5 17t-10.5 15q-1 3 -3.5 14t-6 24t-6 24.5t-3.5 14.5q-1 1 -3.5 6.5t-6 12t-6 12.5t-3.5 8t-2 11.5t-2.5 21 t-3.5 21.5t-3 13q0 2 -7 10l-15 18l-16 18q-7 8 -8 11q-11 17 -17.5 38t-12.5 42.5t-14 40.5t-24 33q-1 1 -7 3t-12.5 3.5t-12.5 2.5t-7 1l-5 5l-9 9q-5 5 -9 9.5t-5 6.5q-2 1 -7.5 3.5t-12.5 6t-13 6t-7 3.5q-2 1 -7 6l-12 9l-12 9q-6 4 -7 4q-34 11 -72.5 14t-71.5 15 q-20 7 -32 8.5t-26 1.5h-19h-39q-4 0 -15 -5t-14 -5h-36h-12q-4 -1 -18.5 -8l-30.5 -15l-30 -16q-14 -8 -17 -9q-32 -15 -59.5 -32t-51.5 -37t-46.5 -43t-44.5 -51q-13 -16 -14 -34t-5 -34l-5 -11l-10 -18l-9 -18q-5 -9 -5 -11q-2 -4 -5 -19.5t-6 -33.5l-5 -33 q-3 -16 -3 -20l-20 -78q-10 -38 -22 -76v-5z" />
<glyph unicode="R" horiz-adv-x="1548" d="M1172 36q-61 50 -107 113t-78 133l-14 36q-5 10 -14 20l-19 21l-18 20q-9 10 -13 19l-22 36l-75 82q-2 29 -27.5 56.5t-60 49.5t-71 35t-60.5 13q-10 0 -25 -3t-29.5 -9.5t-25 -16.5t-10.5 -23l7 -38q0 -14 -3.5 -20t-3.5 -15q0 -16 1 -25.5t6 -26.5l-9 -159l2 -21 q1 -17 1 -33v-33v-32q0 -14 -1 -30q0 -9 8 -21t19 -17l47 -31q14 -10 36 -14t46.5 -6t49 -3.5t44 -7t32 -16t12.5 -29.5q0 -15 -11.5 -27.5t-27 -21.5t-32.5 -14t-29 -5q-16 0 -29.5 3.5l-27.5 7.5l-28 9q-14 5 -30 8q-36 7 -71.5 12.5t-80.5 18.5q-11 0 -23.5 -3.5 t-28.5 -3.5l-71 7q-11 0 -23.5 -10.5t-26.5 -10.5l-163 6q-10 10 -10 20q0 24 23.5 38t54 23t59 15t38.5 14q11 16 11 36.5t4 34.5q5 2 10.5 8t7.5 6q9 22 11.5 52t2.5 59v43q0 21 -4.5 36.5t-4.5 32.5l21 180l-16 97l-5 23v5q0 3 0.5 10.5t1 16t1.5 16t2 10.5q12 5 14 8 t2 10l-12 62l12 54q0 1 2.5 11t2.5 14l-5 26v30l5 64l-17 152v21q-22 27 -43 46t-45 32.5t-51.5 23.5t-63.5 19q-14 3 -14 17t18.5 24t42.5 16t47 9t32 3l59 -5l63 5l88 -19q27 0 53 7t57 7l83 -9l85 9q50 0 97 -9.5t95 -23.5q23 -8 50.5 -12.5t48.5 -18.5l22 -16 q40 -24 72.5 -45.5t55 -48t36 -62t16.5 -88.5q2 -26 7 -47.5t5 -47.5q0 -11 -2.5 -17t-6.5 -11t-8.5 -10t-8.5 -14q-5 -10 -7 -23l-4 -27q-2 -14 -5 -26.5t-8 -19.5q-17 -24 -40.5 -39t-44.5 -36q-9 -15 -28 -24l-38 -19q-19 -9 -33.5 -22t-14.5 -35q0 -11 4 -16t9 -9t11 -8 t11 -12q1 -3 9 -15l17 -25l18 -26q8 -11 10 -12q37 -48 66.5 -98t67.5 -94l45 -52q23 -26 52 -43q8 -4 14 -15t11 -24l11 -27q6 -13 13 -21q38 -27 70.5 -48t67.5 -47q16 -11 37.5 -19t41 -18t33 -24.5t13.5 -36.5q0 -21 -17.5 -27t-38.5 -6h-147q-31 14 -61 14.5t-68 4.5 q-8 1 -20.5 6.5t-26 13t-26.5 15.5l-23 15zM489 810q0 -23 8.5 -40t23.5 -28.5t34.5 -17.5t40.5 -6h36q3 16 29.5 27.5t59 20t64 14.5t45.5 12q20 9 40 27.5t36 36.5l33 63q15 26 24.5 54t9.5 60q0 8 -3.5 15.5t-7.5 15t-7.5 16t-3.5 19.5q6 27 7 33t1 10v10q0 4 -9.5 12 t-10.5 12q-24 44 -55 73.5t-68.5 47t-81 25t-93.5 7.5q-4 0 -17 -2l-28 -5q-15 -2 -27.5 -4.5t-15.5 -4.5q-2 -2 -5 -8l-7 -11l-7 -12q-3 -5 -4 -7v-28q0 -54 -10 -105.5t-24 -105.5l-14 -20l21 -26q1 -5 3 -20.5t4 -24.5v-14q-2 0 -4.5 -4t-2.5 -8q0 -2 2.5 -10t4.5 -9z " />
<glyph unicode="S" horiz-adv-x="1050" d="M349 10q-26 9 -55 14l-59 9q-29 4 -56 11t-48 21.5t-33.5 39.5t-12.5 65v25l19 191q4 8 7 12.5t13 4.5q22 0 32 -19q38 -54 66 -105l62 -108q4 -10 21.5 -19.5t41.5 -19t52 -17.5t53.5 -14t46 -9.5t30.5 -3.5h19q16 0 18 2l11 7l16 11l16 11l10 7q4 4 14 8t14 4l41 11 q4 0 18 21.5t29 47.5q18 30 38 69q0 2 1 11t1.5 19.5t1.5 20t1 13.5v16q0 11 -0.5 19.5t-2 17t-4 18.5t-6.5 24l-2 6q-8 11 -20.5 20t-22.5 21q-12 17 -17 26t-10 15t-14 11t-29 14q-1 0 -11 3t-15 7q-14 8 -27 11.5t-26 5.5l-28 3q-14 1 -29 6q-14 11 -23 22.5t-26 19.5 q-3 0 -10.5 1.5t-16 3.5t-16 3.5t-9.5 1.5l-52 54q-14 10 -25 15l-22 8q-10 4 -19.5 9t-21.5 16q-9 8 -13.5 16t-7.5 16t-5.5 16t-7.5 16q-2 8 -8.5 19t-10.5 17q-23 27 -37 46.5t-21.5 38.5t-10 41.5t-2.5 57.5q0 42 10 87.5t29 88.5t46.5 81t62.5 65q10 10 22.5 14.5 t26 6.5t27.5 2.5t27 3.5t25 9l23 13q11 6 23.5 11t26.5 5q43 0 81.5 -5t76.5 -14q26 -6 47.5 -16t48.5 -10q19 0 34.5 11t30.5 24.5t31.5 24.5t37.5 11q19 0 25 -18t6 -34l-19 -65l8 -118v-26q0 -27 -1.5 -45.5t-8.5 -46.5q-2 -5 -6.5 -9t-7.5 -4q0 -2 -7 -2q-5 0 -15.5 13 t-24.5 33l-31 44l-32 47q-16 22 -30.5 40t-25.5 25q-20 13 -44 21.5t-50 13t-52 6.5t-48 2q-33 0 -57 -6t-42 -19t-32 -33.5t-26 -48.5q-10 -22 -16.5 -35t-11 -24t-6.5 -23.5t-2 -33.5q0 -53 18 -92t48 -67.5t70 -47t85 -31.5l10 -7q24 -15 42.5 -25.5t35.5 -19t36 -16.5 l42 -19l116 -74q2 -1 4.5 -3.5t5.5 -4.5q4 -3 7 -6l18 -50q4 -7 7.5 -15.5t7.5 -12.5q3 -2 10 -10t14.5 -17.5t13 -18t5.5 -11.5q3 -6 8 -18l9 -23l7.5 -23t3.5 -16v-147q0 -1 -4.5 -13t-9.5 -20q-3 -1 -5 -5q-1 -2 -2 -5l-4 -13l-8 -22q-4 -12 -8 -22t-6 -12 q-3 -9 -10.5 -19t-16.5 -19t-17.5 -16t-12.5 -10q-9 -12 -10 -26t-12 -21q-39 -14 -64 -32l-47 -32q-23 -16 -48 -27t-63 -11h-12q-27 2 -35.5 2.5t-12.5 0.5z" />
<glyph unicode="T" horiz-adv-x="1491" d="M352 43q0 28 17 42.5t43 14.5l66 -8q25 0 50.5 10t48 26.5t38.5 38.5t22 46v53q5 44 14 83.5t9 81.5l-14 43v230q-2 12 -2.5 23.5t-0.5 26.5v182q4 11 5 26.5t1 33.5q0 19 -1.5 32.5t-1.5 25.5l7 10v116q-8 17 -11 30.5t-8 23t-14.5 14.5t-30.5 5l-55 -14q-26 0 -52 8 l-54 19q-49 -3 -82 -6.5t-60 -10.5t-53 -18t-61 -30q-13 -17 -24 -41t-23.5 -46.5t-28.5 -38.5t-38 -16h-14q-8 0 -14.5 1.5t-11.5 4.5t-5 8q0 17 2.5 29.5t6.5 23.5t7.5 22.5t5.5 26.5v64l16 38q3 7 5 21l5 31l6 32t6 26q3 15 7 31t11 29.5t17.5 22.5t27.5 9q19 0 41 -15 t44 -35l44 -37q22 -18 40 -24q9 -2 31 -6l48 -7q26 -4 48 -6.5t31 -2.5q15 0 27 2.5t23 6t23.5 6t29.5 2.5h25q22 0 26 -1l15 -8q12 -6 14 -8h5q17 0 32.5 3.5t31.5 7.5t32 7.5t34 3.5q21 0 39 -6t34 -6h31q41 0 80.5 2.5t80.5 5.5l85 6q44 3 93 4q14 0 24 -3.5t21 -3.5 q13 0 21.5 6.5t15.5 14.5l13 17q7 9 16 14q13 5 24 12l22 15q11 8 21.5 13t23.5 5q11 0 19.5 -12.5t15.5 -20.5q0 -2 1 -3q0 -1 1 -1q-2 -6 -2 -16v-20v-99v-21q0 -8 2 -13l8 -108q0 -3 -1 -11l-1 -17q0 -8 -0.5 -15.5t-0.5 -9.5q-7 -12 -26 -12q-18 0 -32 13.5t-27 31.5 l-24 35q-11 18 -24 27q-20 16 -38.5 27t-34.5 32l-36 -4l-236 19l-34 -8l-50 8h-18l-15 -15q0 1 -1 -10l-3 -27l-2 -32t-1 -26l7 -104v-199l-14 -75l14 -122q0 -11 -1 -17t-6 -18q0 -12 0.5 -39t0.5 -61q0 -32 -0.5 -57t-0.5 -37l-7 -50q0 -12 1 -33.5t3 -47.5t6 -53.5 t11 -50.5t16.5 -39.5t22.5 -19.5l130 -33h23l27 6q12 0 20.5 -6.5t14 -16.5t8 -20.5t2.5 -19.5q0 -17 -7 -26.5t-18 -14.5t-24.5 -6t-26.5 -1q-11 0 -20 3t-20 11q-9 5 -21 9t-24 4l-50 -13q-20 0 -48 7t-57 12q-1 0 -9 -1.5t-18 -4t-18.5 -4t-10.5 -1.5h-90q-23 -1 -41 -9 t-40 -8l-20 6q-13 3 -15 3q-14 0 -26 -3l-25 -8l-37 -8q-17 -4 -38 -4h-15q-14 0 -26 2t-30 7q0 2 -5 19.5t-12 28.5z" />
<glyph unicode="U" horiz-adv-x="1734" d="M396 227l-39 105q-19 54 -39 102q0 2 -1.5 5t-3.5 6q-3 4 -5 8v97l-9 19v73q-3 7 -9 13l-11 12q-6 6 -10.5 13.5t-4.5 18.5q-1 11 -1 21v19v18q0 8 1 16v139l-5 76l5 19l-5 45v19l5 69q-2 5 -3 9q-2 10 -2 14q-2 4 -6.5 14.5t-11 23.5t-14.5 25.5t-16 19.5q-8 6 -21 12 l-30 14q-17 8 -34.5 19t-32.5 26q-9 10 -19 16.5t-18.5 11.5t-14 10t-5.5 13q0 14 9 24t22.5 16t29.5 8.5t29 2.5l33 10l52 -5h19q32 0 61.5 -4.5t48.5 -9.5l56 2q11 0 24.5 1t27.5 4q14 2 26 5.5t24 3.5q21 0 36.5 -4.5t27.5 -4.5q25 0 47.5 6t51.5 6l45 -3l16 -8l20 -10 q9 -5 15.5 -10.5t6.5 -11.5v-44q0 -9 -19.5 -19t-44 -18.5t-48 -15.5t-31.5 -11q-23 -14 -52.5 -34t-49.5 -45v-100l-9 -80q0 -4 1.5 -10.5t1.5 -17.5q0 -18 -10 -31v-128l7 -26q0 -2 2.5 -17t5.5 -35t5.5 -41t2.5 -35q-3 -5 -5 -11.5t-2 -19.5q0 -4 2 -7.5t13 -6.5v-59v-23 q0 -10 2 -22l16 -48l57 -116l23 -41l24.5 -39t27 -36t34.5 -29l46 -11l25 -26q29 -20 64.5 -23t71.5 -3h33q14 0 27.5 1.5t29 4.5t37.5 8q7 0 12.5 3t10.5 7t10.5 8t14.5 6q26 5 41 11.5t26.5 15.5t24.5 21.5t34 29.5l26 12q1 0 6.5 13l13.5 33l16 44l16 47l15 40q6 17 9 24 q6 12 11 35.5t9.5 50t8.5 53t8 46.5q0 18 -3 43t-3 47l-5 23l21 38q0 4 -5.5 15.5t-10.5 15.5v66l14 114l-12 95q0 4 -1 12.5t-1 22.5q-2 4 -10 17t-16 28l-22 38q-3 2 -11 6l-16 9q-9 5 -16.5 8.5t-10.5 3.5l-20 9l-24 11q-12 6 -23.5 10.5t-20.5 6.5q-8 3 -24 5t-32.5 6 t-28.5 11t-12 21v15l33 7l36 19q18 4 37 5l37 2q19 1 37 4t33 12h43q35 0 66.5 -2.5t70.5 -2.5h57q38 20 80.5 29t87.5 9q4 0 12.5 -2t17.5 -6t15.5 -10.5t6.5 -14.5v-59l-9 -5q-18 -11 -38 -13l-41 -4q-23 -3 -45 -9t-47 -10q-30 -22 -43.5 -53.5t-20 -66t-11.5 -69 t-17 -62.5v-234l-14 -38v-123q-4 -8 -4.5 -15.5t-0.5 -20.5q0 -12 2.5 -19t2.5 -23l-13 -36q-5 -20 -12 -38.5t-11 -39.5l-21 -85q-8 -26 -18 -48.5t-23 -44.5q-5 -11 -12 -18.5t-14.5 -14.5t-14 -15t-9.5 -19q-13 -30 -54 -61l-42 -35l-43 -34q-8 -4 -15 -11l-15 -13 q-8 -6 -16 -11t-18 -7h-33l-46 -22q-12 -4 -27.5 -4.5t-30.5 -0.5h-43l-66 -6l-51 6l-77 -6q-1 2 -9.5 5t-19.5 8q-13 6 -28 11l-29 9l-31 7q-25 8 -45.5 12.5t-22.5 6.5q-7 4 -12 11.5t-9.5 15t-10 14.5t-13.5 11q-31 14 -58 34t-47 53z" />
<glyph unicode="V" horiz-adv-x="1339" d="M376 697l-1 7q-14 37 -27.5 67t-22.5 68q-3 12 -10 21l-14 19q-7 10 -13 19.5t-8 20.5q-11 51 -23.5 98t-30.5 95l-24 51l-14 50q-11 19 -27.5 33t-33.5 26l-32 25q-15 12 -23 26q-11 0 -24.5 1.5t-26 6.5t-21 13.5t-8.5 22.5q0 15 9 23t21 8l59 -7q5 0 10 5t14 5 q8 0 14 7h69l114 -10q34 0 62.5 8t60.5 13q20 1 34.5 2t25.5 1q12 0 27.5 2.5t33.5 6.5q3 0 17 -1.5t29 -5.5t27 -11.5t12 -18.5l-5 -55q0 -6 -8.5 -12.5t-20 -12.5t-23 -9.5t-16.5 -3.5l-33 7q-20 0 -32.5 -1.5t-33.5 -5.5q-9 -4 -15.5 -12t-6.5 -19q0 -23 9 -43t13 -42 l6 -81q2 -17 7.5 -33.5t12.5 -32.5l14 -32q7 -16 11 -32v-50q0 -4 8.5 -14t10.5 -14q11 -20 18 -45.5t13 -52.5t12.5 -53.5t15.5 -47.5q10 -27 26.5 -57t23.5 -57l5 -57q6 -10 12.5 -29t14 -37.5t16 -32.5t19.5 -14q17 0 27.5 9.5t21.5 20.5l8 10q5 11 5 19q-1 11 -1 18v12 q0 7 1 8l33 54l12 31l13 37l13 38l11 36q6 13 11 31.5t11 37.5t14 36t19 28q-3 2 -3 14v48q0 5 0.5 9t2.5 9q0 2 1.5 9t4 15.5t5.5 17t5 13.5l12 24v49q5 4 13 11.5t8 12.5q17 42 28 96t11 105v19q-9 14 -20 26t-32 17q-15 3 -39 3q-16 0 -33 1.5t-31 7t-23 16t-9 29.5 q0 15 5.5 24.5t15.5 15t23 7t27 1.5l177 -22q44 0 88 21q23 6 43 12.5t38 6.5q26 -12 49.5 -15.5t49.5 -3.5h21h12q5 0 12 1q5 -2 9 -5q4 -2 7 -4t3 -4q4 -8 6.5 -17t2.5 -18q0 -22 -9 -36q-4 -11 -14 -20.5t-15 -11.5h-57l-25 6q-4 0 -11.5 -1.5t-16.5 -3.5t-17.5 -3.5 t-12.5 -2.5q-23 -19 -38.5 -43t-26 -50.5t-17 -54t-10.5 -54.5q0 -7 -5 -12l-30 -42q-10 -10 -10 -27v-15q0 -7 -2 -15q-3 -7 -8 -11.5t-11 -8.5t-11 -8t-8 -10l2 -36q0 -26 -5.5 -49t-24.5 -36l-22 -87q-21 -20 -38.5 -51.5t-30.5 -60.5q-5 -12 -6 -23.5t-2.5 -22.5 t-6 -22.5t-16.5 -23.5q0 -19 -4.5 -36t-11 -33.5t-15.5 -34.5l-18 -36q-9 -22 -18 -49t-20 -48l-16 -22q-8 -8 -10 -16q0 -6 1 -14t1 -17q0 -13 -1 -20t-1 -11q0 -3 -2 -9.5l-4 -13.5l-5 -13q-2 -5 -3 -7l-8 -16q-3 -9 -7 -30.5t-9.5 -45t-11 -44.5t-9.5 -29 q-11 -35 -30.5 -51t-55.5 -16q-10 0 -18 9.5t-14.5 22.5t-11 26t-6.5 20q-3 7 -8.5 30t-10.5 50l-11 52q-6 25 -10 37q-11 50 -26 94.5t-24 92.5q-2 10 -9.5 16t-16 11.5t-16 12.5t-10.5 19l-14 90q-2 5 -6 18l-8 25q-4 13 -7 24t-3 14q-5 21 -16.5 39t-11.5 39z" />
<glyph unicode="W" horiz-adv-x="1953" d="M926 1009l-50 141l-21 39q-11 29 -15.5 58.5t-15.5 56.5q-6 12 -23.5 15.5t-37 7t-34.5 11t-15 27.5q0 21 12 28.5t29 7.5q21 0 40 -1t40 -6q14 -2 29 -3.5t33 -1.5h31q26 0 31 2q17 7 34.5 8.5t34.5 1.5h21q26 -4 37 -4.5t15 -0.5q46 11 78 17.5t67 6.5q3 0 11.5 -1 t16.5 -3.5t14.5 -6t6.5 -8.5q6 -9 10.5 -18t4.5 -18q0 -8 -4.5 -17t-10.5 -18q-7 -5 -15 -10t-13 -5l-41 12q-21 0 -44.5 -6t-43.5 -18t-33 -30.5t-13 -44.5v-15q5 -20 8 -37t5 -32.5t3.5 -32.5t2.5 -37l2 -19q0 -11 6 -27t13.5 -33t15.5 -32.5t12 -24.5q8 -25 15 -52 l13 -55l13 -54q7 -27 18 -52q0 -30 0.5 -52t4.5 -33q0 -2 4 -7l7 -11l8 -11q3 -5 3 -7t3.5 -11t7 -19.5t7 -19t3.5 -9.5q2 -7 4 -20.5t6 -27t10.5 -23.5t17.5 -10q25 0 39 11.5t22.5 28.5t14.5 35t14 32l26 33q2 2 3.5 8t2 13.5t1 14t0.5 9.5q2 4 10.5 10.5t10.5 8.5 q6 8 9.5 26.5t9 40.5t13 44t20.5 36q4 4 8 11.5t4 9.5l4 16q3 12 6 25.5t5 25t2 14.5l12 14q1 0 6 11l12 26l13 32q6 17 9 28q12 25 31 47t28 49l12 73q9 20 13 28t4 19t-1 15.5t-2 8.5q-4 18 -17.5 23.5t-15.5 5.5l-49 13h-26q-12 0 -23 0.5t-24 1.5t-29 3q-5 8 -11 20 t-6 23q0 12 11 23t26 19.5t30 14t23 5.5q38 0 82 -3.5t82 -20.5l87 19q11 0 21 -9.5t19 -9.5q4 0 9.5 4.5t9.5 5.5q29 14 62.5 25.5t65.5 11.5q11 0 18.5 -7.5t7.5 -20.5q0 -8 -3.5 -18.5t-10 -20.5t-14.5 -16.5t-17 -6.5q-11 -3 -21 -11l-19 -14q-9 -7 -18.5 -12.5 t-19.5 -5.5h-7q-4 0 -5 1q-1 0 -7.5 -2.5t-15.5 -7t-18 -11t-15 -13.5q-17 -23 -27.5 -36t-17.5 -33q-26 -50 -46.5 -97.5t-46.5 -101.5q-13 -26 -17.5 -54.5t-13.5 -54.5t-28 -52.5t-31 -53.5q-8 -17 -14 -33l-13 -32l-14.5 -32.5t-17.5 -35.5q-9 -21 -24.5 -44.5 t-22.5 -45.5q-9 -22 -14.5 -45.5t-10 -47t-10.5 -46t-16 -41.5l-9 -13l-17 -20l-16 -20q-7 -9 -7 -11l-5 -59q-9 -18 -23.5 -28t-23.5 -31q-4 -16 -6 -40.5t-4.5 -50t-7.5 -48t-15 -34.5q-4 -6 -12 -15l-16 -16q-8 -8 -14.5 -13.5t-7.5 -5.5q-4 -4 -10 -5.5t-12 -1.5 q-19 0 -37 7q-10 2 -18.5 17t-15.5 36.5t-13.5 46.5t-11 47.5t-7.5 40t-5 23.5l-6 92q0 3 -3.5 14.5t-8 24t-8 23.5t-3.5 12q-11 39 -14.5 76t-9.5 73q0 4 -5 10l-12 13q-5 9 -13.5 21t-11.5 15q0 2 -2.5 15.5t-4.5 17.5q0 1 -1.5 9t-3.5 10h-15q-17 0 -30 -15t-23.5 -35 t-19.5 -40t-17 -31q-2 -3 -8 -8.5t-12.5 -13t-12.5 -16t-9 -16.5l-7 -52q0 -2 -3 -8l-8 -11l-7 -12q-4 -5 -4 -7q-4 -17 -6 -35t-13 -34q-2 -6 -5 -8t-6.5 -4t-6.5 -5t-5 -11q-1 -7 -4 -19l-7 -25l-7 -21.5t-3 -12.5v-55q0 -2 -0.5 -5t-0.5 -5l-13 -46q-8 -28 -20 -54 t-28.5 -44.5t-37.5 -18.5q-13 0 -29 11.5t-31.5 28t-27.5 34.5t-17 32q-8 20 -12 41t-6.5 42t-5.5 43t-8 43q-3 12 -9 22l-14 20q-7 10 -13 20t-9 21q-8 29 -18 55.5t-22 51.5l-24 52q-12 25 -24 54q0 5 -1.5 11t-1.5 8v52q-2 9 -7.5 20t-12.5 23l-14 22q-7 11 -11 20 q0 1 -2.5 7t-4.5 10q-8 32 -17 62l-20 60q-10 30 -18.5 60.5t-13.5 63.5q-11 10 -16.5 22.5t-8.5 26.5l-6 27q-3 14 -7 27l-26 65q-13 32 -27.5 62t-32.5 58.5t-44 55.5q-11 8 -26 10t-28.5 5t-23.5 9.5t-10 23.5l-2 26q0 9 10 19q8 6 21 9.5t27 6t28 3t25 0.5q6 -1 14 -3 t10 -2h2q40 0 83.5 7.5t82.5 11.5l79 -9l61 9l109 -14q20 -6 23.5 -20.5t3.5 -31.5v-19l-12 -15h-97q-13 -8 -25.5 -14t-22.5 -14t-16 -20t-6 -32q0 -9 4 -16.5t9 -14.5l10 -13q6 -7 8 -15q6 -23 9 -45l6 -44q3 -22 8.5 -44.5t15.5 -46.5q2 -6 10 -22l16 -34l16 -33 q7 -15 7 -21l14 -108l46 -65q1 -2 2 -8.5t2 -14t2 -14t1 -8.5q5 -34 14.5 -69t23.5 -66l19 -36l6 -12q5 -9 10 -17l9 -16q5 -7 7 -9q5 -7 8 -18.5t6.5 -22t9 -18t15.5 -7.5q11 0 21.5 6t23.5 27q2 4 10 13l17 21l18 22q8 10 11 15q0 19 5.5 32t12.5 25l16 24q8 12 14 28 l40 123q4 15 10 30l11 30q6 15 10 31t4 35q0 22 -7 42t-15 39.5t-15 39.5t-7 43v6z" />
<glyph unicode="X" horiz-adv-x="1657" d="M36 29q0 24 15 39.5t39.5 25.5t55 16t60.5 10.5t57 9.5t45 12q17 7 40 24.5t46.5 39.5t43 44.5t29.5 40.5l1 5l2 10q1 6 2 10.5t2 5.5q6 18 16.5 31.5t22.5 24.5l26 22q14 11 27 24q9 10 15 25l13 29q7 15 16.5 27t24.5 16q5 0 10.5 6t9.5 8l13 22q5 10 18 24t28.5 26.5 t31.5 23t27 13.5q5 1 5 12t-9.5 27t-24.5 33l-30 33q-15 17 -27 28q-26 27 -26 34q-1 2 -2.5 8t-3.5 12.5t-4 11.5l-2 6q-2 3 -8.5 8t-14 10t-13 9t-6.5 6l-41 69l-33 26q-17 16 -26.5 36.5t-25.5 36.5l-57 55q-3 22 -7.5 32t-11 15.5t-14.5 10t-19 15.5l-16 31 q-23 26 -46.5 43.5t-60.5 17.5h-149q-11 0 -18 6t-11.5 14.5t-6.5 18.5t-2 18q0 24 11.5 38t29 20.5t38 8.5t39.5 2q15 0 23 -1.5t20 -12.5h149q11 -5 19 -6t24 -1l106 7q8 0 29.5 -1t49 -2.5t58 -3.5t55.5 -4.5t41.5 -6t16.5 -6.5q2 -7 4 -11t2 -8q0 -5 -2 -13t-4 -13 q-4 -14 -23 -21l-42 -15q-23 -8 -41 -20.5t-18 -36.5q0 -21 8 -39.5t19.5 -35.5t25 -32.5t25.5 -31.5q1 0 3 -6t2 -8q16 -40 42 -73l48 -65q0 -7 3 -11q2 -3 4 -5q0 -4 1 -16.5t6 -14.5q4 -5 13.5 -10t20.5 -10l21 -10q10 -5 16 -9l13 -6q14 5 32 27t37.5 54t39.5 70l38 74 l34 67q15 31 25 49q8 16 18 24.5t10 25.5q0 4 -3.5 15.5t-8 24t-9 22t-7.5 9.5q-14 -2 -24 -6t-24 -4q-13 0 -27 4t-30 6q-8 5 -14.5 8.5t-11.5 8t-8 11t-3 17.5t2.5 22t16.5 11q26 4 62.5 7t81.5 3q50 0 107.5 -3t119.5 -7q43 4 85 9t81 5q22 0 34 -8.5t12 -34.5 q0 -14 -10.5 -23t-26.5 -14.5t-36 -9t-38 -6t-32.5 -6t-20.5 -9.5l-53 -52l-35 -17q-12 -9 -26 -24.5t-27 -32.5t-24 -34t-17 -30q0 -4 -1 -15t-5 -13q-2 -2 -10 -3.5t-9 -1.5q-16 -11 -35 -31.5t-35 -32.5q-11 -16 -12.5 -34t-11.5 -30l-47 -47q-20 -26 -34 -48.5 t-40 -48.5q-17 -18 -17 -32q0 -26 18.5 -56.5t41.5 -59.5l44 -51q21 -23 24 -34l41 -75q11 -20 31 -37.5t32 -31.5q17 -27 27 -53t26 -52q4 -9 17 -16t19 -12q36 -40 58 -62l33 -33q12 -12 15.5 -15t4.5 -6l50 -43q21 -11 43 -16l44 -12q23 -5 45 -11t43 -18v-23 q0 -13 -5.5 -20t-14.5 -10.5t-20.5 -4.5t-23.5 -1h-26q-11 0 -25 3l-28 7l-29 7q-15 4 -29 4q-13 0 -26 -3.5t-29 -3.5l-50 12l-61 -5h-20q-10 0 -15 0.5t-10 4.5h-50l-192 -12h-19q-8 0 -17 1.5t-17 4t-13.5 6.5t-5.5 10q0 8 13 18t32 21l41 23q23 13 42 25.5t32 26 t13 26.5q0 5 -3 12l-4 13q-3 7 -6 15q0 3 -6 9l-13 12l-14 12q-6 6 -8 9q-6 10 -9 21.5t-5.5 22.5t-5.5 21t-10 18q-2 1 -7 5t-11 10l-10 10q-5 4 -6 6v28q-7 19 -19.5 36t-26 33.5t-26 34t-20.5 37.5q-3 5 -10 20t-15.5 30.5t-16.5 27.5t-13 12q-37 -38 -62 -83l-52 -90 q-37 -58 -67.5 -112t-48.5 -112q-2 -2 -3.5 -8t-1.5 -10q-2 0 -7.5 -7t-6.5 -8q0 -21 10 -34.5t25 -23t33 -17.5t33 -17t25 -20.5t10 -29.5t-16.5 -26t-29.5 -12q-2 -2 -11.5 -4.5t-22 -5t-24.5 -4.5t-18 -2h-4q-35 0 -69 10.5t-68 10.5l-119 -26q-5 1 -9 2l-8 2q-4 1 -7 1 q-18 0 -40.5 -5.5t-45 -12.5t-42.5 -12.5t-33 -5.5q-16 2 -34.5 7t-22.5 5q-13 5 -22 8t-14.5 7t-8 11t-2.5 22z" />
<glyph unicode="Y" horiz-adv-x="1392" d="M305 76q0 13 12.5 22t29.5 14.5t34 8t26 2.5l40 -5q11 6 27.5 8t32 6t28 12t14.5 26v27l19 18q0 10 -3.5 15.5t-7.5 8.5v95l11 109v41q0 64 -12 120q-14 51 -58 100q0 9 -4 18.5t-9 20t-9 20.5t-5 19v43l-12 16q-11 8 -23 21t-23.5 27.5t-21 30t-15.5 28.5q-2 0 -4 10 t-2 14q-5 22 -17.5 49t-28.5 54.5t-33.5 53.5t-32.5 46q-7 11 -9 23l-4 25q-2 13 -7 25t-18 22q-16 10 -44 18.5t-55 19t-47 26.5t-20 41q0 11 8 21.5t19 18t24 12t23 4.5q18 0 38.5 -5.5t41.5 -6.5h69q48 -5 94.5 -15.5t92.5 -10.5l92 20q11 0 25.5 -2t28 -7.5t23 -14.5 t9.5 -22q0 -18 -12 -30.5t-29.5 -22t-38 -18t-38 -19.5t-29.5 -26t-12 -37q0 -6 5.5 -26.5t14.5 -48t20 -58t22 -57t21 -45.5t16 -22q3 -9 12 -28l18 -40l20 -38q9 -18 14 -26q1 -5 10 -21.5t20 -34.5t21.5 -32t15.5 -14q10 0 25.5 11t32 26.5t30 31.5t19.5 26q2 4 3.5 15 t1.5 13t2 6t4 4q2 4 10.5 14t18.5 20l19 20q9 10 12 14q3 25 15 47t27 43l28 42q14 21 22 44q11 23 17 41t12 39l14 31q0 9 -6.5 22t-15.5 26t-18 23.5t-14 14.5h-5q-6 0 -14 -0.5t-17 -0.5q-15 0 -30 1.5t-26.5 7t-19 15t-7.5 24.5q0 16 8 33t25 17q2 0 7 -3.5t7 -4.5h2 q18 0 32 4t28 4l158 -8q36 0 65 1t64 7q2 0 10 1.5t17.5 3.5t19.5 3.5t16 2.5q9 0 13.5 -2t15.5 -9l69 -8q8 -1 18 -3t19 -6.5t15.5 -12t6.5 -18.5q0 -4 -6 -11t-8 -12q-4 -4 -13 -9t-19 -9.5t-20 -8.5t-15 -5q-14 -14 -30.5 -22t-39.5 -10q-31 -5 -52.5 -14t-42.5 -27 q-9 -8 -14.5 -14.5t-5.5 -11.5l-68 -69q-3 -13 -8.5 -18.5t-11.5 -8.5l-13 -6q-7 -3 -12 -12q-6 -9 -9.5 -20t-6.5 -22.5t-6.5 -22t-10.5 -18.5l-74 -80q-4 -5 -6.5 -14.5t-2.5 -23.5v-20q0 -9 -2 -11q-4 -16 -20.5 -30.5t-36.5 -29t-38 -30t-24 -33.5l-17 -52 q-9 -15 -16.5 -23.5t-13 -16t-9 -18.5t-3.5 -32l16 -114l-16 -137q0 -18 0.5 -39t2 -42.5t5 -42t8.5 -36.5q8 -7 18 -8t15 -3l20 -22q4 -4 23 -8.5t45 -8.5l55 -10q29 -5 54 -10.5t41 -11t16 -10.5q3 -5 4 -11.5t1 -12.5q0 -7 -1 -12.5t-4 -13.5q0 -1 -4 -3l-9 -5 q-5 -2 -10 -5t-8 -6q-4 0 -10.5 -3.5t-6.5 -5.5h-45q-55 0 -107 1.5t-103 12.5q-45 8 -82 13.5t-68 5.5t-60.5 -6t-58 -13t-57 -13t-58.5 -6h-24q-21 0 -41 3.5t-32 18.5q-6 9 -7 26t-1 33z" />
<glyph unicode="Z" horiz-adv-x="1437" d="M100 16q0 2 -1 7v10t-0.5 9.5t-0.5 5.5v14q0 12 2 20.5t9 19.5q4 4 18 21l31 37l31 36q14 17 16 22l22 30q12 16 23 33.5t19.5 35.5t12.5 36q6 4 18 17l27 26q14 13 25.5 25.5t15.5 17.5q21 23 34.5 48t33.5 48q2 3 12 13l22 21l22 21q10 9 11 12q1 2 2.5 8t3.5 12.5 t3.5 12t2.5 7.5l5 5q4 4 8.5 9t9.5 9t7 5q1 3 9 16l18 27l18 27q9 13 12 16q1 3 5 9l8 13l9.5 11t6.5 7q2 4 9.5 10.5t9.5 8.5q1 1 5.5 2.5t9.5 2.5t9 2l4 1q1 2 2.5 8t2.5 13t2.5 12.5t2.5 6.5t5 5.5t9 9.5l9 8q5 4 7 5q0 2 1 8l3 13q2 6 3 11.5t1 7.5l4 4q2 2 3.5 2.5 t3.5 1.5q0 1 4 4l8 6l9 6q5 3 6 3q7 5 9.5 8.5t3 7.5t2 9t6.5 13q5 13 13 28t19 28t24.5 22t30.5 11q2 5 8 19l14 29l14 29q7 13 10 18q8 14 9.5 22.5t1.5 22.5q0 12 -6.5 19.5t-16.5 11.5t-22 6l-23 4h-9q-14 0 -25 -5t-23 -5q-5 0 -7 1q-2 0 -3 1q-3 0 -10.5 4t-8.5 4 q-2 0 -8 -1l-12 -3q-6 -2 -11.5 -3t-6.5 -1q-6 -1 -26 -2t-43 -2.5t-42.5 -3.5t-23.5 -3q-2 0 -8 -1t-12 -2.5t-11.5 -2.5t-6.5 -1q-5 0 -16 3t-14 4h-154q-3 0 -11 -3l-16 -8l-17.5 -10t-12.5 -8q-5 -2 -19 -15t-31 -31l-34 -34l-25 -26q-9 -11 -20.5 -36t-25.5 -50.5 t-31 -43t-37 -13.5q-8 2 -13.5 9t-9 16t-5 18t-1.5 14q0 17 6 32.5t14 30.5l16 31q8 15 12 30q0 3 1.5 10t3 15.5t3 15t1.5 8.5q1 3 5 11l10 19l9 18l5 11q6 19 7 35t2.5 29.5t7.5 25.5t21 24q3 1 8.5 1.5t12.5 1t12 0.5h9q31 0 64.5 -8t59.5 -33h49q32 0 64.5 6t64.5 6 q14 0 27 -6t27 -6h9q1 1 7.5 4t15 6.5t15.5 6t10 2.5q1 0 6.5 -1t12 -2.5t12 -2.5t7.5 -1h11q15 0 29.5 3.5t30.5 3.5h16q45 -8 89 -13.5t94 -5.5h9q1 0 5.5 2t9.5 4t9 4t5 2q7 0 34.5 -1t53.5 -1h23q9 0 14 2q13 1 26 6.5t26.5 12t26.5 12t26 5.5h11q4 0 10 -2l13 -3 q6 -1 10.5 -2.5t4.5 -2.5q1 -1 4 -8l8 -16l9 -18l8 -15v-7q0 -14 -8 -27.5t-19 -25t-22.5 -21t-17.5 -16.5q-47 -51 -82 -108l-72 -114q-30 -43 -68 -81t-67 -81q-3 -2 -6 -15t-3 -15q-2 0 -5.5 -4t-4.5 -4q-2 -1 -6 -4l-9 -5q-5 -3 -9.5 -6t-5.5 -4q-6 -5 -15 -15l-18 -18 l-16 -17q-7 -7 -8 -9q-2 -2 -6.5 -13l-9.5 -24l-8 -25l-5 -14q-7 -18 -22 -36l-27 -32q-6 -8 -24 -30l-37 -46l-38 -47l-25 -31l-9 -19q-1 -2 -20 -25l-43 -53l-50 -62l-41 -53q-8 -10 -15.5 -16.5t-13 -13.5t-9 -16t-3.5 -22q0 -8 7.5 -13t17.5 -8t20 -4.5t15 -2.5 q1 0 8 -1.5t15.5 -3t15.5 -3t10 -2.5l5 -3q6 -2 12 -6l13 -6l8 -4h3h5q37 11 72 23.5t74 14.5q6 0 17 0.5t26 0.5t32.5 0.5t34.5 0.5q35 0 66.5 -1t44.5 -1q2 3 8.5 6.5t10.5 3.5q2 0 9.5 -4t9.5 -6h4h6q1 1 5 4l8 6q5 4 9.5 6.5t5.5 2.5q2 2 9.5 -3.5t9.5 -5.5h5h6 q2 3 8.5 10.5t14 15t15 14t10.5 9.5q5 2 9 4q3 2 6 3t4 2t3.5 7t6 12.5t6 12t3.5 6.5t3.5 5.5t6 9.5t6 9t3.5 5l10 21l18 37l18 37l11 21q3 6 18.5 19t33.5 26t35 23t24 10q14 0 23 -9.5t14 -22.5t6.5 -27t1.5 -23v-8q0 -5 -2 -7l-14 -29l-20 -43l-20 -44q-9 -21 -12 -29 q-15 -36 -24 -69t-23 -59t-40 -43t-77 -21h-17h-24q-10 0 -18 -1t-19 -8h-586q-6 -2 -20 -3l-29 -4q-15 -1 -28.5 -2t-17.5 -1q-3 0 -14 1l-22 4q-11 1 -20.5 2.5t-11.5 2.5h-12h-10q-2 -2 -13.5 -6t-12.5 -4h-70h-67q-5 0 -19 4.5t-19 14.5z" />
<glyph unicode="[" horiz-adv-x="858" d="M846 1436q13 -3 16 -11.5t3 -19.5v-14q0 -22 -1.5 -39.5t-10.5 -40.5q-1 -5 -6 -8.5t-11 -5.5t-11.5 -3.5t-7.5 -1.5q-35 -6 -66.5 -8t-63.5 -2h-52q-13 -9 -28 -9h-10q-23 0 -43 5.5t-40 5.5h-14q-10 0 -12 -2q-9 0 -22 -1l-27 -3l-25 -3.5t-13 -1.5t-7 -5l-12 -11 q-6 -6 -11.5 -12.5t-7.5 -9.5q-6 -13 -8 -38.5t-2 -47.5v-23q0 -47 2.5 -102.5t7.5 -96.5q0 -3 3 -10l7 -15q3 -9 6 -15.5t3 -7.5v-16q0 -11 -2.5 -18.5t-16.5 -14.5v-67q0 -2 -1.5 -7.5t-3.5 -12t-3.5 -12t-1.5 -6.5q0 -3 0.5 -10.5t0.5 -17t0.5 -20.5t0.5 -21v-18 q0 -8 -2 -10q0 -2 -2.5 -7.5t-5.5 -11.5l-7 -12q-3 -6 -4 -7v-5v-5q0 -1 2 -6l3 -13q2 -7 3.5 -13t1.5 -7v-41v-16q0 -2 2 -8l3 -12q1 -7 2.5 -12.5t1.5 -6.5v-9v-10q0 -2 -1.5 -7.5t-3 -12t-3 -12t-1.5 -6.5v-6v-3q0 -4 1.5 -17t3 -27.5t3 -27t1.5 -16.5q0 -2 0.5 -15.5 t1.5 -29.5l1 -34v-27v-21l-1 -32l-1 -31q-1 -15 -1 -21q-2 -5 -5.5 -19.5t-3.5 -18.5q0 -5 -0.5 -19t-0.5 -30t0.5 -29.5t0.5 -18.5q-5 -5 -12 -14.5t-7 -13.5t4.5 -16t4.5 -13q5 -25 5 -50.5t14 -48.5l7 -7l9 -11q5 -6 9 -11.5t4 -6.5q1 -3 4.5 -11.5t6.5 -18.5l6 -18 q2 -8 2 -9q5 -7 15.5 -14t14.5 -9q7 0 24.5 -1.5t37.5 -3t37.5 -3t24.5 -1.5h16h15q2 0 13.5 1.5t24.5 3t24 3t13 1.5q2 2 7 2h12q14 0 30 -1t18 -1q4 2 15.5 6t15.5 4h23h26q2 0 13 -4t13 -6q2 0 11.5 1t17.5 1h8q3 0 4 -2q18 -2 29 -12.5t17 -25t8.5 -31.5t2.5 -31v-6 q-14 -17 -31 -26.5t-36 -14t-39.5 -6t-41.5 -1.5q-44 0 -87 3.5t-86 8t-86 8t-86 3.5h-67q-1 0 -6 -2l-12 -4q-6 -3 -12 -5t-8 -2q-20 0 -44 5.5t-44 16.5t-33.5 28.5t-13.5 41.5q0 52 5 104t5 105q0 46 -8 91.5t-11 90.5v28v69q0 4 -1.5 22.5t-3 39.5t-3 39.5t-2.5 23.5v3 v7q1 9 2 29.5t2 46.5l2 53q1 28 1.5 54t1.5 46t1 30q3 3 6 14t3 16v3v5q-2 3 -8.5 14.5t-10.5 15.5v308q2 2 6 12.5t4 15.5q0 3 -1.5 14.5t-3.5 24t-3.5 24t-1.5 14.5v173q0 1 -1.5 7t-3 13t-2.5 13l-2 5q0 1 -0.5 12t-0.5 25v28v22v18v26q0 14 0.5 25.5t0.5 16.5 q14 18 29.5 26t32 10.5t34.5 2.5t37 1q3 0 14 2l22 2q11 2 20.5 3.5t11.5 1.5h29h80q2 0 13 5t13 5q6 1 25 2.5t42.5 3t45.5 2.5t34 1h17h50q2 2 13.5 6t12.5 4h12h7q5 0 16 -2l24 -2l24 -4q11 -1 16 -2z" />
<glyph unicode="\" horiz-adv-x="588" d="M552 -445q-3 17 -7 24t-8 12l-9 10q-5 6 -11 22v29q-2 14 -7.5 22.5t-12.5 15.5t-14.5 13.5t-13.5 17.5q-5 5 -8 15t-4.5 21t-1.5 23v19v25q-7 5 -13 16t-6 22l-19 36q-4 4 -10.5 14.5t-6.5 18.5q0 5 3.5 11t3.5 8q0 19 -4 31.5t-9.5 22t-12 16.5t-11.5 15q-3 11 -5 29.5 t-4.5 37.5t-6 36t-10.5 25l-6 5q-7 5 -15 12l-14 13q-7 6 -8 9l-7 40q0 2 -3.5 6t-8 7.5t-8 7t-4.5 3.5q-11 11 -11 32l2 43q0 16 -2 28t-8 24l-19 24l-24 30l-22 30q-10 14 -13 23q-4 18 -4.5 36t-16.5 38q-9 14 -12.5 22.5t-5.5 16t-5.5 16.5t-12.5 25v28l-40 116 q-5 5 -10 12t-9 19v29q0 9 2 17q-38 47 -50 109v33q0 11 -1.5 17t-10.5 11l-20 27l-26 34l-25 35q-12 17 -18 30q0 30 -0.5 39t-4.5 18q-10 13 -18.5 22.5t-15 18.5t-10.5 20t-4 28v53q-2 1 -5 6l-6 11q-3 5 -5 10t-2 6v64q14 7 34 15t36 8q31 0 51 -14t39 -37q3 0 10 -21.5 t14.5 -49t13 -52.5t5.5 -32q11 -29 27.5 -56t27.5 -57l37 -114q18 -58 41 -112q7 -18 17 -30l18 -23q8 -11 14 -24t6 -32l2 -21q0 -2 5 -10l5 -11q12 -12 19.5 -33t13.5 -44l10 -47q5 -23 11 -39q3 -16 10.5 -30.5t15.5 -28.5t15.5 -28.5t10.5 -31.5q0 -4 1 -11.5t6 -21.5 q11 -40 26 -83t36 -78q3 3 12 -16t22 -50l28 -70l30 -75l27 -66q12 -30 21 -44q4 -11 7.5 -19.5t3.5 -24.5q0 -14 0.5 -21t2.5 -13l6 -6l12 -10q6 -5 11 -10t6 -7q0 -2 1 -9.5t2 -16.5t1.5 -17.5t0.5 -12.5q4 -14 13.5 -24t14.5 -19v-19q3 -20 12 -39l19 -37q9 -19 16.5 -38 t7.5 -40q0 -3 -8 -15.5t-18.5 -26.5t-21 -25t-16.5 -11z" />
<glyph unicode="]" horiz-adv-x="905" d="M71 -471q-14 3 -16.5 12t-2.5 20v13q0 23 1.5 40.5t10.5 39.5q0 4 5 8t11.5 6t12 3.5t7.5 1.5q35 7 66.5 8.5t63.5 1.5h52q13 9 27 9h11q22 0 42 -5t41 -5h14q9 0 12 1q8 0 22 1l27 3l24.5 3.5t12.5 1.5q2 1 7.5 5.5t11.5 10.5t11.5 12.5t7.5 9.5q7 13 9 38.5t2 48.5v22 q0 47 -3 102.5t-8 96.5q0 3 -2.5 10t-6 15.5t-6.5 15t-4 7.5v16q0 12 2.5 19t16.5 14v67q0 2 1.5 8t4 12t4 11.5t1.5 6.5q0 3 -0.5 10.5t-0.5 17.5t-0.5 21t-0.5 21v18q0 7 2 9q0 2 2.5 8t5.5 12l6 11q3 6 5 7v6v5q0 1 -1.5 6.5t-4 12t-4 12t-1.5 7.5v41v16q0 2 -2 8l-3 13 l-2 11.5t-1 7.5v8v11q0 1 1 6.5t2.5 12t3 12t1.5 7.5v5v3q0 4 -1.5 17t-3 27.5t-2.5 27.5t-1 17q0 2 -0.5 15t-1.5 29.5t-1.5 33.5t-0.5 27q0 6 0.5 21t1.5 32t1.5 32t0.5 21q1 4 4.5 19t3.5 19q0 5 1 18.5t1 29.5t-1 30t-1 19q5 4 12 13.5t7 13.5q0 5 -4 16.5t-4 13.5 q-5 25 -5 50t-14 48q-2 1 -7 6.5t-9.5 12t-8.5 11.5t-5 7l-4 12q-3 8 -6 18l-6 17q-2 8 -3 10q-4 6 -14.5 13t-14.5 9q-7 0 -25 2l-38 3l-37 3q-18 1 -25 1h-15h-16q-2 0 -13 -1.5t-24 -3t-24 -3t-13 -1.5q-2 -1 -8 -1h-11q-14 0 -30 0.5t-19 0.5q-4 -2 -15.5 -6t-15.5 -4 h-22h-26q-2 0 -13.5 4t-12.5 6q-3 0 -12.5 -0.5t-17.5 -0.5q-10 0 -12 1q-18 2 -29 12.5t-17 25.5t-8.5 32t-2.5 31v5q13 17 30.5 26.5t37 14.5t40 6t41.5 1q43 0 86.5 -3.5t86.5 -7.5t85.5 -7.5t85.5 -3.5h68l5 2l12 4l13 4q6 2 8 2q20 0 43.5 -5.5t44 -16.5t34 -28.5 t13.5 -41.5q0 -52 -5.5 -103.5t-5.5 -105.5q0 -46 8.5 -91t10.5 -91v-27v-70q1 -5 2 -22.5t2.5 -38.5t3 -39.5t3.5 -23.5v-4v-7q-1 -10 -2 -30t-2 -45l-2 -54l-2 -53q-1 -26 -2 -46.5t-1 -30.5q-2 -3 -5 -14t-3 -16v-3v-5q1 -3 7.5 -14t11.5 -16v-308q-3 -2 -7 -12.5 t-4 -14.5q0 -3 1.5 -14.5t4 -24.5t4 -24.5t1.5 -14.5v-173q0 -1 1 -7t2.5 -12.5t3 -12t1.5 -6.5q1 -2 1.5 -12.5t0.5 -24.5v-28v-22v-19v-26q0 -13 -0.5 -25t-1.5 -16q-14 -18 -29 -25.5t-32 -10.5t-35 -3t-37 -1q-3 0 -14 -1l-21 -4q-11 -1 -20.5 -2.5t-11.5 -1.5h-30h-79 q-1 0 -5 -1.5t-8.5 -3.5t-8.5 -3l-4 -2q-6 -1 -25.5 -2.5t-42.5 -3t-45 -2.5t-34 -1h-18h-50q-2 -1 -13 -5.5t-13 -4.5h-12h-7q-5 1 -17 3l-23 2l-23 4q-11 1 -16 1z" />
<glyph unicode="^" horiz-adv-x="964" d="M473 988h-5q-14 -7 -25 -22t-20 -32t-16.5 -34.5t-14.5 -29.5q-2 -1 -6 -6l-10 -12l-9 -12q-4 -6 -5 -8q-8 -15 -12.5 -33.5t-10.5 -35t-16.5 -27.5t-32.5 -11q-10 0 -23 7.5t-10 21.5q3 18 11.5 33.5t19.5 31.5l20 31q10 15 16 32q8 24 14 51.5t13.5 55.5t17 54.5 t23.5 49.5q4 7 14 22l21 30l20 28l12 17q3 4 14 14.5t16 13.5q1 0 3 1q2 0 2.5 0.5t2.5 0.5t5 -1t6 -1q28 -7 43.5 -13t32.5 -25q1 -3 4.5 -10t5.5 -9q17 -61 30 -121l27 -121q3 -17 11 -37.5t8 -40.5v-9q0 -1 -1.5 -6.5t-3 -12t-2.5 -11.5t-1 -6v-7q0 -14 4 -28.5t4 -28.5 q0 -20 -6 -36.5t-21 -27.5q-3 3 -11 9l-15 11l-15 11q-6 5 -8 7t-5.5 9t-4.5 12q-2 2 -5 9t-6 15l-5 15q-3 6 -3 7q-2 2 -5 8l-6 13q-3 6 -5.5 12t-2.5 7q-2 3 -5 17.5t-6 31.5l-5 30q-3 13 -3 16q-3 9 -7.5 20t-11 22t-14 21.5t-16.5 16.5h-5z" />
<glyph unicode="_" horiz-adv-x="966" d="M20 -206v45q0 13 1 32.5t7 38t19 32.5t37 16h67q26 5 50 12.5t56 7.5l73 -13q20 0 30.5 3.5t26.5 3.5q22 0 44 -4t43.5 -8.5t43 -8t42.5 -3.5l147 19l55 -9q11 0 17.5 3.5t17.5 7.5l18 7q6 2 22 2q31 0 58.5 -10t44.5 -30q6 -3 6 -9q0 -4 -1 -7t-2 -5q-2 -3 -3 -5 q0 -14 -1 -26.5t-4 -23.5l4 -45l-6 -28q-12 -11 -27.5 -18t-32.5 -10.5t-34.5 -5t-33.5 -1.5q-31 0 -70 4.5t-71 4.5q-189 0 -376 -9q-43 -1 -85 -8t-81 -7q-14 0 -30 4.5t-30.5 12.5t-26 17.5t-15.5 20.5z" />
<glyph unicode="`" horiz-adv-x="1071" d="M233 1401q0 19 8 35.5t21 28.5t30 19t35 7q22 0 41.5 -9t36 -23t31.5 -32l28 -33q2 -3 5 -6t5 -6q2 -2 7.5 -9t11.5 -16l11 -18q6 -9 8 -14q1 -2 4 -7t6 -12l5 -12q3 -5 4 -7q2 -2 5.5 -5t6.5 -6q11 -9 28.5 -21.5t26.5 -26.5q2 -1 7 -9l12 -18l12 -19q6 -8 7 -11 q2 -2 8.5 -7t12.5 -12l13 -12q6 -5 8 -7q4 -7 8 -22.5t7 -32t4.5 -32t1.5 -22.5q-10 0 -23.5 0.5t-28 2.5t-27.5 6.5t-22 12.5q0 3 -3.5 10.5t-3.5 8.5q-1 1 -5.5 3t-9.5 3.5t-10 2.5t-6 2q-2 1 -9 8l-14 15l-15 15q-7 7 -10 8q-2 3 -13 6t-13 5q-13 8 -28 21l-28 26l-28 26 q-14 13 -25 22l-19 19l-34 31l-34 30q-15 14 -19 17q-15 17 -26.5 35.5t-11.5 40.5z" />
<glyph unicode="a" horiz-adv-x="885" d="M490 118q-4 -2 -12.5 -11.5t-13.5 -9.5l-38 -19q-2 -1 -7 -4l-10 -8l-9 -8q-4 -4 -5 -4q-2 -1 -7.5 -2t-12 -2t-12 -1.5t-8.5 -0.5q-8 -2 -14.5 -7t-13 -11.5t-14.5 -13t-18 -11.5h-95q-5 0 -13.5 2t-18 5t-18.5 7t-14 7q0 2 -5.5 9.5t-6.5 12.5q-2 2 -3 5q-3 3 -3 6 l-27 26q-8 16 -13.5 40.5t-5.5 40.5l7 21l-7 21v12q0 5 2.5 13.5t5.5 17t6 16t5 10.5l7 8l15 15l14 15q7 7 9 10q1 0 7.5 7t6.5 9l2 4q1 2 1 4q17 11 33 23.5t36 21.5q1 1 14 7l30 12q17 6 33 11t24 7q10 5 21 13l21 15l20 13q9 5 15 5h26q1 0 6 3q2 1 5 3q4 1 19.5 3 t20.5 2l13 17q7 4 14 6.5t13 5.5t10.5 8.5t7.5 15.5q7 21 9.5 44.5t2.5 44.5v22q0 2 -6 11t-6 13l-12 51l-22 27l-11 21q-4 2 -8 10t-5 13q-2 6 -15 11.5t-29 10t-31.5 7t-21.5 2.5q-2 0 -15.5 0.5t-22.5 0.5t-24.5 -1.5t-29.5 -6t-24.5 -12.5t-10.5 -21v-9q1 -2 4 -8.5 l6 -13.5l5 -14q3 -7 3 -9q0 -4 -2.5 -11.5t-4.5 -15.5q-7 -32 -19 -49t-38 -33l-12 -9q-4 -3 -7 -6h-76q-9 0 -15 7t-10 16.5t-6 19t-2 14.5q0 6 2 16t6 19.5t8.5 18t9.5 13.5q3 7 7 12q2 5 4.5 8t3.5 4l16 16q22 14 37 29t35 32l70 46q10 9 18.5 13.5t17.5 7.5t18.5 5 t22.5 7q1 0 5.5 2t9.5 4.5t10 4.5t7 3l19 4q15 3 31.5 6t31.5 5t21 2q5 0 9.5 -3.5t6.5 -3.5q3 0 9 -0.5t12.5 -1.5t12 -1.5t7.5 -1.5l16 -5l20 -8l18 -7q8 -3 10 -4l5 -5l9 -9l11 -11q5 -5 7 -8q11 -16 22.5 -29t16.5 -30q5 -10 7 -21l5 -23q3 -11 7 -21t13 -18v-62 q0 -66 -4.5 -129.5t-6.5 -130.5q-4 -10 -7 -19.5t-3 -21.5q0 -9 2.5 -20t2.5 -16l-9 -19q-1 -4 -1 -8v-11q0 -15 1 -32t5 -34t11.5 -32t21.5 -25q5 -4 13.5 -11.5t12.5 -7.5h4q10 0 23 3.5t27 8t28.5 8.5t28.5 4q19 0 19 -12q0 -32 -12.5 -62t-34.5 -53.5t-51 -38t-63 -14.5 t-66 3.5t-70 17.5l-7 5q-2 2 -9 12l-16 23l-16 23q-7 10 -8 13l-24 21h-7h-9zM264 268q0 -16 5.5 -37t16.5 -39.5t27 -31.5t36 -13q4 0 7 1t17 8l91 8q3 2 9 9l13 13l12 13q6 6 8 9q1 0 3 6l7 15q4 9 7 19l7 18q2 5 3.5 15t1.5 11l-2 22q-1 11 -1 22q0 10 1 19l2 17l7 22v18 q0 17 -11 31t-32 14q-17 0 -28.5 -7.5t-26.5 -18.5q-5 -3 -20 -10l-32 -15l-31 -15q-14 -7 -19 -9l-19 -10q-2 0 -8 -2t-6 -3l-14 -26l-24 -24q-5 -11 -6 -25.5t-1 -23.5z" />
<glyph unicode="b" horiz-adv-x="1095" d="M181 3q-13 5 -26.5 19.5t-13.5 34.5v144l-5 31q9 32 16 69t7 71q0 7 -3.5 12t-7.5 9l-8 8q-4 4 -4 9q0 39 2.5 77t2.5 70v28l-5 26q0 29 6 59t6 62q0 17 -1.5 30t-10.5 29l14 112l-12 69l7 147l-4 45q-5 16 -3 35t-7 34q-8 16 -20 29t-23 22q-14 17 -33 23t-45 16l-2 23 l32 37q13 16 26.5 27t28.5 19.5t36 16.5l43 33l113 14q8 0 20.5 -8.5t24.5 -20.5t20.5 -25.5t8.5 -23.5q0 -29 -8.5 -54t-8.5 -48q0 -20 -1 -33l-3 -25l-3 -25q-2 -12 -2 -29l-10 -92v-158q0 -11 -1 -20t-3 -23q-3 -26 -3 -46q0 -5 1.5 -13t4.5 -16t8 -14t12 -6q19 0 32.5 7 t25.5 17l24 20q11 11 25 18q22 9 49 15t55.5 9.5t57 5.5t52.5 2q12 0 19 -2.5t13 -5.5l13 -7q7 -3 19 -5l38 -5l14 -7q14 -12 31 -23l34 -23q18 -11 34.5 -24t28.5 -28q21 -26 42 -58.5t37.5 -68.5t26.5 -74.5t10 -75.5q-8 -48 -11.5 -96t-19.5 -96q-14 -49 -30 -82t-38 -59 t-52 -49t-72 -51q-16 -9 -26 -14l-19 -8q-8 -3 -17.5 -8t-23.5 -16l-14 -12l-251 -21l-85 10q-8 1 -24.5 2t-35.5 3l-38 4q-19 2 -33 5zM318 424q0 -8 3 -27t7.5 -43t10.5 -50t12.5 -48t12.5 -37.5t11 -17.5q12 -9 20 -16t14 -13.5t13 -15.5l18 -21q5 -7 13.5 -13.5 l18.5 -13.5l18 -13q9 -6 15 -12h89q18 0 38.5 1t40 6t36.5 15t27 28q9 20 16 49.5t22 49.5l28 33q0 2 1.5 11t4 21t5.5 24.5t5 22.5q0 12 -3 21.5t-3 20.5l11 43q0 8 -1.5 25.5t-4.5 39.5l-8 47q-4 24 -9.5 46t-12 38.5t-13.5 23.5l-86 85q-18 0 -34 11l-33 23 q-17 13 -34.5 24t-38.5 11l-90 -18h-50q-14 0 -22 -8t-20 -12q-2 0 -8.5 -2t-14 -6t-13 -10.5t-5.5 -14.5v-83q-11 -8 -11 -28q0 -5 2 -9.5t2 -6.5l7 -84z" />
<glyph unicode="c" horiz-adv-x="879" d="M393 5q-64 0 -117 24.5t-87 81.5l-49 50q-1 5 -7 19l-13 30l-13 29q-6 13 -6 17v54q-2 12 -6.5 21.5t-10 19t-9.5 19t-4 21.5l9 123q0 9 -3.5 19t-3.5 21q0 14 3.5 24t7.5 20t7.5 21.5t3.5 29.5l70 90l-7 15l7 9l6 9q4 5 7 10q59 73 137 116.5t171 68.5l18 5 q54 0 108.5 -10t103.5 -28q7 -17 22.5 -21.5t29.5 -4.5q9 -16 17 -28t14 -24t9.5 -25.5t3.5 -31.5q0 -36 -25 -61t-71 -25l-8 10q-5 7 -11 13l-11 12q-5 5 -8 6q-1 2 -10 3.5t-10 1.5q-24 11 -37 34l-26 47q-13 24 -32.5 42t-58.5 18q-29 0 -53 -9.5t-46 -25t-42 -36.5 l-39 -42q-4 -8 -13 -16.5t-12 -16.5v-41l-8 -12q-16 -32 -22 -61t-6 -66v-15q0 -8 1 -16.5t2 -15t4 -6.5q0 -8 0.5 -19.5t1.5 -22.5t2 -19l1 -8l9 -14v-28q0 -23 2.5 -40t8 -32.5t12.5 -31.5l17 -34q0 -2 8 -14l17 -24l17 -26l10 -14q8 -9 21 -11t20 -8l27 -21 q10 -8 20.5 -14t22.5 -9t32 -3q46 0 94 19t84 47q8 6 17.5 15.5t19.5 18.5t20.5 16t20.5 7q18 0 24.5 -7t6.5 -24v-12q-17 -57 -53.5 -98t-84.5 -67.5t-103 -39.5t-108 -13h-31l-18 15h-15z" />
<glyph unicode="d" horiz-adv-x="1092" d="M677 61q-27 -8 -53 -18t-52 -19t-53 -15.5t-55 -6.5h-12q-18 0 -42.5 7t-45.5 19q-78 11 -132 50t-93 93q-9 14 -13.5 31.5t-9.5 34.5l-39 74q0 2 -1 7t-2.5 17.5t-2.5 36t-1 62.5q9 11 11.5 20.5t2.5 21.5l-2 38l2 15l12 32q3 10 5 26t3.5 33t4 32.5t7.5 25.5 q5 12 13.5 15t18.5 11l26 31q29 42 57.5 68t61 42.5t71 27t86.5 21.5l59 17q29 8 59 8q13 0 23.5 -7t19.5 -7q8 0 24 2.5t33 7t30.5 10.5t16.5 13q16 52 23.5 109t7.5 112q0 14 -2.5 32.5t-2.5 36.5q0 11 2.5 20.5t2.5 21.5q0 15 -6.5 24.5t-16.5 17t-23 15t-25 17.5 q-7 5 -12 10l-11 10q-5 5 -12.5 11t-19.5 14q-4 7 -9 14.5t-5 15.5q0 9 6 17t13 12q15 10 36 17.5t42.5 13.5t40 10t28.5 7h116q17 0 31 -8t24.5 -20t16.5 -27t6 -29q0 -44 -9.5 -82.5t-9.5 -76.5v-90l-26 -92q0 -23 6 -44t6 -39q0 -21 -8.5 -38.5t-8.5 -37.5l-7 -85l12 -69 l-12 -106l12 -192l-21 -135v-74q0 -27 3.5 -55.5t14 -51t29.5 -37t50 -14.5q21 0 39.5 3t31.5 3q16 0 21 -11.5t5 -26.5q0 -22 -9.5 -35t-25 -20t-36 -9t-42.5 -2l-60 5l-59 -9q-14 0 -28 -7.5t-27 -7.5q-45 0 -68 23t-36 62h-26zM258 491q0 -60 9 -112t30 -95.5t55 -77 t84 -55.5l60 -31q30 -16 67 -16q8 0 32 3t49.5 9.5t46.5 16.5t24 24q2 5 2 8v8q0 5 -1 7.5t-1 6.5q0 10 5 22q2 2 7.5 8.5t11 15t10 18t4.5 17.5q0 21 -6 43t-6 47l-2 35q0 9 2 18.5t7 15.5v215l-7 19l-16 74q-2 9 -16 24.5t-32.5 31.5t-37 28.5t-28.5 14.5q-9 -2 -18 -2 h-15h-102q-34 0 -63 -18t-53.5 -47.5t-43.5 -66.5t-31.5 -75t-19.5 -73.5t-7 -60.5z" />
<glyph unicode="e" horiz-adv-x="940" d="M64 438q0 5 2 19.5t4.5 31t4 31.5t1.5 20q4 48 21.5 98t44.5 96.5t62.5 85.5t77.5 66q1 2 10.5 7t20.5 10l21 10q10 5 12 7q7 3 18 11l24 15q12 7 24 13t22 6q9 0 14.5 -2t13.5 -6q17 2 32.5 3.5t31.5 1.5q17 0 32 -1.5t32 -3.5l4 -1l9 -4l10 -4q5 -2 8 -3t12 -5l20 -11 q11 -6 21 -10.5t14 -5.5q0 -1 7 -3t9 -2l40 -22l90 -82q4 -5 12.5 -26.5t17 -47t15 -48.5t6.5 -30q0 -14 -8 -22.5t-19 -14t-23.5 -8t-21.5 -3.5h-4q-10 -1 -32.5 -2t-47 -1.5t-46 -1t-29.5 -0.5q-11 -5 -19.5 -6t-17.5 -1l-71 7q-20 0 -41.5 -7t-41.5 -7q-13 0 -25.5 9.5 t-27.5 9.5q-2 0 -10.5 -4.5t-12.5 -4.5l-76 5q-16 0 -30 -6t-32 -21q-3 -26 -4 -45.5t-1 -43.5q0 -21 2.5 -34t7.5 -24.5t12 -23t16 -28.5l10 -19q26 -57 67 -92t106 -55q0 -5 14.5 -9.5t32.5 -6.5q21 -4 48 -5q33 0 68 4t68 13t62.5 24t50.5 37h16q12 0 16.5 -3.5 t9.5 -19.5q-3 -29 -8.5 -51.5t-15 -40.5t-24.5 -33.5t-39 -31.5q-8 -6 -15 -8l-13 -5q-6 -2 -12.5 -6t-14.5 -14l-107 -54l-12 2l-75 -12q-84 0 -151 24t-119.5 68.5t-91 106.5t-65.5 137q-9 27 -11 55.5t-13 58.5zM261 711q0 -5 1.5 -15t4.5 -20t7 -18t8 -9h31l133 21 l85 -7q22 0 39 4l39 9q19 3 32.5 5.5t22 9.5t12.5 18.5t4 32.5q0 35 -19 61t-47.5 43.5t-62 26t-62.5 8.5q-7 0 -20 -3.5t-29.5 -9t-34 -12t-32 -14t-25.5 -14t-14 -11.5l-21 -45q-6 -7 -15 -13t-17.5 -13t-14 -15.5t-5.5 -19.5z" />
<glyph unicode="f" horiz-adv-x="743" d="M56 52q0 4 4 9.5t9 10t10.5 7.5t7.5 4q1 1 6 2t10.5 2t10 2t6.5 1q4 2 14 3.5t11 1.5l73 24q17 29 20 51t3 50l-6 72q0 11 2.5 16.5t6.5 18.5l5 73l-8 64q4 18 5.5 37t1.5 37q0 26 -2.5 52t-4.5 52q-8 12 -13 27.5t-11.5 29.5t-15.5 26t-24 17q-16 7 -32 8t-29 1 q-22 0 -40 5.5t-26 32.5q0 14 15 24.5t35.5 18t40.5 12t30 7.5q2 1 9 4l14 6q8 4 15.5 8.5t10.5 7.5q1 2 2 9q1 6 2 17t1 31l10 24v40q0 1 1.5 6t4 10.5t3.5 9.5l2 5q11 29 15 59t9 62q1 3 2.5 8.5t3.5 11.5t4 10.5t4 6.5q1 4 8 18l15 31q8 16 16.5 30.5t12.5 20.5 q9 18 17.5 29t18 19.5t20.5 14.5l25 15q17 7 33 20t28 20l4 2q2 1 4 3h8l12 1q7 1 12.5 2t5.5 2l38 26q7 3 16 4l18 3q9 2 16.5 3.5t10.5 3.5l17 5q32 8 65 11t63 3l111 -14l31 -2l16 -3q18 -11 37 -19t34.5 -19t25.5 -28.5t10 -46.5q0 -19 -9.5 -46t-38.5 -50l-35 -2h-10 q-6 0 -12 1q-7 0 -16 1q-6 0 -17 2l-21 5l-20.5 5.5t-12.5 4.5q-2 1 -7 5l-10 11q-6 6 -12 13l-9 11l-16 33l-19 45q-1 0 -2 1t-2.5 1t-2.5 1q-4 1 -7 3q-4 2 -11.5 3.5t-16 2t-15.5 1t-10 0.5q-5 0 -13 -1l-15 -1q-8 0 -14 -1.5t-7 -3.5q-5 0 -18 -5l-26 -11l-27 -12 q-13 -5 -19 -8q-4 -2 -9.5 -8t-7.5 -7q0 -1 -2 -4.5t-5 -7.5l-6 -8l-2 -3q-3 -6 -8 -8t-10.5 -3.5t-10.5 -4t-8 -10.5q-2 -2 -8.5 -9t-6.5 -12q-3 -1 -7 -10t-4 -10q0 -2 -1 -6.5t-2 -10t-1.5 -10.5t-0.5 -6q-2 -7 -3.5 -15.5t-1.5 -10.5l-23 -37v-26q-1 -6 -2 -11 t-1.5 -8.5t-1.5 -5.5l-5 -21v-57l-4 -6l-2 -4q-1 -1 -1 -2q-8 -24 -10 -49t-2 -50q0 -23 12.5 -38.5t35.5 -15.5h8q5 0 6 2q3 0 10.5 2t8.5 3q17 4 35 5l35 3q18 2 35 4.5t32 8.5l29 10q14 -2 30 -11.5t19 -14.5q6 -5 7 -13.5t1 -17.5q0 -15 -2 -32.5t-8.5 -33t-19 -26 t-32.5 -10.5q-5 0 -8 2q-24 7 -50.5 14t-48.5 7q-16 0 -34 -2t-28 -14l-28 -48q0 -2 -3 -6l-5 -8l-5.5 -9.5t-2.5 -7.5q0 -11 7 -24t7 -27q0 -15 -7.5 -26.5t-7.5 -24.5q0 -17 8.5 -31t8.5 -30l-21 -78v-34q3 -10 8.5 -21.5t5.5 -34.5q0 -13 -2 -24.5t-7 -28.5l-4 -12 q-1 -5 -1 -14l17 -42q0 -2 -2.5 -9t-10.5 -36q1 -2 3 -5q1 -5 4 -7q10 -16 23.5 -21.5t31.5 -9.5l14 -4q2 0 10.5 -0.5t19 -1.5t20 -1.5t12.5 -1.5q1 0 8 -3.5t15 -8.5l15 -10q8 -5 10 -9l-1 -31v-3q0 -1 1 -1q-2 -7 -3 -12t-1.5 -9t-0.5 -5q-20 -11 -35.5 -14t-33.5 -3h-67 l-49 -5l-166 9q-21 0 -41 -2l-38 -4l-32 -3h-71q-8 0 -12.5 5.5t-7.5 14t-4 17.5t-1 15z" />
<glyph unicode="g" horiz-adv-x="1111" d="M307 -571q-11 11 -27.5 15t-27.5 6q-36 13 -70.5 32.5t-60.5 46t-42 60t-16 74.5q0 12 2 33.5t6.5 45t11 44.5t15.5 31q6 12 22 19l31 16q16 8 28 19t12 29q0 28 -15 47t-33.5 36t-33.5 36t-15 47q0 12 1 26.5t3.5 29t6.5 28t10 23.5l15 19l18 24q9 12 18.5 22t17.5 16 q10 7 19.5 11t17 8.5t12.5 10t5 15.5q0 14 -6 27t-15.5 25t-21 24t-23.5 23l-8 9q-7 8 -8 10t-3 2q1 1 -5.5 18.5t-14 40.5t-14 45.5t-6.5 33.5l2 33q0 16 7 19.5t12 9.5q-2 8 -8 16.5t-6 27.5q0 1 3.5 7t5.5 8q43 88 82 138.5t88.5 76t116.5 32t166 6.5h4q20 -8 42 -14 t41 -19l26 -23q17 -13 40 -21l48 -15l34 -7q6 -3 14 -3h2q9 0 16 6t13.5 14t13 17t12.5 15q33 27 72 48t84 21q41 0 64 -26t23 -62q0 -14 -1.5 -31t-8 -31.5t-21 -24.5t-39.5 -10q-17 22 -30 28t-30 6h-40q-21 0 -39.5 -20t-31.5 -48.5t-20.5 -58.5t-7.5 -51l11 -81 q0 -35 -12.5 -65t-29.5 -56q-15 -20 -24.5 -43.5t-30.5 -36.5l-17 -7q-38 -14 -64 -25.5t-51 -19.5t-54.5 -12.5t-74.5 -4.5h-26l-146 10q-56 0 -87.5 -32t-31.5 -89v-12q8 -27 19 -37.5t25 -13.5t30.5 -4.5t36.5 -11.5l41 4q21 2 42 2q7 0 15.5 -0.5t17.5 -2.5h64l57 -14 h29q17 0 24.5 1t18.5 1h11q6 0 17 -2q13 -2 26 -7t30 -7h69q11 0 22.5 -4.5t22.5 -10t20.5 -11t15.5 -7.5q13 -9 24.5 -14t20.5 -9.5t15 -9t8 -11.5q5 -8 16 -21.5t23 -31.5t23.5 -40.5t16.5 -47.5v-13q0 -4 -2 -11q-6 -56 -14 -92.5t-23 -64.5t-40 -52.5t-66 -56.5l-64 -52 q-32 -27 -69 -38l-73 -19q-3 0 -10 -3.5t-9 -5.5l-51 -3q-22 -2 -41.5 -3.5t-40 -2t-47.5 -0.5q-23 0 -42.5 0.5t-38.5 1.5l-40 4zM209 -194q-2 -11 -3 -20.5t-1 -20.5q0 -14 2.5 -28t7.5 -31q0 -1 6 -11l13 -24l14 -26q6 -12 9 -17q5 -8 8 -18l6 -18q3 -9 6 -15.5t9 -9.5 q14 -5 34 -13.5t30 -13.5q16 -7 37 -13.5t42 -11t38.5 -7.5t26.5 -3q3 0 4 1q1 0 1 1q16 -4 31.5 -4.5t29.5 -0.5q20 0 38 1t36 4q19 5 39 9t37.5 11t31 17.5t20.5 29.5l61 30l12 88q5 42 5 90q0 45 -22.5 74t-56.5 46t-74 24t-75 8q-48 2 -93 6.5t-91 4.5q-8 0 -21.5 0.5 t-26.5 0.5q-25 0 -47 -3t-38 -14q-5 -5 -13 -15t-9 -13q-7 -5 -17.5 -9t-20 -10t-16.5 -13.5t-7 -17.5zM295 477q6 -11 10.5 -16.5t10 -10t11.5 -10.5t15 -16q12 -16 22 -34.5t22 -34.5t28 -26.5t40 -10.5q35 0 62 8.5t48.5 24t39.5 37t35 46.5q14 17 29.5 30.5t19.5 33.5 q6 21 9.5 49.5t5.5 51.5q-7 46 -15 81.5t-24 62t-45 45t-78 29.5q-17 4 -32 13t-29 9q-22 0 -45 -10.5t-43.5 -26t-37 -33.5t-26.5 -32q-7 -22 -19 -35.5t-23 -33.5v-109q0 -21 1 -39.5t8 -42.5z" />
<glyph unicode="h" horiz-adv-x="1090" d="M21 55q0 2 5 9q3 3 6 7l29 12q16 5 29.5 7.5t25.5 4.5t23 6.5t22 14.5q2 1 6 7t8 13t7 13.5t4 9.5v16l-7 43l14 64q0 13 -3.5 23.5t-3.5 24.5q0 2 2 8l4 12q2 7 4 12l2 6l-5 99q0 30 3.5 55.5t6.5 51.5v37q0 1 2.5 6.5t2.5 13.5q0 11 -7 18t-8 19q-3 20 -6 34t-3 30 l14 304l-2 26q-1 15 -6 30l-9 30q-4 16 -7.5 31.5t-3.5 31.5l9 47q-3 3 -7.5 12t-8 19t-7 19t-5.5 12l-54 42q-9 2 -12 5q-11 6 -16.5 10t-9 8t-7.5 10l-12 18q-1 5 -1 6v7q0 4 1 8.5t4 6.5q3 5 12 10.5t18.5 10.5t17.5 8t9 4q1 0 6 1t10.5 2.5t10.5 3t6 2.5q1 0 9.5 1.5 t11.5 3.5q35 13 68.5 24t74.5 19q23 -7 37 -17.5t27 -30.5v-168q0 -2 1 -8t2.5 -13t2.5 -13.5t1 -8.5l-19 -85q0 -9 3 -15.5t6.5 -12.5t6.5 -12.5t3 -15.5q0 -18 -9.5 -31t-9.5 -29v-4q3 -14 3.5 -27.5t0.5 -28t1.5 -29t6.5 -29.5q9 -25 18 -41t27 -28q12 0 20.5 4.5 t14.5 11.5l13 14q7 7 16 12l19 10h71q34 4 69 15t71 11q17 0 30 -9.5t29 -16.5q5 -2 15.5 -4t12.5 -6q13 -5 29.5 -14.5t31.5 -22t28 -28t20 -31.5q1 -1 4 -15t3 -21v-69l12 -36q0 -17 -1 -26.5t-6 -20.5v-132l14 -27q0 -3 -1 -8l-2 -10q-1 -5 -2 -9l-2 -4q0 -2 -1 -9.5 t-2 -16.5t-2 -16.5t-2 -9.5l2 -38q1 -7 7.5 -21.5t9.5 -18.5v-106l5 -45q1 -10 3 -15.5t6 -9.5t10 -8l17 -10l19 -3q11 -3 18 -4t13 -2.5t12.5 -4t17.5 -7.5q2 -11 8 -14.5t6 -5.5q0 -3 3.5 -12t3.5 -14q0 -8 -4.5 -14t-11.5 -12h-2q-6 -5 -15.5 -9.5t-20.5 -4.5h-28 q-20 0 -36.5 5t-32.5 5l-60 -10h-123l-76 14q-14 0 -27 1.5t-24 6.5q-8 4 -10 12.5t-2 18.5v9q0 12 8.5 24t24.5 12l26 7q9 3 19.5 4.5t21 6t20.5 14t19 29.5q1 1 2.5 6t2.5 10t1.5 9.5t0.5 5.5q1 13 1 22.5t2 12.5q-1 -1 0 1l2 6q2 4 3.5 8t1.5 7l-10 21v48q-2 19 -9 34.5 t-7 31.5v24q4 39 10 82.5t6 83.5q0 20 -3.5 42.5t-12.5 44.5q-2 3 -3 6q-2 6 -2 8v26q-1 4 -3.5 11.5t-6 15.5t-7 14.5t-4.5 8.5q-1 0 -8 3t-15 7l-17 8l-12 6l-19 5q-3 4 -11 9l-16 12l-16 11q-7 6 -10 10h-156q-5 0 -10.5 -4.5t-10.5 -10.5l-8 -10q-4 -5 -6 -6 q-15 -21 -24.5 -38.5t-14.5 -44.5l20 -206q0 -5 -1 -10.5t-4 -13.5q-2 -10 -2.5 -18t-0.5 -19l1 -55l12 -47q6 -39 6 -78q0 -45 -6 -91l8 -11q3 -4 6.5 -9.5t8.5 -14.5t16 -26q6 -8 12.5 -11.5t13.5 -4.5t15 -1.5t17 -3.5q11 -2 11 -22q0 -6 -1.5 -14.5t-4.5 -16t-7 -13 t-8 -6.5q-14 -3 -23.5 -9.5t-24.5 -6.5q-21 0 -38 1t-28 1h-40l-88 5q-7 4 -10.5 4.5t-8.5 0.5q-14 0 -26 -3l-24 -8q-13 -4 -26.5 -7.5t-29.5 -3.5l-46 -4q-11 12 -18 33t-7 43z" />
<glyph unicode="i" horiz-adv-x="548" d="M110 0q-12 0 -18.5 -4.5t-13.5 -4.5q-4 0 -9.5 4t-16.5 10q-2 1 -2.5 5.5t-2.5 10.5t-3 15q0 1 3 5l5 10l6 11q3 5 5 7l19 11h22q23 0 41.5 3.5t29.5 22.5q4 34 6 65t10 61l12 47v93l5 90v59q0 2 -2 10.5t-4 18.5l-4 20q-2 10 -2 15v95q-4 11 -13 27t-18 23l-31 10 q-17 12 -30.5 26t-21.5 35q0 11 5 17t13 9t17 5t17 4l74 38q9 4 15.5 6.5t12.5 5.5t11.5 7t12.5 12l29 2q5 0 15.5 -1t12.5 -1q3 0 10 -1t15 -3t15 -4t10 -3q9 -4 11.5 -16.5t2.5 -22.5v-32l-7 -24q-5 -65 -5 -128t-2 -130l-5 -36q-1 -1 -1.5 -7t-0.5 -14v-16v-11v-16v-17 q0 -8 0.5 -13.5t1.5 -5.5q0 -3 2 -13.5t3 -12.5v-21q0 -3 -1 -16t-2 -29.5t-1.5 -32t-0.5 -22.5q0 -9 1.5 -28.5t4 -41.5t4.5 -41.5t2 -27.5q0 -11 11.5 -17.5t18.5 -8.5q3 0 12.5 -1t20.5 -2t20.5 -1.5t13.5 -0.5q7 -8 11.5 -17t4.5 -23t-2.5 -27t-11.5 -18 q-12 -10 -26.5 -11.5t-30.5 -1.5h-18l-24 10h-123q-1 0 -13 2.5t-16 2.5h-28zM139 1325l31 31l33 26l10 21q12 9 27 10.5t27 1.5h10q1 -1 6 -3l10 -4q5 -2 9.5 -3.5t6.5 -1.5q4 -2 13 -4l17 -3q9 -1 17 -1.5t11 -0.5q4 -1 9 -12t8.5 -24.5t6 -26t2.5 -16.5q0 -25 -5.5 -46.5 t-25.5 -38.5q-1 -1 -5.5 -2.5t-9.5 -3t-9 -3.5l-5 -1q-1 -2 -5 -6.5t-9 -9t-10 -8t-6 -4.5q-6 -7 -17.5 -8t-21.5 -1h-39q-11 0 -19 1.5t-22 12.5l-32 46q-15 21 -15 53z" />
<glyph unicode="j" horiz-adv-x="486" d="M-151 -564q-18 10 -18 35v3l18 42l1 1l2 2l4 2q3 3 9 6l12 6l11 6l7 3l34 14l39 15q20 7 38 15.5t31 17.5l71 59q1 0 5 6t8 15l8 17l7 14q5 9 8.5 23t3.5 25l-7 64q1 11 2.5 29t3.5 36.5t4.5 34t5.5 21.5q8 12 13.5 25.5t6.5 24.5v52q3 16 9.5 33t6.5 43q-5 39 -7 82.5 t-9 83.5l-5 18l5 31v47l7 17l-7 31q-1 14 -1 29v26v57q0 42 -3.5 82.5t-17.5 78.5l-14 42l-33 31q-1 2 -5 7.5t-7 8.5q-11 18 -27 29t-32 29v19q3 0 11 10t12 16q0 2 4 4t20 2l21 5q21 9 34 17t33 10q1 0 10 0.5t19.5 1.5t19.5 2t10 2q14 3 26 10l24 15q12 7 24.5 12.5 t27.5 5.5q5 0 9.5 -1.5t9.5 -10.5q0 -3 0.5 -10t1.5 -15t2 -15t1 -10q5 -25 9 -48.5t4 -48.5v-31l-13 -26v-54q-1 -20 -10 -38t-9 -36q0 -3 1 -12l2 -20q1 -10 2.5 -18.5t1.5 -10.5v-43l7 -26l-14 -78v-69q0 -2 -1 -9.5t-2 -16t-1.5 -16t-0.5 -10.5q-2 -2 -2 -7v-7l14 -95 l-8 -35l8 -29l-29 -43v-23q0 -4 -2.5 -17t-4.5 -17q2 -5 9 -16t7 -19q0 -7 -4 -16.5t-12 -23.5v-21l1 -3q2 -3 5 -12t7.5 -26.5t10.5 -46.5l-24 -128q0 -2 -1 -4q-2 -4 -2 -6t-4.5 -10.5t-6.5 -10.5l-26 -47l-28 -27q-1 0 -2 -6.5t-3 -7.5q-1 -3 -6 -8.5t-11 -11.5l-12 -11 q-5 -5 -7 -6t-11 -6.5t-12 -5.5q-1 -1 -4.5 -6.5t-6.5 -12.5l-7 -13q-3 -6 -4 -9q-6 -6 -11 -9t-11 -6l-13 -6l-15 -10q-23 -14 -39.5 -26.5t-32.5 -22.5t-34.5 -15.5t-45.5 -5.5h-21zM55 1294q0 13 0.5 29.5t4.5 25.5q2 2 9 10.5t12 10.5l9 3q6 2 13 4t12.5 4t6.5 3 q1 0 5 2.5t9.5 6.5t11.5 7t9 5l11 8l15 10l14 9q7 4 10 4l40 -14l4 -1q5 -2 10.5 -3.5t10 -3.5t6.5 -2t10.5 -9t10.5 -10q8 -8 21 -15t15 -18v-75q-1 -3 -7 -9l-14 -14l-14 -14q-6 -7 -8 -8q-1 0 -3 -4.5t-4 -9.5l-4 -11q-2 -5 -3 -6q-3 -2 -5 -4l-4 -4q-3 0 -12.5 -1 t-21 -2t-21.5 -2.5t-14 -1.5h-24l-9 7l-37 15q-19 8 -36 18.5t-28 25t-11 34.5z" />
<glyph unicode="k" horiz-adv-x="1096" d="M1 7q-1 2 -1 7v8l1 21q0 9 7.5 11t15.5 7q9 11 22.5 12.5t22.5 6.5l55 23q28 11 45 41q3 4 8.5 16t10.5 26.5t9 28.5t5 20q2 3 2 9v7l-23 109q0 13 9 24t9 23l-12 46q0 14 0.5 34t2 40.5t5.5 38t11 26.5q2 29 3.5 55t1.5 54q0 22 -1.5 43.5t-3.5 44.5q5 8 6.5 18.5 t1.5 19.5v16l-7 72q0 9 4.5 13.5t9.5 8t9.5 7t4.5 9.5l-28 57l16 114q0 19 -4.5 37.5t-4.5 40.5l5 40q0 16 -14 34l-25 30l-68 68q-2 0 -6 2.5t-4 4.5q-1 2 -1 3q-1 1 -1 3q0 14 2 26t10 16q5 5 13.5 6t19.5 1h17q14 0 19 2q28 6 56 19t60 13q10 0 24.5 -4t28.5 -10 t24 -14.5t10 -17.5q0 -12 -5.5 -21.5t-5.5 -20.5l16 -110q0 -14 -1 -21t-6 -21v-95q0 -10 0.5 -26t0.5 -31.5t0.5 -27t0.5 -12.5l5 -69l-7 -30q0 -17 3.5 -32t3.5 -32q0 -20 -8 -34t-8 -28l11 -36q0 -7 -4 -13l-10 -14q-5 -7 -9.5 -14t-4.5 -15l4 -38l-4 -29q0 -11 8.5 -23 t24.5 -12h5q9 1 18.5 7.5t18.5 14.5l15 15q7 7 12 10q26 14 44.5 21.5t34 16t30 22t33.5 40.5q5 9 8.5 14t6 8t3.5 6t1 9q0 11 -6.5 19t-14 16t-13.5 17t-6 22v12q0 4 1.5 8t9.5 8q14 2 28 3.5t25 1.5q17 -2 33 -3.5t31 -1.5h15q6 0 13 2l80 3q1 0 5.5 1t9.5 2.5t9 2.5t5 1 h90q11 -9 20 -19t9 -21q0 -10 -10 -19.5t-26 -18t-35 -15.5l-38 -13l-33 -11l-22 -6l-48 -22q-19 -8 -45 -21q-8 -11 -11.5 -21t-16.5 -21q-5 -3 -17.5 -8t-26 -12t-24 -16.5t-10.5 -20.5q0 -8 0.5 -21t2.5 -27t6 -27t10 -22q22 -29 46 -50.5t41 -51.5q6 -7 7.5 -10.5 t2 -6.5t1.5 -7.5t6 -13.5q3 -11 11.5 -17.5t18.5 -12.5l19 -13q9 -6 15 -16q25 -58 69 -113.5t90 -97.5q9 -7 31 -15l46 -18q24 -9 47 -19t35 -22q3 -3 3.5 -7t0.5 -9v-20q0 -10 -5.5 -18t-13.5 -10h-83l-123 17q-1 0 -2 -0.5t-2 -0.5q-2 -1 -3 -1q-66 -20 -126 -20l-56 -2 q-16 0 -30.5 2t-21.5 7q-11 11 -13 21.5t-2 24.5v19q0 10 12 15.5t27 11.5t27 15t12 26q0 12 -7 19.5t-16 14t-19 13t-16 15.5q-7 15 -9.5 31.5t-6.5 32t-14 28.5t-32 21l-7 13l-9 20l-10 20q-4 9 -5 14q-5 8 -15 13l-18 10q-13 12 -25.5 29.5t-27 34.5t-30.5 29t-36 12 q-8 0 -14.5 -4.5t-6.5 -16.5l7 -22q0 -3 -4.5 -11.5t-10.5 -17.5l-10 -17q-4 -7 -4 -8v-48q0 -28 7.5 -50t7.5 -47q0 -11 -3 -19l-6 -16q-2 -9 -4 -17t-2 -17q0 -38 10.5 -62.5t28.5 -36.5q11 -7 25.5 -10.5t28 -5t25.5 -2.5t18 -4q11 -5 12.5 -10t1.5 -11q0 -14 -2.5 -29.5 t-12.5 -24.5q-8 -5 -20 -6.5t-24 -1.5h-27l-78 15l-106 -7h-66l-81 -8l-47 -2q-6 2 -15 2h-16z" />
<glyph unicode="l" horiz-adv-x="561" d="M57 -7h-7q-4 0 -9 2h-21l-12 10v47l23 36q9 4 21 4.5t13 0.5q4 0 18.5 1.5t23.5 5.5q23 -5 33 -5q12 9 23 24t19.5 33t13 36t4.5 33v111q0 35 0.5 68.5t3.5 47.5q-3 27 -4 53.5t-3 53.5l-7 104q-3 47 -5 94t-2 95q0 5 1 7.5t9 7.5q-4 16 -4.5 29t-0.5 28q0 14 0.5 28.5 t4.5 30.5q-8 5 -12.5 15t-4.5 27q0 13 8 21t8 24q0 22 -1 47t-8 51q-7 35 -7 56t-2 45q-6 9 -21 18l-31 19q-16 9 -31 19.5t-21 22.5q-8 16 -10.5 19.5t-4.5 8.5q0 7 4 20.5t15 15.5q21 5 43 12t33 9q2 0 10.5 3.5t18 8t18 9t10.5 7.5q19 5 35.5 11t32.5 11t33.5 9t37.5 5 q10 0 17 -1t7 -8q4 -26 5.5 -50.5t1.5 -47.5t-1.5 -46.5t-5.5 -45.5q-8 -21 -10 -45t-2 -48l1 -52l-3 -69q4 -8 5.5 -16t1.5 -21q0 -20 -0.5 -29t-3.5 -14l7 -64q-4 -16 -13 -32.5t-14 -36.5q0 -11 5 -19.5t7 -22.5q4 -39 4.5 -75t2.5 -75q-5 -23 -11.5 -40.5t-6.5 -35.5 v-16q1 -21 3 -38.5t4.5 -34.5t4.5 -35.5t4 -42.5q0 -26 -2.5 -45t-4.5 -46q-1 -6 -3 -17l-2 -22q-2 -12 -3 -22t-1 -14v-1l4 -20l6 -31q3 -16 6 -30t3 -18l7 -15h2q3 0 4 -3t3 -4q4 -4 5 -8.5t4.5 -9t11 -9t24.5 -8.5q19 -12 29 -12h5q2 0 7 2q8 -2 19 -3t23 -3.5t24 -7.5 t21 -14q5 -4 6 -10.5t1 -17.5v-34q0 -7 -2 -13t-8 -8q-8 2 -17 2h-16q-7 0 -15 0.5t-20 2.5l-31 4q-2 0 -8.5 0.5t-14 1t-14 1t-8.5 0.5l-49 3q-1 0 -2 1q-1 0 -1.5 0.5t-1.5 0.5q-22 -1 -39.5 -3l-33.5 -4l-30 -6q-16 -2 -35 -2q-23 2 -49.5 5t-49.5 3z" />
<glyph unicode="m" horiz-adv-x="1582" d="M61 43q0 14 1 19.5t7 8.5q5 2 15 2h18q5 0 12 3l9 5q2 2 6.5 4.5t10.5 4.5q22 4 31 4.5t14 14.5q2 27 4.5 56.5t2.5 55.5q0 33 -2 63.5t-5 58.5l4 19v70q0 24 2.5 47.5t14.5 46.5l-7 149q-1 2 -2 7l-2 12q-1 6 -2 11t-1 6q-5 5 -7 5q0 2 -4 5l-10 6q-6 4 -11 6.5t-6 3.5 q-1 0 -4 3l-8 6l-7 7l-5 5q-11 3 -20 4t-16.5 2.5t-14.5 5.5t-13 14q2 2 1.5 13.5t7.5 22.5q9 7 19 9t20 5q9 2 17.5 4.5t17.5 9.5q1 0 6 3t10 7t9.5 7t5.5 3l50 21l6 5q4 5 9 9.5t9 8.5t6 5h27q20 0 31.5 -2t17 -7t7 -15t1.5 -26v-19q1 -9 2.5 -20t5.5 -20.5t11.5 -16.5 t19.5 -7q1 2 6 7l11 10l11 9t6 5l38 12q2 0 5.5 1.5t5.5 3.5q2 1 13 10l24 19l25 19q12 8 17 9q1 1 7.5 4l15.5 7l17 6q8 3 12 4h16q15 4 29.5 15t32.5 11h12l28 -14q1 -1 7 -2t14 -1l14 -1q7 -1 10 -1q29 -9 46.5 -23.5t31.5 -40.5q8 -11 12.5 -23t9.5 -22t13.5 -17 t24.5 -7q3 0 7.5 0.5t9.5 4.5l64 64l33 15l35 42l40 12q32 9 62 14t59 5h22q16 0 29.5 -2.5t31.5 -11.5q1 -1 10 -9t11 -8q0 -1 5.5 -3t11.5 -5t11.5 -5t7.5 -3q2 0 4.5 -1.5t2.5 -3.5q1 -1 3.5 -6.5t6 -12t6.5 -13t5 -9.5q6 -23 19.5 -47.5t16.5 -47.5v-37l9 -22v-26 q0 -43 -3.5 -87.5t-7.5 -87.5l7 -73v-13l-5 -18v-57q-1 -5 -2 -20.5t-1.5 -32t-1 -30.5t-0.5 -17l-2 -23q0 -11 1.5 -30t5.5 -27q2 -4 8 -13t33 -23q16 -8 25.5 -14.5l16.5 -11.5l11 -9q4 -4 10 -7q10 -6 10 -22q0 -21 -9 -31q-4 -8 -6.5 -9.5t-5.5 -1.5h-10q-2 0 -4 -0.5 t-6 -0.5l-108 13l-29 -1h-100q-5 0 -17 -5.5t-16 -5.5l-45 11h-19q-11 0 -12 5l-2 33q0 18 12 25.5t22 19.5q14 18 27.5 32t33.5 23l19 26l-14 90l16 64l-4 55q-1 5 -1 9v7q0 5 0.5 8t4.5 8q-11 61 -11 126v38q8 11 9.5 17t1.5 14v14l-18 97q-1 0 -3 1.5t-2 3.5q-2 0 -6.5 2 t-8.5 5l-9 6q-4 2 -5 3l-26 20q-8 11 -22 13.5t-30 2.5h-24q-18 0 -29.5 -0.5t-31.5 -4.5q-19 -9 -27 -19l-16 -10l-16 -11q-1 -2 -11 -4.5t-13 -2.5q-23 -8 -34.5 -22t-22.5 -35q-1 -2 -5 -8l-9 -13l-9 -14q-4 -7 -5 -10v-19q1 -3 2 -19.5t2 -36t1.5 -37t0.5 -21.5v-23 l17 -33v-10q0 -16 -3.5 -32t-3.5 -32l7 -47q0 -25 -4 -48t-7 -50q0 -2 -0.5 -13.5t-0.5 -19.5q0 -3 1.5 -8.5t2.5 -12t2.5 -12t1.5 -7.5q2 -7 4 -9.5t3.5 -3.5t3.5 -2.5t5 -7.5l3 -4l6 -8l7.5 -9t4.5 -6q4 -2 17.5 -5t29 -7t30.5 -9.5t21 -11.5q8 -4 9.5 -7.5t1.5 -8.5v-20 q0 -5 -1.5 -10.5t-9.5 -12.5q-13 -7 -38 -10.5t-41 -3.5q-14 0 -24.5 1t-18.5 1h-32l-29 5q-7 2 -13.5 3t-17.5 1h-23q-11 0 -22 -2l-33 -2l-18 -5l-14 -2q-6 -2 -13 -2.5t-17 -0.5q-5 0 -17 2t-24.5 5t-23 8t-13.5 11q-7 7 -7 15q0 3 1 5.5t1 8.5q1 16 6.5 20.5t12.5 9.5 q7 6 25 7t36.5 5t33 15t14.5 38l1 26l-10 40l10 119l-12 120q0 22 8 40t8 38l-21 34v12l7 25v50q0 46 -9.5 74t-29 43t-51 20t-74.5 5q-8 0 -18.5 -1t-14.5 -1l-76 -31q-14 -4 -23.5 -7t-20.5 -14q-6 -5 -13 -15t-13 -22.5t-10.5 -25t-4.5 -20.5q0 -5 1.5 -8.5t3.5 -10.5 v-68l12 -36v-74q0 -2 2.5 -10t4.5 -9v-18q-2 -1 -4.5 -12t-2.5 -14v-57l-12 -90q0 -1 -0.5 -10t-1.5 -20t-1.5 -21t-1.5 -14q0 -14 3.5 -23.5t10 -17t15.5 -13.5t19 -14q5 -4 12 -7t16 -3l23 -14q10 0 18 -2t13 -8q5 -7 6 -11t2 -10v-14q0 -8 -1 -15.5t-7 -12.5 q-14 -13 -38 -15t-42 -2l-67 3h-118l-104 -6q-2 0 -5.5 0.5t-6.5 2.5q-2 2 -12 2.5t-14 2.5q-7 5 -8.5 16t-1.5 22z" />
<glyph unicode="n" horiz-adv-x="1091" d="M220 7q-27 -7 -53 -9.5t-54 -2.5l-26 -2q-12 0 -15 4q-7 9 -13 19.5t-6 26.5q0 11 6 21t13 14q11 4 20 4.5t18 0.5t17 1.5t17 3.5q23 9 36 20t20 23.5t8.5 25.5t1.5 26l-3 54q-2 2 -5 8.5t-6 8.5l-5 16q0 10 8 15t8 19l-7 49q0 16 2 32.5t13 29.5v69l-8 21l13 42v27 q0 25 -4 51t-13.5 48.5t-26 41.5t-40.5 31l-49 26q-8 2 -15 12t-9 19q2 5 7 14t11.5 17.5t15 15t16.5 6.5h50q1 0 6 3t10 7l10 6q5 4 7 5q1 1 6 3q2 1 5 2h45l4 4l9 7q5 4 11 10q2 2 10 2h16q4 0 12.5 -1.5t17 -5.5t14.5 -9.5t6 -13.5q0 -1 -0.5 -1t-0.5 -1l-1 -1 q0 -2 -3.5 -13t-4.5 -13v-10q0 -2 3 -6l6 -9l5 -8q3 -4 3 -5l21 -36q2 -8 12 -9.5t17 -1.5q14 0 26 12l21 19l31 44l2 2l3 3q2 0 11 4t12 6q1 1 7 8l13 15l13 15q6 6 8 7q1 1 7.5 3t14 4t14 3.5t7.5 1.5q13 5 20 10t13.5 8.5t15.5 5.5t26 2h20l42 -21q1 0 6 -0.5t11 -1.5 t11 -1.5t7 -1.5q4 0 15.5 -1.5t11.5 -3.5q2 0 11 -5.5t12 -10.5q1 0 5 3t7 3q14 -5 27 -18t21 -22q5 -6 13 -17l14 -20l13 -18l5 -7q0 -1 2 -10l3 -22l4 -25q2 -13 3 -21l-7 -106l14 -90q0 -16 -3 -24t-7 -13t-7 -9.5t-3 -13.5q0 -14 5.5 -24t7.5 -21q0 -2 1 -11t2 -21 l2 -26q1 -12 1 -20v-81q-7 -14 -9 -21.5t-2 -18.5l-2 -52l4 -43q0 -3 1.5 -7.5t3.5 -6.5q7 -5 25.5 -8t35.5 -15l8 -8q3 -14 13 -24t10 -21t-2.5 -22t-16.5 -11h-4q-20 -2 -37 -3.5t-37 -1.5q-9 0 -20 0.5t-22 2.5q-18 2 -34.5 3t-32.5 1q-22 0 -43.5 -1t-44.5 -3 q-5 2 -12.5 3t-15.5 1q-14 0 -27 1.5t-25 1.5h-26q-14 0 -19 13t-5 35q0 14 8 27t28 15l66 9q14 1 16.5 12.5t4.5 18.5l5 10q7 12 10 19.5t4.5 14t2 14.5t2.5 21l5 21l-5 26v57l-7 54l12 46q-2 17 -2.5 33.5t-0.5 34.5q0 17 0.5 34.5t2.5 34.5q4 9 4.5 15.5t0.5 20.5 q-1 2 -9 11.5t-8 11.5q-2 3 -4.5 13.5t-5 22.5t-4.5 23t-3 14q-1 1 -5.5 6t-9.5 10l-9 9l-6 6q0 1 -2 9t-5 8q-2 3 -5 8.5t-5 7.5q-3 1 -12 3.5t-18.5 4.5t-18 4t-11.5 3h-13q-58 0 -101.5 -15.5t-86.5 -53.5q-4 -3 -11 -10l-14 -14l-12 -12q-6 -6 -6 -7q-1 -1 -2 -7t-2 -13 t-1.5 -13t-0.5 -7l-8 -27q-4 -13 -4 -30q0 -29 3.5 -50t3.5 -47q0 -16 -5 -28.5t-5 -35.5l10 -71l-10 -50v-14q2 -2 4.5 -13t2.5 -13v-64l3 -21q1 -3 6 -7.5t11 -8.5l11 -8q5 -4 7 -5q2 -2 8.5 -4.5t14.5 -5l15 -4.5l12 -3q8 -4 14 -5t11.5 -1.5t10 -2.5t9.5 -9q3 -3 7 -3.5 t7.5 -2t5.5 -4.5t2 -10l2 -23q0 -8 -3 -13.5t-14 -12.5q-9 -5 -14.5 -12t-16.5 -7t-22 -4.5t-16 -4.5h-12q-42 7 -87.5 16.5t-91.5 9.5z" />
<glyph unicode="o" horiz-adv-x="1104" d="M75 529q14 53 35 101.5t48 99.5l28 33l12 21q3 5 7 9q3 4 6 7.5t6 5.5l59 42q5 6 11 8.5t12 4.5l11 3q6 1 11 6l19 19l16 7h15l54 21q4 2 12 4l15 4q8 2 15 3t10 1h102q9 4 15.5 4.5t10.5 0.5q29 0 58 -9.5t58 -17.5h38q2 0 6 -3.5t9 -8.5l11 -11l49 -27q24 -14 48 -30 q20 -16 31.5 -35.5t26.5 -38.5q2 -2 7 -9l12 -17l11 -18q6 -9 8 -14l6 -12l39 -128q3 -6 5 -14l4 -15q2 -8 3 -14.5t1 -8.5v-32l-6 -25v-72l-52 -153l-42 -55q-22 -29 -44 -54q0 -1 -4 -5q-6 -8 -14 -17t-18 -17q-2 -2 -11.5 -3t-20.5 -6l-60 -35q-2 0 -8.5 -1.5t-14 -3 t-14.5 -2.5t-10 -1q-18 -4 -29.5 -11t-32.5 -7l-102 -3q-4 0 -17 0.5t-28 1.5h-29q-14 1 -21 1l-28 6l-64 5l-10 5l-99 69l-24 11q-18 10 -30 29l-24 38q-11 20 -23 36l-22 30q-9 16 -19.5 31t-19 31t-14.5 32.5t-6 36.5l-8 78zM281 388q8 -9 11.5 -16t5 -13t2 -13t2.5 -17 q8 -33 26 -69t38 -61l38 -36l38 -49q18 -25 45 -36h40q22 0 47 5.5t50 9.5q14 0 25 1.5t27 11.5l12 13q48 26 83 64l69 109l-3 104q5 8 6 15t1 21q0 17 -8 31t-8 34l9 38q-3 12 -6 28t-6.5 32.5t-8 31t-11.5 23.5l-51 59q-3 2 -7.5 9t-9 16t-8 17t-3.5 12l-30 21 q-18 20 -36 34.5t-43 18.5l-49 6q-26 4 -46 9.5t-45 5.5h-7l-61 -36l-97 -113l-7 -20q-3 -9 -3 -18l-5 -31l-16 -41v-26q0 -14 4.5 -26t4.5 -28q0 -8 -1 -12.5t-8 -9.5v-109z" />
<glyph unicode="p" horiz-adv-x="1110" d="M346 -552l-57 -10h-203q-12 0 -24.5 3t-23 9.5t-17 16.5t-6.5 24t2.5 23.5t16.5 13.5l71 14q7 2 13 5l10 4q6 2 9 4q4 0 9 3q2 1 4 3q5 6 12 19.5t7 19.5q0 2 1 13.5t2.5 26t2.5 28.5t1 22v54q0 30 -1 59.5t-6 56.5l-6 19v38l6 21l-1 41q0 11 1.5 20.5t6.5 17.5 q-4 54 -5.5 105.5t-1.5 104.5v32l2 28v3q0 2 -1 9l-1 22q-1 15 -3 41v15q0 7 2 16l1 39q-5 29 -6.5 58t-1.5 60q0 29 1.5 58.5t6.5 61.5l-6 10q-3 2 -9 8l-10 10q-6 6 -14 13q-3 3 -10 8t-16 10t-18 9l-12 6q-6 2 -9.5 2.5t-5.5 2.5q-16 12 -16 28v7q0 6 2 8q2 3 3 5.5 t6 5.5l51 31q3 1 7 2l6 2q3 1 5 1l46 14l26 22q14 17 35.5 29.5t40.5 12.5q22 0 34.5 -7.5t19.5 -19.5t9 -25l5 -25q3 -12 7.5 -19.5t13.5 -7.5l90 40l24 17q17 12 34.5 18t35.5 9t36.5 3.5t38.5 2.5l26 9q21 0 35.5 -2.5t26.5 -7.5t23 -12l26 -15q27 -11 56.5 -19.5 t55.5 -26.5l95 -101l6 -12q2 -5 4.5 -9t2.5 -6l26 -78l20 -37q0 -6 3 -12l4 -8v-28q1 -5 2 -9t2 -7t1 -5l6 -20l2 -25l2 -22q1 -10 1 -18q-17 -63 -38 -119t-50 -111l-25 -48l-7 -19q-10 -15 -24.5 -26.5t-31.5 -21.5t-34 -18.5t-32 -18.5l-32 -24q-18 -13 -38 -16t-43 -3 h-45h-30q-13 0 -27 0.5t-29.5 1.5t-34.5 3l-26 5l-17 -5h-78q-19 -15 -29 -33.5t-14.5 -39.5t-5.5 -44t-1 -47v-94q0 -8 1 -23t2.5 -30.5t2.5 -27.5t1 -14l19 -48v-24l12 -51q0 -6 7 -7t14 -1l31 19h7l17 -7h55q11 0 20.5 -4t21.5 -15q13 -8 17 -14.5t4 -20.5l1 -10 q0 -16 -15 -28.5t-35 -14.5l-90 -9l-42 16q-21 8 -39 8h-19zM346 268q0 -14 1 -21.5t6 -23.5q2 -8 7 -19l11 -21l13 -24q0 -2 5.5 -6t12.5 -8t13.5 -7t8.5 -3l31 -28l43 -12h52l12 -5q21 0 38 4.5t31.5 11t27.5 14.5t26 15q13 11 26.5 14.5t27.5 16.5q3 2 6.5 6t7.5 8l8 10 l5 59l26 64l5 31v24l13 40v30q-10 36 -12 61.5t-6 48.5q-2 7 -4.5 11t-5.5 8t-5.5 9.5t-5.5 15.5q-2 7 -3 17.5t-2.5 21.5t-3.5 21t-6 18q-3 2 -11.5 8.5t-17.5 15.5l-16 16q-7 7 -9 10l-12 24q0 2 -4 6.5t-9 9t-11 9t-9 6.5l-12 5h-50l-33 11h-17q-39 0 -64 -8t-52 -18 l-33 -16q-12 -4 -18.5 -11t-10.5 -16t-7 -19.5t-7 -22.5l-17 -42q0 -11 2.5 -20.5t2.5 -20.5l-5 -49q0 -35 6.5 -64.5t17.5 -61.5v-21l-7 -46v-42l-7 -22v-23z" />
<glyph unicode="q" horiz-adv-x="1021" d="M785 -561q-14 0 -34.5 -3t-37.5 -7l-16 -5l-19 5h-19l-69 -5q-5 0 -13 1.5t-22 1.5q-6 0 -8.5 4t-5.5 7q-9 4 -14 5t-5 9l-1 19q0 11 5.5 16.5t13 8.5t16 4t15.5 3q1 1 6.5 4t12 7t12 7t7.5 3h43q9 1 17.5 7.5t16.5 15t13.5 18t8.5 16.5v106l6 34q0 11 -3 16t-3 10v4 q1 2 3 13t2 13q0 1 1.5 9t2.5 19l2 23q1 12 1 21q0 2 -9 8t-10 8v16l1 2q0 2 2 6t4 7q0 3 1 12.5t2 20.5t1.5 20t0.5 11t4 10t8 14q0 11 -6.5 28t-17 32.5t-24.5 27t-28 11.5h-4l-9 -5q-8 -4 -16.5 -9t-16 -9t-8.5 -5q-2 0 -11.5 -1.5t-16.5 -6.5q-9 -9 -18.5 -15t-29.5 -6 h-10q-7 0 -16 2l-33 -11q-2 -1 -8.5 -3t-8.5 -2l-38 5h-64q-8 0 -13.5 6.5t-12.5 12.5q-2 2 -11.5 6.5t-14.5 5.5l-30 14q-2 1 -5.5 5t-7.5 9.5t-7 10.5t-4 8l-72 42q-14 17 -21 31t-17 36q-2 2 -5.5 12.5t-3.5 11.5q-12 19 -14.5 38.5t-6.5 36.5q-5 36 -15.5 69.5 t-10.5 68.5v9l14 41v63q12 9 12 17q1 3 3 16t4 28.5t3.5 29t1.5 16.5q2 2 4.5 8t4.5 6q0 2 2.5 8.5t4.5 6.5v23l3 3q2 4 6 8l7 8q3 4 5 5l19 31l9 9l14 13l14 13q6 6 9 8l26 11l47 46q8 4 13.5 6t11.5 2.5t12.5 1.5t16.5 3q1 0 5.5 3t4.5 5q4 0 10.5 2t8.5 3q2 0 7 0.5 t11 1.5t10.5 2t6.5 2l34 20h49l15 3q8 1 18 2t24 1l15 -7l78 -16q21 -4 42 -13l42 -19q20 -9 41 -16t43 -7q12 0 18.5 3.5t11.5 8t10 8.5t15 4h10q6 0 8 -2q4 -4 7.5 -13t6 -19t4 -19.5t1.5 -14.5l-6 -34v-47q0 -2 -5.5 -9t-7.5 -15q1 -2 3 -8l5 -12q2 -6 3.5 -11.5 t1.5 -6.5l-5 -26q-4 -21 -6 -33.5t-2 -30.5l8 -45q0 -16 -4 -27t-4 -25v-251q0 -5 -1 -13t-6 -13v-216l7 -87l-7 -81l15 -73l-8 -83q0 -14 13 -27l6 -68l14 -14q1 0 8.5 -6t16.5 -6h11q7 0 14.5 -0.5t13.5 -0.5h6q10 -1 21 -2.5t20.5 -5t16 -10.5t6.5 -19q0 -8 -0.5 -16.5 t-4.5 -16.5q-5 -10 -8 -15t-6 -8t-7 -6t-10 -9q-2 -1 -7.5 -4t-9.5 -3q-3 0 -9 2t-10 2h-18q-5 0 -17 2q-25 2 -50 4.5t-48 3.5zM259 379q16 -1 24.5 -11t13.5 -23.5t8.5 -28.5t9.5 -25l26 -33q10 -15 20 -35.5t22.5 -39.5t28.5 -34t38 -18q3 -1 15 -1q14 0 33 -2.5t28 -2.5 l79 -9q8 0 18 5t17 5l19 -1q5 0 10 2t9 11q2 2 6.5 11.5t5.5 9.5q4 4 13.5 18t9.5 22l-5 36q0 7 2.5 13t6 12.5t6 14.5t2.5 19q0 5 -1.5 12t-10.5 12v127l-16 36v10q1 2 3 10l6 17q3 9 5 17t2 10v13q0 5 0.5 10t0.5 8v11q0 7 -0.5 13.5t-0.5 11.5v6l-5 17v48q0 20 -4 36 t-21 30q-3 2 -10 8l-13 11l-14 12q-6 5 -8 7t-2.5 3t-2.5 1q-22 20 -45.5 36t-58.5 16q-10 0 -23.5 -1t-28 -2.5t-29 -4t-24.5 -5.5l-19 -13l-40 -16l-29 -54l-32 -41l-32 -106q-2 -2 -3 -5q-3 -5 -3 -7q-1 -2 -1.5 -5t-2.5 -6q-2 -4 -3 -8q0 -1 1 -8t2.5 -16t2.5 -17t1 -12 l-7 -21q-4 -11 -6 -28t-2 -19q0 -3 0.5 -13t1.5 -21t2.5 -21t3.5 -14z" />
<glyph unicode="r" horiz-adv-x="752" d="M61 61q0 8 10.5 11.5t15.5 8.5q11 12 25.5 17t20.5 8q8 5 11 12.5t14 11.5l24 8q6 0 10 9t5 10q-1 5 -1 17v23v25q0 12 1 20l6 30v154q0 2 1 9t2 15t2 15t2 9v7q-1 6 -2 18l-2 25q-1 13 -2 23t-1 12q-1 3 -2 10t-2 15t-1.5 15t-0.5 10q-3 14 -10 27t-16 24.5t-19 22.5 l-19 23q-1 0 -7 7.5t-6 9.5l-59 55l48 49q2 1 9 4l14 6q7 4 14.5 7t11.5 4q2 2 8.5 3.5t14 2.5t14 1.5t8.5 0.5q19 6 34 16l31 21q15 11 30.5 19t35.5 8h16l11 -11q10 -9 15 -13q7 -11 7 -27.5t1 -32t7 -26.5t26 -11h6q4 0 4 2q4 1 11 4.5t14.5 8.5t14 10t9.5 8l41 31 q2 2 13 9.5t15 11.5h8l14 1q8 1 15 2t10 2q1 0 6.5 2t12 4t11.5 4t6 2h11q23 0 37.5 -14t26.5 -31q7 -9 8.5 -25.5t6.5 -24.5q0 -3 3 -6l4 -4q0 -48 -13.5 -85.5t-45.5 -60.5q-9 -2 -21 -3.5t-20 -1.5q-21 0 -31 2.5t-15 7.5t-8.5 13t-11.5 19q-7 9 -16.5 14.5t-18.5 8 t-16.5 3.5t-9.5 1l-43 7l-36 -10l-12 -16q-5 -1 -14 -9.5t-17.5 -19t-14.5 -22t-6 -18.5l-5 -72l5 -28v-52q0 -2 1.5 -11.5t3.5 -14.5l-7 -90l7 -34q0 -7 -3.5 -14t-3.5 -18l7 -34l-7 -37v-3q0 -2 2 -2q1 -6 7 -17l12 -23l12 -23q5 -10 7 -15q0 -1 2 -4t5 -3q9 -5 17.5 -13 t20.5 -12q7 -3 18 -6l24 -5q12 -3 24.5 -7t23.5 -10q6 -8 11.5 -19t5.5 -24q0 -11 -3.5 -16t-10.5 -10q-6 -4 -20 -4l-32 -3q-17 -2 -31 -2h-22q-8 0 -17.5 2.5t-20.5 2.5q-28 0 -53 -7.5t-51 -7.5l-45 15l-64 -15h-17l-14 10q-2 0 -11 1.5t-26 3.5q-4 0 -8 4q-3 1 -9.5 3 t-20.5 9q-8 11 -8 21v3v16z" />
<glyph unicode="s" horiz-adv-x="720" d="M88 176q0 12 2 35.5t7.5 46.5t15.5 40t27 17q3 0 5 -11l5 -26q2 -14 6 -27t10 -16q13 -6 17 -9t7 -17l33 -48q5 -12 18 -17t20 -14q11 -16 31 -23.5t45 -7.5l29 5q1 1 9.5 1.5t18 1.5t18 1.5t10.5 0.5q5 2 14 4.5t18 5.5t16 6t9 5q1 1 9 8l18 18l21 20l16 18q8 8 10 12.5 t2 14.5v9q0 39 -14 65t-43 51q-24 22 -49 34.5t-51.5 19.5t-55.5 11.5t-60 10.5q-11 1 -19.5 7t-16 13.5t-14.5 15.5t-14 14l-61 37q-21 15 -31.5 35.5t-16 43.5t-8.5 47t-8 47l-14 32q0 32 9 55t22 46q17 4 26 18t21 23q1 3 7 8.5l12 11.5l12 13q5 6 5 9q5 2 12 9t7 12 q3 0 10 3t15 7l16 7q7 4 11 5q2 0 8.5 2t9.5 3q1 0 7.5 4.5t9.5 4.5q11 0 21.5 -4.5t21.5 -4.5l64 9l80 -12l57 -24q11 0 25 8.5t25 8.5q3 0 5 -2q3 0 5.5 -1.5t5.5 -3.5q0 -2 2 -8q1 -3 3 -6q0 -16 -8 -26.5t-8 -23.5l-2 -26q0 -8 -0.5 -15.5t-5.5 -13.5q-3 -14 -2.5 -37 t-2.5 -44.5t-11.5 -37.5t-27.5 -16l-10 17q-3 2 -4 9.5t-6 9.5q-5 4 -11 14t-11.5 22.5t-10 24.5t-7.5 19l-14 12q-20 15 -35.5 22t-33.5 21q-4 4 -13.5 4.5t-26.5 0.5q-16 0 -43.5 -6.5t-54 -18.5t-46 -28.5t-19.5 -36.5l5 -21q0 -5 -4.5 -18t-7.5 -20q0 -11 3 -16t8.5 -8 t12 -6t14.5 -11q5 -4 6.5 -10.5t2.5 -13.5t2.5 -14t7.5 -12q11 -9 32.5 -13t37.5 -6h55q20 -2 37.5 -15t26.5 -15h59l31 -21q22 -14 36.5 -27.5t25 -28.5t18.5 -33.5t17 -43.5l2 -4q2 -4 4.5 -8.5t4.5 -8.5t3 -5l-9 -31q0 -1 2 -7.5t5 -14t5 -15t2 -10.5v-34q0 -16 -3 -37 t-9 -42.5t-15 -41.5t-20 -33q-1 -2 -9 -10t-17 -19l-19 -20q-10 -9 -15 -13q-1 -1 -4 -3t-7 -4q-4 -3 -10 -5l-12 -16l-26 -5q-1 0 -6 -0.5t-10.5 -1.5t-10.5 -2t-6 -1q-9 -3 -23.5 -12t-24.5 -9q-24 1 -34.5 2t-23.5 3h-34q-3 1 -9 2.5t-13 3t-13 3t-7 1.5q-1 1 -6 3l-12 6 l-12 5t-6 2q-4 2 -15 3.5t-13 1.5l-17 9l-23 8q-11 4 -22.5 10.5t-24.5 17t-29 26.5q-1 4 -2 10t-1 11q0 16 3.5 30.5t3.5 22.5z" />
<glyph unicode="t" horiz-adv-x="703" d="M165 384l-6 100l6 104v30q1 5 3 12t2 12q0 29 -9 59.5t-14 59.5q-10 7 -28.5 10t-36.5 7.5t-31.5 13.5t-13.5 28q0 21 14 31.5t33.5 18t40 13.5t33.5 18q13 11 29 27t23 25q8 16 21.5 40t29.5 46.5t34 39t36 16.5q12 0 19.5 -6.5t12 -16t6.5 -20.5t3 -21v-116l5 -7h47 q25 0 46 3.5t39.5 8t36 8t37.5 3.5q28 0 47 -21t19 -50q0 -23 -7.5 -38t-21.5 -24t-33 -12.5t-42 -3.5l-66 5l-50 -5l-48 5q-14 0 -25.5 -12.5t-11.5 -23.5l9 -75q0 -14 -4 -27t-9 -26.5t-9 -27.5t-4 -29v-18l9 -116q-3 -6 -3.5 -12t-0.5 -15q0 -7 2 -13t2 -11q3 -29 3 -57 q0 -25 -2 -48t-6 -46q1 -1 4 -5l6 -10q4 -6 7 -11.5t5 -6.5q8 -12 18 -18t20 -10l22 -10q12 -5 23 -15h38q23 0 44 5t40 11l38 10q19 5 39 5q12 0 18 -12t6 -23q0 -6 -0.5 -9.5t-2.5 -6.5t-5.5 -7t-8.5 -11l-14 -20q-3 -2 -10 -10l-14 -17q-8 -10 -16 -18l-12 -13 q-10 -11 -30 -21t-42 -17.5t-42.5 -11.5t-32.5 -4l-128 26q-17 5 -38 15t-40.5 23.5t-34 30.5t-18.5 37v69q-5 34 -11.5 64.5t-6.5 63.5z" />
<glyph unicode="u" horiz-adv-x="1062" d="M658 102q-10 0 -19.5 -4.5t-18.5 -11.5l-18 -14q-10 -7 -20 -11q-2 -2 -10.5 -4.5t-18.5 -4.5q-10 -3 -18.5 -5t-11.5 -4q-1 0 -5.5 -3.5t-9.5 -8t-9.5 -9t-4.5 -5.5q-2 0 -4.5 -1t-4.5 -2q-3 -1 -5 -2q-16 -7 -32 -8.5t-30 -1.5q-16 0 -31 1.5t-28 8.5q-36 14 -63.5 20 t-48 16t-36 30t-27.5 62q0 7 1 23t1 36t-1 34t-1 25q0 1 -1 7l-4 14q-2 7 -4 13t-3 7v9l14 50q0 17 -7 32t-7 30q0 16 2 29.5t10 24.5l-7 76v187q-2 7 -10.5 20t-18.5 26.5t-19.5 24t-13.5 12.5q-11 6 -23.5 11.5t-23.5 12t-18.5 15.5t-7.5 23q0 17 5 26.5t13 14.5t18.5 6.5 t22.5 1.5h40l81 -5q23 0 42 5t39 5q27 0 45.5 -10t30 -26.5t16.5 -37.5t5 -44v-3q-9 -29 -13 -58t-5.5 -57.5t-2 -58t-3.5 -60.5l-12 -93l7 -28q0 -8 -1 -12l-4 -9v-176q0 -19 7.5 -30t17.5 -19l21 -17q11 -9 18 -21q0 -1 1.5 -10t3.5 -9q5 -3 20 -7l32 -8q16 -4 31.5 -6.5 t21.5 -2.5q29 0 52 3.5t39.5 14t28 28t17.5 46.5q0 2 2.5 5.5t4.5 4.5q17 26 24.5 55.5t11.5 60.5l-15 66q0 10 4 23t9 27t9 28t4 27q0 20 -2.5 38.5t-6.5 38.5q-2 20 -6 38.5t-4 35.5v73q-6 23 -23 39t-39 28t-46 21t-44.5 19.5t-33.5 23t-13 30.5q0 4 0.5 5.5t4.5 4.5 q17 11 29.5 20.5t24 16.5t23.5 11t28 4h23l80 -31q15 -7 37 -9.5t45.5 -5.5t46.5 -6.5t41.5 -12t30 -23t11.5 -37.5v-10q0 -7 -1 -9q0 -1 -3 -7l-7 -11l-6 -12q-3 -5 -3 -6q-2 -8 -7 -24l-9 -34l-8 -31l-4 -18v-78l-10 -40q0 -17 2 -35l4 -36q6 -29 6 -64l-2 -19 q-2 -7 -6.5 -21t-9.5 -19v-62l7 -116q0 -14 -3.5 -21.5t-3.5 -18.5q0 -13 8.5 -29t22.5 -16q11 0 20.5 3l18.5 6l17 7q9 3 19 3q20 0 30.5 -13.5t10.5 -29.5q0 -25 -20.5 -37.5t-49 -19t-57.5 -12t-46 -17.5q-41 -3 -68 -4.5t-58 -1.5h-24q-9 12 -13 30.5t-7 36.5t-7 31 t-13 13z" />
<glyph unicode="v" horiz-adv-x="910" d="M279 443q0 21 -11.5 33.5t-22.5 30.5q0 2 -2 12l-3 16q-5 22 -9 30t-8 13l-10 11q-5 7 -13 25q0 3 -1.5 11.5t-3.5 17t-3.5 16t-2.5 9.5q-8 20 -17.5 38t-18 36t-15 37.5t-7.5 42.5q-17 11 -39 18.5t-42.5 17t-34.5 25.5t-14 43q0 9 6 15.5t15 10t19 5t19 1.5l58 -10 q57 -13 114.5 -22t116.5 -9q18 0 31 10q6 3 13.5 4t15.5 1q20 0 35 -6.5t15 -29.5q0 -17 -8 -25t-20.5 -12.5t-26.5 -7t-26.5 -9t-20.5 -18t-8 -33.5q0 -14 3 -33.5t8.5 -41.5l11.5 -45l13 -43l10 -36q0 -7 5.5 -21t6.5 -21q5 -11 10 -32l9 -46q5 -25 12 -50.5t16.5 -46.5 t22.5 -34.5t31 -13.5q8 0 15 4.5t13 11.5t10.5 14.5t9.5 12.5q4 26 10.5 45.5t15.5 36.5l17 36q9 18 18 41q5 23 14 47t12 47q0 2 2.5 6t4.5 6q1 2 7 10.5t6 10.5v31q2 10 9 17l13 15q7 8 12.5 16t5.5 19l-14 24q-1 4 -1 30v15q0 8 1 13l-27 3q-19 3 -39 8t-35.5 14.5 t-15.5 24.5q0 16 12.5 25t32.5 18q9 -2 19 -2h19q13 0 25.5 0.5t27.5 3.5q33 5 65.5 3.5t64.5 3.5q12 2 20.5 11t24.5 9q25 0 34 -12.5t9 -35.5q0 -18 -10.5 -31.5t-26.5 -24t-35 -19.5l-36 -18q-18 -8 -31.5 -17.5t-17.5 -21.5q-4 -9 -6 -22l-4 -27q-2 -13 -4.5 -25.5 t-6.5 -21.5q-2 -5 -7.5 -17.5t-13.5 -27.5l-17 -34q-8 -16 -12 -27q-11 -18 -20 -44t-9 -49l1 -12l-22 -30q-9 -12 -16 -24t-13 -25.5t-13 -31.5l-4 -12q-3 -9 -6 -19l-6 -19q-2 -8 -3 -9q-13 -27 -18.5 -57t-14.5 -59q-1 -4 -7 -16l-15 -27l-16 -30q-7 -14 -8 -19 q-4 -8 -7 -29t-8.5 -43t-14.5 -39t-26 -17q-21 0 -35.5 18.5t-25 44t-17.5 52t-13 41.5q0 4 -5 17t-7 14q-9 19 -14.5 36.5t-9.5 35.5t-7 37t-8 40q-2 13 -9 29l-13 32q-6 16 -11 32t-5 30z" />
<glyph unicode="w" horiz-adv-x="1345" d="M358 149q-22 33 -30 63.5t-13 60.5t-13.5 59.5t-32.5 60.5l-20 84v39l-3 5q-3 6 -8 13l-8 15q-4 7 -6 10l-20 26v52q0 3 -3.5 9.5t-8 14t-8.5 13.5t-5 8q-14 24 -22 54.5t-19 55.5q-6 13 -11 19.5t-13.5 10t-22 5t-36.5 5.5q-16 3 -27 9.5t-11 20.5q0 20 8.5 35t17.5 29 l52 10h20q29 -11 61 -17t62 -6q25 0 44.5 7t42.5 7q3 0 10.5 -0.5t16.5 -1.5t16 -1.5t9 -1.5q5 -4 11.5 -6.5t12.5 -6t10 -8t4 -12.5q0 -11 -5 -26.5t-14 -28.5q-7 -8 -23 -15.5t-21 -15.5v-21l2 -12q1 -12 4 -28l6 -33q3 -16 6.5 -30t6.5 -20l20 -22q9 -19 14.5 -40.5 t9 -43t6.5 -43.5t8 -41l33 -59q3 -7 5 -20t5.5 -25.5t9.5 -21.5t17 -9q12 0 20.5 9t15 21t11 24t8.5 17q0 2 8 10.5t11 10.5q13 16 18 37l10 43q5 22 13.5 42t29.5 32l2 41q0 4 -0.5 11.5t-0.5 14t-1 11.5v6l-14 31q-4 11 -4.5 23t-2.5 26q-2 11 -3 21.5t-4 21.5 q-8 19 -23 23.5t-31 8.5t-31 12.5t-24 35.5v10q0 9 2 20.5t7 14.5q11 6 31 7t38 1h33q1 0 8 -2t16 -4l20 -4q10 -2 16 -2l80 19l87 -14q10 0 19 3.5t20 3.5q26 0 40 -10t14 -36q0 -27 -17 -37t-40.5 -13.5t-47.5 -6t-37 -14.5v-14q0 -11 3.5 -17.5t8 -12.5t8.5 -12.5 t6 -18.5v-64q1 -4 8 -29l16 -58l21 -73l21 -71l16 -55q7 -22 8 -23q7 -7 10 -8t7 -1q7 0 12 1t13 8q0 1 1.5 5t3.5 8q7 21 18 40l24 39l23 39q11 19 18 40q1 1 1.5 6t1.5 10.5t1.5 10t0.5 6.5q9 25 17.5 41t13.5 37l5 45q7 12 15.5 23t16 22.5t12.5 23.5t5 24v9 q-2 23 -14 34t-27.5 16.5t-31 9.5t-22.5 14l-6 23q0 18 14 27l4 5q1 5 7 7t29 2h14q6 0 11.5 -0.5t12 -1t17.5 -1.5q33 0 55 2.5t42 4.5h4q5 0 18.5 -2t15.5 -2l54 2q8 0 15 -1.5t9 -3.5q4 -5 9 -6.5t7 -7.5v-12q0 -20 -5 -30t-9 -15q-8 -8 -25 -14l-35 -13 q-19 -7 -36 -16.5t-25 -22.5q-20 -30 -33.5 -57.5t-25.5 -54.5l-23 -55q-12 -28 -29 -58q-8 -17 -17 -32.5t-16.5 -31.5t-12 -34t-4.5 -39l-16 -19q0 -6 -2 -16t-5 -21t-7.5 -20.5t-9.5 -13.5l-14 -36l-33 -71q-10 -20 -14.5 -34t-9.5 -27t-12 -27t-21 -33 q-10 -16 -13.5 -31t-8 -26.5t-15 -18.5t-34.5 -7q-19 0 -28.5 3t-15 9t-10.5 15.5t-15 22.5q2 8 2 15v13q0 23 -5 44t-12 41t-13 40.5t-8 43.5l-7 75q-2 10 -10 31.5t-18.5 43.5t-21.5 38.5t-19 16.5q-12 0 -21.5 -6.5t-11.5 -12.5q-2 -3 -8 -16t-6 -17q-11 -46 -28 -80 l-38 -73l-19 -27q0 -2 -1.5 -8t-3.5 -8q0 -1 -1 -7.5t-2.5 -14t-3 -14t-2.5 -7.5q0 -1 -2.5 -5t-6 -8.5t-6.5 -8t-4 -4.5q-10 -23 -13.5 -50t-11 -50t-24.5 -38.5t-53 -15.5q-17 0 -28.5 5t-14.5 28z" />
<glyph unicode="x" horiz-adv-x="997" d="M47 26q0 11 15 19q45 17 85 44.5t75.5 60.5t67.5 71l61 73q7 9 20 21t26 26.5t22.5 29t9.5 27.5q0 7 -5 15t-11 16l-13 16q-6 8 -9 15q-1 3 -6 12t-10 20l-9 21q-5 10 -6 13q-14 5 -29 16.5t-28.5 25.5t-25 29t-18.5 28t-11 28l-9 31q-5 16 -11.5 31t-18.5 27 q-1 1 -5.5 4t-8.5 7l-9 6q-4 3 -4 4l-9 9l-15 14l-15 14q-7 6 -10 8q-14 12 -30 16t-29.5 9.5t-22.5 16t-9 34.5q0 7 3 15.5t8.5 15.5t13 12t16.5 5q52 6 104 6q51 0 105 -6q14 -5 41 -4.5t53.5 -1t46 -9.5t19.5 -30q0 -14 -8.5 -24.5t-18.5 -20t-18.5 -20t-8.5 -23.5 q0 -23 6.5 -38t16.5 -27l21 -26q11 -13 20 -32q5 -9 8 -21.5t7.5 -24.5t13 -20t25.5 -8q27 0 40.5 5t21.5 15.5t13.5 25t17.5 34.5l18 38q8 17 8 39q0 16 -6 39t-8 43q-23 9 -34 22.5t-11 41.5q0 6 0.5 10.5t4.5 4.5q16 3 31.5 5t31.5 2q15 0 33 -2t29 -5q2 -1 11.5 -3 t16.5 -4q1 1 5.5 2.5t9.5 3.5l10 4q5 2 7 4q14 3 25.5 4t25.5 1q11 0 23.5 -1t24.5 -4q9 -5 23.5 -5.5t28 -2t23.5 -7.5t10 -23q0 -16 -14.5 -26t-34 -16.5t-40 -12t-31.5 -12.5q-27 -21 -51.5 -48.5t-50.5 -52.5q-4 -3 -10 -9l-14 -12l-10.5 -12t-4.5 -6q-3 -3 -11.5 -18.5 l-17.5 -32.5l-16 -33q-7 -15 -9 -18q-1 -3 -6 -10l-11 -14l-10 -13q-5 -6 -6 -7v-12q0 -26 11.5 -53t29 -53.5t36.5 -51.5l34 -46q11 -13 14.5 -29t11.5 -30l33 -27q4 -4 5 -10l3 -12q2 -7 5 -13t9 -10q27 -28 55 -52l61 -51l13 -13l15 -15l13 -13q6 -6 6 -7v-12l-31 -14 q-13 -7 -32 -7l-88 7l-34 -2q-5 -4 -12 -4.5t-18 -0.5q-8 0 -15 4l-14 7l-15 7q-7 3 -16 3l-101 -9q-14 0 -17 3.5t-3 17.5v12q11 10 21 16.5t17.5 13t12 15.5t4.5 23q0 17 -9 33t-21.5 31.5t-26.5 30.5t-23 31q-10 15 -10 24.5t-2 15.5t-11 8t-37 2h-21q-7 0 -12.5 -1 t-13.5 -6q-3 -1 -12 -19t-19 -40.5t-18 -43t-8 -25.5q0 -16 0.5 -35t4.5 -32q4 -11 14.5 -16t20.5 -9t18 -9.5t8 -17.5q0 -14 -10.5 -22t-24.5 -12t-29.5 -5t-25.5 -1h-63q-54 0 -112.5 2t-110.5 8q-15 3 -15 16z" />
<glyph unicode="y" horiz-adv-x="1008" d="M125 -472q0 9 0.5 16t5.5 18q5 23 21.5 38t50.5 25q3 1 10 2.5t14 2.5t12.5 1.5t6.5 0.5l37 -7l22 7q3 0 9 0.5t17 0.5q18 0 24.5 1t10.5 6q8 12 13 21t8.5 17.5t6 18t5.5 23.5q0 1 1 6.5t2 12.5t2 13t2 9q0 4 5 15t11 23l12 22q5 11 8 16l-7 42q11 18 17 33t6 36 q0 3 -1 7.5t-1 6.5q0 8 -0.5 19.5t-1.5 22t-2 18.5t-1 9q0 3 -4 12l-8 21l-9 21q-5 10 -5 14q-1 2 -4 12l-6 21q-4 12 -6.5 22t-2.5 12l-32 54q0 1 -1 8t-2 15t-2.5 15.5t-2.5 9.5q0 9 -2 22.5t-3 13.5q-1 3 -5.5 8t-10 10t-10.5 9t-5 5l-14 36l-33 47l-37 95l-5 11 q-5 10 -5 11q-2 2 -6 5.5t-4 5.5q-1 1 -2 9t-1.5 17t-1 16.5t-0.5 9.5q-4 16 -12 34.5t-17 36.5l-18 37q-10 18 -17 33q0 2 -2 10.5t-4 10.5q0 3 -4.5 8.5t-9.5 7.5q-29 23 -61.5 36t-67.5 30l-9 13q-4 8 -12.5 12t-8.5 11q0 35 12.5 45t31.5 10q15 0 29.5 -5t30.5 -14 q3 0 12 1t21 1q11 0 21.5 -1t14.5 -1l26 -10h26q1 0 8.5 1.5t16 3t15.5 3t9 2.5q6 3 16.5 5.5t20.5 4.5t17.5 3t9.5 1h45l27 5q9 0 21.5 -3.5t23 -9.5t18 -13.5t7.5 -14.5q0 -8 -2 -23.5t-9 -23.5q-16 -17 -33.5 -24t-25.5 -9l-17 -5q-7 -3 -15.5 -1.5t-15.5 -5.5 q1 -8 4 -19.5t7 -22.5l7 -20q3 -8 3 -9q1 -10 5.5 -18t9.5 -16l10 -16q5 -8 8 -17l12 -64q2 -14 10 -26.5t17 -24.5l18 -24q9 -12 12 -26q0 -1 0.5 -9t1 -17t1.5 -17t2 -9q0 -1 6 -10t8 -10q1 -2 5 -11t7 -12l15 -31q2 -7 7 -17.5t9 -10.5q7 -11 15.5 -15.5t15.5 -4.5 q5 0 14 4.5t14 15.5q3 4 7 8q8 8 12 11l2 6l2 4q1 2 1 4q12 30 23 61l22 65q0 3 2 13.5t7 14.5q0 1 0.5 6t1 11.5t1.5 12t2 6.5l15 42q1 1 2 6l2 10q1 6 1.5 10.5t0.5 6.5q3 10 10 20l12 19q6 9 11 18.5t5 20.5l-5 11q-4 8 -6 9v42q0 2 -7.5 11t-11.5 11l-11 5q-8 4 -17 7 t-17.5 5.5t-13.5 3.5q-10 0 -14.5 3.5t-5.5 3.5l-33 24q-5 14 -5 23q0 13 5 23.5t12 21.5q13 7 24.5 9.5t20.5 3t17 1.5t14 5l24 3q2 0 11.5 -0.5t20.5 -1.5t20.5 -1.5t11.5 -1.5l33 -7q23 0 41.5 7t41.5 14h23q0 2 9 3.5t13 1.5q0 2 2 2h5q9 0 24.5 -4t30.5 -11t26 -16 t11 -19q0 -12 -7 -17t-14 -13l-38 -31q-12 -11 -24 -16.5t-24.5 -8.5t-26.5 -5t-29 -6q-17 -26 -28.5 -53t-24.5 -53q0 -5 -2 -12.5t-4 -9.5q0 -1 -0.5 -5.5t-1.5 -10t-1.5 -10.5t-1.5 -5q0 -2 -3.5 -7t-7.5 -12l-8 -12q-3 -5 -3 -6v-52q-1 -1 -4 -7l-7 -12q-3 -6 -6.5 -11 t-5.5 -6q-14 -26 -33 -56t-27 -62v-36q0 -2 -3.5 -10.5t-5.5 -8.5q-11 -21 -14 -39t-12 -35l-29 -59q-4 -20 -5 -41t-1 -42.5t-1 -42.5t-4 -42q-2 -25 -16 -49t-25 -46l-5 -6q-4 -3 -4 -4q-4 -6 -8 -19q-2 -6 -4 -13q-1 -6 -2 -19t-1.5 -27t-1 -26.5t-0.5 -17.5 q-10 -8 -14.5 -23t-7 -33t-4 -35.5t-5.5 -29.5l-28 -36q-2 -2 -3.5 -13.5t-1.5 -14.5q-3 -3 -7 -10q-4 -6 -10 -17t-14 -30q0 -1 -2 -6.5t-5 -12t-5.5 -12.5t-3.5 -7q-4 -14 -11.5 -18t-17.5 -13q-6 -5 -9 -8.5t-5 -6.5l-4 -6q-3 -4 -8 -10q-14 -18 -32 -21.5t-38 -9.5 l-20 -16q-12 -4 -23 -4.5t-21 -0.5q-19 0 -40 6.5t-39 18.5t-30 29t-12 38z" />
<glyph unicode="z" horiz-adv-x="948" d="M431 0q-11 0 -21.5 3t-20.5 6.5t-20.5 6.5t-22.5 3q-26 0 -53.5 -3.5t-57.5 -3.5q-14 0 -25 0.5t-22 1.5l-21 3l-25 4l-26 3q-14 7 -27 21.5t-13 32.5v14l69 69l35 55q4 7 7.5 8.5t6.5 1.5t7 1.5t10 7.5q12 17 18.5 34.5t16.5 31.5q13 21 21 41.5t10 43.5l42 34 q20 17 36 33q15 16 27 31l24 28q13 42 30 78q4 11 16 21.5t18 21.5q7 12 7 22.5t9 20.5l33 14q3 2 6 12l8 23q4 13 6 25l4 18q9 7 12.5 24t3.5 26q0 7 -6 12.5t-14.5 9.5t-17 6t-14.5 2l-28 2q-13 1 -24 1l-54 -3q-11 -7 -23.5 -9t-26.5 -2h-74q-27 -1 -54 -16t-51.5 -35.5 t-46 -41.5t-37.5 -35l-12 -1q-9 0 -15 11t-7 21l88 179q1 2 6.5 4.5t10.5 7.5h9q11 -4 15.5 -5.5t8 -1.5t8 -0.5t14.5 -3.5q19 -3 35 -4.5t31 -2.5t30 -1h32q25 0 46.5 8.5t43.5 8.5q128 -25 260 -28q25 0 47.5 8t45.5 8q8 0 20.5 -1.5t24.5 -6t21 -12.5t9 -20l-2 -7 q-22 -29 -41.5 -63.5t-41.5 -60.5q-26 -29 -44 -59.5t-29 -67.5l-71 -67l-17 -45l-45 -43q-17 -17 -27.5 -34t-18.5 -34t-15.5 -35t-18.5 -37l-31 -35q-9 -23 -24 -40t-26 -31q-11 -18 -17.5 -37t-15.5 -39q-1 -2 -1 -3v-4q0 -25 19 -33.5t41 -9.5q13 -2 29 -4t32 -3.5 t31.5 -2.5t28.5 -1q72 0 130 22.5t109 69.5q12 12 19.5 20.5t14.5 15.5t16 13.5t24 12.5q5 0 15 -6t11 -11q0 -8 -3 -20l-5 -20q-2 -40 -8.5 -82t-14.5 -84q-13 -20 -36 -23t-52 -3q-30 0 -60 4.5t-59 9.5t-58 9.5t-58 4.5z" />
<glyph unicode="{" horiz-adv-x="831" d="M436 -167v18q0 11 1 22q0 12 1 26l95 188v19q0 60 -22.5 116.5t-72.5 94.5l-24 18l-31 21l-26 19q-12 8 -13 9l-268 95q-14 5 -15.5 14t-1.5 18q0 23 15.5 35.5t37.5 19.5t45.5 10.5t39.5 8.5l53 20q31 12 64 27t65 34t58 41.5t41.5 48.5t15.5 56q0 36 -3.5 77.5 t-11.5 72.5t-20 59l-23 57q-11 28 -18.5 57.5t-7.5 63.5q0 55 20 109t56 97.5t85.5 70.5t108.5 27q19 0 40.5 -2t40 -9.5t30.5 -22t12 -38.5v-14q0 -9 -2 -11q-12 -28 -36.5 -39t-54 -15t-61 -6t-57.5 -12t-42.5 -32.5t-16.5 -67.5q0 -59 19 -112t42 -105t42 -105.5 t19 -111.5q0 -20 -1.5 -33.5t-12.5 -31.5q-37 -47 -75.5 -79t-81 -54.5t-90.5 -38.5t-103 -31q-3 -2 -7.5 -6t-6.5 -6v-9q0 -13 30 -26t74.5 -30.5t97 -41.5t97 -58.5t74.5 -82t30 -111.5q0 -47 -12 -88t-30 -80.5t-39.5 -79t-39.5 -82.5q0 -1 -1 -9l-4 -19l-4 -21 q-2 -10 -3 -16q0 -2 -1 -4t-1 -4l2 -6q1 -8 3 -21l4 -26l4 -22q1 -10 1 -11q0 -2 5.5 -7.5t8.5 -7.5l13 -7l16 -9l16 -7t9 -3q8 -2 29 -6.5t45 -8.5l44 -8q21 -3 29 -4q23 -8 26 -22t3 -31q0 -34 -18.5 -58t-55.5 -24q-43 0 -86 17t-80.5 45.5t-66 65t-43.5 75.5 q-7 17 -10.5 38t-5 42.5t-1.5 42.5v38z" />
<glyph unicode="|" horiz-adv-x="498" d="M208 -427v62q0 78 -2.5 155.5t-7.5 152.5q-2 32 -7 65.5t-5 71.5l17 45q0 15 -8.5 27t-8.5 33q4 48 5 86.5t1 74.5q0 26 -1 55t-4 59v102q-9 37 -13 71t-4 66q0 39 3 75t13 79q-2 4 -7.5 17.5t-6.5 22.5l14 50q0 11 -7 26.5t-7 33.5l7 116l-16 343q0 9 3.5 23t19.5 17 l24 4q11 1 21 1q19 0 30.5 -5t22.5 -9q0 -4 2.5 -20.5t2.5 -24.5q3 0 5 -10l4 -21v-21l10 -47l-26 -138l16 -123l-9 -45q4 -15 6.5 -23.5t4 -13t1.5 -6.5v-4q0 -15 -2 -21t-10 -17q7 -8 12.5 -33.5t9.5 -55t6 -56.5t2 -38l-21 -142q0 -13 4 -27l6 -28l8 -28q3 -14 3 -26 q0 -16 -3 -33l-8 -34l-6 -33q-4 -17 -4 -31q0 -29 8 -60.5t8 -62.5l-6 -38v-46q0 -17 -0.5 -25.5t-0.5 -10.5v-6q3 -5 9 -29l11 -52q6 -29 10 -54.5t4 -34.5l-15 -59q0 -18 3.5 -27t3.5 -19l-21 -142q0 -26 6 -48.5t8 -53.5q-11 -3 -11 -18v-3q0 -9 -1 -20t-7 -21t-18 -16.5 t-34 -6.5q-17 0 -27.5 5t-19.5 28z" />
<glyph unicode="}" horiz-adv-x="837" d="M12 -450v5q0 4 1 7q0 4 1 7q17 30 44 43.5t57 19.5t60.5 9t55 12.5t39.5 30t15 61.5q0 53 -10.5 109.5t-30.5 105.5q-14 33 -26.5 57.5t-22.5 48t-15.5 48.5t-5.5 59q0 37 11 66t30 53t44 44l52 42q11 3 40 12l60 19l61 20l40 14q3 1 11 5l17 8l15.5 9.5t9.5 6.5 q-6 9 -17 15.5t-22 11.5q-47 19 -95 35.5t-92.5 37.5t-83 51t-66.5 76l-11 19l-12 26q-7 13 -11.5 23.5t-4.5 13.5q-1 0 -1.5 5t-0.5 11v14v11q0 60 21.5 114t47 106.5t47 106.5t21.5 114q0 41 -19 60t-48 27.5t-62 10.5t-62 9t-48 23t-19 52q0 21 8 35.5t22 23.5t32.5 13 t39.5 4q53 0 92 -24t76 -58q33 -29 54 -61t33.5 -68t17 -75.5t4.5 -82.5q0 -48 -15 -81.5t-33.5 -65t-33.5 -66t-15 -84.5q0 -54 23 -95t58.5 -73.5t78.5 -58.5l84 -49q21 -12 57 -22l74 -18q37 -9 65 -18.5t31 -21.5q4 -13 -6 -25.5t-27 -23.5t-39 -21t-42.5 -18t-37.5 -13 l-22 -8q-41 -15 -78.5 -32.5t-71.5 -40t-63.5 -50.5t-54.5 -65q-3 -3 -7.5 -13.5t-6.5 -13.5v-6v-8q2 -16 6 -43l9 -52q5 -25 8 -44.5t3 -20.5q1 -4 7 -16l13 -26l13 -25q6 -12 8 -15q7 -15 10.5 -25t4.5 -19.5t0.5 -20.5t-0.5 -29v-14v-17q0 -8 -0.5 -14.5t-1.5 -7.5 q-1 -12 -4.5 -33.5t-7.5 -43.5t-8.5 -39t-6.5 -20q-2 -5 -15.5 -19.5t-31.5 -31.5l-34 -33q-17 -15 -26 -22q-5 -4 -17 -10l-24 -14q-12 -6 -24 -11t-16 -6q-1 0 -7.5 -0.5t-14.5 -0.5t-16.5 -0.5t-13.5 -0.5q-17 0 -38.5 1.5t-41 8t-32.5 19t-13 34.5z" />
<glyph unicode="~" horiz-adv-x="1120" d="M172 497q0 22 6.5 37t17.5 27.5t26 23.5l30 24q2 0 8.5 8t8.5 9l15 9l18 13l16 11q7 5 8 5h31q2 0 9.5 1t16.5 3l18 4q8 2 12 4q2 0 8 1t12.5 2.5t11.5 2.5t6 1q3 0 15.5 -2t28 -5t31 -6.5t23.5 -5.5q15 -4 23 -9l14 -10q6 -4 16 -7t30 -3q29 0 58.5 8t57.5 21.5t54 31 t47 36.5h46q7 0 9 -11.5t2 -19.5v-6v-14q0 -5 -1 -9.5t-3 -10.5l-7 -16q-13 -35 -26 -56.5t-31 -35.5t-43 -23.5t-62 -19.5q-18 -5 -30 -10t-24 -9t-25.5 -7t-33.5 -3h-52q-17 2 -30 8l-27 14q-13 7 -28.5 12.5t-36.5 5.5q-34 0 -64 -3.5t-63 -17.5q-14 -5 -26 -14l-25 -19 q-13 -10 -27 -17t-31 -7q-8 0 -15 5.5t-12 14t-8 17.5t-3 17z" />
<glyph unicode="&#xa1;" horiz-adv-x="544" d="M362 1190q0 -29 -7 -57t-31 -47h-9q-6 0 -13.5 -0.5t-13.5 -0.5h-9q-21 0 -41.5 4t-36 14.5t-25 27t-9.5 42.5q0 55 24 81t81 26h19q12 0 24.5 -2t17.5 -10q2 -3 6 -12l9 -17l9 -17q4 -8 5 -11v-21zM352 789v-21q0 -11 -1 -38.5t-2.5 -58t-3 -58t-2.5 -37.5 q-10 -4 -10 -17v-9q0 -14 4 -27.5t9.5 -27t10 -27.5t5.5 -27v-126q0 -2 1.5 -6t3 -8.5t3 -8.5t1.5 -5q1 -5 3 -14t3.5 -18.5t2.5 -17t1 -9.5v-81v-81q-2 -9 -8 -19.5t-14 -19.5t-17 -15.5t-18 -6.5q-2 0 -8 2l-12 4l-13 4q-6 2 -8 2t-9 -4.5t-8 -7.5h-9h-10q-9 7 -21 15.5 t-23 18.5t-20 21.5t-13 24.5q-1 3 -1.5 11.5t-1 18.5t-0.5 19v13v16q0 10 0.5 20t1 17.5t1.5 8.5q0 4 2.5 22.5l5.5 40.5l7 40q3 19 4 24q0 4 -0.5 26.5t-0.5 42.5q0 22 1 26q0 3 1 10l2 15q1 7 2.5 13.5t1.5 9.5v357q0 7 1.5 21.5t3.5 30t4 28t3 16.5q3 14 15.5 26.5 t28.5 12.5h5q51 -35 73 -76.5t22 -105.5z" />
<glyph unicode="&#xa2;" horiz-adv-x="1058" d="M205 -171l28 59l30 65q7 14 9 27.5t4 17.5q0 11 5 17t10 10.5t9.5 9.5t4.5 13q0 24 -15 45.5t-36 41.5t-43 38t-36 35q-2 29 -11 58l-17 58q-9 29 -16.5 57.5t-7.5 57.5q0 13 11 16q1 12 1 26v28q0 39 4 80t29 77q2 0 18 18l35 41l48 59q15 44 49 66.5t75.5 34.5t86.5 20 t81.5 24.5t60.5 47t24 87.5v14l17 17l52 116q3 7 12 7q39 0 61 -14t22 -43v-24l-76 -196q0 -4 12 -14l31 -25l41 -33q22 -18 40.5 -40.5t31 -47t12.5 -51.5q0 -8 -7 -19.5t-16 -22.5t-18.5 -19t-14.5 -10q-20 -8 -34.5 -10t-25.5 -2q-18 0 -28 5t-14.5 13.5t-5.5 20t-1 25.5 q0 12 -1 23t-5.5 21t-14 18.5t-27.5 13.5q-11 -22 -24 -52l-26 -61l-23 -62q-11 -30 -17 -51v-30q-2 -4 -4.5 -13t-4.5 -11q-19 -31 -36 -63.5t-30.5 -66t-21.5 -69.5t-8 -74q0 -23 11 -35.5t28 -18.5t36.5 -7.5t36.5 -1.5h35l5 12l111 61q7 3 17 22l100 78q9 8 13 9.5 t15 1.5q21 0 33 -13t12 -34q0 -14 -9.5 -27.5t-22 -27.5t-24.5 -29t-17 -32q-36 -30 -61.5 -54.5t-51.5 -44t-56.5 -34.5t-76.5 -26q-5 -1 -15.5 -4.5t-22.5 -8t-24 -8t-21 -3.5q-22 0 -39 8.5t-37 8.5q-18 0 -34.5 -10t-30 -25t-22 -32.5t-11.5 -31.5v-45q-3 -9 -14 -27.5 t-25 -37.5t-29 -33t-27 -14h-7zM340 337q8 -4 13.5 -4.5t10.5 -0.5q27 0 35 11.5t11 26t6.5 29t21.5 20.5q4 6 8 29.5t4 44.5q11 22 26.5 57t29.5 72.5t24 72.5t10 56q0 11 -15.5 13t-32.5 2h-28q-44 0 -74 -19t-49 -49.5t-27.5 -69t-8.5 -76.5q0 -21 8.5 -35t8.5 -33 l-12 -50q0 -26 10 -48.5t20 -48.5z" />
<glyph unicode="&#xa3;" horiz-adv-x="1418" d="M497 249v33q0 2 -5 6t-7 4q-3 1 -11 3t-17 4t-16.5 4t-10.5 3h-134q-23 7 -28.5 16t-5.5 31v17q0 9 2 17.5t10 15.5q3 3 9 8l13 11l13 10q6 4 8 6q8 2 27 5.5t40 7t40 6t26 3.5h26h9q1 0 7 4l12 9q7 5 14 11t12 9q4 3 12.5 11t8.5 10l13 25l17 34l17 33q7 15 10 20 q1 3 4 16l7 28l6 28q3 13 4 16t6 13l11 22l10 21q5 10 5 12q3 6 11 31l18 52l18 53q8 24 11 30q0 2 3 7t7 11t7.5 10.5t4.5 6.5q20 40 34 83.5t33 82.5q1 2 4 7t7 10.5t7 10.5t3 6l8 13q4 8 4 10q1 1 2.5 9t3 17.5t3 17.5t2.5 9q2 3 11.5 13t21.5 21l21 21l13 13q1 2 4 9 l7 14q3 7 6.5 13.5t5.5 8.5q0 1 5 6l11 11l10 10l7 7q1 1 4 8l7 14l6 14q3 6 3 8l16 16l27 26l28 28q13 13 19 20q2 1 10.5 4.5t10.5 5.5q3 0 7.5 5t6.5 5q15 12 30 21l29 18l31 19q15 10 33 24q30 11 57 15t52 4q29 0 56 -3t56 -8q15 -9 27 -18l22 -15l17 -13q2 0 5.5 -4.5 t4.5 -6.5q7 -7 16.5 -17.5t18.5 -21.5q11 -12 22 -26v-23q0 -22 -1 -38.5t-9 -39.5q-5 -10 -25 -19.5t-44 -17.5t-46.5 -13t-31.5 -5q-23 0 -41.5 11t-34.5 25l-33 27q-16 12 -35 15h-5q-5 0 -12 0.5t-13 0.5h-11q-7 0 -21 -0.5t-15 -0.5q-2 0 -7 -3l-10 -7l-10 -8t-6 -5 q-17 -10 -32.5 -25.5t-30 -33.5t-26.5 -37l-22 -35l-16 -30l-21 -39l-19 -36q-9 -16 -10 -20q-8 -14 -11 -27t-4.5 -26t-3 -27.5t-5.5 -31.5q0 -2 -3 -8t-7 -13l-8 -13q-4 -7 -5 -9q0 -2 -1.5 -10t-3 -17.5t-3 -18t-2.5 -10.5q-1 -1 -4 -6l-7 -10l-7 -11q-3 -5 -4 -6 q-25 -44 -37.5 -87t-30.5 -89q-20 -55 -37.5 -108.5t-17.5 -113.5v-12q0 -8 2 -15t10 -9h66q22 0 40 2l35 4l34 4q18 2 39 2q11 0 27.5 -3t32 -9.5t26.5 -17t11 -25.5q0 -10 -5.5 -21t-14 -22t-18 -20.5t-17.5 -16.5q-18 2 -35.5 3t-35.5 1q-56 0 -110.5 -7t-109.5 -18 q-4 -3 -13.5 -12l-20.5 -20l-19 -21q-9 -10 -12 -14q-3 -3 -11 -19l-18 -36q-10 -19 -18 -36t-11 -21q0 -2 -5 -8l-11 -13l-10 -14q-5 -7 -6 -9q-1 -1 -3 -6l-3 -10l-3 -11q-1 -5 -2 -6q-1 -5 -9 -21l-18 -34l-19 -35q-8 -16 -11 -20q-1 -3 -6 -15l-9 -25q-5 -14 -10 -25 t-6 -13q-2 -5 -6 -12l-6 -14l-7 -13l-4 -8q-5 -6 -13 -12l-14 -14q-8 -7 -13.5 -15.5t-5.5 -18.5v-3q0 -3 3 -3q16 -22 36.5 -36.5t50.5 -18.5h57h21q8 0 21.5 -0.5t27 -3.5t25 -10t16.5 -19q6 -1 23.5 -3t37.5 -4t37.5 -3.5t23.5 -1.5h38q46 0 83 4t67.5 16.5t55 37 t45.5 65.5q8 16 10 33t2 34v16q0 25 -5.5 44.5t-14.5 36.5t-21.5 33.5t-25.5 35.5l-13 18q-8 11 -15 22l-12 19q-5 8 -5 9q-1 4 -1 8q-1 3 -1 6v5q0 17 3 27.5t21 10.5l6 -2q2 -1 5 -1q2 -1 10 -6l18 -12l22 -14l17 -12q0 -1 5 -4.5t7 -5.5q4 -7 17 -25l27 -37l27 -37 q13 -18 18 -24q0 -4 1 -13.5t2.5 -20.5t2.5 -21t1 -14v-17l1 -21q1 -11 1.5 -19.5t0.5 -10.5q-1 -10 -5 -27l-7 -35q-3 -17 -6.5 -30.5t-3.5 -16.5q-2 -3 -12 -14l-20 -24l-21 -24q-10 -11 -13 -14q-4 -4 -12 -17t-11 -17q0 -2 -3.5 -8.5t-7 -14t-7.5 -14t-6 -7.5 q-1 -1 -5.5 -3t-9.5 -3l-10 -3q-5 -2 -6 -3q-3 0 -13 -5l-20 -10l-20.5 -11.5t-12.5 -6.5q-3 0 -11.5 -2t-18 -3.5t-18 -3t-9.5 -1.5q-2 -2 -11 -6.5t-11 -7.5q-5 0 -25.5 1t-38.5 1q-21 0 -25 -2q-2 0 -8.5 -1.5t-13.5 -3.5t-13.5 -3.5t-7.5 -1.5q-3 1 -9 5l-14 7l-15 8 l-9 4h-46h-19q-38 9 -74 22.5t-72 25.5t-73.5 21t-78.5 9q-3 0 -7 -0.5t-8 -0.5q-4 -1 -9 -1q-2 0 -6 -5t-7.5 -11t-7 -11t-3.5 -6q-30 -43 -68.5 -71.5t-92.5 -28.5h-26q-3 1 -9 4l-13 7l-15 6q-7 3 -10 5q-3 3 -9 8t-11 11l-9 10q-4 4 -4 6q-8 30 -8 57t8 54q0 1 4 5l9 9 l11 11q6 5 9 8l17 11l21 14l19 12q8 5 11 6q3 2 16 4t28.5 4t29 3t16.5 1q1 2 10 6t10 4q2 1 10 4.5t17.5 7t18 7.5t10.5 6q1 0 5 8t7 12l34 82q17 41 32 84q10 32 16.5 63t15.5 60l32 83q15 40 15 85z" />
<glyph unicode="&#xa4;" horiz-adv-x="1037" d="M115 339q0 10 13 31t30.5 43t35.5 40t28 24v13q0 1 2.5 10.5t2.5 13.5q-3 15 -10 32l-15 34q-7 18 -12.5 38t-5.5 43v66q6 5 14 23t15.5 39t12.5 40t5 27q0 10 -10.5 23.5t-24 27t-27 25t-18.5 19.5q-3 1 -11 9l-16 20l-16 20q-7 9 -9 12q7 32 32 46.5t51 14.5 q10 0 17 -4.5t13.5 -10t13 -10t17.5 -5.5q5 -13 13 -28t19.5 -28.5t25.5 -22.5t32 -9h12q19 8 41 18.5t45 19.5t47 15t47 6h14q10 0 12 -2q4 -6 24.5 -15t46 -17t49.5 -14t34 -6q13 0 24 6t20 14t16.5 17t15.5 15l71 64h29q2 0 7 -4.5t10.5 -11t10.5 -13.5t7 -11 q0 -1 0.5 -13t0.5 -16l-1 -30q-3 -6 -9.5 -10.5t-15.5 -8.5l-16 -8q-8 -3 -13 -7q-4 -3 -13.5 -14t-19.5 -24.5t-18 -25.5t-9 -17v-2q0 -16 9 -34l21 -36q11 -19 20.5 -38.5t9.5 -40.5l-10 -92q-2 0 -5 -8.5t-6 -20.5l-6 -22q-3 -10 -4 -13q-9 -6 -13 -10t-6 -5 q-7 -6 -7 -18q0 -8 1.5 -19t4 -20t5.5 -15.5t6 -5.5l30 -12q18 -12 35 -40.5t30 -54.5q5 -5 6 -8.5t1 -5.5q0 -9 -6 -19.5t-15 -19t-19.5 -14.5t-19.5 -6q-5 2 -12.5 4.5t-14.5 5.5l-11 5l-4 2l-97 92q-4 2 -10.5 4.5t-11.5 2.5h-2q-21 -3 -41 -12l-39 -18q-20 -10 -42 -17 t-49 -7q-4 0 -7.5 1.5t-8.5 9.5h-12q-43 0 -77 8.5t-61 20.5q-10 4 -14 7.5t-6 6.5t-5 5t-10 2q-10 0 -26 -19l-38 -42q-21 -24 -47 -43t-55 -19q-20 4 -34 20t-14 37zM393 509l23 -25q18 -5 34 -9q14 -4 28 -7.5t23 -5.5h20q66 0 111.5 25.5t77.5 85.5l8 11l12 18l14 19 q6 9 9 14l-9 43l9 36v13q-8 21 -18 36.5t-21 28.5l-21 27q-11 13 -21 30q-2 2 -3.5 4.5t-3.5 2.5q-16 3 -29 8t-26 12l-26 16q-14 8 -33 16l-34 -6l-47 -9l-46 -9.5t-31 -6.5q-15 -13 -27.5 -32t-31.5 -28l-48 -106v-86q5 -3 16 -18.5t21.5 -33.5t18.5 -34.5t8 -21.5z" />
<glyph unicode="&#xa5;" horiz-adv-x="1493" d="M446 125q0 13 8.5 26t22.5 13h72q2 8 7.5 11t11.5 3q11 0 17 0.5t9 1.5t5 1.5t7 0.5q15 0 25 12t16 28t8.5 32.5t2.5 25.5l2 44q0 14 -1 29t-6 27t-14.5 19.5t-25.5 7.5q-39 2 -60.5 3.5t-33 3t-15.5 2.5t-7 1q-22 0 -29 -3t-7 -7q-22 -3 -42 -4.5t-41 -1.5q-43 0 -85 6 q-11 0 -13 14t-2 25q0 7 1.5 19t6 23.5t11.5 20t19 8.5q27 0 42 -0.5t22.5 -1t10.5 -1t6 -0.5h21q7 0 17.5 1t22.5 2q13 0 19 -5l59 12l46 -14q10 0 22.5 1.5t22.5 6t17 13t7 21.5q0 11 -2 34.5t-8 47.5t-17.5 42t-30.5 18q-5 0 -16.5 -8t-13.5 -8q-4 0 -20 2t-23 3 q-2 0 -5.5 4.5t-3.5 6.5h-81q0 -11 -16 -11l-74 11l-47 -11q-4 5 -12 17.5t-8 26.5q0 10 5 21.5t12.5 22.5t16 22t16.5 20q4 2 8 2h6q14 0 22.5 -4.5t22.5 -4.5h12q11 0 17.5 2t13.5 10h109q8 0 8 9q0 2 -5.5 10.5t-13.5 19.5l-19 24l-19 24l-15 21q-7 9 -9 13l-28 65 q-15 34 -38 60l-26 29l-17 30q-8 13 -23.5 33.5t-33.5 41t-36 37.5t-31 24q-21 12 -47.5 13.5t-50 6t-39.5 17.5t-16 48q0 13 10.5 22.5t25 15.5t30 8.5t26.5 2.5q10 0 17 -3t12 -7l11 -7q5 -4 14 -6q1 0 10.5 2.5t11.5 4.5l50 -7l45 23l116 -11l75 11q14 0 31.5 -3.5 t32.5 -12t25.5 -22t10.5 -32.5v-12q-11 -6 -24 -14t-27.5 -15t-29.5 -11.5t-28 -4.5v-3q0 -38 16.5 -70t38.5 -62l43 -61q22 -31 33 -65l21 -15q8 -5 9 -11l5 -26l8 -16l11 -21l10 -21l7 -13l11 -21q7 -13 14.5 -25t15.5 -21t15 -9q5 0 17 12q27 28 43 50t29 43l26 45 q13 24 35 56q14 22 37.5 49t46 56t39 60.5t16.5 62.5q0 8 -7.5 14.5t-18 11.5t-21 8t-16.5 3l-31 8l-16 20l-9 11q-3 4 -3 5l-1 2q0 9 5.5 18t13.5 17.5t17 15.5t17 12q14 0 21 -1t14 -3q4 0 9.5 3t9.5 8q14 1 25 2t22 1q13 0 27 -1l26 -2q10 -8 14 -9.5t16 -1.5q2 0 11 5.5 t13 5.5q2 0 10 -1.5t17 -4t18 -4t12 -1.5q4 0 11.5 3t9.5 8q34 0 67 -7t49 -9q13 -7 24.5 -25t11.5 -34q0 -10 -14.5 -19.5t-33 -16.5t-36 -11.5t-23.5 -4.5l-42 11l-52 -37q-30 -24 -50.5 -45.5t-37 -43t-31.5 -45.5l-36 -52q-20 -28 -45 -56l-49 -55q-25 -28 -47 -57 t-36 -61q6 -5 19 -8.5t29 -5.5t34 -3.5t34 -1.5h37q14 0 27 6t30 6q43 0 64.5 -23.5t21.5 -64.5q0 -16 -1 -22.5t-8 -8.5q-27 -5 -42 -10.5t-37 -5.5q-32 0 -62 8t-63 8q-22 0 -42 -8t-41 -8l-46 11l-5 -12l-8 -16q-4 -8 -6.5 -14.5t-3.5 -9.5l4 -111q7 0 11.5 3.5t7.5 8 t6.5 8t8.5 3.5q7 0 18.5 -3.5t23.5 -8.5l24 -10q11 -5 19 -8q14 3 26.5 3.5t23.5 0.5l50 -2h38q18 0 37 -2q6 0 17 -5t22 -11.5t19.5 -12.5t8.5 -7v-59q0 -3 -8 -7t-18 -7l-18 -6q-9 -2 -10 -2h-67l-118 10q-8 0 -14 -3l-14 -5q-7 -3 -17 -5.5t-24 -2.5q-2 0 -12.5 3 t-14.5 3q-5 0 -13 -2t-10 -4l-7 -76q0 -28 3 -46.5t10.5 -32.5t20 -27t32.5 -29l100 -14q10 -2 22 -5.5t22.5 -10t17 -15.5t6.5 -22q0 -16 -8 -29t-22 -13q-20 -11 -39 -13t-37 -2q-47 0 -98 15q-23 -11 -51 -13t-57 -2h-45l-109 7q-13 0 -22 -3.5t-17 -7.5l-16 -6 q-8 -4 -19 -4q-15 0 -29.5 5.5t-26 15t-18.5 23t-7 29.5z" />
<glyph unicode="&#xa6;" horiz-adv-x="564" d="M180 -130q0 20 -8.5 41t-8.5 35q0 23 8.5 44t8.5 45q0 10 -2 18t-5 16q-10 20 -10 43q0 38 10.5 76.5t10.5 79.5v17q18 23 38 36t46 13q25 0 47.5 -8.5t39.5 -24.5t26.5 -37.5t9.5 -47.5q0 -11 -3.5 -24.5t-3.5 -27.5q0 -11 0.5 -23t3.5 -23q3 -29 3 -56v-33 q0 -13 -1 -23t-6 -18q-5 -18 -6 -37t-1 -36q0 -18 1 -34.5t6 -36.5q9 -15 10.5 -23.5t1.5 -24.5q0 -14 -2.5 -33t-10 -36t-20 -29.5t-31.5 -12.5q-30 0 -61 7t-56 22.5t-41 40t-16 60.5v3q0 1 3 7l7 12l6 12q3 6 3 7zM180 981q0 20 -8.5 41.5t-8.5 39.5q0 23 8.5 43.5 t8.5 43.5q0 9 -2 16l-5 18q-5 9 -7.5 20t-2.5 22q0 39 10.5 75.5t10.5 78.5v22q18 21 38 32.5t46 11.5q25 0 47.5 -8t39.5 -22.5t26.5 -35.5t9.5 -47l-7 -54q0 -13 0.5 -24.5t3.5 -26.5q3 -24 3 -54v-33q0 -9 -1 -21t-6 -20q-5 -19 -6 -37.5t-1 -32.5q0 -18 1 -36t6 -36 q9 -14 10.5 -24t1.5 -23q0 -14 -2.5 -33.5t-10 -37.5t-20 -30.5t-31.5 -12.5q-30 0 -61 7t-56 22.5t-41 41t-16 62.5q0 3 3 9l7 13l6 13q3 5 3 7z" />
<glyph unicode="&#xa7;" horiz-adv-x="742" d="M62 -202q0 28 14.5 45t36 26.5t47.5 13t49 3.5q16 0 31 -3l30 -7l30 -7q16 -4 33 -4h19q2 3 6 12l9 17l9 18l6 12v41v18q0 18 -2 41t-9 35q-2 3 -11 11l-18 18l-19 17q-8 8 -9 11q-3 3 -9 11l-12 17q-6 9 -11 17.5t-6 11.5q-1 1 -2.5 5.5t-3 9.5t-3.5 10l-1 4 q-3 2 -10.5 5.5t-8.5 5.5q-17 11 -27.5 24t-17.5 28t-12.5 31t-12.5 33q-1 3 -7 14l-12 23l-11 24.5t-6 14.5q-4 5 -8 16t-4 13q0 4 1 24t1 39q0 20 -2 24q0 2 -2.5 9t-6.5 15l-6 15q-3 7 -4 9v5v4q1 3 2.5 10t3 15t2.5 14.5t1 8.5q13 48 20 93.5t21 90.5q0 2 2 8l6 12 q3 6 6 11t3 7l57 136q29 67 69.5 121t99 88t145.5 34q24 0 48 -6t43 -19.5t30.5 -34t11.5 -48.5q0 -86 -88 -86q-7 1 -12 3t-9.5 3.5t-6.5 3.5q-4 1 -18 6t-31 12l-31 12q-14 6 -17 8h-5q-4 0 -21 -9l-37 -20q-19 -11 -35 -22.5t-18 -15.5t-5 -14.5t-3 -15.5q-3 0 -3.5 -3.5 t-0.5 -4.5q0 -36 17 -67.5t41 -60.5t51 -55t48 -51q87 -105 96 -240v-35v-92l1 -5l4 -12.5t3.5 -12.5t1.5 -8v-13q0 -21 -8.5 -42t-10.5 -42q-1 -1 -2.5 -9t-3 -18t-3 -18.5t-1.5 -11.5q-8 -29 -20 -63t-29 -61q-14 -25 -19 -52.5t-19 -54.5q-26 -44 -52.5 -73.5 t-63.5 -61.5q-21 -19 -42.5 -41t-45.5 -40.5t-51 -31t-60 -12.5q-44 0 -70 28t-40 69v9zM209 626l4 -8l5 -15l6 -15q2 -7 4 -10q0 -3 -1 -20.5t-1 -33.5v-14q0 -7 2 -8q0 -2 5 -7.5t11 -11.5l14 -11l8 -8q19 -24 34 -52l29 -56q15 -28 33.5 -52.5t45.5 -42.5q2 0 3.5 -1 t2.5 -1q25 0 39.5 12t22 30t9.5 39.5t2 41.5q0 25 -7.5 46t-18.5 41l-22 39q-12 20 -19 42q-2 2 -5 10.5t-6 18.5l-5 19q-3 8 -3 9q-2 2 -7 8l-9 12l-9 12q-4 5 -5 6q-1 3 -5.5 11.5l-9.5 18.5l-8 19q-4 8 -4 10q-2 1 -7 8l-11 14l-13 15q-7 8 -11 13q-5 8 -6.5 9.5 t-12.5 1.5q-8 0 -15.5 -6t-14 -14.5t-11.5 -17t-7 -14.5q-2 -5 -6 -16l-8 -26q-5 -14 -8.5 -26.5t-3.5 -18.5z" />
<glyph unicode="&#xa8;" horiz-adv-x="1076" d="M266 1276q0 11 2.5 20.5t4.5 20.5q8 23 19.5 39.5t40.5 16.5q23 0 44 -8t37 -21.5t25.5 -33t9.5 -41.5q0 -14 -3.5 -31t-11 -31.5t-19 -24.5t-27.5 -10q-40 0 -68 15.5t-51 46.5zM627 1271q0 9 3 20l4 19q4 25 18.5 44t43.5 19q24 0 45 -8.5t36.5 -23t25 -34t9.5 -40.5 q0 -15 -4 -32.5t-12 -32t-20 -24.5t-28 -10q-39 0 -67 18.5t-49 44.5z" />
<glyph unicode="&#xa9;" horiz-adv-x="1557" d="M499 1045q17 17 31 35t35 32q22 20 49.5 30.5t50.5 23.5q42 0 80.5 9.5t73.5 9.5q14 0 26 -1.5t26 -3.5q37 -13 67.5 -20t60.5 -10q16 0 20.5 7t12.5 18q26 0 26 -25l5 -45v-57q0 -15 5.5 -35t5.5 -36v-14q0 -7 -2 -13q-3 -11 -7.5 -17.5t-6.5 -8.5t-5 -2q-11 0 -17.5 9 t-8.5 14q0 10 -4.5 13t-4.5 14q-6 21 -17 40t-30 33q-18 13 -33 32t-31 30q-27 17 -52 24t-50 7q-7 1 -25 -4t-37.5 -12t-35 -14t-17.5 -8q-35 -23 -67.5 -53t-57.5 -75q-13 -40 -16 -62.5t-3 -39.5q0 -22 -1.5 -39t-5.5 -35l-3 -37l15 -114q21 -35 36 -56l26 -34 q10 -12 15.5 -20t7.5 -16q25 -14 41 -25l25 -18q10 -7 14 -10.5t5 -3.5l71 -26q24 -1 38 -1.5t22 -1t11.5 -1t5.5 -0.5q4 -2 17.5 2.5t27.5 12t24 16t8 13.5q9 1 20.5 12t22 24.5t19.5 26.5t14 18q3 4 7.5 11t10 14t11 12.5t10.5 5.5q10 0 14.5 -10.5t4.5 -15.5 q-2 -26 -4 -36q-2 -7 -4 -12q-15 -33 -25 -50t-19.5 -29t-22.5 -23t-34 -31q-8 -9 -13.5 -12.5t-22.5 -5.5l-57 -24q-20 -9 -31.5 -13t-17 -5t-11.5 -1q-10 0 -22 1t-30 3q-7 0 -20 1l-26 3q-13 2 -24 3.5t-15 2.5q-14 -5 -33 1.5t-37 16t-31 18.5t-13 11q-38 36 -58 57 t-22 26q-20 40 -37 65t-25 51v3q0 3 -1 14l-3 34q-2 23 -5 63l-8 71q6 48 10 85.5t12 57.5l12 40q14 11 21 31.5t14 36.5zM195 362l-38 68q-18 35 -33 71.5t-24 74.5t-9 76v42q0 49 1.5 98.5t9.5 97.5t24 95t45 91l124 196q33 40 77.5 76.5t92.5 64t96.5 43.5t89.5 16 l68 -12q16 0 25.5 1.5t28.5 10.5h81q34 0 62 -2t54.5 -8.5t52 -20.5t54.5 -38l111 -114l67 -33q33 -22 46 -54.5t20.5 -67t16 -68.5t30.5 -59q21 -23 36 -35t25.5 -23.5t17.5 -27t12 -46.5q2 -21 4 -48.5t3 -56t1.5 -56t0.5 -50.5v-29q-2 -16 -7 -36.5t-12.5 -41.5 t-16.5 -41.5t-19 -36.5q0 -2 -2 -5t-4 -7q-5 -21 -14.5 -55.5t-21.5 -70t-24.5 -64.5t-23.5 -40q-7 -2 -12 -5q-5 -2 -8.5 -4t-4.5 -3q-33 -13 -57.5 -30.5t-45.5 -35.5l-41 -36q-20 -17 -44 -30q-23 -12 -51 -18.5t-56.5 -12t-56.5 -13.5t-52 -23h-97q-81 0 -141.5 11 t-109 31t-89 49.5t-80.5 66.5l-84 82q-43 45 -98 96zM181 787q0 -22 6 -56t16.5 -74t24 -82.5t27.5 -81.5q16 -33 37 -64t43 -57.5t43 -48t38 -34.5l48 -36l54.5 -38t61 -36t68.5 -27q47 -13 93.5 -17.5t91.5 -4.5q34 0 61 0.5t50 0.5q16 0 35 7.5t48 20.5q-2 0 4 3l16 9 l17 9q8 5 10 7q23 12 37 18.5t25 15t22 20.5t28 34q21 28 41.5 48t38 40.5t30.5 45t18 62.5q3 2 6.5 13.5t6.5 25.5q4 16 6 35l14 45q7 20 12 39.5t7.5 40.5t2.5 50q0 33 -2 64t-9.5 58.5t-22.5 50t-42 38.5l-15 19q0 48 -7.5 79t-21 54t-31.5 44t-37 48q-34 41 -62.5 65 t-54.5 38t-51 21l-51 15q-27 8 -58 20t-69 36l-190 21q-1 0 -16.5 -6.5l-37.5 -16.5l-44 -22q-22 -11 -37 -21q-32 -21 -67.5 -57.5t-71 -82t-68 -98t-58.5 -105.5t-43 -103.5t-21 -91.5z" />
<glyph unicode="&#xaa;" horiz-adv-x="780" d="M285 1016q0 -15 10 -22.5t23.5 -11.5t28 -6t24.5 -4q14 0 29 8t21 18q2 4 5.5 10t6.5 12t5.5 10.5t2.5 6.5v89l-5 10h-12q-18 0 -33.5 -9t-30.5 -20q-4 -2 -10 -7l-12 -9l-10 -8q-4 -4 -5 -4q-2 -1 -9 -11.5t-10 -16.5q-2 -1 -3 -4.5t-1 -4.5q-2 -2 -8 -10t-7 -10v-6z M429 915q-12 0 -22 -11t-18 -18q-1 0 -4.5 -1.5t-5.5 -3.5q-24 -10 -47 -23.5t-49 -13.5h-21q-2 1 -7.5 2.5t-7.5 3.5q-2 0 -11.5 1t-11.5 3q-4 1 -11 2.5t-9 1.5q-8 5 -17.5 18t-18 28.5t-14 31t-5.5 26.5q0 16 5.5 31t8.5 29q20 30 39.5 52.5t50.5 40.5q1 2 11 6t12 5 q7 4 15 10l15 11q7 6 14 10.5t12 5.5q1 1 7 1.5t12.5 1.5t12 1.5t7.5 0.5q3 2 6 5q2 2 4 3.5t3 1.5l10 5l18 9l18 8q9 4 11 6q14 9 16.5 27t2.5 32q0 32 -9 58.5t-30 52.5q-2 3 -7.5 8t-6.5 5h-41q-8 -8 -19 -14t-15 -14l-16 -32q-9 -17 -12 -34l-9 -6l-13 -8l-12 -9 q-6 -4 -8 -5q-2 0 -12.5 -0.5t-16.5 -0.5q-2 0 -13.5 0.5t-15.5 0.5q-14 9 -28 22t-14 32q0 20 8 32l21 27q5 8 8.5 13t10.5 10q4 3 7.5 4t7 1.5t8 1t10.5 2.5l11 6l21 11l21 11l12 6q3 2 14.5 3t13.5 1q19 5 36.5 12.5t36.5 7.5h8q29 -5 61 -12.5t57 -26.5q4 -3 15 -13.5 t12 -14.5q2 -2 3.5 -13.5t1.5 -13.5t2 -9l5 -13l5 -14q3 -6 3 -8q0 -20 1 -38q1 -16 1 -32t1 -27v-3v-3l-2 -4q-1 -1 -1 -3v-2q-2 -2 -3.5 -7.5t-1.5 -6.5q-1 -2 -2 -12.5t-1.5 -22.5t-1 -22t-0.5 -13q0 -2 -2.5 -7t-2.5 -7q-2 -12 -3 -21.5t-1.5 -18t-0.5 -17.5v-21v-35 q2 -4 5.5 -12.5t4.5 -11.5q7 -17 26 -21t39.5 -6.5t36 -9t15.5 -27.5q0 -11 -10.5 -26t-25.5 -28.5t-31 -23t-28 -9.5h-12q-2 0 -8 2q-4 1 -7 3q-2 0 -9 0.5t-15 1.5t-15 1.5t-9 1.5q-11 4 -23 15l-24 24q-12 13 -23 22.5t-20 9.5z" />
<glyph unicode="&#xab;" horiz-adv-x="884" d="M264 240h-2q-7 0 -15.5 9t-16.5 20l-16 22q-8 10 -12 13l-26 9q-14 7 -34.5 21t-39.5 31.5t-33 37t-14 36.5q0 19 12.5 37.5t31 34t39.5 27.5t38 19q13 2 25.5 14t24.5 26l21 25q9 11 15 11q3 4 19 19l34 30l33.5 27t19.5 12q1 0 10 -1.5t19.5 -3.5t19.5 -5t11 -7 q0 -7 -6 -25t-7 -29q-7 -25 -19.5 -41t-27 -30.5t-29 -31.5t-25.5 -45q-6 -1 -12.5 -8.5t-12.5 -17.5t-11 -20t-9 -15l10 -13l11 -18q6 -9 12 -15.5t11 -6.5q6 -3 12.5 -11.5t12.5 -17.5l12 -18q5 -9 8 -11l13 -15q11 -11 15.5 -17.5t9.5 -15.5l15 -29q7 -14 11.5 -21 t8 -11.5t6 -8.5t5.5 -11v-30q-15 -13 -22 -16t-17 -3h-51q-6 19 -16.5 30t-23 19.5t-25.5 16.5t-23 22zM601 249h-3q-6 0 -14.5 8.5t-16.5 20.5l-16 22q-8 10 -12 13l-26 12q-14 5 -35 18.5t-40.5 31.5t-33.5 38.5t-14 38.5q0 19 11 35.5t28 30t36.5 25t37.5 19.5 q17 4 31.5 17.5t27.5 28.5l22 25q10 11 17 11q2 3 17 17t33 29l34 28q16 12 20 12q1 0 10 -1t19 -3t19 -5t11 -7q0 -5 -1.5 -12t-3.5 -15t-4 -14.5t-3 -9.5q-9 -27 -21.5 -43.5t-25.5 -30.5l-26 -31q-14 -17 -24 -44q-8 0 -15 -8t-13 -18t-11 -20.5t-9 -14.5q4 -5 9 -14.5 t11 -18.5t12 -15.5t11 -6.5q6 -2 12.5 -10.5t12.5 -19t11.5 -19t8.5 -10.5l19 -20l9.5 -13t5.5 -9t4 -10l16 -21q5 -15 9 -22.5t8 -11.5l7 -9q3 -5 7 -14v-29q-16 -12 -22.5 -14.5t-17.5 -2.5h-50q-6 18 -17 28.5t-24 18.5l-26 17q-13 8 -22 22z" />
<glyph unicode="&#xac;" horiz-adv-x="1254" d="M106 472q0 3 5 8.5t9 7.5q45 34 90 44.5t99 10.5q5 0 18.5 -1t16.5 -1q1 0 7.5 -1t14 -2t13.5 -2t8 -1q3 0 9.5 1t14 2t14 2t8.5 1q6 1 17 3l22 2q11 2 19.5 3t9.5 1h102q1 0 7.5 1t14 1.5t14 1.5t7.5 1q3 0 14 2t16 2q40 0 81.5 -4.5t80.5 -4.5q18 0 31.5 1t24.5 1.5 t20 1.5t19 1q3 1 17.5 4t31 6t31 5t19.5 3h19q18 0 35.5 -3t31 -11t22 -21.5t8.5 -34.5q0 -6 -1 -13.5t-2.5 -15t-5 -13.5t-7.5 -8q0 -6 -0.5 -11.5t-0.5 -12.5q0 -18 1.5 -34t1.5 -32q0 -5 -1 -10t-1 -9q-1 -8 -1 -14v-15v-33v-16q0 -7 -2 -12q-7 -32 -19.5 -46t-22.5 -14 q-17 0 -27 52q-2 6 -2 14v17v17q0 8 -2 19q-2 16 -3.5 32.5t-3.5 36.5l-2 39q-1 20 -3 43q-14 0 -30.5 0.5t-35.5 0.5l-332 -7q-1 2 -9.5 4.5t-12.5 2.5l-1 2h-1q-5 0 -5 -2l-63 -12q-31 -5 -63 -5q-37 0 -69.5 9.5t-67.5 9.5l-4 -2q-8 0 -19 -1t-22 -3l-19 -2q-8 -1 -9 -1 q-2 0 -7 -5l-9 -10l-10 -10q-4 -5 -5 -6q-7 -5 -19 -6t-22 -1q-30 0 -53 7.5t-43 30.5q-4 2 -5.5 7.5t-1.5 6.5z" />
<glyph unicode="&#xad;" horiz-adv-x="951" d="M625 372l-12 2l-79 -14q-23 0 -43.5 7t-43.5 7q-19 0 -35 -6q-19 -8 -41 -8q-39 0 -77 8.5t-77 8.5q-38 21 -53.5 40t-15.5 45q0 25 8 47.5t23 39t36.5 26.5t48.5 10l53 -5h25h13q6 0 14 1q12 2 25.5 3t24.5 1h33q12 0 23 -0.5t22 -4.5q9 -2 18 -3t17 -1h69q9 0 17.5 1 t17.5 3q13 6 21 8t18 2q18 0 39.5 -2.5t40.5 -9.5t32 -19.5t13 -32.5q0 -30 -7 -60.5t-23 -55t-41.5 -40t-61.5 -15.5h-4q-2 0 -7 3l-12 6l-12 6q-5 2 -7 2z" />
<glyph unicode="&#xae;" horiz-adv-x="1557" d="M195 368l-38 68q-18 35 -33 71.5t-24 75t-9 78.5v38q0 49 1.5 99t9.5 98.5t24 95t45 89.5l124 196q33 40 77.5 76.5t92.5 64t96.5 43.5t89.5 16l68 -10q16 0 25.5 2t28.5 8h81q34 0 62 -2t54.5 -8.5t52 -20.5t54.5 -38l111 -112l67 -33q33 -22 46 -54.5t20.5 -67.5 t16 -69.5t30.5 -59.5q21 -23 36 -34.5t25.5 -22t17.5 -26t12 -47.5q2 -22 4 -49.5t3 -56t1.5 -56.5t0.5 -50v-28q-2 -16 -7 -36.5t-12.5 -42t-16.5 -42.5t-19 -37q0 -1 -2 -4t-4 -8q-5 -21 -14.5 -55t-21.5 -69.5t-24.5 -65t-23.5 -40.5l-12 -4q-5 -2 -8.5 -3t-4.5 -1 q-33 -15 -57.5 -33t-45.5 -37l-41 -35q-20 -17 -44 -30q-23 -12 -51 -19l-57 -12q-28 -6 -56 -14t-52 -23h-97q-81 0 -142 10.5t-109.5 31t-89 50t-80.5 67.5l-82 82q-44 45 -99 96zM177 794q0 -23 3 -56.5t10.5 -72.5t20 -81.5t32.5 -83.5q17 -35 39 -66.5t45.5 -58 t46 -47.5t40.5 -34l48 -36q25 -20 54.5 -39t62.5 -35.5t69 -27.5q45 -14 92.5 -18.5t92.5 -4.5q35 0 61.5 1t47.5 1q29 0 55 14t56 33q5 4 11.5 4t10.5 4l38 19q14 7 25 15t21.5 20.5t26.5 35.5q21 28 42.5 48t39.5 40t31 45t18 63q2 2 5.5 14t5.5 26q3 16 5 34l16 47 q7 20 12 39t7.5 40.5t2.5 50.5q0 36 -2 67.5t-9.5 59t-22 50.5t-40.5 41q-12 15 -14 21.5t-2 12.5q0 41 -8.5 69t-23 50.5t-33.5 43.5t-39 48q-33 44 -60 68.5t-52.5 37.5t-50.5 19l-51 13q-27 7 -58 18.5t-70 35.5l-190 19q-1 0 -17 -6l-38 -16q-21 -9 -44 -20t-38 -20 q-32 -21 -68 -58t-71.5 -83t-68.5 -99t-59.5 -106.5t-43.5 -104.5t-20 -94zM985 432q-32 26 -57 59t-43 70q-9 28 -21 39.5t-17 20.5l-10 23l-7 8l-13 11l-13 12q-7 5 -11 7q0 16 -13 31t-31 26.5t-37 18.5t-31 7q-5 0 -13.5 -1.5t-16.5 -4.5t-13.5 -8.5t-5.5 -13.5v-38 q0 -4 1 -11t3 -13l-5 -87v-76q2 -18 19 -21l22 -15q11 -8 30.5 -9.5t38.5 -3.5t33 -7.5t14 -21.5q0 -7 -5.5 -13.5t-14 -11t-18 -7t-17.5 -2.5q-14 0 -27 5l-27 10q-21 4 -40 6t-41 6l-30 -1l-60 -4q-35 1 -54 2t-28 2t-11 2.5t-2 3.5q0 12 12.5 19.5t28.5 12.5t30.5 8.5 t19.5 8.5q3 3 3.5 10t2 14.5t4 12.5t8.5 4q6 16 8 30.5t2 30.5l-3 61l7 91l-7 54q2 15 3.5 24.5t2 14.5t1 8.5t0.5 6.5q0 21 0.5 34.5t1 21t1 11t0.5 5.5v62l-7 90q-23 29 -47 42t-62 22q-5 3 -5 9q0 8 9 13.5t21 8.5t24 4.5t17 1.5l31 -4l29 4l51 -9l102 2l45 3 q23 0 45.5 -3.5t45.5 -8.5q19 -8 35.5 -11.5t39.5 -14.5q21 -13 37.5 -24.5t28 -25.5t18 -32.5t9.5 -45.5l5 -53q0 -12 -4 -14.5t-8 -11.5q-5 -16 -7 -29.5t-7 -24.5l-22 -17q-11 -9 -23 -23q-5 -7 -14 -12l-20 -10q-9 -5 -16.5 -12t-7.5 -18q0 -9 7 -11.5t13 -8.5 q2 -1 6 -7l8 -14l8 -14q4 -6 4 -7l73 -106q11 -14 22.5 -24.5t27.5 -21.5q3 -2 5.5 -8t5.5 -12.5t7 -13t10 -9.5q16 -17 32 -27.5t37 -26.5q8 -5 19 -8.5t21.5 -8.5t18 -13t7.5 -22q0 -12 -10.5 -14.5t-17.5 -2.5h-76q-17 9 -34.5 9.5t-38.5 2.5q-9 2 -26 11.5t-26 15.5z M627 843q0 -28 16.5 -39.5t39.5 -11.5h19q1 9 14 15t30.5 10t34.5 7t26 5q11 4 20 15t18 18l18 34q19 33 19 59l-11 35q2 8 3 14t1 10q0 5 -3 9.5t-9 11.5q-23 45 -63 61t-95 16q-2 0 -9 -1t-14.5 -2.5t-14 -2.5t-7.5 -1q-4 -4 -6.5 -12t-3.5 -13q-3 -18 -5 -33l-4 -30 q-2 -15 -5 -29.5t-7 -30.5q7 -32 7 -47z" />
<glyph unicode="&#xaf;" horiz-adv-x="833" d="M146 1209q0 20 6 27.5t20 16.5t34.5 12t40.5 3t40.5 -1.5t44.5 -1.5h26q6 1 11.5 1.5t12.5 1t18 0.5h28q28 0 45.5 -0.5t31 -1t26 -2t31.5 -2.5q3 0 13 1t12 1q6 0 12 1q5 0 10 0.5t9 0.5q3 0 8 -0.5t10 -0.5q6 -1 13 -1l27 -2q5 -1 9 -1h7q7 0 12.5 0.5t13.5 0.5 q20 0 34.5 -6t20.5 -20q2 0 6.5 -11t4.5 -14q0 -20 -5.5 -32t-14.5 -18.5t-22 -8.5t-28 -2q-10 0 -20.5 0.5t-21.5 0.5h-45q-3 0 -16 2.5t-16 2.5q1 0 3.5 -0.5t-1 -1t-18.5 -1t-49 -0.5l-88 -7h-10h-18l-21 1q-10 1 -14 3q-11 0 -14.5 1.5t-4.5 1.5h-77h-69q-1 0 -8 1 l-15 2q-9 2 -17.5 5t-14.5 8q-10 7 -11.5 18.5t-1.5 21.5z" />
<glyph unicode="&#x2c9;" horiz-adv-x="833" d="M146 1209q0 20 6 27.5t20 16.5t34.5 12t40.5 3t40.5 -1.5t44.5 -1.5h26q6 1 11.5 1.5t12.5 1t18 0.5h28q28 0 45.5 -0.5t31 -1t26 -2t31.5 -2.5q3 0 13 1t12 1q6 0 12 1q5 0 10 0.5t9 0.5q3 0 8 -0.5t10 -0.5q6 -1 13 -1l27 -2q5 -1 9 -1h7q7 0 12.5 0.5t13.5 0.5 q20 0 34.5 -6t20.5 -20q2 0 6.5 -11t4.5 -14q0 -20 -5.5 -32t-14.5 -18.5t-22 -8.5t-28 -2q-10 0 -20.5 0.5t-21.5 0.5h-45q-3 0 -16 2.5t-16 2.5q1 0 3.5 -0.5t-1 -1t-18.5 -1t-49 -0.5l-88 -7h-10h-18l-21 1q-10 1 -14 3q-11 0 -14.5 1.5t-4.5 1.5h-77h-69q-1 0 -8 1 l-15 2q-9 2 -17.5 5t-14.5 8q-10 7 -11.5 18.5t-1.5 21.5z" />
<glyph unicode="&#xb0;" horiz-adv-x="649" d="M105 1078q-20 39 -30.5 64t-10.5 45q0 47 6 87t27 72l46 74q7 9 24.5 22.5t37.5 25.5t40 21t32 9h77q24 0 42.5 -5.5t39.5 -22.5l43 -41l26 -14q12 -9 17 -21t7.5 -24.5t5.5 -25t11 -22.5q7 -10 12 -15l10 -8q5 -4 8.5 -10t6.5 -19v-15q0 -9 0.5 -20.5t0.5 -23.5v-21 q0 -5 -3 -16t-6.5 -22.5l-6.5 -20.5l-4 -8q-3 -8 -9 -21l-13 -27l-14 -25l-11 -17q-16 -7 -25 -15t-15.5 -16t-12.5 -14t-16 -9q-18 -12 -39.5 -15t-42.5 -9h-32q-46 0 -76.5 8.5t-54.5 24.5t-46 38zM119 1233q0 -14 7.5 -38t19.5 -48.5t26 -45.5t28 -30q15 -11 37.5 -20.5 t47 -16t48 -10t40.5 -3.5q8 0 13 6.5t13 8.5q9 4 15.5 6.5t11 4.5t8.5 6.5t10 13.5q6 10 14 16l15 13q8 6 14 14t9 20q0 4 1 14.5t3 10.5q2 9 4 16l5 13q2 6 3.5 12.5t1.5 16.5q0 13 -5 24.5t-11 22t-11 21t-5 22.5q0 19 -9 31t-25 29q-15 22 -27.5 31t-25 13.5t-26 8.5 t-30.5 16h-62q-2 0 -7 -2.5t-12 -5.5t-14 -7l-12 -7q-18 -10 -38 -31t-36.5 -46.5t-27.5 -52t-11 -47.5z" />
<glyph unicode="&#xb1;" horiz-adv-x="1186" d="M144 699q11 11 32.5 16.5t48.5 5.5h19q12 0 23 -5h149q34 0 58 3.5t33 12.5q18 18 18 71l-19 235q0 26 4.5 48t14.5 33q16 14 51 14q24 0 45 -6.5t30 -17.5l28 -61l1 -2q1 -2 2.5 -9t3.5 -21.5t5 -39.5q-9 -3 -16 -11q-7 -11 -11 -21t-4 -24q0 -23 3.5 -50.5t8.5 -47.5 q1 -14 2 -18t1 -8q0 -16 -1.5 -32t-1.5 -27v-2q0 -1 1 -1q7 -7 9 -7q35 0 72.5 8.5t69.5 8.5q14 0 25.5 -3t22.5 -7h154q5 0 13 -3t10 -4q8 -10 8 -30v-76l-17 -19q-33 -33 -90 -33q-45 0 -91 10.5t-84 12.5l-20 -9l-64 -5q-5 -9 -8.5 -26.5t-6.5 -39.5t-4.5 -46.5 t-1.5 -46.5q0 -21 1.5 -38t5.5 -26q16 -17 18.5 -23.5t2.5 -14.5q0 -2 -4 -8l-6 -11q-4 -6 -7.5 -10.5t-3.5 -5.5l3 -48q0 -22 -8 -30q-13 -10 -45 -10q-26 0 -49 6t-29 11q-13 24 -18.5 53t-8.5 60.5t-5.5 64t-9.5 63.5l21 77q0 11 -7 21q-22 19 -45 19q-16 0 -33 -4 t-38 -4q-24 0 -29 1q-6 7 -24 7l-23 -2q-16 -2 -31 -3.5t-29 -1.5q-19 0 -37 1.5t-36 3.5q-14 0 -26 3.5t-21 17.5q-14 22 -14 61q3 31 6 39.5t3 10.5zM127 42v46q0 14 1 27.5t7 25t19 19.5t37 11h65q28 4 57.5 5.5t60.5 1.5h62q10 0 17.5 1t13.5 2.5t12 2.5t14 1 q44 0 87 -11t86 -11l147 17q16 0 28.5 -4.5t23.5 -4.5q14 0 21 3t16 8h1q1 0 2 0.5t4 0.5q1 0 12.5 -1t32.5 -6q35 0 56 -3t37 -22q4 -4 4 -9q0 -7 -2 -12l-4 -12q0 -1 1 -5q0 -3 0.5 -7.5t0.5 -10.5v-22q0 -5 -2 -9l-7 -28q-12 -11 -27 -17.5t-32 -10.5t-34 -5t-33 -1 q-13 0 -27.5 0.5t-43.5 2.5l-37 3q-17 2 -34 2q-95 0 -188 -2t-187 -6q-43 -2 -86 -5.5t-82 -3.5q-14 0 -30 3.5t-31 10.5t-25.5 15.5t-13.5 19.5z" />
<glyph unicode="&#xb2;" horiz-adv-x="571" d="M30 787q1 3 5 12.5t6 15.5q2 3 9 7.5t16 9.5l16 8q7 4 11 7q20 15 43.5 27t43.5 30q19 16 39 39.5t37 50t28 55t11 54.5q0 25 -21.5 46t-50.5 21l-23 -8h-23q-5 0 -11.5 -1t-11.5 -7q-9 -7 -16 -18l-14 -20q-8 -11 -17 -18.5t-22 -7.5q-7 0 -13.5 1t-10.5 6v17 q0 16 2.5 24t7.5 12.5t11 9t14 15.5l8 11q14 18 29.5 34t39.5 23l45 6l30 6q14 0 33.5 -2.5t40 -7.5t38.5 -14.5t29 -22.5q4 -5 7 -11.5t5 -7.5l19 -30v-69q0 -11 -8 -20l-15 -19q-1 -1 -3.5 -9t-13.5 -35q-1 -1 -1 -2q-1 -1 -2 -1q-12 -8 -14.5 -18.5t-12.5 -19.5 q-12 -11 -24.5 -12t-24.5 -8q-1 0 -5 -4l-8 -7l-9 -7l-5 -5q-1 0 -6 -3l-10 -7l-10 -7q-5 -4 -6 -5q-3 -2 -8 -7l-10 -12q-6 -6 -9.5 -12t-3.5 -9t4 -3h19q16 0 29 -1.5t25 -6.5h31q32 0 64 4.5t61 17.5q5 4 6 8t3 8q8 10 20.5 18t25.5 14l9 -30q0 -10 -4.5 -21t-10.5 -22 q-2 -4 -4 -15t-5.5 -22.5t-9.5 -20.5t-16 -9l-10 -1q-23 -3 -45.5 -6.5t-45.5 -3.5q-14 0 -27.5 7.5t-26.5 7.5t-28 -2t-25 -4q-2 0 -7.5 -3t-8.5 -6l-55 15q-7 0 -14 -4t-15 -5q-23 -2 -42 -4t-46 -2q-10 0 -21 3t-11 13v2z" />
<glyph unicode="&#xb3;" horiz-adv-x="467" d="M14 578q0 23 6 29t29 11q6 2 16 6t15 4q9 0 17 -4.5t16.5 -10t17 -10t19.5 -4.5q29 0 53 19t38 44q1 2 2 9t1 11q5 5 12 7t7 12v60q0 4 -2.5 9.5t-6 11t-6.5 9.5t-4 5q-20 26 -43 42l-49 33q-1 2 -7 9.5t-9 7.5q-14 0 -29 -8.5t-27 -8.5q-8 0 -14.5 8.5t-6.5 15.5 q0 12 10 21t23.5 15.5t27.5 10.5t22 7q1 1 8.5 9.5t10.5 9.5q12 11 26 17.5t22 20.5l8 10q16 26 29.5 54t13.5 58q0 3 -12 15t-20 23q-5 9 -16.5 12t-20.5 3q-23 -8 -37.5 -12t-34.5 -4l-28 1q-9 1 -12 10t-3 15q0 14 3 17l15 8q13 7 20.5 16.5t18.5 18.5q21 14 50 21.5 t55 7.5q13 0 22.5 -5t22.5 -11q21 -8 34 -15.5t21.5 -18t13.5 -24.5t10 -34q1 -6 3.5 -12.5t2.5 -12.5q0 -14 -4.5 -30.5t-11.5 -33t-16.5 -32t-18.5 -25.5q-8 -12 -20 -14t-21 -12q-10 -9 -12.5 -18t-9.5 -17q-12 -4 -12 -17v-4q4 -8 15 -18t24 -20l25 -19q12 -9 17 -16 q2 -18 7.5 -29.5t11.5 -22t10.5 -23t4.5 -32.5q0 -6 -1 -18.5t-3.5 -26.5t-5 -26t-5.5 -17l-16 -20q-8 -8 -11.5 -22t-12.5 -22q-16 -17 -43.5 -36.5t-59.5 -36.5t-63.5 -28t-55.5 -11q-10 0 -16.5 8t-14.5 16q-16 10 -25.5 20.5t-9.5 33.5z" />
<glyph unicode="&#xb4;" horiz-adv-x="1076" d="M496 1070q0 43 15 79.5t38 69.5t50 63.5t51 62.5l35 50q16 23 35 40t44.5 27t63.5 10h14l7 -9l9 -14q5 -8 9 -15.5t4 -10.5v-14q0 -14 -1 -22t-7 -21q-7 -12 -14.5 -19l-14.5 -13l-15 -12q-8 -6 -15 -15q-3 -4 -10 -15.5t-9 -13.5q-12 -21 -25 -38t-26 -32l-27 -30 q-14 -15 -28 -33l-6 -10q-5 -7 -9 -15l-9 -16q-4 -7 -5 -8q-4 -5 -14 -16l-23 -24l-23 -23l-16 -15h-7q-11 0 -23 3t-23 9.5t-18 16t-7 23.5z" />
<glyph unicode="&#xb5;" horiz-adv-x="1214" d="M6 -287l92 292l10 9l9 10q1 3 3 13t3.5 22t3 22.5t2.5 13.5q0 6 2.5 18t5.5 24l6 24q2 11 3 15q1 1 4 6l7 12l6 13l4 8l6 12l7 17l5.5 14.5t2.5 7.5q1 3 2.5 16.5t2.5 29t2 28.5t1 16q1 3 4 16l7 29l6 32t4 25q1 1 2.5 6.5t3.5 11.5l3 13q1 6 1 8q8 37 13.5 82t16 89.5 t29 83.5t52.5 66q3 0 8.5 0.5t12 1.5t12 1.5t7.5 0.5q51 0 72 -27.5t21 -74.5q0 -37 -13 -81t-32 -88t-40 -84l-39 -71q0 -4 1 -6.5t1 -7.5q0 -25 -10.5 -50t-10.5 -50q0 -19 4 -39.5t13.5 -38t25 -29t38.5 -11.5q26 0 63 13t74 34t67.5 46t44.5 49q1 1 4 8l7 16l7 19 q3 10 5 16q11 36 25 71.5t25 70.5l31 111l28 110q10 18 23.5 28.5t29 18t33.5 12.5l35 12q1 0 2 1q1 0 1.5 0.5t1.5 0.5t1.5 -0.5t1.5 -0.5q1 -1 2 -1q18 -10 30 -20t19 -22.5t9.5 -27.5t2.5 -35v-30q0 -14 -2 -28.5t-9 -28.5q-3 -7 -11 -24l-18 -36l-18 -36q-9 -17 -13 -23 q2 -2 2 -7q0 -8 -5.5 -17t-12.5 -18l-14 -16q-7 -8 -10 -13q-8 -11 -15.5 -26.5t-14.5 -32.5t-12 -34l-10 -28q-1 -4 -2 -12l-3 -15q-2 -8 -3 -14.5t-1 -8.5q1 -2 3.5 -10.5t6.5 -18.5l6 -19q3 -9 5 -13q2 -5 7 -11l9 -13q4 -6 8 -10t6 -4h100q17 21 43 33t47 26 q13 8 22 24.5t17 34t17.5 32.5t24.5 20q12 4 21 -3t15.5 -18t10 -23.5t3.5 -19.5q0 -35 -16.5 -68.5t-41 -64.5t-52.5 -57l-50 -47q-8 -8 -21.5 -17t-28.5 -17t-29.5 -13t-24.5 -5h-4q-2 0 -3 1q-6 0 -17 1.5t-22 3.5l-19 4q-9 1 -11 2q-32 5 -52.5 22t-33.5 39.5t-21 47.5 l-15 46q-7 20 -15 33.5t-21 13.5l-2 -1l-1 -1q-3 -1 -7 -10t-4 -10l-8 -13l-10 -17l-8 -14q-4 -6 -5 -6q-20 -20 -47 -40t-58 -36t-63.5 -26.5t-61.5 -10.5q-25 0 -52.5 7.5t-47.5 23.5q-10 9 -16.5 19.5t-13.5 20t-16.5 16t-24.5 6.5q-18 0 -26.5 -10t-13 -24.5t-6 -30 t-4.5 -26.5q-1 -2 -4 -7l-6 -12l-7 -13l-4 -8q0 -1 -0.5 -8t-0.5 -16t-0.5 -18t-0.5 -15q0 -21 3.5 -39t8 -35.5t8.5 -36t4 -40.5q0 -38 -5.5 -72.5t-37.5 -62.5q-3 -3 -10 -7l-12 -9l-10 -8q-5 -4 -6 -5q-2 0 -6.5 -1t-9.5 -1q-2 0 -7.5 1t-7.5 1q-8 3 -20 9t-23.5 12.5 t-19.5 11.5t-8 7v90z" />
<glyph unicode="&#x3bc;" horiz-adv-x="1214" d="M6 -287l92 292l10 9l9 10q1 3 3 13t3.5 22t3 22.5t2.5 13.5q0 6 2.5 18t5.5 24l6 24q2 11 3 15q1 1 4 6l7 12l6 13l4 8l6 12l7 17l5.5 14.5t2.5 7.5q1 3 2.5 16.5t2.5 29t2 28.5t1 16q1 3 4 16l7 29l6 32t4 25q1 1 2.5 6.5t3.5 11.5l3 13q1 6 1 8q8 37 13.5 82t16 89.5 t29 83.5t52.5 66q3 0 8.5 0.5t12 1.5t12 1.5t7.5 0.5q51 0 72 -27.5t21 -74.5q0 -37 -13 -81t-32 -88t-40 -84l-39 -71q0 -4 1 -6.5t1 -7.5q0 -25 -10.5 -50t-10.5 -50q0 -19 4 -39.5t13.5 -38t25 -29t38.5 -11.5q26 0 63 13t74 34t67.5 46t44.5 49q1 1 4 8l7 16l7 19 q3 10 5 16q11 36 25 71.5t25 70.5l31 111l28 110q10 18 23.5 28.5t29 18t33.5 12.5l35 12q1 0 2 1q1 0 1.5 0.5t1.5 0.5t1.5 -0.5t1.5 -0.5q1 -1 2 -1q18 -10 30 -20t19 -22.5t9.5 -27.5t2.5 -35v-30q0 -14 -2 -28.5t-9 -28.5q-3 -7 -11 -24l-18 -36l-18 -36q-9 -17 -13 -23 q2 -2 2 -7q0 -8 -5.5 -17t-12.5 -18l-14 -16q-7 -8 -10 -13q-8 -11 -15.5 -26.5t-14.5 -32.5t-12 -34l-10 -28q-1 -4 -2 -12l-3 -15q-2 -8 -3 -14.5t-1 -8.5q1 -2 3.5 -10.5t6.5 -18.5l6 -19q3 -9 5 -13q2 -5 7 -11l9 -13q4 -6 8 -10t6 -4h100q17 21 43 33t47 26 q13 8 22 24.5t17 34t17.5 32.5t24.5 20q12 4 21 -3t15.5 -18t10 -23.5t3.5 -19.5q0 -35 -16.5 -68.5t-41 -64.5t-52.5 -57l-50 -47q-8 -8 -21.5 -17t-28.5 -17t-29.5 -13t-24.5 -5h-4q-2 0 -3 1q-6 0 -17 1.5t-22 3.5l-19 4q-9 1 -11 2q-32 5 -52.5 22t-33.5 39.5t-21 47.5 l-15 46q-7 20 -15 33.5t-21 13.5l-2 -1l-1 -1q-3 -1 -7 -10t-4 -10l-8 -13l-10 -17l-8 -14q-4 -6 -5 -6q-20 -20 -47 -40t-58 -36t-63.5 -26.5t-61.5 -10.5q-25 0 -52.5 7.5t-47.5 23.5q-10 9 -16.5 19.5t-13.5 20t-16.5 16t-24.5 6.5q-18 0 -26.5 -10t-13 -24.5t-6 -30 t-4.5 -26.5q-1 -2 -4 -7l-6 -12l-7 -13l-4 -8q0 -1 -0.5 -8t-0.5 -16t-0.5 -18t-0.5 -15q0 -21 3.5 -39t8 -35.5t8.5 -36t4 -40.5q0 -38 -5.5 -72.5t-37.5 -62.5q-3 -3 -10 -7l-12 -9l-10 -8q-5 -4 -6 -5q-2 0 -6.5 -1t-9.5 -1q-2 0 -7.5 1t-7.5 1q-8 3 -20 9t-23.5 12.5 t-19.5 11.5t-8 7v90z" />
<glyph unicode="&#xb6;" horiz-adv-x="1197" d="M227 -413q0 28 13.5 51.5t35.5 40t49 25.5t53 9q25 0 41.5 -11.5t29 -29t24.5 -37.5t29 -37.5t42 -29t64 -11.5h26q2 1 10 6l16 11l19 12l14 11q32 27 44.5 54t12.5 70v11q0 2 -5.5 14t-5.5 14q0 14 4 26l7 25l7 24q3 12 3 25v8q0 6 -2 7q0 4 -1 18l-3 31q-2 16 -3 30 t-1 18q0 2 1 9.5t2 16.5t2.5 17.5t2.5 13.5q1 1 3 5l3 9q2 5 3.5 9.5t1.5 6.5v76q0 2 1.5 9t3 15.5t3 15.5t2.5 8v16q0 17 -5 30.5t-5 31.5v28q0 2 9.5 9.5t9.5 9.5q1 4 -3 10.5t-6 8.5h-5h-16q-2 1 -7 5l-12 10l-12 9q-6 5 -7 5h-19q-41 8 -81 14t-79.5 13.5t-78.5 17 t-77 23.5q-21 6 -43.5 20t-36.5 28q-8 7 -27 26l-40 40l-40 41q-19 20 -28 28q-20 21 -32.5 43.5t-21.5 46.5t-16 49l-16 53q0 3 -4.5 15t-4.5 15v22v54q-1 2 -2 6l-3 9l-3.5 9t-1.5 5v26v24q0 1 3 6l7 12q3 7 6 12t3 7q1 1 1 14q0 10 -0.5 21t-0.5 15q3 22 14 44t25.5 42.5 t29.5 39.5l27 35q0 3 4 11q2 4 5 8t15 17l25 28l25 26l15 15q0 3 3.5 11.5t3.5 11.5q10 11 20.5 11t27.5 8q3 1 11.5 4.5l18.5 7.5l18 9q9 4 13 6q0 1 6 5l12 9l12 10q6 4 8 6q7 4 19 6.5t24.5 4.5t24.5 3.5t18 4.5q1 1 5 4l9 7q4 3 9 5.5t7 2.5q25 12 51 17t52.5 6.5 t53.5 2t54 3.5q1 0 8.5 4.5t10.5 6.5h3h7q2 -2 12.5 -5.5t15.5 -5.5h289q13 7 22 9t21 2q14 0 29 -6t27 -16.5t19.5 -24t7.5 -28.5q0 -13 -11 -24t-19 -17q-6 -2 -19.5 -3.5t-29 -3t-29 -2.5t-18.5 -2q-1 0 -5 -1.5t-9 -3t-10 -2.5t-6 -1q-18 -3 -40 -5t-42.5 -8t-37 -18.5 t-23.5 -36.5v-67q0 -8 -1 -19t-1 -23q0 -15 2 -30.5t10 -26.5q1 -9 2.5 -33.5t3 -52.5t2.5 -52.5t1 -34.5q2 -133 3.5 -264t6.5 -265q0 -9 1 -29.5t2 -43.5t2.5 -43t3.5 -28q0 -1 1.5 -7t3.5 -12.5t3.5 -13t1.5 -7.5v-86q0 -1 1.5 -8t3 -15t3 -15t1.5 -9q0 -17 -3 -30.5 t-6.5 -25.5t-6.5 -24t-3 -27q0 -10 3 -15.5t7 -10t7 -9t3 -12.5q0 -1 -0.5 -2t-0.5 -3v-5q0 -3 -3 -13l-6 -21l-7 -21q-3 -10 -3 -13q0 -2 -1 -13.5t-2.5 -24.5t-3 -24t-2.5 -14q-1 -1 -4 -7l-6 -12q-4 -7 -6.5 -13t-2.5 -7q-1 -3 -2.5 -12.5t-3 -21t-3 -21.5t-1.5 -13 q-3 -12 -18 -36t-33.5 -50t-36.5 -48t-28 -29q-2 0 -7.5 -3t-12 -6t-12 -6t-6.5 -4q-3 -2 -8 -6l-12 -9l-11 -9q-5 -4 -7 -5l-28 -23q-12 -10 -22.5 -17.5t-23.5 -13.5t-32 -13q-10 -3 -17.5 -5t-14 -3.5t-13 -3.5t-14.5 -7q-5 0 -15 -0.5t-21.5 -0.5t-21.5 -0.5t-14 -0.5 q-7 0 -19 0.5t-23.5 0.5t-20.5 1h-8q-2 0 -9.5 2t-17 5t-19 6.5t-15.5 5.5q-27 12 -47 25t-35 30.5t-26.5 39t-22.5 50.5q-3 0 -3.5 3.5t-0.5 5.5z" />
<glyph unicode="&#xb7;" horiz-adv-x="452" d="M101 713q0 60 27 90.5t90 30.5q19 0 34.5 -5.5t33.5 -13.5q22 -11 34 -20.5t17.5 -21t6.5 -27.5t1 -38v-59q-2 -11 -11.5 -24.5t-23 -25.5t-29 -20t-28.5 -8q-30 7 -57.5 16t-48.5 24t-33.5 39.5t-12.5 62.5z" />
<glyph unicode="&#x2219;" horiz-adv-x="452" d="M101 713q0 60 27 90.5t90 30.5q19 0 34.5 -5.5t33.5 -13.5q22 -11 34 -20.5t17.5 -21t6.5 -27.5t1 -38v-59q-2 -11 -11.5 -24.5t-23 -25.5t-29 -20t-28.5 -8q-30 7 -57.5 16t-48.5 24t-33.5 39.5t-12.5 62.5z" />
<glyph unicode="&#xb8;" horiz-adv-x="898" d="M534 10v-10q4 -8 21 -15.5t24 -15.5q13 -16 28 -31.5t28.5 -31.5t22.5 -31t9 -29q7 -34 7 -71q0 -36 -7 -74q-2 -3 -4 -7q-3 -6 -5 -12q-10 -18 -22 -37.5t-25.5 -38.5t-28 -37t-29.5 -31q-2 -2 -15 -5.5t-15 -4.5q-2 0 -10 -9t-9 -10q-15 -11 -33 -18t-37.5 -12.5 t-38.5 -9.5t-36 -9l-9 -8q-26 -19 -53.5 -24.5t-56.5 -5.5h-30q-15 0 -31 3t-24 16q-2 4 -6 13l-8 18l-7 17q-4 8 -5 11q0 -3 1 -5l2 -4q0 8 6 12.5t14.5 7.5t17 5t14.5 5q1 1 6 3l12 4q6 3 12 5t8 2q1 0 9.5 1t18 1.5t18.5 1.5t11 1q15 1 32.5 8t34.5 16.5t32 20t26 19.5 q8 7 20.5 16t25 19t22.5 21t13 22q8 27 19 53t11 50q0 20 -9 31.5t-21 24.5q-20 17 -46.5 22.5t-60.5 5.5q-10 0 -18.5 -6.5t-17 -14.5t-18 -14.5t-19.5 -6.5q-20 0 -32.5 15.5t-12.5 32.5q0 1 2 5l2 4q6 10 16 21t22.5 21t25 19t22.5 17q5 4 19.5 6.5t29.5 5.5t26.5 8.5 t11.5 14.5l7 3q0 2 2 6q1 2 3 4h85z" />
<glyph unicode="&#xb9;" horiz-adv-x="471" d="M69 802q0 18 14 25t33 10l36 6q18 3 25 13q2 4 5 11l4 15q3 7 5 14.5t2 11.5l-16 78q0 4 2 13t5 19l4 17q2 8 2 10l-13 110q0 6 2 11l5 12q-24 25 -54 38q-9 3 -20.5 5t-22.5 6t-18.5 10.5t-7.5 18.5q0 7 4.5 11.5t10.5 6.5t12.5 2.5t11.5 0.5l64 -4q8 0 12 0.5t14 3.5 q13 -2 25 -3t24 -1q11 0 22 1t23 3q4 4 14.5 7.5t22 5t23 2.5t19.5 1q5 0 12.5 -0.5t14 -2.5t11.5 -6.5t5 -11.5q0 -15 -10 -24t-24 -14t-29 -8.5t-24 -6.5q-8 -3 -15 -17l-12 -24l-8 -112l11 -86l-11 -15q0 -1 2 -7t3 -7v-1q0 -7 -2.5 -14t-2.5 -16q0 -14 6 -24.5t8 -24.5 q3 0 18 -3l20 -3l16 -8q11 -6 23 -14t21.5 -16.5t9.5 -15.5v-1q-3 -11 -17 -25l-85 -3q-1 0 -5 2q-2 1 -4 1q-5 1 -17 1h-27q-29 0 -59.5 -1t-57.5 -5l-11 -6q-19 0 -32.5 8.5t-21.5 19.5z" />
<glyph unicode="&#xba;" horiz-adv-x="877" d="M136 1197l7 52q15 58 48 116l35 45l34 24q10 7 16 7q7 0 12 5l62 28q5 2 16 4.5t15 2.5q28 2 43 2.5t20 0.5q29 0 47.5 -5.5t35.5 -9.5q4 0 6 0.5t6 0.5q8 0 14 -3l6 -6l6 -6l59 -35q13 -9 19 -19.5t15 -21.5q5 -4 12 -16t11 -17l27 -83q5 -5 6 -15t1 -15l-3 -74l-31 -88 q-11 -17 -23 -33l-27 -31l-9 -11q-5 -5 -13.5 -10.5t-21.5 -12t-34 -15.5q-2 0 -12 -2.5t-14 -2.5q-12 -2 -19.5 -5t-18.5 -3l-61 -4q-3 0 -10.5 0.5t-16.5 1.5t-17.5 1.5t-12.5 0.5l-55 5l-80 50q-11 5 -17.5 17t-13.5 21q-8 11 -15.5 20t-12.5 18l-23 36q-11 18 -11 40z M265 1166q9 -11 9 -16q0 -4 1 -8t3 -9q4 -21 15 -40.5t23 -33.5l22 -23q6 -8 12 -15t14 -13.5t19 -12t28 -9.5q16 0 30.5 2.5t28.5 7.5q10 0 17 1.5t22 12.5q14 9 27 18.5t22 18.5l43 64q3 10 4 18t1 16q0 14 -1.5 25t-3.5 22q-2 9 -6 18t-4 20l5 23q-4 15 -6 35.5t-11 29.5 l-32 35q-4 4 -12 16.5t-22 28.5q-11 11 -21 19t-26 12l-31 2q-16 4 -27 6t-27 2l-39 -22l-59 -64q-1 -3 -2 -6.5t-3 -11.5t-5 -22l-8 -38l6 -31v-6q0 -3 -0.5 -10.5t-2 -22t-3.5 -39.5z" />
<glyph unicode="&#xbb;" horiz-adv-x="884" d="M620 240q-10 -14 -23 -23l-25 -17q-13 -8 -23.5 -18.5t-16.5 -29.5h-50q-11 0 -17 3t-21 16v30q3 7 5.5 11t6.5 8l8 12q5 7 13 21l12 29l3 9q2 4 6 9l10 12q6 7 17 18q4 2 10 10l12 18q6 10 12.5 18.5t12.5 11.5q5 0 11 6.5t12 15.5t11 17.5t9 13.5q-4 5 -9 15t-11 20 t-12.5 17.5t-12.5 8.5q-11 28 -25.5 45t-28.5 31.5t-26.5 30.5t-19.5 41q-2 11 -8 29t-6 25q2 4 11 7t19 5t19 3.5t11 1.5q4 0 19.5 -12t33.5 -27.5t33 -30t18 -18.5q7 0 17 -11t21.5 -25t24 -26t25.5 -14q17 -7 38 -19t40 -27.5t31.5 -34t12.5 -37.5q0 -17 -14 -36.5 t-33.5 -37t-40 -31.5t-34.5 -21l-26 -9q-5 -3 -12 -13.5t-15.5 -21.5t-17 -20t-15.5 -9h-2zM283 249q-9 -14 -22 -23l-25 -16q-13 -8 -24 -18.5t-17 -28.5h-51q-10 0 -17 2.5t-22 14.5v29q3 9 6 14t6.5 9.5t8.5 12t12 21.5l24 37q4 5 9 12.5t18 23.5q2 2 7.5 11t12.5 19 l13 18q7 9 12 11q5 0 11 6.5t12 15.5t11.5 18.5t9.5 14.5q-5 4 -10 14.5t-10.5 20.5t-12 18t-12.5 8q-11 27 -25 43l-29 31q-14 15 -26.5 31.5t-20.5 43.5q0 3 -2 9l-4 15q-3 8 -4.5 15t-1.5 12q2 4 11 7t19.5 5t19 3t9.5 1q4 0 20 -13l33 -27l34 -29q16 -14 19 -17 q6 0 16 -11l22 -26q13 -14 28.5 -27.5t33.5 -18.5l35 -20q19 -11 35 -24.5t26.5 -29.5t10.5 -35q0 -18 -14 -38t-33 -38t-40 -32t-34 -19l-26 -12q-5 -3 -12 -13.5t-15.5 -22t-17 -20t-15.5 -8.5h-2z" />
</font>
</defs>
</svg>
