<?xml version="1.0" standalone="no"?>
<!DOCTYPE svg PUBLIC "-//W3C//DTD SVG 1.1//EN" "http://www.w3.org/Graphics/SVG/1.1/DTD/svg11.dtd" >
<svg xmlns="http://www.w3.org/2000/svg">
<metadata>
This is a custom SVG webfont generated by Font Squirrel.
Copyright   :  2007 Igino Marini wwwiginomarinicom With Reserved Font Name IM FELL English Italic
Designer    : Igino Marini
Foundry     : Igino Marini
Foundry URL : wwwiginomarinicom
</metadata>
<defs>
<font id="IMFELLEnglishItalic" horiz-adv-x="910" >
<font-face units-per-em="2048" ascent="1638" descent="-410" />
<missing-glyph horiz-adv-x="431" />
<glyph unicode=" "  horiz-adv-x="431" />
<glyph unicode="&#x09;" horiz-adv-x="431" />
<glyph unicode="&#xa0;" horiz-adv-x="431" />
<glyph unicode="!" horiz-adv-x="579" d="M109 107v35q0 1 2 6l4 12l6 12.5t5 9.5q1 2 5 8l9 12l9 12q4 5 5 7q0 1 1.5 6t4.5 11t7.5 11t9.5 5q70 0 117.5 -28.5t72.5 -100.5v-7q0 -23 -4.5 -38t-13.5 -27.5t-23 -24.5l-32 -26q-3 -1 -11 -2.5t-17 -3.5l-18 -4q-8 -2 -11 -2h-7q-12 0 -28.5 4.5t-33.5 12.5 t-31.5 18t-22.5 22q-4 6 -5.5 14.5t-1.5 16.5t1 15.5t1 13.5zM204 429q0 25 13 48t20 49q5 17 7.5 31t2.5 28l1 29q1 15 3 33q1 13 5 26.5t8.5 27t8.5 27.5t4 28q0 13 -3.5 25t-3.5 25q0 37 8.5 71t12.5 69v49q0 25 1.5 49t8.5 49l4 8l6 12q4 7 7.5 12.5t5.5 7.5v40 q0 4 5.5 18.5t12.5 30.5t14.5 29.5t10.5 16.5q2 3 12.5 8t13.5 8l5 5q4 1 15.5 1.5t24 1.5t23.5 1.5t15 0.5h12q14 0 29 -12t25 -21q23 -20 27 -41.5t4 -53.5q0 -11 -2 -40t-7 -61t-13 -59t-20 -34v-98q-3 -2 -6 -5q-5 -5 -9 -7q-23 -18 -35.5 -47.5t-18.5 -63.5t-7.5 -68 t-2.5 -60q-21 -20 -27.5 -51.5t-11.5 -67.5t-14.5 -73t-36.5 -68q-8 -8 -15 -17.5t-15 -17t-17.5 -12.5t-22.5 -5h-8q-38 21 -59 47t-21 71z" />
<glyph unicode="&#x22;" horiz-adv-x="1009" d="M238 1021q2 2 6.5 7t5.5 7q48 16 92.5 26.5t79 27.5t55.5 48t21 88q0 25 -16.5 41t-36.5 31t-36.5 31.5t-16.5 41.5q0 28 9.5 42.5t24.5 22.5t34 12.5t38 12.5h57q92 0 130.5 -43t38.5 -139q0 -42 -4 -82t-25 -77q-14 -24 -40 -53.5t-57.5 -55t-64.5 -43t-59 -17.5h-123 q-11 4 -16 4.5t-15 0.5l-37 -5q-7 0 -14.5 7t-13.5 17.5t-10.5 22.5t-6.5 22v2zM693 1024q2 4 6.5 10t5.5 7q48 15 92.5 25t79 27.5t55.5 49t21 89.5q0 24 -16.5 40.5t-36.5 31.5t-36.5 32t-16.5 43q0 28 9.5 41.5t24.5 20.5t34 11t38 13h57q92 0 131.5 -42t39.5 -139 q0 -41 -5 -81.5t-26 -79.5q-12 -24 -38.5 -53t-58 -54.5t-65 -43t-59.5 -17.5h-123q-11 5 -16.5 6t-14.5 1l-37 -7q-6 0 -13 6.5t-13 16t-11 21.5t-8 23v2z" />
<glyph unicode="#" horiz-adv-x="1636" d="M796 163q0 16 6 29.5t13.5 26t14 26t8.5 28.5q1 16 2.5 25t3.5 15t4.5 10.5t4.5 10.5q3 4 6.5 10.5t6.5 17.5q2 9 3 14.5t3 10.5t6.5 11.5t14.5 18.5q-1 7 -1 12v10v14q0 7 1 18q0 4 3.5 9t3.5 10h-2q-1 0 -2.5 0.5t-3.5 0.5q-15 0 -48 -3.5t-82 -10.5l-95 13 q-25 0 -25 -9h-64q0 -18 -13 -26q-5 -2 -9.5 -8t-9.5 -6q0 -8 0.5 -13.5t0.5 -10.5q0 -21 -3.5 -30t-10.5 -13q0 -32 -1 -54.5t-6 -34.5q-1 -4 -12 -12t-15 -10q-8 -13 -9.5 -22.5t-1.5 -22.5q0 -14 -1 -17q-3 -14 -7.5 -19.5t-8.5 -9.5t-7.5 -9t-6.5 -18l-53 -20 q-6 0 -15 10t-18 22t-15 22.5t-6 12.5q0 16 4 28.5t9 24.5l11 24q6 12 9 27q2 4 3 15t6 16q1 14 8.5 26.5t11.5 30.5q0 2 0.5 8.5t1.5 14t2 14t1 8.5q2 4 14 15t14 18q0 4 -0.5 10.5t-4.5 6.5q-17 -9 -32 -13t-16 -4q-5 2 -9 2h-7q-11 0 -19.5 -2.5t-16.5 -5.5t-16.5 -5.5 t-18.5 -2.5l-66 9q-20 -4 -26.5 -5.5t-11.5 -1.5q-13 0 -29.5 2t-31.5 7.5t-25.5 15.5t-10.5 27q0 8 5 20t12.5 23.5t16 21t15.5 13.5q49 7 81.5 9.5t61.5 2.5h44q22 0 45 -2q24 -7 32.5 -8.5t10.5 -1.5q45 13 64 35t26.5 50.5t12 61.5t21.5 69q3 8 8.5 11.5t10 7t8 8 t3.5 14.5q-1 1 -1 3q-1 2 -1 4q-7 0 -10.5 0.5t-7 2t-8.5 3t-14 3.5q-6 -2 -11 -3t-13 -1l-38 7q-9 0 -18 -4t-18 -9.5t-18.5 -9.5t-19.5 -4l-63 15q-20 -5 -26.5 -7.5t-11.5 -2.5q-13 0 -29.5 2.5t-31 8.5t-24.5 16.5t-10 27.5q0 8 4.5 19.5t11 23.5t15 21.5t16.5 13.5h28 l204 10l39 -12q15 0 30 7.5t33 11.5q5 0 15 -3.5t12 -3.5q1 1 3 2q3 3 3 5q23 38 40.5 86t26.5 93v26q0 4 5 10.5t7 11.5q9 8 12.5 15t3.5 18q0 22 8 41.5t21 36.5t30 31.5t36 25.5q14 0 23.5 -9t15 -21.5t7.5 -24.5t2 -18q0 -13 -8.5 -18.5t-8.5 -12.5q4 -8 6.5 -21.5 t3.5 -18.5q0 -10 -3 -16t-7.5 -11t-9.5 -9t-9 -10q-1 -3 -4 -13l-6 -22q-4 -13 -6.5 -25t-2.5 -17q0 -25 -5.5 -41.5t-13.5 -29.5l-16 -26q-8 -13 -12 -31l135 -7h75q17 0 35.5 0.5t36 3t32.5 7t25 12.5q0 1 7 19l14 39l14 42q6 19 5 23v31q2 6 7 11l12 10q6 5 11 11t5 13 q0 24 5.5 44.5t14 38.5t18 34.5t17.5 32.5q7 2 13 3t11 1q14 0 23.5 -3t9.5 -6q8 -17 17 -27.5t14 -15.5q0 -5 -3 -14t-7 -18t-7 -16.5t-3 -8.5q1 -12 1 -20v-13q0 -11 -1.5 -16t-4 -9t-6.5 -8t-10 -12q-5 -6 -6.5 -12t-3 -13.5t-4 -17t-9.5 -23.5l7 -33q0 -8 -1.5 -18 t-4.5 -20t-8 -18t-12 -11l68 5q11 0 19 -7.5t22 -7.5q11 0 23.5 7.5t28.5 7.5l102 -5l76 5q19 0 27.5 -16.5t12.5 -31.5q-26 -32 -58.5 -50t-72.5 -18h-15q-3 0 -3 2q-20 -3 -38 -7.5t-22 -6.5l-12 -5q-7 -4 -18 -4t-20 9q-16 -2 -22 -2h-9h-36q-9 0 -11 2q-21 -11 -33 -16 t-28 -5q-18 5 -26 5.5t-12 0.5q-17 -16 -25.5 -32t-13 -33t-6 -35t-5.5 -39q-4 -10 -14 -24l-19 -28l-17 -25q-7 -12 -7 -16q2 -7 4.5 -14t4.5 -9q10 3 26 5.5t33.5 4t34 2t28.5 0.5l39 -12q11 0 24 6t29 6l102 -7l76 7q19 0 28.5 -16t13.5 -30q-50 -71 -133 -71 q-5 0 -11.5 2.5t-7.5 2.5q-2 0 -13 -5t-15 -5q-8 0 -16.5 -2.5t-16.5 -4.5q-14 -6 -24 -6q-9 1 -16 3l-12 2q-6 1 -8 1q-5 -2 -10 -2h-10h-38q-7 0 -8 2q-18 -16 -31.5 -18.5t-27.5 -2.5l-78 15q-7 -5 -8 -15t-1 -19l-32 -76q-2 -4 -4 -12t-3 -16t-1.5 -15.5t-0.5 -10.5 q0 -20 -3 -32t-9 -22t-14.5 -20.5t-20.5 -27.5q-5 -12 -5 -16q0 -11 1 -16t1 -10q0 -4 -1 -7t-1 -5q-2 -4 -9.5 -13t-11.5 -11q-1 -5 -4 -14t-3 -14q-13 -8 -25.5 -11.5t-27.5 -3.5q-6 0 -15.5 8.5t-18.5 19.5t-15.5 22t-6.5 16zM770 877q-28 0 -44 -4.5t-25 -15t-12 -27 t-5 -41.5q-2 -26 -12.5 -40t-10.5 -15t-1 -6t-2 -11t-2 -11v-5q-8 -13 -15 -19t-12.5 -9.5t-9 -8.5t-3.5 -17q-3 -3 -3 -28v-29l170 10q6 0 25 -1.5t66 -8.5q23 0 44.5 1t37.5 9q2 0 8 21l13 48l15 53q7 25 10 34q3 6 5 7.5t4.5 2t5.5 1.5t6 6q17 35 17 87 q-15 17 -26.5 21.5t-25.5 4.5l-124 -24z" />
<glyph unicode="$" horiz-adv-x="1143" d="M304 -69q-1 19 2 33t7.5 26t10.5 24t11 28l1 3q-26 11 -53 20t-53 20q-2 4 -5.5 6t-4.5 2q-8 4 -26 15l-37 24l-36 24q-16 11 -21 15q-9 7 -14 20.5t-5 26.5q0 10 3.5 22.5t7.5 25.5l9 27q5 13 6 25q0 10 2 31t5 46.5t7.5 52t11 48t15.5 35.5t20 14q15 0 26.5 -12 t19.5 -28.5t12 -34t4 -27.5q0 -20 -2.5 -40t-2.5 -54q4 -26 15 -58.5t28 -65t38.5 -61.5t47.5 -48l3 9l13 53q-2 2 1 5t8 7t10 7t7 5l-4 49q1 13 6.5 23t12.5 19l13 18q7 9 9 19q3 5 8 16t9 23t7 22.5t3 15.5q1 3 6 26.5t13 50t18 48.5t21 22q11 19 18.5 41t13 45.5t10 47.5 t9.5 45l9 21q-26 37 -55.5 72.5t-53.5 74.5q-9 18 -18 45t-15.5 56t-11 56.5t-4.5 46.5q0 22 2 37.5t6.5 28.5t11.5 26t18 30q10 16 15.5 31t9.5 30l9 30q5 16 13 33q7 13 26.5 28.5t42 29.5t42 24t26.5 13q2 2 8.5 6t15 8t16 8t10.5 6q16 2 31 2.5t31 0.5q33 0 69 -6l4 21 q2 11 3 19q2 13 4.5 25t8 21t15.5 14.5t27 5.5q12 1 30 -2q15 -1 35.5 -10t34.5 -24l4 -58q-1 -2 -7.5 -12t-8.5 -12q-2 -7 -2 -14v-13l44 -16q23 -8 49 -8l74 21q14 0 25.5 -13.5t11.5 -24.5q-16 -32 -31 -74t-20 -77q-6 -19 -9.5 -37.5t-6.5 -41t-6 -50t-9 -64.5 q-7 1 -12 1.5t-10 1.5t-11.5 3.5t-16.5 8.5q-8 22 -14 51l-11 58q-5 28 -11.5 50.5t-16.5 31.5q-3 0 -6.5 4t-7 9t-7 9t-4.5 5q0 2 -4 8l-7 14q-4 8 -8.5 14t-6.5 7l-8 8q-2 -7 -2 -14.5t2 -24.5q-3 -14 -11 -27.5t-17.5 -27t-20 -26t-17.5 -22.5q-18 -27 -12 -35v-2l-3 -33 q-4 -29 -16 -54t-23 -39q-2 -11 0.5 -19t1.5 -13q0 -18 -1.5 -28.5t-4.5 -17t-7 -10.5t-8 -9q-5 -8 -11 -26.5t-8 -35.5l15 -15l15 -15l12 -13q5 -6 7 -9q8 -7 20 -16.5t23 -21t18.5 -25t7.5 -27.5q21 -19 33 -36t20 -35t14 -37.5t14 -42.5l23 -39q0 -42 -2.5 -86t-10 -86.5 t-22 -82.5t-38.5 -76l-24 -36q-13 -21 -28.5 -41t-32.5 -37t-33 -24l-46 -5q-2 -1 -8 -6l-12 -13l-13 -13q-5 -6 -5 -8q-7 -7 -21 -14t-30 -13t-31.5 -9.5t-25.5 -3.5q-32 0 -61 5.5t-60 10.5q-6 -7 -23 -19q-7 -6 -8.5 -13t-1.5 -15.5t1.5 -18t0.5 -18.5q-6 -12 -11.5 -16 t-9 -7t-6 -9t-3.5 -22l-67 -8q-7 2 -17.5 14t-20 26t-16 26t-5.5 14zM773 367q0 44 -9 74t-24.5 55t-35.5 49t-41 55q-9 -11 -11 -23t-5 -22q7 -37 7 -50t-3 -22q-9 -8 -13.5 -17t-7 -17.5t-3.5 -14t-2 -6.5q0 -3 -5.5 -7.5t-12.5 -9t-13.5 -7.5t-8.5 -3q-5 -8 -6 -28 l-2 -40q-1 -21 -3 -40.5t-8 -27.5q-2 -3 -7 -7l-9 -8q-4 -4 -6 -7.5t0 -5.5q1 -8 2 -12t2 -9q3 -5 2 -10q1 -13 -2.5 -22.5t-9 -16.5t-11.5 -11t-10 -6q-2 -23 -2.5 -35.5t-14.5 -16.5q0 -3 1.5 -9t2.5 -14q72 7 128 41t107 88q13 13 20 31.5t10 40t3.5 44.5t0.5 47z M588 1133q23 -23 41 -50.5t35 -56.5q2 13 6 22.5t9.5 17.5t11 17t11.5 23q23 48 35.5 101t27.5 103q5 20 13 37l20 40q0 1 1 2h-2q-2 0 -9 -2l-16 -3q-9 -2 -17 -4t-11 -3l-90 -7q-21 -6 -34 -30.5t-20.5 -53.5t-10.5 -57.5t-3 -43.5v-9v-15q0 -8 0.5 -16t1.5 -12z" />
<glyph unicode="%" horiz-adv-x="1681" d="M304 -183q3 17 9 29t13 22l16 22q8 10 16 24l15 27q4 16 11 25t13 22l21 47q0 2 4.5 5t9.5 6l11 6q5 2 6 4l9 43q3 12 10 20.5t15 16.5l15 16q8 7 13 16q4 4 11 14t13.5 20.5t11.5 20t6 13.5q1 3 11 23.5t23.5 44t28 42.5t24.5 19q29 33 49 77l37 81l61 86l31 68 q11 25 18.5 37.5t12 16.5t7.5 6q11 27 30 60l40 68l44 70l42 65l33.5 56t19.5 39q10 23 22.5 40.5t41.5 17.5q13 0 28 -3q13 -2 25 -10.5t27 -22.5l-10 -52q-2 -2 -9 -10.5t-9 -10.5q-10 -18 -12.5 -38.5t-13.5 -40.5q-6 -13 -16.5 -17.5t-24.5 -13.5q-4 -7 -6 -13.5 t-4 -24.5q-31 -50 -50.5 -77.5t-31 -40.5t-15.5 -15t-5 -1.5t0.5 -1t2.5 -11.5q-4 -16 -8.5 -25.5t-9 -15t-9 -9t-8.5 -7.5q-3 -5 -9 -13.5t-11.5 -18.5t-9.5 -20t-5 -17q-5 -26 -15 -42.5t-19.5 -26.5t-17.5 -16t-10 -10q0 -4 -6 -10.5t-8 -8.5q-6 -20 -14 -34.5t-18.5 -26 t-23 -22.5t-25.5 -24q-9 -9 -13.5 -20t-9.5 -20q-4 -32 -6.5 -44.5t-6.5 -19.5q-19 -13 -27 -29t-10 -18q-1 -3 -7 -7t-13 -8l-13 -6q-6 -3 -8 -3q-7 -7 -13 -24t-12 -36.5t-12 -36.5t-13 -24q-2 -3 -7 -6t-10 -6.5t-8.5 -6.5t-2.5 -5q2 -7 2 -11v-8q0 -6 -2 -9 q-5 -23 -19.5 -34.5t-22.5 -14.5q-9 -20 -11.5 -31t-14.5 -15q-1 -4 -1.5 -13t-5.5 -20q-2 -15 -5.5 -25.5t-9 -19t-14.5 -15.5t-22 -14q-7 -4 -10.5 -10.5t-5.5 -13.5l-2 -16q-2 -8 -5 -16q-8 -11 -13.5 -14.5t-10 -6t-8.5 -7.5t-8 -19l-59 -6q-6 2 -12.5 13t-11.5 24 t-8 24t-2 13zM1020 99q-17 35 -26 57.5t-9 40.5q0 43 4 80t24 66l41 66q7 9 23 21t34.5 23t36.5 19t29 8q10 -3 16.5 -4t10.5 -1q5 0 8 1.5t5 3.5h30q23 0 39 -5t36 -21l39 -38l22 -11q12 -8 17 -18.5t7 -22.5t4.5 -23.5t10.5 -20.5q6 -9 11 -13l9 -7q4 -4 7 -9.5t5 -16.5 q1 -10 2 -33t1 -41q0 -5 -3 -14l-6 -20l-7 -19t-4 -8q-2 -7 -7 -19l-12 -24q-6 -12 -12.5 -23t-9.5 -15q-14 -6 -22.5 -13.5t-14.5 -14.5l-11 -13q-6 -6 -16 -9q-16 -10 -35.5 -12.5t-37.5 -9.5h-30q-42 0 -69.5 7.5t-49 22t-42.5 35.5zM1035 240q0 -13 6.5 -34.5t17 -44 t23 -42t24.5 -28.5q14 -10 34.5 -18t43 -14t44 -9.5t36.5 -3.5q8 0 12 6.5t12 8.5q9 4 14.5 5.5t9.5 4t8 6t9 11.5q6 9 13 15l14 11q7 6 12.5 13t7.5 18q1 4 2 14t2 11q4 15 8 24t4 27q0 20 -3.5 35.5t-20.5 28.5q-2 8 -2.5 11.5t-0.5 5.5q0 20 -9 30l-24 26 q-14 20 -25 28.5t-23 11.5l-23 8q-12 3 -28 13h-57q-1 0 -16 -6.5t-24 -12.5q-17 -9 -35 -28t-32.5 -42t-24 -47t-9.5 -43zM223 679q-17 35 -26 57.5t-9 40.5q0 43 4 80t24 66l41 66q7 9 23 21t34.5 23t36.5 19t29 8q10 -3 16.5 -4t10.5 -1q5 0 8 1.5t5 3.5h30q23 0 39 -5 t36 -21l39 -38l22 -11q12 -8 17 -18.5t7 -22.5t4.5 -23.5t10.5 -20.5q6 -9 11 -13l9 -7q4 -4 7 -9.5t5 -16.5q1 -10 2 -33t1 -41q0 -5 -3 -14l-7 -20q-3 -11 -6 -19t-4 -8q-2 -7 -8 -19l-11 -24q-6 -12 -12.5 -23t-9.5 -15q-14 -6 -22.5 -13.5t-14.5 -14.5l-12 -13 q-5 -6 -15 -9q-16 -10 -35.5 -12.5t-37.5 -9.5h-30q-42 0 -69.5 7.5t-49 22t-41.5 35.5zM238 820q0 -13 6.5 -34.5t17 -44t23 -42t24.5 -28.5q14 -10 34.5 -18t43 -14t44 -9.5t36.5 -3.5q8 0 12 6.5t12 8.5q9 4 14.5 5.5t9.5 4t8 6t9 11.5q6 9 13 15l14 11q7 6 12.5 13 t7.5 18q1 4 2 14t2 11q4 15 8 24t4 27q0 20 -3.5 35.5t-20.5 28.5q-2 8 -2.5 11.5t-0.5 5.5q0 20 -10 30l-23 26q-14 20 -25 28.5t-22 11.5l-24 8q-12 3 -28 13h-57q-1 0 -16 -6.5t-24 -12.5q-17 -9 -35 -28t-32.5 -42t-24 -47t-9.5 -43z" />
<glyph unicode="&#x26;" horiz-adv-x="1457" d="M194 244l-20 40q-11 22 -19.5 45.5t-14 49.5t-5.5 55q0 32 1 65t6.5 65.5t17.5 63t34 57.5q15 18 32.5 29t32 22.5t24.5 26.5t10 41l-30 45l-16 28q-8 14 -8 31q0 42 13.5 78t39 67t63 59.5t85.5 55.5q23 13 47 23t58 10q14 -7 43 -18.5t57.5 -26.5t50 -33.5t21.5 -39.5 q0 -5 -1 -16t-3 -23l-4 -24q-2 -11 -3 -15q-4 -11 -15.5 -25.5t-27.5 -14.5q-6 4 -22 13l-33 20l-33 19q-16 9 -21 12q-17 9 -38.5 15t-37.5 6q-19 0 -44 -10.5t-48 -27t-39 -37t-16 -39.5l14 -81q5 -9 15 -17t21 -9l19 10q7 4 13.5 6t13 2.5t16.5 0.5q17 0 40.5 -6t45 -17 t36.5 -27t15 -35q0 -18 -8.5 -41t-22.5 -42.5t-31.5 -33t-36.5 -13.5q-15 6 -32.5 12t-36.5 11.5t-37 8.5t-34 3q-8 0 -12.5 -1t-8.5 -3.5t-8 -7t-11 -11.5q-29 -20 -37.5 -47.5t-8.5 -59.5l3 -55q-5 -5 -6 -9.5t-1 -11.5q0 -12 4.5 -21.5t10.5 -18.5l11 -16q5 -8 7 -18 q0 -3 0.5 -10t2 -14.5t3 -14t3.5 -6.5q2 -3 9 -11l14 -15l14 -15l8 -8l12 -24q0 -1 2 -3.5t11 -10t28 -21.5l51 -38q24 -14 53.5 -25t60.5 -18.5t62.5 -12t61.5 -4.5q44 0 99 10t110.5 26.5t106.5 38t89 44.5q6 9 10 16.5t7.5 15t8 15t12.5 17.5q12 11 23.5 18.5t25.5 24.5 q1 7 3 19.5t2 15.5q1 2 6 7l11 10q6 6 11.5 10.5t5.5 5.5q10 12 15 29t7.5 36.5t3 39t0.5 35.5v83q-3 7 -5.5 10t-6 5.5t-7 5.5t-7.5 10q-11 17 -19 33l-16 32q-8 16 -18 31t-24 29q-10 6 -26 7.5t-23 5.5q-15 6 -25 11.5t-20.5 10t-25 7.5t-38.5 3q-1 0 -6.5 -2l-11.5 -4 l-13 -4q-6 -2 -7 -2h-40q-11 -3 -18.5 -12.5t-15.5 -17.5q-17 -13 -33 -28.5t-29 -34t-20.5 -39.5t-7.5 -45q0 -18 5 -35.5t15.5 -31t26 -22t36.5 -8.5q6 0 14.5 1t16.5 4t14.5 8t7.5 13q-1 1 -3 6l-6 12q-3 7 -5 12.5t-3 7.5q0 17 7.5 29.5t19.5 21t27 13t29 4.5l19 -2 q18 -13 27.5 -23t14 -21t5 -24.5t0.5 -33.5v-9v-13q0 -7 -0.5 -13t-1.5 -8q-3 -16 -19.5 -33.5t-39 -32t-46 -24t-40.5 -9.5q-25 0 -43.5 9.5t-38.5 25.5q-19 14 -40 26t-32 32q-16 39 -27 84.5t-11 99.5q46 153 190 233q2 5 7 13.5t10 12.5q5 -1 18 -1h27h29q13 0 18 1 q1 0 6.5 2t11 4.5t10.5 4.5t7 3q14 3 27 3t24 2t20 9t15 26h75q8 -7 13.5 -8t11.5 -1q29 0 50.5 21t36 50.5t22 61.5t7.5 54q0 46 -28.5 63.5t-69.5 17.5q-8 0 -13.5 -1t-10.5 -6q-12 -14 -22.5 -29t-22 -27t-26 -20t-33.5 -8q-14 0 -21.5 6.5t-11.5 15.5t-4.5 19.5 t-0.5 18.5q0 16 7 30.5t18 26t25 20t28 12.5l51 3q59 0 107.5 -11t83 -36.5t53 -68t18.5 -105.5q0 -25 -10 -46l-23 -46q-1 -1 -2 -5.5t-1 -10.5l-1 -12q-1 -5 -1 -7l-35 -36q-1 -3 -4 -9l-7 -13l-7.5 -11.5t-3.5 -6.5q-3 -2 -13 -5t-21.5 -6t-21.5 -6t-14 -4h-33 q-9 -2 -23.5 -9.5t-28.5 -17.5t-24 -20.5t-10 -17.5q0 -17 11 -32t25 -29t28.5 -26.5t21.5 -23.5q18 -26 27.5 -54t14 -59t5 -64.5t0.5 -68.5q0 -30 -1 -48.5t-4 -33.5t-9 -31l-14 -41q-4 -8 -9 -22l-9 -28q-4 -14 -8 -25t-5 -13q-13 -32 -35 -52.5t-45 -39t-44 -40.5 t-31 -58q-25 0 -43.5 -4.5t-35 -11t-32.5 -14.5t-35 -15q-29 -12 -61 -19t-61 -21q-12 2 -23 2h-24l-189 -9q-3 1 -16 5l-28 9q-15 5 -29 9t-18 5h-25q-23 2 -56.5 19t-67.5 40.5t-63 48t-43 41.5q-7 9 -12 20.5t-10.5 22.5t-11.5 20.5t-16 15.5z" />
<glyph unicode="'" horiz-adv-x="555" d="M283 953q-16 9 -28 26t-17 40q0 5 2 11.5t10 9.5q47 15 92 25t80 27t56 48t21 88q0 17 -7.5 29.5t-19.5 23.5t-25 20.5t-25 20t-19.5 23.5t-7.5 30q0 27 9 41t24 21.5t33.5 12.5t37.5 14h66q87 0 124 -44.5t37 -135.5q0 -43 -4.5 -83t-25.5 -78q-13 -24 -39 -53.5 t-58 -55.5t-66 -43.5t-62 -17.5q-26 -3 -53 -3q-34 0 -64 3q-12 4 -18 4.5t-15 0.5z" />
<glyph unicode="(" horiz-adv-x="592" d="M852 1349q0 -4 -5.5 -18.5t-13 -31.5t-15 -32t-11.5 -18q-18 -16 -41 -25t-42 -25q-52 -54 -107 -100t-107 -103q0 -2 -2.5 -12t-4.5 -12q-9 -25 -15.5 -50t-22.5 -50q-9 -14 -24 -20t-28 -15q-20 -17 -47 -49.5t-52.5 -69.5t-45 -73.5t-25.5 -61.5v-40 q-2 -15 -6.5 -23.5t-9.5 -15.5t-10.5 -14t-9.5 -19q-12 -34 -18.5 -77t-9.5 -88.5t-4 -89.5t-1 -78q0 -9 -1 -22.5t-1 -29.5q0 -17 1.5 -35.5t6.5 -35t14 -29.5t23 -19v-50l16 -7q-2 -8 -2 -18v-18q0 -24 4 -49t12.5 -48.5t22 -44t32.5 -35.5q18 -14 28.5 -19t17.5 -10.5 t12.5 -15t12.5 -31.5q2 -4 9 -14t7 -12v-8q0 -15 -9 -27t-22.5 -20t-28.5 -12.5t-27 -4.5h-3q-34 13 -49 23t-22.5 21t-13.5 25.5t-21 35.5q0 1 -4 5l-10 9l-11 9l-6 6q-1 3 -2 10l-2 14q-1 8 -2 14l-1 7q-5 16 -13 34l-16 36l-15 34q-7 17 -9 31v73q0 2 -1.5 7.5t-4 12.5 t-4 12.5t-1.5 7.5v19q0 30 3 62l4 61q0 7 2 12q-2 11 -2 21v22q-2 4 -2 6q-1 2 -1 3q0 21 3.5 41.5t7.5 40.5t7.5 39.5t3.5 40.5v38q-7 5 -8 10.5t-1 12.5q0 25 5.5 48.5t12 47t11.5 47t4 49.5q25 27 34 62t14.5 72.5t11.5 74.5t25 68q10 15 22.5 24t25.5 16l22 11 q9 5 13 13l15 24l17 27q8 14 15 28t10 25q3 4 5 16.5t2 14.5q1 2 5 6t9 8l10 7q4 4 6 5q6 9 12 20l13 22q6 11 13.5 21t18.5 16l22 12q9 6 17 12.5t14 15.5t11 24q6 21 21.5 35.5t35 25.5t41 20t38.5 21q11 9 21 26l19 36q9 18 18.5 31t21.5 13q19 0 39 -3t36.5 -11 t26.5 -22.5t10 -38.5z" />
<glyph unicode=")" horiz-adv-x="660" d="M-187 -403q0 4 5.5 19t13 32t15 31.5t11.5 17.5q18 16 41.5 25.5t41.5 24.5q52 53 107.5 100t107.5 103q0 2 2.5 12t4.5 12q9 25 15.5 50.5t22.5 49.5q9 14 23.5 20t28.5 15q20 18 46.5 50.5t52 69t45 73t25.5 61.5v40q2 15 6.5 23.5t9.5 15.5l10 15q6 7 10 19 q12 34 18.5 77t10 88t4 88.5t0.5 78.5q0 9 1 22.5t1 29.5q0 18 -1.5 36t-6.5 34.5t-14 29.5t-23 19v50l-15 7q1 8 1 18v19q0 48 -16.5 97t-54.5 79q-17 13 -27.5 18.5t-18 11t-13 15t-12.5 31.5q-1 4 -8 14t-7 12v9q0 15 9 27t22.5 20t28 12.5t26.5 4.5h4q34 -13 49 -23.5 t22.5 -21.5t13 -25.5t20.5 -35.5q1 0 5 -4l10 -10q5 -5 10 -9.5t6 -5.5q1 -2 2 -9l2 -14q1 -8 2 -14.5t1 -7.5q4 -16 12 -34l17 -36l15 -35q7 -17 10 -30v-73q0 -2 1.5 -7.5t3.5 -12t3.5 -12.5t1.5 -8v-19q0 -29 -2 -62t-5 -60q0 -7 -1 -12q1 -12 1 -22v-22q1 -2 1.5 -2.5 t1.5 -2.5t1 -3q0 -21 -3.5 -41.5t-8 -40.5t-8 -40t-3.5 -41v-38q7 -5 8 -10.5t1 -12.5q0 -24 -5.5 -47.5t-12 -47t-11.5 -48t-4 -49.5q-25 -27 -34 -62t-14 -72t-11.5 -74t-25.5 -68q-10 -16 -22.5 -25t-24.5 -15t-22 -11.5t-14 -12.5q-6 -11 -14.5 -24t-17 -27.5t-15.5 -28 t-10 -24.5q-2 -4 -4.5 -17t-2.5 -14q0 -2 -4.5 -6.5t-9.5 -8.5l-10 -7q-4 -4 -5 -4q-13 -19 -24.5 -43t-32.5 -37l-22 -12q-9 -6 -17 -12.5t-14.5 -15.5t-10.5 -24q-6 -21 -21.5 -35.5t-35.5 -25.5t-41 -20t-39 -21q-11 -9 -21 -26l-18 -35q-9 -18 -18.5 -31t-21.5 -13 q-20 0 -40 3t-36 11t-26.5 22.5t-10.5 37.5z" />
<glyph unicode="*" horiz-adv-x="1056" d="M537 751q0 20 5 39l10 38l11 38q5 19 5 39h-8q-2 0 -14 -9l-27 -21l-31 -26l-25 -22q-3 0 -10.5 -8.5t-8.5 -10.5q-5 -2 -16 -8l-21 -11l-21 -12q-9 -5 -12 -7h-10q-9 0 -16 5.5t-12 14t-7.5 18.5t-2.5 19q0 23 6.5 33.5t17 15.5t24.5 7.5t28 10.5q2 1 6 5l10 10 q5 5 9 9.5t4 5.5q3 3 15 11l25 18l25 18l15 10q0 2 3.5 9t3.5 12v5v3q0 3 -2.5 6t-4.5 5l-31 -5q-13 -2 -25 -3.5t-24.5 -2t-28.5 -0.5q-12 0 -36 3.5t-48 11t-42 19t-18 27.5q0 13 17.5 25t40.5 21.5t45 15t32 5.5q35 0 70.5 -6t70.5 -6h45q-9 21 -24 36.5t-33 29t-37 26 t-34 26.5q-5 4 -16 14l-23 23l-23 22q-10 11 -15 15q-6 9 -8 17.5t-2 17.5v19v34q7 16 17 18.5t21 2.5q20 0 38 -9t30 -20l185 -185q6 1 8 8.5t2 13.5v12q0 21 -5 39t-5 41q0 32 1.5 63t8.5 65q1 8 8.5 18.5t17.5 19.5t21.5 15t20.5 6q3 -3 7 -5q6 -5 12 -6 q12 -7 22.5 -12.5t18.5 -12t12.5 -15.5t4.5 -24q0 -26 -7.5 -51.5t-17.5 -51.5l-19 -51q-10 -26 -14 -53v-37q-2 -9 -7 -15l-10 -10q-5 -5 -9 -10.5t-4 -14.5q0 -5 2.5 -17t11.5 -12h5q2 4 5 16t6 13q9 17 26.5 42.5t40 53.5t48.5 56t52 50.5t50.5 36.5t45.5 14 q10 0 21.5 -2.5t21 -7.5t15.5 -13.5t6 -21.5v-4q-12 -35 -28.5 -66.5t-39.5 -57.5q-2 -4 -9.5 -11t-9.5 -12q-6 -4 -28 -21l-46 -35l-45 -36l-26 -20q-9 -9 -9 -10q0 -2 1 -5t1 -9q22 0 39.5 -3.5t39.5 -3.5q20 0 33 6t33 6q21 0 47.5 -1t50 -8.5t39 -23t15.5 -43.5 q0 -41 -29 -61.5t-68 -20.5q-20 0 -38.5 8.5t-38.5 12.5q-32 7 -52.5 9.5t-49.5 2.5q-4 0 -14 -2q-4 -1 -9 -1l-10 -19l107 -106q13 -14 21 -38.5t8 -42.5q0 -14 -4 -29t-11.5 -27t-20 -19.5t-28.5 -7.5q-27 0 -50.5 18t-44 45t-37.5 58l-30 58q-13 27 -23 45t-17 18 q-2 0 -3.5 -1t-3.5 -1q-2 -1 -4 -3q-3 -3 -3 -5v-154q-1 -15 -4 -35t-10.5 -38t-20 -30.5t-32.5 -12.5q-30 0 -45.5 10.5t-22 28t-8 40t-4.5 45.5v11z" />
<glyph unicode="+" horiz-adv-x="1074" d="M127 699q12 11 34 16.5t49 5.5q20 0 27.5 -1t12.5 -4h151q34 0 58 3.5t33 12.5q18 18 18 71l-19 235q0 26 4 48t15 33q16 14 50 14q23 0 44 -6.5t32 -17.5l28 -61l1 -2q1 -2 2.5 -9t3.5 -21.5t5 -39.5q-10 -4 -16 -11q-8 -11 -11.5 -21t-3.5 -24q0 -23 3.5 -50.5 t8.5 -47.5q1 -14 2 -18t1 -8q0 -16 -1.5 -32t-1.5 -27v-2q0 -1 1 -1q7 -7 9 -7q34 0 71.5 8.5t68.5 8.5q16 0 28 -3t22 -7h154q5 0 13 -3t10 -4q9 -11 9 -30v-76l-18 -19q-33 -33 -90 -33q-45 0 -90.5 10.5t-83.5 12.5l-23 -9l-62 -5q-5 -9 -9 -26.5t-7 -39.5t-5 -46.5 t-2 -46.5q0 -23 2.5 -41t6.5 -34q5 -20 5 -29q0 -4 -2.5 -17.5t-2.5 -15.5l3 -48q0 -22 -8 -30q-16 -10 -45 -10q-26 0 -49 6t-31 11q-13 24 -18 53t-7 60l-5 64q-3 33 -10 64l21 77q0 11 -7 21q-11 9 -21 14t-24 5q-17 0 -33.5 -4t-37.5 -4h-19q-6 0 -10 1q-6 7 -24 7 l-25 -2q-15 -4 -31.5 -5t-33.5 -1t-33 1t-33 5q-16 0 -27 3.5t-21 17.5q-13 23 -13 61q3 31 5 39.5t2 10.5z" />
<glyph unicode="," horiz-adv-x="501" d="M-178 -235q2 2 6 8t6 7q47 15 91.5 25t79 27.5t55.5 48.5t21 88q0 25 -16.5 41t-36 31t-36 32.5t-16.5 44.5t9 40.5t24 20t34 10.5t38 12h66q87 0 125 -41.5t38 -135.5q0 -43 -5.5 -84.5t-25.5 -76.5q-14 -23 -41 -53t-59 -56t-65 -44t-60 -18h-121q-11 7 -16 8t-15 1 l-37 -9q-8 0 -15 8t-12.5 18.5t-9.5 21.5t-6 18v7z" />
<glyph unicode="-" horiz-adv-x="909" d="M535 467q-12 -2 -26.5 -3.5t-37.5 -1.5q-22 0 -35 7q-14 -5 -26.5 -7t-23.5 -2q-19 0 -37 3l-37 7l-38 7q-19 4 -40 4h-21q-23 24 -23 54q0 46 21.5 61.5t58.5 15.5h21q11 0 22 -1l52 -6h25q12 0 25 2l123 -12q16 0 35 1t39 6q21 8 30.5 9t25.5 1q13 0 29.5 -2t31.5 -7 t25.5 -14.5t10.5 -24.5q0 -5 -1 -9t-3 -8q-12 -32 -23 -51t-27.5 -28.5t-41 -12.5t-62.5 -3q-2 0 -7 4l-12 6l-11 7q-5 3 -6 3z" />
<glyph unicode="." horiz-adv-x="460" d="M-5 195q3 6 20.5 20t38.5 28t40 25t25 11q30 0 58.5 -13t51 -34.5t36 -49t13.5 -57.5q0 -42 -17.5 -67.5t-45 -40t-62 -19.5t-68.5 -5q-26 0 -43.5 18.5t-28 45t-14.5 55t-4 49.5v34z" />
<glyph unicode="/" horiz-adv-x="567" d="M-40 7q3 17 8.5 29t13.5 23l15 21q8 10 16 24l16 27q4 16 10.5 25t13.5 22l21 47q0 2 4.5 5t9.5 6t10 5.5t7 4.5l9 43q3 12 10 20.5t15 16.5l15 16q8 7 13 16q4 4 11 14t13.5 20.5t11.5 20t6 13.5q1 3 11 23.5t23.5 44t27.5 42.5t24 19q28 33 49 77l38 81l60 86 q19 43 31 68t19.5 37.5t11.5 16.5t7 6l21 35q5 15 11.5 24.5t13.5 17.5l14 17q8 8 17 22q31 43 54 89t48 91q9 18 21.5 33t26.5 35q3 4 10 18l17 29q9 16 17 33t13 29q10 23 22 40.5t42 17.5q11 0 28 -3q13 -2 29 -10.5t23 -22.5l-11 -52q-1 -2 -8 -10.5t-9 -10.5 q-11 -18 -13 -38.5t-13 -40.5q-7 -13 -17 -17.5t-24 -13.5q-5 -7 -6.5 -13.5t-4.5 -24.5q-5 -12 -15.5 -24t-22 -23.5t-23.5 -22t-20 -19.5q-12 -11 -16.5 -19t-4.5 -12v-1l-10 -30q-11 -26 -26.5 -48t-30.5 -35q-3 -9 -2.5 -16t-1.5 -12q-4 -16 -8 -25.5t-8.5 -15t-9 -9 t-8.5 -7.5q-3 -5 -9 -13.5t-11.5 -18.5t-9.5 -20t-5 -17q-5 -26 -15 -42.5t-19.5 -26.5t-17.5 -16t-10 -10q0 -4 -6 -10.5t-8 -8.5q-6 -20 -14.5 -34.5t-18.5 -26t-22.5 -22.5t-25.5 -24q-10 -9 -15 -20l-8 -20q-4 -32 -7 -44.5t-7 -19.5q-18 -13 -26 -29t-10 -18 q-2 -3 -7.5 -7t-12.5 -7l-14 -7q-6 -3 -8 -3q-6 -7 -12 -24t-12 -36.5t-12.5 -36.5t-13.5 -24q-2 -3 -7 -6l-9 -6l-8.5 -7t-2.5 -5q1 -7 1 -11v-8q0 -6 -1 -9q-5 -23 -19.5 -34.5t-22.5 -14.5q-9 -20 -11.5 -31t-14.5 -15q-2 -4 -2 -13t-5 -20q-3 -15 -6 -25.5t-8.5 -19 t-14.5 -15.5t-23 -14q-14 -8 -15 -24t-7 -32q-8 -11 -13.5 -14.5t-10 -6t-8.5 -7.5t-8 -19l-59 -6q-6 2 -12.5 13t-11.5 24t-8 24t-2 13z" />
<glyph unicode="0" horiz-adv-x="1050" d="M170 180q-29 59 -44 96t-15 68q0 72 7.5 132.5t39.5 109.5l69 111q11 14 37.5 34.5t57.5 39t61 31.5t48 13q17 -5 28 -7t17 -2q9 0 14 3t9 6h50q36 0 64 -8.5t61 -34.5l64 -63l38 -19q20 -13 27.5 -31t11 -37.5t8 -39t17.5 -34.5q11 -15 19 -21.5t14.5 -12.5t11 -15 t8.5 -28q1 -8 1.5 -22.5t1.5 -32t1.5 -35t0.5 -32.5q0 -8 -4.5 -24.5t-10.5 -33.5l-11 -31q-5 -13 -6 -14q-3 -11 -12 -31l-20 -40q-11 -21 -21.5 -39t-16.5 -25q-24 -11 -37.5 -23t-23.5 -23l-19 -22q-10 -10 -25 -15q-14 -8 -29 -12.5t-31 -7.5l-32 -7q-16 -4 -31 -10h-50 q-69 0 -115 13t-82.5 37.5t-70.5 59.5zM194 415q0 -22 11 -58t28.5 -73.5t39 -70t41.5 -47.5q23 -16 57.5 -29.5t71 -23.5t72.5 -15.5t62 -5.5q7 0 11.5 3t8.5 7t8.5 8t10.5 6l24 10q9 3 16 6.5t14 10t16 18.5q9 15 21 25l23 19q11 10 20.5 21.5t13.5 29.5q0 3 1 10l2 13 q1 7 2 12.5t1 6.5q3 13 6.5 22.5t6.5 18.5t5.5 19.5t2.5 25.5q0 32 -6 58.5t-35 47.5q-4 13 -4.5 19t-0.5 10q0 16 -4.5 27.5t-12 21.5t-17 20t-20.5 24q-23 33 -42 47t-37.5 20.5t-39 12t-47.5 22.5h-95q-1 0 -8.5 -3t-17.5 -8l-22 -10q-11 -6 -18 -11q-29 -15 -59 -47 t-54.5 -70.5t-40.5 -78.5t-16 -71z" />
<glyph unicode="1" horiz-adv-x="739" d="M81 36q0 20 11 32t28.5 18t39.5 9l41 6q20 3 36 8.5t24 16.5q3 7 7.5 19t8.5 24.5t7 24.5t3 19l-26 131q0 7 4 21l7 31q3 16 6.5 29t3.5 16l-21 184q0 10 3.5 18.5t8.5 19.5q-22 23 -44.5 38t-45.5 26q-15 5 -35 8.5t-38 9.5t-30.5 17.5t-12.5 31.5q0 12 7.5 19t18 10.5 t21.5 4.5t19 1l106 -7q13 0 20 1t23 6q22 -3 42 -5t41 -2q17 0 35.5 1t38.5 6q8 7 25 12t36.5 8t39 4.5t31.5 1.5q7 0 19.5 -1t23.5 -4.5t19.5 -10.5t8.5 -19q0 -25 -16.5 -40t-39.5 -24t-47.5 -14t-40.5 -10q-7 -3 -13.5 -11t-12.5 -18t-10.5 -20.5t-8.5 -18.5l-14 -188 l17 -142l-17 -26q0 -2 3.5 -11.5t5.5 -11.5v-1q0 -12 -4.5 -24t-4.5 -26q0 -24 9 -41.5t14 -40.5q3 0 11 -1.5t18 -2.5l20 -3l15 -3l26 -14l39 -23.5t35.5 -26.5t15.5 -26v-2q-2 -11 -9.5 -21t-18.5 -20l-142 -6q-2 2 -8 4t-8 2q-5 1 -11 1h-16h-45q-48 0 -98.5 -1.5 t-95.5 -8.5l-19 -10q-31 0 -54.5 14t-35.5 32z" />
<glyph unicode="2" horiz-adv-x="940" d="M61 12l8 20q7 16 11 27q4 6 16 13l25 14l27 13q13 7 19 12q17 13 35 23l38 22q19 11 37.5 23t34.5 27q31 27 64.5 66t61.5 83.5t46 91.5t18 91q0 21 -9.5 41t-26 35.5t-38 25.5t-45.5 10l-38 -13h-38q-9 0 -19 -1.5t-19 -12.5q-16 -11 -27.5 -29.5t-24 -35.5t-27.5 -29.5 t-37 -12.5q-11 0 -22 1.5t-18 10.5v29q0 27 4.5 40t12.5 21t19 15.5t23 25.5l14 17l23 29q12 15 25.5 28t29.5 23t36 16l76 10l49 10q24 0 56.5 -4t66 -13t63.5 -24t49 -37q7 -9 11.5 -20t9.5 -12l31 -51v-115q0 -19 -13.5 -34.5t-24.5 -29.5q-1 -1 -2 -4t-4 -11l-8 -22 q-5 -14 -14 -36q-1 -2 -2 -3q-2 -2 -3 -2q-11 -7 -16 -15t-9 -16l-8 -17q-4 -9 -12 -16q-11 -9 -21 -13.5t-20.5 -7t-21 -4.5t-20.5 -8q-2 0 -8.5 -5.5l-14.5 -12.5l-14 -13q-6 -6 -8 -7q-2 0 -9.5 -5t-16.5 -12l-17 -13q-8 -6 -9 -7q-5 -4 -14 -13t-17.5 -19t-14.5 -20 t-6 -15t5 -5h33q26 0 47.5 -2.5t42.5 -11.5h50q54 0 108 8t102 30q9 5 10 12t5 14q13 17 34 30l42 24l16 -51q0 -17 -7.5 -34.5t-18.5 -37.5q-3 -7 -6 -25t-9 -37t-16 -34t-26 -15l-17 -2q-39 -5 -77 -11t-76 -6q-12 0 -23 4t-22.5 9t-22.5 9t-22 4q-20 0 -45.5 -3t-42.5 -7 q-4 0 -12.5 -5.5t-13.5 -10.5l-92 26q-11 0 -22.5 -7t-25.5 -9q-19 -2 -36 -3l-34 -4l-35.5 -2t-41.5 -1q-9 0 -18.5 1t-17.5 4t-13 8.5t-5 14.5v3z" />
<glyph unicode="3" horiz-adv-x="766" d="M25 -337q0 19 2 30.5t8 18t17.5 10t31.5 8.5q9 4 25 10.5t25 6.5q16 0 29.5 -7.5t27.5 -16.5t28.5 -16.5t32.5 -7.5q24 0 46.5 8.5t42 23t35.5 33.5t27 39q1 4 3 16t2 17q4 4 9.5 6.5t10.5 5.5t9 7.5t4 13.5v100q0 6 -4.5 15t-10 18t-11 15.5t-7.5 8.5q-16 22 -33.5 38.5 t-37 31t-39.5 27.5l-43 29q0 2 -3.5 6.5t-8 9.5t-8.5 8.5t-7 3.5q-11 0 -23.5 -4.5t-24.5 -9.5t-24 -9.5t-22 -4.5q-11 0 -22.5 14t-11.5 26q0 21 17 35.5t39.5 25t45.5 17.5t36 12l5 5l9 10l10 10q4 5 7 6q21 18 44.5 29.5t37.5 34.5l12 17q27 44 49.5 90t22.5 96q0 2 -6 9 l-14 16l-18 19q-9 11 -15 20q-9 15 -28 19.5t-35 4.5q-36 -12 -61.5 -19t-57.5 -7l-47 2q-15 1 -20.5 15.5t-5.5 25.5q0 22 6 28l26 14q20 11 32.5 27t31.5 31q35 24 83 36.5t93 12.5q21 0 37 -9l37 -19q35 -13 57 -25.5t36 -29.5t22.5 -40t16.5 -57q2 -11 6 -21.5t4 -21.5 q0 -22 -7.5 -49.5t-19.5 -55.5t-27 -53t-30 -43q-7 -10 -16 -15t-18.5 -8.5t-18.5 -7.5t-17 -12q-15 -16 -19.5 -31t-16.5 -28q-12 -4 -16.5 -10.5t-4.5 -17.5q0 -4 1 -4.5t1 -2.5q6 -13 24 -29l40 -33l42 -33q20 -15 29 -26q3 -29 12 -48.5t18.5 -37.5t17 -38.5t7.5 -53.5 q0 -11 -2 -32t-5 -44t-7.5 -43t-9.5 -28l-26 -33q-6 -7 -10 -17l-10 -20q-4 -10 -9 -20t-12 -17q-26 -28 -72.5 -61t-99.5 -61t-105.5 -46.5t-91.5 -18.5q-17 0 -28 13l-24 27q-14 8 -24.5 16t-18.5 18t-12 23t-4 33z" />
<glyph unicode="4" horiz-adv-x="986" d="M421 -310l19 54l-7 62q0 21 4 39l10 37q5 21 8.5 41t3.5 41q0 9 -10.5 19.5t-15.5 14.5l-114 5q-14 0 -33 -1t-40 -5q-23 -5 -42 -8t-39 -3l-38 9q-3 0 -8.5 -2.5t-15.5 -6.5q-9 0 -13.5 3t-9 6.5t-10.5 6.5t-18 3h-10q-4 0 -9 -2q-6 16 -8 27t-2 27q0 21 2 32t8 25 q46 63 86 127l79 129l22 38q5 7 11 10l12 5q6 2 12 5t12 11q2 5 3.5 14.5t1.5 13.5l8 8l12 12q7 6 12 12.5t6 9.5l14 36l19 17l8 16l13 24l15 24q7 11 11 16q0 2 1.5 10.5t3.5 8.5l54 55q0 5 1.5 8.5t3.5 7.5q0 1 1.5 5.5t3 10t3 10t2.5 5.5l31 33q13 16 21.5 29t17.5 22 t22 13.5t36 4.5q17 0 27 -24t15 -55t6.5 -61t1.5 -43l-1 -47q-14 -16 -16 -28t-2 -29t5.5 -26t5.5 -24l-9 -71v-18l9 -31l-14 -180q0 -14 3 -28t23 -17q17 -2 33.5 -2.5t33.5 -0.5t35 0.5t36 2.5q16 14 31.5 16t36.5 2q10 0 29.5 -6.5t39 -17t34 -24t14.5 -27.5 q0 -25 -5.5 -49t-17.5 -42.5t-32 -30t-49 -11.5q-11 0 -21 2.5t-20.5 5.5t-23 5.5t-28.5 2.5q-11 -2 -23 -3t-25 -1q-19 0 -37.5 -2t-33.5 -9.5t-24 -21.5t-9 -38q-2 -4 -2 -11v-15v-81v-16q0 -8 2 -13q-7 -13 -7 -30q0 -13 6.5 -18.5t10.5 -21.5q3 -18 4 -35t1 -34 q0 -18 -1 -35t-4 -32q0 -9 -9.5 -21t-22 -23t-25 -19t-17.5 -8q-9 0 -18 9.5t-20 11.5q-33 7 -47.5 14.5t-20 19.5t-7.5 29.5t-10 46.5zM213 190q0 -12 9 -19t22.5 -10t29 -3.5t29.5 -0.5q12 0 42.5 3t62.5 9.5t57 16t25 23.5q0 12 -1.5 32t-3.5 40l-4 34q-1 15 -1 17l-9 17 q-2 8 -2 19v23q0 18 -2.5 37.5t-9.5 35t-19 26t-31 10.5q-18 0 -34.5 -14.5t-31.5 -35t-28 -41.5l-20 -34l-66 -133q-9 -18 -11.5 -27t-2.5 -25z" />
<glyph unicode="5" horiz-adv-x="747" d="M103 -375q0 26 16 54t43 39q42 38 77.5 75.5t55.5 76.5q4 7 6.5 16t2.5 21q0 9 1.5 17.5t3.5 14.5l19 51q0 9 1 12t1 8t2.5 8.5t6 7.5t6 10.5t2.5 18.5l-5 42l10 54q0 7 -9 23t-21.5 34l-25.5 35l-23 29q-2 1 -3.5 3.5t-3.5 4.5l-2 4q-5 7 -20 18l-31 24 q-17 13 -30.5 24.5t-15.5 19.5l-5 31l-14 24q-6 11 -10.5 20.5t-6.5 21t-2 28.5q0 13 0.5 23.5t2.5 20t5 21t9 26.5q-1 5 -3 12t-2 11q0 23 5 39.5t13 30.5t17.5 27t18.5 29v26l31 33l28 33q11 14 24.5 22t31 11t44.5 3q22 0 45.5 -4t47.5 -9.5t47.5 -9.5t44.5 -4 q25 0 46.5 12.5t39.5 27.5l33 28q14 13 25 13q4 0 6 -4t3 -10t1 -12v-10v-2l-11 -47l-9 -33q-5 -15 -8 -17q0 -5 -4 -11t-6 -10l-19 -19q-5 -10 -8 -24t-7.5 -27t-12.5 -22.5t-24 -9.5q-38 0 -71.5 6.5t-65.5 15t-64.5 15t-66.5 6.5h-47q-15 -5 -24 -24t-9 -36q0 -7 24 -33 l53 -57l36 -36q17 -20 33 -41.5t24 -35.5q9 -22 26 -41t33 -42l15 -39q19 -16 22.5 -21.5t3.5 -10.5q0 -17 2.5 -31t13.5 -19v-43l-9 -97l9 -26q0 -8 -1 -20t-3 -25t-4.5 -25.5t-5.5 -20.5l-22 -25q-5 -8 -7 -19.5t-3.5 -24t-4 -25t-6.5 -22.5q-10 -17 -29 -46t-44 -62 l-54 -68q-28 -34 -56.5 -61.5t-55.5 -45t-48 -17.5q-11 0 -24.5 4.5t-24.5 12.5t-18.5 20t-7.5 26z" />
<glyph unicode="6" horiz-adv-x="873" d="M99 337q0 39 10 79.5t16 76.5q2 2 3.5 7t3.5 10q10 18 17 39l14 41q7 21 16 43t24 43q12 21 25.5 36.5t24.5 26.5q16 13 27.5 25.5t21 26t19 28.5t22.5 32l47 42l12 27q1 1 11 8l24 16l30 18q15 9 28 15q20 10 23 13q2 0 7 1.5t11 3.5l12 4q5 2 8 4q10 10 17 19 t13.5 16.5t14 15t19.5 15.5l46 20q25 10 46 22q12 10 20 19t16.5 15.5t19 10t27.5 3.5q12 0 29 -1t32 -5.5t25.5 -14.5t10.5 -27q0 -14 -4.5 -22t-12 -13.5t-17.5 -9.5t-20 -9q-12 -13 -19.5 -29.5t-23.5 -24.5q-4 -1 -15 -5t-20 -12l-29 -14q-17 -11 -26.5 -24.5 t-25.5 -27.5q-12 -11 -29.5 -23t-33.5 -25.5t-27.5 -30t-11.5 -35.5q-13 -9 -28 -14l-30 -12q-15 -6 -29.5 -15t-25.5 -26q0 -2 -1.5 -13.5t-3.5 -12.5l-10 -12q0 -3 17 -7l38 -10l43 -11q21 -5 30 -10l38 -22q17 -11 31.5 -23t28.5 -26t30 -33q6 -5 15 -27t17.5 -47 t14.5 -47t6 -28q-1 -26 -4 -37t-3 -13q2 -12 3 -20t1 -15q0 -13 -2 -19t-2 -10q0 -21 -4.5 -39t-15.5 -39q-21 -32 -35.5 -59t-34.5 -57q-1 -2 -4.5 -3.5t-3.5 -3.5q-2 0 -12.5 -1.5t-15.5 -3.5l-7 -7l-11 -11q-6 -6 -11 -11.5t-7 -8.5q-5 0 -15 -0.5t-21.5 -1.5t-21.5 -2.5 t-13 -4.5q-11 -2 -19 -7l-15 -11q-7 -6 -15 -10.5t-20 -4.5q-22 0 -39.5 3.5t-34 9.5t-33.5 14l-35 15q-2 0 -10 2t-17.5 4t-17.5 4t-9 2q-12 2 -26 12.5t-27 24t-24 26.5t-18 20q-2 1 -6 16l-10 34q-6 18 -10.5 35t-6.5 22q-1 4 -3.5 13t-5.5 18.5t-6 17.5t-6 10 q-1 11 -3 13t-2 11zM215 336l5 -25q2 -5 6 -18l12 -33q6 -19 15 -41.5t21 -43.5q11 -23 31 -42.5t43 -30.5q2 -2 12 -2h64q12 2 23 6.5t17 9.5q2 2 11 10l19 18q11 10 19.5 19t9.5 12q23 19 37 40t21.5 44.5t10 51t2.5 59.5q0 17 -3 29.5t-8 24.5t-11 24.5t-11 28.5v33 q-11 25 -24.5 34.5t-34.5 17.5q-8 3 -19 12l-24 19q-13 10 -27 18.5t-27 11.5q-8 0 -23 -2t-30.5 -5.5t-28.5 -10t-16 -15.5l-66 -128l2 -16q0 -10 -1 -22l-1 -24q0 -12 -1.5 -21t-3.5 -12q0 -2 -4 -7l-7 -10q-3 -5 -7 -9z" />
<glyph unicode="7" horiz-adv-x="936" d="M467 -467l-7 9l7 32q-6 13 -6 30q0 7 6 21l-7 31q13 23 24 47.5t17 49.5l18 57q5 23 18.5 45t17.5 45q4 34 14 60t19 61q4 11 5.5 17t1.5 14q0 5 -2 9t-2 13l4 23l2 6q2 7 3 8q3 2 8 7l10 12q6 6 10 11.5t5 7.5l8 31q11 31 21 66t30 62v26q0 25 4 48t9 46l10 48 q5 25 8 55q0 25 -10 41t-25.5 24.5t-35.5 11.5t-40 3h-74l-82 8q-40 4 -83 4h-17l-12 8h-161q-13 0 -22 -21.5t-21 -47.5t-30 -47.5t-48 -21.5q-5 0 -5 9l1 24q0 19 3 34.5t6.5 28.5t7 24.5t4.5 23.5q2 9 2.5 26.5t2.5 37.5t5.5 41t10.5 37.5t18.5 27.5t28.5 11 q12 -2 16.5 -5t7 -7.5t4.5 -9.5t8 -11q1 -1 18.5 -5.5t38.5 -9t40 -8t24 -3.5t9.5 1t9.5 3t9 2h12q21 0 41.5 -4.5t41.5 -6.5q36 -1 70 -5.5t68 -4.5q20 0 42 7q9 2 17.5 2.5t20.5 0.5q11 0 16 -2t18 -13h109q3 0 9 -3.5t11 -8.5t9 -10t4 -8q0 -36 -11 -67t-11 -59l8 -67 q-5 -23 -9 -51.5t-10.5 -57t-16.5 -54.5t-28 -45v-83q-11 -14 -18 -31t-21 -33l-12 -16q-6 -9 -6 -14l12 -34q0 -2 -4 -7l-9 -12l-8 -12q-4 -5 -6 -7q-8 -13 -9 -27.5t-2.5 -28t-6.5 -25.5t-20 -20v-17q0 -15 -2 -34t-5 -38l-6 -36q-3 -17 -6 -30q0 -7 -5 -12 q-11 -20 -16 -38.5t-6.5 -37.5t-1.5 -39t-2 -41q-5 -18 -16.5 -31.5t-16.5 -30.5l-5 -18q-8 -20 -17.5 -28t-41.5 -8q-15 0 -19 14z" />
<glyph unicode="8" horiz-adv-x="832" d="M482 644q14 -21 29 -36t30 -28l30 -27q16 -14 32 -32l19 -31l25 -21q7 -12 15.5 -38.5t16 -56.5t12 -57t4.5 -40q0 -16 -1 -37t-4.5 -43t-10.5 -41.5t-19 -32.5q-29 -33 -56.5 -57.5t-58.5 -41t-67.5 -25t-83.5 -8.5q-70 0 -133 27.5t-107 83.5q-10 30 -24 60.5t-14 62.5 q0 22 7 44.5t17 43.5t22 41l23 39q9 18 13 35.5t20 33.5q10 12 24.5 25t27.5 27t22 30.5t9 35.5q0 15 -11 32t-27 33t-35 31l-33 25q-5 4 -17 32l-27 59q-14 32 -24.5 61t-10.5 38q0 64 14.5 122t46 102t81 70t119.5 26q48 0 92 -8t89 -28q21 -13 40.5 -37.5t35.5 -54 t26.5 -60.5t13.5 -58q0 -27 -12.5 -64t-30.5 -73.5t-39.5 -69t-39.5 -50.5q-4 -6 -16 -14l-23 -15q-12 -8 -21.5 -17t-9.5 -18zM301 128q20 -23 51 -41t65 -18q24 0 45 12.5t36.5 31.5t24.5 42.5t9 45.5q0 14 -6 26.5t-6 28.5q0 5 7 23q4 6 7.5 14.5t4.5 12.5 q0 19 -15.5 50.5t-37.5 61t-47.5 51t-44.5 21.5q-40 0 -62.5 -22t-34.5 -54t-17 -68t-10 -64q-2 -4 -4 -15.5t-2 -15.5t5.5 -16.5t6.5 -16.5q1 -5 5.5 -17t8.5 -26l7 -28q4 -13 4 -19zM270 958q0 -25 10 -65t28.5 -78.5t44 -66t55.5 -27.5q5 0 15.5 1t22.5 6v8l1 13 q1 7 2 13t2 8q0 2 3 6l6 10q4 6 8 10.5t7 6.5l9 18q7 15 9 23l7 14l11 20l10 19q5 8 5 10q0 17 -7 35t-11 35q-4 21 -6.5 40.5t-7.5 37.5t-13.5 34t-24.5 30l-16 11l-18 13q-8 6 -15 10.5t-9 5.5h-23q-38 0 -59.5 -20t-31.5 -50.5t-12 -65.5t-2 -65z" />
<glyph unicode="9" horiz-adv-x="897" d="M-32 -223l14 19q0 3 1 9.5t2 14t1.5 13.5t0.5 8q4 11 9 16t10 8t11 7t13 12q5 6 6.5 12t2.5 11.5t3 10.5t9 9q27 9 46 27t45 34l121 55q12 16 38 35l52 41q26 21 46 42.5t20 42.5q0 2 -23 8l-53 16q-29 9 -56.5 19t-36.5 19q-45 35 -76 66t-49.5 66t-27 78.5t-8.5 104.5 q0 35 13.5 70t34.5 66.5t48 58.5t54 47q11 9 22 14l23 11q11 5 22 11t22 16q23 5 46 7t49 2q20 0 42 -2t44 -7q4 -1 8.5 -5t8.5 -8l59 -11q19 -6 39.5 -17.5t38.5 -26.5t32 -33.5t22 -39.5q0 -5 1.5 -18.5t3.5 -14.5l24 -25q11 -15 19 -37.5t12.5 -46t6.5 -45.5t2 -37 q0 -6 -3.5 -22t-7 -34t-7 -32.5t-3.5 -16.5l-12 -12v-33q0 -1 -4 -4.5t-8.5 -8t-8.5 -8t-5 -3.5v-28q-1 -5 -5.5 -10t-10 -10t-10.5 -9t-7 -7q0 -2 -1.5 -14t-3.5 -14q-8 -11 -19 -19t-23 -15.5t-23 -15.5t-20 -19q-40 -57 -89 -103l-96 -91q-2 -2 -10 -11.5t-12 -11.5 q-2 0 -11 -3t-14 -7q-22 -9 -46.5 -24.5t-44.5 -32.5l-23 -22l-41 -9l-23 -24l-35 -24q-20 -14 -42 -26t-45 -20t-42 -8l-57 10zM270 448v-19l9 -14l13 -21l14 -21q7 -10 11 -13q14 -25 31.5 -35.5t37.5 -18.5l38 -19q8 -2 11.5 -8.5t6 -14.5t5.5 -15t9 -10q21 9 36.5 20.5 t28 26t24.5 32.5l26 37q2 19 8 38l11 38q5 19 9.5 38.5t4.5 39.5v19q0 5 -1 10q-2 7 -3 13.5t-1 17.5l5 40q-20 44 -32 79t-28.5 59.5t-44.5 37.5t-80 13h-33q0 -12 -8.5 -23.5t-19.5 -22.5t-22.5 -21t-18.5 -18q-11 -13 -19.5 -29.5t-15.5 -34.5t-13 -36l-11 -33 q0 -26 3 -48.5t8 -45.5q1 -4 1 -10v-11v-17z" />
<glyph unicode=":" horiz-adv-x="530" d="M213 739q4 6 22 20.5t39 29t40.5 25.5t26.5 11q30 0 58.5 -13t50.5 -35t35.5 -49.5t13.5 -57.5q0 -42 -18 -68t-46.5 -40.5t-63.5 -20t-68 -5.5q-25 0 -42.5 19t-28 46t-15 56t-4.5 49v33zM-3 189q3 4 20.5 18t38.5 28t40 25.5t26 11.5q31 0 60 -13t51 -34.5t35 -49 t13 -57.5q0 -42 -17.5 -67.5t-45.5 -40t-62.5 -19.5t-68.5 -5q-27 0 -44 18.5t-27.5 45t-14.5 54.5t-4 48v37z" />
<glyph unicode=";" horiz-adv-x="562" d="M-166 -189q1 5 7 9.5t8 6.5q46 15 90 25t78 27.5t55 49t21 90.5q0 24 -16.5 40t-36 30.5t-35.5 31.5t-16 43q0 27 9.5 40.5t24.5 20.5t33.5 11.5t36.5 14.5h69q87 0 123 -43.5t36 -136.5q0 -43 -3.5 -83.5t-22.5 -79.5q-14 -23 -41 -51.5t-58.5 -54t-64.5 -43t-60 -17.5 h-123q-11 4 -16.5 4.5t-16.5 0.5l-35 -5q-7 0 -14.5 7t-13.5 17t-11 20.5t-7 18.5v6zM235 739q3 6 21 19l39 28q21 15 40.5 26t25.5 11q31 0 60 -12.5t51 -34t35 -49.5t13 -59q0 -40 -17 -65.5t-45 -40.5t-62.5 -20.5t-70.5 -5.5q-26 0 -43 19t-27.5 46t-15 55.5t-4.5 47.5 v35z" />
<glyph unicode="&#x37e;" horiz-adv-x="562" d="M-166 -189q1 5 7 9.5t8 6.5q46 15 90 25t78 27.5t55 49t21 90.5q0 24 -16.5 40t-36 30.5t-35.5 31.5t-16 43q0 27 9.5 40.5t24.5 20.5t33.5 11.5t36.5 14.5h69q87 0 123 -43.5t36 -136.5q0 -43 -3.5 -83.5t-22.5 -79.5q-14 -23 -41 -51.5t-58.5 -54t-64.5 -43t-60 -17.5 h-123q-11 4 -16.5 4.5t-16.5 0.5l-35 -5q-7 0 -14.5 7t-13.5 17t-11 20.5t-7 18.5v6zM235 739q3 6 21 19l39 28q21 15 40.5 26t25.5 11q31 0 60 -12.5t51 -34t35 -49.5t13 -59q0 -40 -17 -65.5t-45 -40.5t-62.5 -20.5t-70.5 -5.5q-26 0 -43 19t-27.5 46t-15 55.5t-4.5 47.5 v35z" />
<glyph unicode="&#x3c;" horiz-adv-x="1108" d="M468 362l-14 29l-49 36q-11 9 -12 9q-11 0 -17 9t-10 21t-5.5 24t-3.5 17q-9 5 -15.5 8t-12 7t-10 11t-9.5 19l-43 66q-15 4 -32 14.5t-31 25.5t-20.5 33.5t-0.5 38.5q7 23 28.5 40t47.5 30.5t52.5 25t44.5 22.5q7 2 15.5 9.5t17 16t16.5 15.5t14 7q16 13 27 20t20 12 l18 10q9 5 22 15q5 5 9.5 11t6.5 10q3 9 22 22l71 21l87 66q15 0 26 3q6 2 11 4q8 4 13 11t17 11l41 25l24 14q10 5 14 8q15 2 33.5 16.5t36.5 31.5l36 33q17 16 29 19q19 6 29 13t17 14l16 15q8 8 22 16q18 10 37 17l38 15l38 14q19 8 37 19q8 -9 15 -26t0 -38 q-8 -24 -21.5 -37.5t-30.5 -23.5l-37 -20q-20 -10 -40 -28q-10 0 -30.5 -10.5t-43.5 -24.5l-43 -28q-20 -13 -29 -18q-3 -2 -13 -8t-21 -14l-20 -14q-10 -6 -13 -9l-81 -45q-9 -7 -22 -18.5t-26.5 -22t-28 -18t-26.5 -7.5q-6 0 -6 2l-6 -9q-3 -5 -8 -11l-10 -11q-4 -5 -7 -7 q-5 -2 -9 -4q-8 -3 -10 -3q-23 -5 -37 -18.5t-33 -23.5q-32 -20 -54 -31l-40 -21l-39 -21q-21 -11 -51 -30q-5 -17 1.5 -32t17.5 -15q34 -27 59 -55t54 -57q1 -2 7 -7l10 -6q3 0 12 -9l22 -19l22 -19q11 -9 15 -11q4 -20 8 -25t9.5 -5.5t12.5 -2t16 -14.5q2 -7 10 -22.5 t18.5 -31t21.5 -27t20 -11.5q17 -17 36 -33t35 -34q8 -8 13 -15l8 -13q4 -7 9 -12.5t15 -11.5q11 -9 27 -19.5t29.5 -24t20.5 -30.5t0 -39q-5 -14 -19 -33t-33.5 -36.5t-42.5 -30t-44 -12.5q-17 0 -29 14t-24 26q-8 6 -23 8t-28 11l-29 62l-21 10q-9 7 -14 19.5t-11 26 t-14.5 26.5t-24.5 22q-9 4 -19 15t-19 23l-18 22q-7 9 -9 9z" />
<glyph unicode="=" horiz-adv-x="968" d="M79 324q0 5 4 20.5t8 22.5q5 13 12 28.5t17.5 28.5t24.5 22t33 11h50q25 1 46.5 10.5t44.5 9.5l52 -15q14 0 25 3.5t22 3.5q18 0 34 -3l30 -7l29 -7q14 -4 30 -4q27 0 58.5 7t60.5 7l38 -5q9 0 16.5 3t15.5 7t16 7t18 3q23 0 42 -11.5t24 -31.5l-12 -27q-5 -16 -9 -23 t-9 -12.5t-11 -13t-13 -24.5l-3 -17q-23 -21 -54.5 -29t-56.5 -8l-106 9q-70 0 -143 -1.5t-147 -5.5q-34 -2 -68 -8t-65 -6q-19 0 -36.5 17.5t-17.5 38.5zM240 784q6 14 10.5 27t10.5 23.5t16.5 17.5t29.5 10h50q23 1 44.5 10.5t45.5 9.5q8 0 13.5 -2t11 -5t12 -5t15.5 -2 l47 7l123 -22l118 15l39 -6q16 0 31.5 10t32.5 10q23 0 41 -11t25 -32l-24 -81l-12 -28q-23 -21 -54 -28t-57 -7l-106 7h-68q-38 0 -77 -1l-77 -2q-37 -1 -66 -2q-33 -2 -68 -8t-67 -6q-8 0 -17.5 4.5t-18 11.5t-14.5 16.5t-6 19.5z" />
<glyph unicode="&#x3e;" horiz-adv-x="1106" d="M573 370h-34q-3 0 -17 -10l-31 -21q-18 -12 -37.5 -23t-34.5 -15q-17 -9 -32 -22l-30 -27l-28 -25q-13 -12 -27 -19l-24 -7l-72 -66q-16 -7 -33.5 -8.5t-31.5 -10.5l-40 -24q-19 -12 -36 -12q-22 0 -37 12t-23 29t-9.5 36t3.5 33q7 22 24.5 38.5t39.5 29.5t45 23t41 20 q13 6 22.5 12t18.5 13l17 14q9 8 22 16q26 16 55 32l56 32q10 0 29 11.5t39 27t37.5 31t24.5 22.5q18 13 26.5 15t15 3t14 5.5t23.5 23.5q3 4 20 13l37 20l35 18q15 8 16 8q6 1 15 7t10 8l92 56q44 28 95 55q5 0 12.5 4t15 10t13.5 14t9 17q-17 20 -30.5 32t-26.5 22l-27 21 q-15 11 -35 29q-6 5 -9.5 11.5t-7.5 12.5t-9.5 11.5t-14.5 9.5h-3q-3 0 -6 1q-4 1 -7 2q-3 4 -3.5 10.5t-1 12t-3 9.5t-8.5 4q-12 0 -21 8.5t-15.5 19.5t-11.5 22t-9 16l-50 50q-3 0 -8.5 5.5t-11.5 12.5l-11 13q-6 7 -8 9q-6 4 -18 17l-25 28q-14 14 -28 25t-26 11 q-7 19 -19 29l-24 19q-11 10 -16.5 23t2.5 38q7 21 26 38t35 26q10 -11 23.5 -18.5t28 -14.5t28 -14.5t24.5 -17.5q9 -7 13 -15l7 -16q3 -7 9 -13.5t20 -12.5q8 -3 15 -19l15 -33q7 -18 16.5 -32.5t22.5 -16.5l4 -2q3 -2 3 -3q19 -18 28.5 -29.5t14.5 -18.5t7 -10.5t7 -5.5 q5 -1 10 -1q5 -1 10 -1h14q4 -5 9 -14t10 -19t11 -19t12 -15q26 -15 39.5 -25.5t19 -18t6.5 -13t3 -11.5q6 -8 12 -13l14 -9q7 -5 13.5 -11.5t14.5 -19.5q4 0 7 -7.5t6 -16.5t6.5 -17.5t6.5 -10.5q12 -11 31.5 -22t36.5 -24.5t26 -31t2 -40.5q-6 -20 -24.5 -38.5 t-41.5 -33.5t-47 -25.5t-40 -14.5q-9 -2 -22 -12.5t-26 -22.5t-24.5 -21.5t-15.5 -9.5q-12 -12 -21.5 -19t-17.5 -11t-16.5 -7t-20.5 -8q-6 -5 -15.5 -16.5t-21 -23.5t-24 -21.5t-23.5 -9.5q-1 0 -7 -2q-3 -1 -6 -1q-19 -5 -34.5 -11.5t-32.5 -19.5z" />
<glyph unicode="?" horiz-adv-x="735" d="M116 104q0 18 7.5 47.5t21 58t32 49t41.5 20.5q30 0 64 -5t63.5 -19t48.5 -38t19 -61q0 -24 -10.5 -45.5t-25.5 -41t-32 -38t-30 -36.5q-5 -4 -11.5 -4.5t-14.5 -0.5h-24q-26 0 -52.5 7t-48 21t-35 35.5t-13.5 50.5zM199 471q0 15 3.5 22.5t8.5 12.5t12 10.5t14 16.5 q-3 18 -3 36t1.5 36.5t1.5 38.5q0 17 -2.5 32.5t-9.5 29.5v156l3 7l5 17l6 19q3 9 5 14q11 26 26 44t32.5 32.5t37.5 28t41 30.5q20 5 38.5 14t38.5 12q2 0 10 1l16 2q9 1 16 2t9 1q2 1 6 6l10 11q6 6 10 11t5 5q4 0 9 2.5t6 4.5q3 1 13 2.5t21.5 3.5t21.5 3.5t15 1.5 q9 7 15 15l10 14q4 6 10 12t17 12q3 2 12.5 6.5t19.5 10t19.5 10t12.5 6.5q3 3 10 16l15 27q8 15 14 28.5t6 18.5q0 10 -10 22.5t-24.5 23.5t-30.5 18t-28 7q-16 0 -33 -4t-34.5 -9t-35.5 -9t-36 -4q-41 0 -66.5 14t-50.5 43v4q0 39 18 69t47 50t64 30t70 10h15 q72 -13 120 -44.5t77.5 -77.5t41.5 -105t12 -128v-14q0 -5 -1 -15l-2 -18q-1 -9 -2 -16t-2 -8q-4 -12 -12 -21l-17 -18l-16 -18.5t-12 -21.5l-80 -77q-1 -1 -11 -5.5t-13 -6.5l-6 -6q-4 -4 -9 -8.5t-10.5 -8.5t-7.5 -4q-2 -1 -9.5 -1.5t-16 -1.5t-16 -1.5t-8.5 -1.5 q-9 -3 -23 -16l-29 -27q-15 -14 -29 -25t-23 -11h-71q-10 -13 -25.5 -21t-25.5 -22q-34 -48 -45 -100t-18 -106q-5 -17 -13.5 -29.5t-8.5 -26.5q0 -10 8 -23l18 -29q10 -17 18 -36.5t8 -42.5v-16l-25 -14q-8 -5 -22 -5t-38.5 7.5t-48.5 18t-42 23t-18 21.5z" />
<glyph unicode="@" horiz-adv-x="1548" d="M928 408q2 3 5 9l7 13q4 8 7 15t5 10q5 12 5 29q-1 3 -1 6q-1 3 -1 7t-4.5 11.5t-10.5 7.5q-3 0 -4 -1l-3 -3q-4 0 -6.5 -1.5t-4.5 -1.5q-2 -4 -4 -5t-3 -2q0 -2 -4 -5.5t-8.5 -8t-8.5 -8t-6 -4.5l-59 -38q-2 -2 -6.5 -7.5t-10.5 -11.5l-11 -10q-5 -5 -8 -6 q-23 -25 -57 -40.5t-66 -18.5h-30q-14 0 -28.5 0.5t-28.5 3.5q-1 0 -4 2t-4 5q-21 11 -35 32t-22 45q-5 12 -5.5 22.5t-0.5 24.5v21q0 16 5 29t13 26q13 34 28.5 66.5t33.5 61.5l10 18q6 9 11 15q0 2 3 7q2 2 4 5l10 13l15 19l15 18l10 13q4 6 12.5 9t13.5 10l83 71v1 q0 1 1 2l2 2l10 11l17 18l17 19q8 9 10 12q2 2 6 4.5t6 4.5l2 2h5q2 0 5 1q7 2 12 8l11 10q39 31 77.5 48t86.5 26q17 4 33 4.5t33 0.5h8q9 -2 15.5 -7t14.5 -7q4 -1 7 -2t5 -1h22l2 2q8 6 13.5 13.5t12.5 15.5q12 13 26.5 24.5t32.5 11.5h10q16 -14 22 -30.5t6 -36.5 q0 -32 -11 -55t-25 -49q-3 -11 -4.5 -18t-2.5 -15q0 -6 -4 -10l-107 -221q-3 -5 -3.5 -7.5t-0.5 -6.5q0 -11 -1 -16q-8 -17 -15 -34.5t-16 -34.5v-4q-2 -7 -5 -12q-2 -5 -4 -9.5t-3 -5.5l-5 -9q-2 -5 -2 -12q0 -11 2 -19.5t13 -8.5q12 0 19 6l17 12l111 64l6 5q4 2 8 3 l58 50q29 26 52.5 55t40.5 61.5t22 69.5q4 17 5.5 35.5t1.5 36.5q0 14 -3.5 29.5t-5.5 31.5l-40 99q-17 43 -39 75h-2l-69 94q-32 11 -55 28.5t-51 31.5q-32 21 -58.5 36.5t-53.5 19.5q-14 -3 -22 -4t-13 -1h-15q-9 0 -14.5 -0.5t-11.5 -3.5l-37 17q-27 0 -57.5 -4.5 t-51.5 -27.5q-62 -5 -103.5 -17t-73.5 -33.5t-59 -53t-58 -75.5l-26 -26l-36 -57q-7 -6 -9.5 -16.5t-2.5 -21.5l-49 -121q-11 -22 -15.5 -54t-8.5 -55q0 -5 -4 -14l-7 -20q-4 -11 -7 -22t-3 -18q5 -82 24.5 -148.5t46.5 -121.5q8 -11 11 -24.5t7 -28.5t12.5 -29.5 t28.5 -26.5q11 -22 25.5 -46.5t35.5 -40.5q13 -9 23 -20l20 -23l21 -25q11 -14 27 -28q12 -2 27 -6l29 -9q14 -5 25 -9.5t16 -5.5l61 -19l92 2q24 4 43.5 5.5t35.5 1.5q29 0 46 -2.5t23 -2.5q7 0 12 -3t20 -3q13 0 22 2.5t16.5 6.5t16 7.5t22.5 6.5q2 2 21 13l41 24l42 22 q19 10 21 10q31 0 42.5 -8t11.5 -21q0 -16 -14.5 -35.5t-25.5 -30.5q-14 -20 -24 -31.5t-17.5 -17t-13.5 -7t-13 -1.5q-13 0 -23.5 -3.5t-19.5 -8.5q-26 -11 -57.5 -19.5t-70.5 -8.5l3 2q-6 -2 -16 -2h-23h-134h-26q-12 0 -18 2q-29 0 -59 4.5t-60 11.5l-60 15q-30 7 -59 12 q-1 0 -5.5 2.5t-6.5 4.5q-56 43 -119 78l-35 7q-5 1 -22 15l-36 30q-19 16 -34.5 31.5t-17.5 21.5l-78 139q-7 18 -20 56t-25.5 80.5t-21.5 80.5t-9 56q0 11 4 16.5t4 16.5l-8 57q0 23 5.5 56t12 68t13.5 66.5t10 51.5q1 3 3.5 8t6.5 11l6 11q3 5 5 7q10 12 15 24t8.5 24 t7.5 24t12 24q5 9 11 14l11 8q6 4 9.5 10t3.5 17l117 118l84 41q1 2 5 7l8 10l49 16l133 64l258 50h55l50 -22l28 3l67 -22q9 -4 29 -11l40 -16q20 -8 38 -16t25 -14q26 -25 45 -39.5t45 -30.5q9 -6 25.5 -25.5t33.5 -42t30 -43t15 -27.5q2 -13 2 -24.5t1 -22t5.5 -19 t15.5 -15.5q8 -33 15 -71l14 -69l10 -55q4 -23 4 -27q0 -23 -4 -35t-8 -31q-16 -20 -26 -34.5t-10 -23.5q-14 -18 -21 -32l-12 -27q-6 -12 -15 -24.5t-28 -27.5q-35 -29 -59 -47l-44 -32q-20 -14 -43 -28l-57 -32l-66 -55l-6 -7q-3 -2 -11 -8t-10 -7q-8 -8 -18.5 -10.5 t-19.5 -8.5q-16 -10 -29 -22.5t-28 -19.5l-33 -12h-4l-65 12q-2 1 -5 2l-4 2q-2 1 -4 1q-4 3 -10 8t-9 10q-13 19 -13 38v8zM692 493q0 -13 4 -24t17 -16q3 -4 7.5 -7t9.5 -3q26 0 44 10.5t36 29.5q14 11 33 30l39 39l46 45l83 109l41 47l47 93l21 78q0 2 0.5 5t0.5 5 q0 8 -1.5 17t-8.5 14q-4 6 -6 8l-3 3h-3q-3 0 -4 1h-7q-5 0 -5 2h-14l-3 -2q-3 0 -12 -4l-17 -7q-9 -4 -17 -8t-11 -5q-5 -2 -7.5 -4t-4.5 -4q-3 -2 -12 -11l-20 -18l-19 -17q-9 -8 -11 -10l-11 -8h-10l-76 -82q-11 -11 -14 -29q-3 -4 -4 -10t-3 -11q-8 -13 -18 -22t-18 -19 q-5 -5 -12 -19t-9 -16l-64 -114v-7q-2 -14 -3 -29.5t-1 -29.5z" />
<glyph unicode="A" horiz-adv-x="1464" d="M-178 17q0 11 5.5 24t14 24.5t19 20t20.5 11.5q3 1 12 2t20 2t20 2t12 1q28 3 60 14.5t63 27t60 32.5l52 33l8 8l16 16l20 17.5t17 13.5q2 5 8.5 12t8.5 7q12 17 23.5 27t24 18t26 15t30.5 18q12 8 21.5 20.5t17.5 27t15.5 29.5t17.5 27q26 32 48.5 51.5t53.5 40.5 q14 6 20 19t15 22q15 10 30.5 19t30.5 19t29.5 21.5t27.5 27.5q2 2 6 9l8 16l7 15l5 10q5 7 20 14l33 17q17 9 31.5 18.5t17.5 21.5v31q0 3 4 10l10 15l9 15q5 7 6 10q2 3 5.5 6t4.5 3q18 7 27 15t15 18l14 21q8 11 24 24q10 8 21 15l24 15q12 8 22.5 16.5t17.5 18.5 q23 31 49.5 56.5t53.5 48.5l56 47q28 23 55 49l72 75q35 38 65 77q33 19 66 19q29 0 47 -21.5t18 -49.5q0 -29 -8 -55t-20 -51t-25.5 -49t-23.5 -49q0 -1 -3 -11.5t-4 -12.5q-7 -21 -21 -35t-19 -31q0 -2 -1 -8t-2.5 -12.5t-2.5 -12t-1 -6.5q-3 -17 -10 -30.5t-16 -26.5 l-19 -25q-9 -13 -16 -29q-20 -54 -36 -109t-33 -107q-9 -30 -25.5 -63t-24.5 -67q-2 -2 -2 -9q0 -9 1 -15t1 -7q-4 -25 -19.5 -45.5t-28.5 -43.5q0 -1 -2 -7t-2 -10q-3 -3 -7 -19l-9 -35l-7.5 -36t-3.5 -22q-6 -18 -14 -33l-16 -29q-7 -14 -12 -29.5t-5 -35.5q0 -3 1 -5 q0 -2 1 -3q13 -24 33 -38l39 -28q19 -14 32 -33t13 -53q-2 0 -8 -2t-7 -4q-3 0 -10.5 -0.5t-16 -1t-16 -1t-8.5 -0.5q-38 7 -76 9.5t-76 2.5q-42 0 -84 -3.5t-85 -8.5q-9 -2 -13.5 -5.5t-16.5 -3.5t-28.5 2t-31.5 8t-25 17t-10 29q0 30 19 42t44.5 16.5t50.5 6t38 9.5 q20 16 30.5 29.5t16 28t7.5 32t5 41.5q1 10 3.5 15.5t6 9t9.5 7.5t14 12q10 12 18.5 37.5t14.5 53.5t9 54t3 40q0 6 -2 15t-5 17.5t-8 14.5t-11 6h-73q-21 18 -48 18q-9 0 -29 -1.5t-41.5 -3.5t-40 -5.5t-24.5 -7.5l-50 -55q-32 -27 -54 -64l-48 -73q-11 -11 -35 -37 l-49 -56q-25 -29 -44 -57t-19 -42q0 -21 16.5 -29.5t37 -14.5t37 -12.5t16.5 -22.5q0 -9 -3.5 -20t-9 -21t-12.5 -18t-15 -12q-36 -3 -66.5 -9.5t-64.5 -6.5l-102 9q-17 0 -32.5 -8t-35.5 -8q-1 0 -6 2t-10.5 5t-11 5.5t-8.5 3.5q-12 0 -24 -4.5t-23 -9.5t-23 -9.5t-24 -4.5 l-57 6q-13 0 -24 -3t-22 -3q-6 0 -21 4.5t-31 11.5t-28 15t-12 14zM922 747q0 -29 12 -44.5t44 -15.5q29 0 55.5 18.5t46.5 41.5q8 10 10 24l5 27q3 14 7.5 26t16.5 20l21 16q3 5 4.5 15.5t3.5 22t3.5 22.5t4.5 18q4 2 10.5 9.5t8.5 9.5q0 13 -3 16t-9 3q-27 0 -43.5 -8 t-28 -19.5t-21 -23.5t-21.5 -20q-1 -1 -6 -3l-11 -5l-12 -5q-5 -2 -6 -3q-1 -2 -2 -3q-1 -2 -2 -2.5t-1 -1.5l-5 -8q-13 -14 -27.5 -28t-26.5 -29t-20 -32t-8 -38z" />
<glyph unicode="B" horiz-adv-x="1275" d="M186 9q-7 0 -23 2l-36 6q-19 3 -35 6t-22 5q-3 0 -11 1.5t-10 3.5q-4 0 -5 3l-2 4v52q0 3 6 7l14 9l20 11q1 1 6 4l10 6q5 4 10.5 6.5t7.5 2.5l18 4q13 4 29 7l31 6q15 3 21 4q14 9 26 31.5t17 37.5q15 36 26 74l22 76l21 76q11 38 25 74q8 31 23 61t27 60q6 13 9 27 t5 28.5t4.5 29.5t7.5 29q26 73 48 147l44 149q6 19 15 38l17 40q9 20 15 39.5t6 39.5q0 50 -25 73.5t-62 33.5t-79 13.5t-76 14.5q-12 7 -15.5 12.5t-3.5 13.5q0 9 5.5 18.5t13.5 17.5t17 13t16 5h2q6 -2 13.5 -3.5t10.5 -1.5l202 -9h23q11 0 22 2q5 -9 14 -13t19.5 -6 t21 -2.5t18.5 -1.5h83q11 -11 20.5 -12.5t22.5 -1.5q14 0 25.5 7t24.5 7q12 0 34.5 -3.5t45.5 -10t42.5 -15.5t24.5 -21q16 3 30 3q28 0 51.5 -13.5t41.5 -34t31.5 -45t22.5 -47.5q4 -10 8 -16.5t7 -12.5t4.5 -13t1.5 -17q0 -21 -9 -43.5t-21.5 -45t-26.5 -42.5l-26 -35 q-6 -5 -21 -22t-31 -38l-32 -40q-16 -19 -22 -28l-37 -47q-17 -22 -17 -53v-6v-10q0 -5 0.5 -9.5t1.5 -5.5l66 -59q39 -61 57.5 -124.5t18.5 -138.5q0 -14 -7 -22t-7 -25l9 -58l-6 -20q-4 -13 -9.5 -27t-12 -26t-12.5 -16q-1 0 -6.5 -2.5l-12.5 -5.5l-12 -7q-5 -3 -5 -5 q-2 -1 -5.5 -5.5t-6.5 -9.5l-7 -9q-3 -5 -4 -6q-14 -17 -23.5 -24.5t-19.5 -12t-21.5 -9t-27.5 -14.5q-1 -2 -4 -6t-6 -8.5l-5 -7.5l-2 -4q-7 -7 -18.5 -14t-24.5 -12.5l-25 -10.5l-20 -7l-4 -1h-31l-226 -19l-99 7l-41 -7l-78 7q-38 0 -73 -8t-67 -8q-10 0 -15 1t-11 8z M480 183q0 -21 11 -33t27 -17.5t34 -6.5t32 -1h39q3 0 11 5l17 8l15.5 9.5t8.5 4.5l42 2q27 2 40.5 15t30.5 26q18 14 36 24.5t34 23t28.5 29t18.5 41.5q1 7 1.5 17t2 20.5t4.5 20t11 15.5q2 18 7 44.5t5 52.5l-1 5q-2 4 -4 9l-4 9q-2 4 -3 4q-10 27 -21 50.5t-24 44.5 t-28 42l-32 42l-12 15q-21 9 -47 15t-48 6q-7 0 -24 -4.5t-35 -11.5t-32.5 -15.5t-16.5 -15.5q-4 -55 -14 -104l-22 -97q-14 -4 -19.5 -18.5t-7 -32.5t-1 -34.5t-1.5 -24.5l-14 -21q0 -1 -0.5 -8.5t-1.5 -15.5l-2 -16q-1 -7 -1 -8q-2 -7 -7 -23l-12 -33q-6 -18 -12 -34 t-9 -25zM675 851q0 -8 3.5 -18.5t9.5 -19.5t13 -15t14 -6q21 0 47.5 1.5t53 5.5t51.5 11.5t45 19.5q28 18 50.5 58t38 86.5t24 92t8.5 75.5v8l-48 97q-5 6 -13 14t-18 15.5t-19.5 12.5t-15.5 5q-51 0 -76.5 -13.5t-37.5 -36.5t-18 -55t-18 -68q-7 -15 -14.5 -34t-14.5 -39 l-13 -40l-12 -36l-2 -7v-50q0 -11 -6 -18t-13 -13.5t-13 -14t-6 -18.5z" />
<glyph unicode="C" horiz-adv-x="1024" d="M142 313q0 67 12 135.5t32 136t46 132.5t54 126q14 29 35 61t30 61l6 18q7 22 15 44.5t18.5 44.5t24.5 42t33 36q3 1 13 8l21 17l20 16q9 8 10 11q3 1 7 7l9 14l7.5 14.5t4.5 8.5q15 18 34 36.5t40 36.5t42 34t41 29q14 9 28 11.5t31 7.5q1 1 10 6l19 11l20 11q9 5 13 5 q18 0 51 -5t68.5 -14t66.5 -21t43 -26h124q4 0 8 -5t7 -12t4.5 -13t1.5 -9q0 -15 -7 -40t-16 -52l-17 -50q-9 -24 -12 -37q-5 -19 -8 -43t-10.5 -45t-23 -35.5t-46.5 -14.5q-7 0 -14 7.5t-12.5 17t-10 20t-5.5 16.5q-1 1 -4 8.5t-6 17.5l-6 20q-3 11 -4 18v3q0 14 7 27t7 30 q0 10 -3.5 27.5t-9.5 35.5t-14.5 34t-19.5 23h-26l-20 3q-9 2 -20 2q-17 0 -34 -3t-42 -8q-16 -14 -29 -29l-25 -29l-26 -30q-14 -15 -31 -28q-10 -8 -18.5 -23.5t-15.5 -32.5t-13 -33.5t-12 -27.5l-48 -71l-29 -52q-17 -29 -28 -55q0 -2 -2 -8.5t-3 -9.5 q-7 -23 -18.5 -45.5t-24.5 -44.5t-25 -45t-19 -48q0 -2 1 -14t1 -22v-10q0 -4 -2 -6q-1 -9 -5 -17t-9.5 -16t-10.5 -16t-8 -17l-12 -71q-5 -22 -20 -43t-23 -41q-1 -6 -2.5 -19t-3 -27.5t-2.5 -27t-1 -16.5q0 -30 15 -66.5t38 -68.5t51.5 -53.5t54.5 -21.5q8 0 12 1t7.5 3 t8.5 6t16 9l81 40q23 14 51 47l58 68q29 34 57.5 60t51.5 26q9 0 11.5 -6.5t2.5 -14.5q0 -5 -1 -11t-1 -8q0 -21 -8.5 -43.5t-22 -44t-29.5 -41t-32 -32.5l-21 -20l-32 -30l-33 -29q-16 -14 -23 -18l-8 -4q-6 -3 -12 -7l-12 -6q-5 -3 -6 -4l-34 -25q-5 -5 -11.5 -6t-11.5 -1 h-19l-15 -2q-11 -2 -20 -6.5t-18 -10.5q-11 -8 -22.5 -14.5t-36.5 -6.5q-2 0 -6 2.5t-8.5 5t-8.5 5t-5 2.5q-3 0 -15 1t-26 2t-26.5 2.5t-15.5 1.5q-47 11 -72 36.5t-38.5 58t-22 68.5t-23.5 69q0 1 -3.5 4.5l-7.5 7.5l-6 9q-3 4 -3 5q-5 4 -7 19t-2 19z" />
<glyph unicode="D" horiz-adv-x="1448" d="M522 1247l-8 11l-11 19.5t-11.5 19t-8.5 11.5q0 1 -1.5 1.5t-8 1.5t-19.5 1.5t-35 0.5q-4 1 -15 4t-22 7.5t-20 10t-9 11.5q0 13 8 18.5t20 14.5q11 7 20 7l37 -2l4 2l9 6l9 5q5 3 7 3q18 4 45.5 6.5t58.5 4t60 1.5h51q29 0 43.5 -2.5t30.5 -11.5q25 2 48.5 3.5t46.5 1.5 q20 0 40 -1t38 -2q12 -7 25 -9.5t26 -3.5t26 -2.5t25 -5.5l132 -66q1 -1 7.5 -2.5t14 -3.5t14 -3.5t7.5 -2.5q12 -4 19.5 -10.5t13 -15t10.5 -17t12 -16.5q39 -43 71.5 -87t46.5 -103q0 -2 0.5 -8t1 -13.5t1.5 -14t2 -7.5q3 -12 10 -22l12 -20q7 -10 11.5 -20t4.5 -23 q0 -8 -1.5 -20.5t-3.5 -17.5q2 -4 5 -11.5t5 -9.5q4 -17 6.5 -33.5t2.5 -33.5t-2.5 -35t-6.5 -35l1 -5q1 -5 1.5 -11t1.5 -11.5t1 -6.5v-2q0 -24 -7.5 -48.5t-18 -48t-22.5 -46.5t-21 -44l-12 -31q-8 -22 -22 -46.5t-31 -48.5l-36 -47l-34 -41l-72 -85q-36 -43 -85 -73 q-2 -2 -13 -4.5t-13 -2.5l-78 -43q-30 -13 -61 -16t-64 -10l-45 -22q-2 0 -12 -1l-21 -2q-11 -1 -20.5 -2.5t-10.5 -1.5q-63 -7 -129.5 -19t-136.5 -12q-8 0 -27 1t-40 2t-39.5 2t-24.5 1q-17 12 -30.5 14t-30.5 2q-22 0 -42 -4.5t-39 -10t-37 -10t-36 -4.5q-11 0 -25.5 5.5 t-28 14.5t-23 21t-9.5 26v10q0 7 1.5 14t4 12.5t7.5 6.5q48 34 102 42q40 6 66 30t43 57.5t28 70.5l21 70q8 23 18.5 48.5t12.5 50.5q4 13 4 23.5t0.5 20t4 19.5t14.5 22q2 34 10.5 73.5t21.5 71.5q3 16 11 31l17 32q8 16 15 32t9 33q2 22 2.5 46t2 48t5 47.5t11.5 45.5 q8 27 17.5 53.5t18 53.5t14 55.5t5.5 58.5v12zM477 213q1 -1 5 -10l9 -22l11 -26l10 -22q3 -9 14.5 -16t26 -13t30.5 -10.5t28 -7.5q3 0 15 -3q2 -1 4 -1q2 -1 8 -1q18 0 36 8t35 20t32.5 25t30.5 22q2 0 7.5 1t12 2.5t12 3t7.5 1.5q14 10 31 24l34 31l32 31q15 16 26 29 q5 5 6 12t1.5 14.5t2.5 14.5t9 12q17 9 26 17.5t14.5 18t9.5 21t12 26.5q5 6 15 22l22 33l23 33q11 16 17 21q14 41 27 87t18 88q1 8 5 15l9 13q5 7 8.5 13.5t3.5 13.5q4 30 7 59t3 55q0 25 -3 47t-7 42q-2 5 -5.5 15.5t-8.5 23.5l-10 29l-8 22q-1 1 -3 11q-1 4 -2 9v38 q-2 3 -14 23l-24 44l-25 43q-11 19 -13 20q-17 30 -38.5 49.5t-44.5 35.5q-16 12 -29 12h-35q-11 3 -24 8l-27 12q-13 6 -27 10.5t-26 4.5q-18 0 -25.5 -6.5t-10 -16t-3 -21.5t-4.5 -22q0 -4 -4.5 -14t-5.5 -12q-1 -3 -3 -13l-5 -22q-2 -12 -3.5 -22.5t-1.5 -13.5 q-1 -2 -1 -12q0 -7 0.5 -16.5t0.5 -11.5q-2 -2 -4 -11.5t-2 -14.5q-1 -1 -4 -8l-7 -14q-3 -7 -5.5 -14t-2.5 -9v-62q0 -1 -3 -5l-7 -9l-8 -9q-3 -4 -3 -5q-1 -2 -2 -4.5t-2 -4.5q-2 -3 -3 -6q-20 -84 -43.5 -163.5t-41.5 -163.5l-26 -64q-3 -13 -4 -25t-1.5 -24t-2 -24 t-6.5 -24q-10 -30 -19 -52t-16.5 -43t-13 -44.5t-8.5 -57.5q-2 -20 -11.5 -35.5t-9.5 -33.5v-21z" />
<glyph unicode="E" horiz-adv-x="1369" d="M-2 59q0 27 16.5 40t39.5 18t47.5 6.5t40.5 6.5q4 0 14 4l22 10l22 10l15 7q9 11 10 23t3 25q1 5 5 19l10 32l13 40l13 39q7 19 11.5 33t6.5 19q7 29 20 60t22 71l17 80q9 41 24 76q14 27 31 49.5t28 54.5q0 1 0.5 6t1.5 11l2 13q1 7 1 10q8 49 24 103.5t32 103.5 q6 21 13 41l15 39q8 20 14.5 39.5t9.5 40.5q2 13 8.5 25.5t6.5 25.5q0 8 -0.5 15.5t-4.5 14.5q-36 30 -82.5 42.5t-99.5 12.5q-8 7 -10 12.5t-2 17.5q0 10 6 16t16 9.5t21.5 4.5t22.5 1q14 0 24.5 -1t16.5 -3q53 -5 104 -7.5t102 -2.5q50 0 99 2.5t97 7.5q10 7 17.5 11 t14 6.5t13.5 3t17 0.5l147 -16q30 0 55 5.5t52 5.5l47 -16l40 5h36q15 0 25.5 -1.5t18 -6t13.5 -13.5t12 -24q2 -5 5.5 -12t6.5 -15q4 -9 7 -18v-141q-2 -2 -3 -4t-2 -3.5t-1 -3.5q-10 -6 -15 -11.5t-17 -5.5q-22 0 -32.5 14t-15.5 32t-8.5 35t-10.5 23l-10 10l-15 16 l-16 16q-7 8 -11 10q-26 1 -51.5 10.5t-45.5 32.5l-201 -9l-95 19q-11 0 -28 -7t-22 -19v-27q-1 -2 -4 -10l-5 -18q-3 -10 -6 -18.5t-4 -10.5t-2.5 -13.5t-3.5 -25t-3.5 -26.5t-2.5 -17q0 -1 -3 -7.5t-7 -14t-7 -14t-4 -7.5v-43q-3 -29 -12.5 -55t-20 -52t-18.5 -52t-8 -54 v-17q1 -3 6.5 -9.5t12 -13.5t12.5 -12.5t9 -6.5h56q35 0 63.5 0.5t62.5 4.5q4 1 11.5 6.5t14.5 11.5l12 12q6 5 7 7q19 16 30.5 39.5t24.5 45t31.5 36.5t50.5 15q14 0 25 -10t11 -28v-14q-10 -38 -27 -74l-32 -73q-15 -36 -26.5 -73.5t-11.5 -78.5v-47q-13 -22 -26.5 -37.5 t-40.5 -15.5q-3 1 -11 2t-16 2.5t-16 2.5t-11 1q-18 13 -25 31t-10 37t-5 38.5t-9 34.5t-22.5 24.5t-44.5 9.5l-106 -7l-4 1q-4 1 -9 2l-10 2q-5 1 -8 2q-18 0 -28 -16.5t-19 -38.5t-19.5 -43.5t-28.5 -31.5q0 -3 -0.5 -9.5t-1.5 -13.5t-1.5 -13.5t-1.5 -8.5q0 -4 -8.5 -11 t-10.5 -11q0 -2 1 -10t1 -16q0 -9 -2 -10q-3 -26 -14 -51t-17 -48q-4 -14 -12 -38l-16 -49q-9 -25 -15 -48t-6 -35q21 -24 42.5 -43.5t44.5 -34t50.5 -22t60.5 -7.5l288 35h25q11 3 16.5 9t9 13t6 15t7.5 15q9 12 20 22.5t22 19.5l23 18q11 9 20 19q4 4 13 14l19 21l21 22 q10 11 16 16q3 15 12 30.5t21.5 28t28 21.5t32.5 12q6 0 11 -4.5t8.5 -10.5t5.5 -11.5t3 -6.5q-3 -32 -10.5 -70.5t-24.5 -68.5q-1 -2 -6 -9l-9 -14l-10 -14q-4 -6 -4 -9q-14 -20 -18 -44t-12 -46q-9 -31 -24.5 -50.5t-35.5 -30.5t-44.5 -15t-52.5 -5l-40 2q-60 4 -119 7 t-122 3q-36 0 -72 -8.5t-71 -8.5l-71 9q-14 0 -27 -2l-26 -4q-12 -2 -26 -4t-30 -2h-164q-6 -2 -20 -3.5t-29.5 -3.5t-29.5 -3t-20 -1q-8 -4 -19.5 -8.5t-35.5 -4.5q-20 3 -39.5 7t-34.5 12.5t-24.5 23t-9.5 38.5z" />
<glyph unicode="F" horiz-adv-x="1163" d="M21 19q3 31 22 46t44.5 24t53 16.5t45.5 24.5q4 1 9.5 12.5t7.5 13.5q1 2 6 6.5t11 9t11 9t6 6.5q29 118 67 234.5t65 234.5q0 1 1.5 6.5t3.5 7.5q1 2 5 9l10 16l11 16t5 9q1 3 3 8.5t3 11l2 10.5l1 4l6 26l10 35q5 17 10.5 32t8.5 20q3 12 8 30l12 39q6 20 10 41t4 39 q3 4 9.5 15t12.5 23.5t11 24t7 16.5q0 2 1 8l2 13q1 6 2.5 11t3.5 6q8 27 19.5 55t11.5 58q0 26 -15.5 39t-39 18.5t-50.5 8t-50.5 8t-39 17.5t-15.5 37q21 27 44.5 36.5t56.5 9.5q11 0 22.5 -3.5t25.5 -3.5h2q3 1 10.5 2.5t16.5 2.5t16 1.5t9 0.5q29 0 51 -5t42 -12h280 q30 -3 60 -8l60 -10q31 -5 61.5 -9t61.5 -4h36l16 10h36q39 0 65.5 -5.5t42.5 -20.5t23 -42.5t7 -71.5q0 -6 -2.5 -15.5t-7.5 -18.5t-12 -16t-16 -7q-25 0 -40.5 17.5t-28.5 40t-28 42.5t-39 25h-115q-2 0 -11 3t-11 5h-132q-27 0 -46.5 9.5t-43.5 9.5t-42 -11.5t-31 -29 t-21.5 -38t-14.5 -38.5q0 -3 -0.5 -9.5t-1.5 -14t-1.5 -14.5t-1.5 -11v-26l-4 -4q-3 -3 -7.5 -7t-8 -7.5t-4.5 -3.5q-7 -11 -8 -24t-6 -26q-9 -16 -18.5 -31t-14.5 -33q0 -7 -4 -20l-7 -25q-3 -13 -6 -22.5t-3 -10.5q-2 -2 -6.5 -9t-4.5 -9v-17q0 -30 14.5 -50t36.5 -32 t48.5 -17t51.5 -5q11 0 21.5 9.5t14.5 13.5q22 11 47.5 22.5t39.5 29.5q11 14 24 38l27 47q14 24 30 41t33 17q11 0 20 -6t9 -20q0 -32 -6 -61.5t-27 -55.5q-2 -6 -6 -20l-8 -29l-7 -29l-5 -17q-3 -20 -4.5 -57t-7.5 -74.5t-20.5 -65t-43.5 -27.5q-30 0 -39.5 16.5 t-11.5 37.5l-6 43q-2 21 -17 31q-3 3 -15.5 8t-17.5 6q-2 0 -8.5 0.5t-14 1.5t-14 2t-8.5 1l-28 25q-11 11 -28.5 14t-33.5 3h-24q-42 0 -65.5 -25t-35.5 -61.5t-15.5 -77t-4.5 -71.5q-17 -24 -30.5 -54t-24.5 -62t-20 -63.5t-15 -57.5q-1 -1 -3 -5l-6 -8q-3 -4 -5 -8t-2 -5 q0 -17 6.5 -35.5t17.5 -33.5t25.5 -25t31.5 -10l70 9q22 0 43.5 -13.5t21.5 -40.5q0 -14 -0.5 -25t-3.5 -20t-10 -16.5t-20 -14.5q-3 -3 -9 -6l-13 -8q-7 -4 -13 -6.5t-8 -2.5h-106q-12 7 -19 11.5t-13.5 7t-14 3.5t-19.5 1l-88 -7l-26 -16h-157q-1 0 -8.5 0.5t-17.5 2.5 l-20 2q-10 2 -15 4q-5 1 -12.5 1.5t-15.5 2t-14.5 5t-9.5 10.5z" />
<glyph unicode="G" horiz-adv-x="1409" d="M390 90q-6 4 -21 18l-32 31l-31 31l-21 20q-9 10 -13.5 20.5t-7 21t-4.5 22t-8 23.5q-29 74 -42.5 152t-13.5 157v43q0 24 1.5 48.5t3.5 47.5t7 41q7 23 18 44l23 41l24 41q12 20 22 42q14 43 29.5 86t43.5 85q1 3 8 13l16 20l15 19q8 9 9 11q11 16 21 26t20.5 18 t21.5 17.5t24 24.5l10 18q10 13 19.5 20.5t18.5 13.5l20 12q10 6 22 16l11 11l19 18l18 18q9 8 10 10q2 0 6 3.5t6 5.5l52 8q2 2 10 9t9 7q14 7 24 10t19.5 4.5t20 2t25.5 2.5q2 1 13 4.5t24 7t24.5 7t15.5 3.5h51h24q18 0 37 -1t36 -2.5t25 -4.5q3 -1 12 -7l19 -12l20 -14 q9 -6 10 -9q29 -17 70 -21.5t75 -4.5q14 0 24.5 8t22.5 8q6 0 14.5 -7t16.5 -16.5t13.5 -19.5t5.5 -16v-2q-5 -18 -12 -31t-7 -33t5.5 -36.5t5.5 -30.5v-12q-1 -3 -5 -13l-9 -22l-8 -23q-4 -10 -4 -13q-4 -16 -4 -30.5t-2.5 -25.5t-11.5 -17.5t-31 -6.5q-38 0 -56.5 17.5 t-28 44t-14 57.5t-13.5 58q-11 29 -37 54t-58.5 44t-67.5 29.5t-64 10.5h-10l-23 -14h-64q-14 -1 -33 -14t-39 -29l-39 -34q-18 -16 -31 -25q-1 -1 -11 -7l-20 -15l-21 -15q-10 -8 -12 -11q-5 -5 -9 -10.5t-4 -12.5t1 -10l-10 -18l-15 -27l-13 -27l-8 -16l-27 -53l-38 -80 q-19 -42 -33.5 -80t-14.5 -54q-13 -45 -24 -90.5t-16 -92.5q-11 -20 -14 -41.5t-3 -43.5v-66l-7 -105l31 -83q0 -8 -3.5 -15t-3.5 -18q0 -2 11 -13l27 -29l36 -36l36 -35l29 -28q12 -12 14 -13q11 -7 25.5 -9t31.5 -2h86q9 0 31 7t45.5 16.5t43 19.5t22.5 16l15 25l22 38 l22 37l14 25q2 2 4.5 6t2.5 6v38q3 12 10 27l15 32q7 16 12.5 33t5.5 31q0 12 -4.5 28.5t-12.5 32t-18 28t-22 16.5q-12 6 -25 9.5t-23 8.5t-16.5 15t-6.5 28q0 10 8 20t18.5 18.5t21.5 14.5t16 9q22 0 31 -4t22 -6h59q18 -2 34 -8t32 -6q26 0 49.5 7t45.5 7q11 0 34 1t49 1 q28 0 51 -1t32 -1q2 2 6.5 3.5t5.5 1.5q5 0 12.5 -4t14.5 -10t12 -12.5t5 -11.5q0 -4 -0.5 -6.5t-5.5 -7.5q-2 -1 -12 -7l-23 -14l-22 -15t-12 -9q-5 -3 -17 -13l-24 -21l-24 -22l-14 -15q-6 -8 -14 -30.5t-15.5 -48t-12.5 -49t-5 -34.5l9 -71q0 -21 -9.5 -44t-24.5 -45 t-32.5 -40.5t-32.5 -31.5q-68 -25 -134 -53l-134 -56q-38 -2 -72 -7t-70 -5q-20 0 -37.5 3t-34 6.5t-32.5 7.5t-34 7q-3 0 -13.5 1t-23 2.5t-23 3.5t-13.5 3q-18 1 -34 8.5t-32 17t-31.5 20.5t-32.5 20z" />
<glyph unicode="H" horiz-adv-x="1775" d="M-51 10q0 30 16.5 44t40 20t49.5 8.5t45 10.5q13 4 21 20t13.5 35.5t9.5 38.5t9 29q1 1 5.5 7.5t10.5 13.5l10 12q5 6 7 7q7 10 13.5 25.5t11.5 32.5l10 32q4 16 8 28q1 2 4.5 8.5t8.5 14.5l10 15q4 7 7 10l14 35v38q1 2 4.5 8t7 13t7 13t5.5 7q18 51 32 105l27 108 q9 47 26.5 92.5t28.5 92.5q3 2 8.5 13.5t7.5 17.5q14 33 19.5 64.5t16.5 63.5q7 19 20 36l24 33q12 16 21 32.5t9 35.5q0 12 -8.5 22.5t-15.5 17.5q-2 1 -12 9l-25 21l-49 39v19q0 23 19.5 34t44.5 11q15 0 30 -3t29 -7q30 -9 58 -9h249q3 0 14 -1l22 -2l22 -2q10 -1 15 -2 q6 -3 10.5 -11.5t7.5 -17.5t4.5 -17.5t1.5 -12.5q-4 -11 -12 -18.5t-19 -12.5l-102 -7q-14 -3 -26.5 -11.5t-23.5 -19.5t-20 -22l-15 -18q-2 -2 -7 -11t-5 -11t-0.5 -9t-1.5 -16t-1.5 -17.5t-1.5 -11.5l-5 -5l-8 -7l-8 -7q-4 -3 -5 -3q-13 -17 -14 -40t-5 -42 q-3 -14 -6 -20.5t-6.5 -10.5t-8.5 -9t-12 -17q-7 -10 -17.5 -36t-20 -55.5t-16 -56.5t-6.5 -40l1 -35q17 -13 32 -16t36 -3l78 7l55 -5l80 14h27q5 -12 22 -14t29 -2q19 0 35.5 6t31.5 13.5t29.5 14t31.5 6.5q66 0 130 -10.5t127 -10.5q24 0 41 14.5t29.5 35.5t22 44 t18.5 41q1 1 5 6l8 11l7.5 11.5t3.5 7.5q3 3 3.5 5.5t0.5 6.5q0 10 -2 20.5t-2 12.5q8 29 18 54t15 52v40l16 17q13 26 18.5 59.5t5.5 63.5q0 24 -14 34.5t-35 14t-45.5 3.5t-45.5 4.5t-35 17t-14 40.5q0 7 7 14.5t17.5 14t22 10.5t19.5 4h2q1 0 7 -1t13.5 -2.5t15 -3.5 t12.5 -3q3 0 9.5 -2t13 -5t12.5 -5t8 -2q3 0 12 2.5t11 2.5h19l50 -5h12l50 5l35 -5h149q4 0 14 -1l21 -2q10 -1 19 -2t12 -2q8 -2 19.5 -13t11.5 -20q0 -10 -12.5 -19t-32 -18t-41.5 -18t-41.5 -19.5t-32 -22t-12.5 -24.5q0 -2 0.5 -4t3.5 -5q-3 -2 -9.5 -9.5t-12.5 -16.5 l-11 -17q-6 -7 -7 -10l-5 -33q-3 -5 -8 -8l-11 -6q-6 -3 -10 -7.5t-4 -13.5q1 -3 2 -7q1 -3 1.5 -7t1.5 -8q0 -14 -8 -21.5t-13 -20.5q-4 -15 -5 -25.5t-3.5 -19.5t-9 -17.5t-21.5 -18.5q-3 -29 -9.5 -49.5t-14.5 -38.5t-17 -36t-18 -42q0 -2 -0.5 -7t-1.5 -11t-2 -11t-1 -7 q-2 -28 -7.5 -59.5t-13.5 -60.5q-2 -4 -3 -6.5t-1 -5.5q-11 -30 -27.5 -55t-27.5 -57l-7 -40l-9 -48q-5 -24 -10.5 -46t-11.5 -34l-43 -92l-7 -52l-21 -41q0 -23 12.5 -36.5t29.5 -13.5q14 0 23.5 6t22.5 6q7 0 19 -2t23 -7t19.5 -12.5t8.5 -18.5q0 -19 -12.5 -29t-30 -14.5 t-37 -5.5t-33.5 -1l-95 7l-258 -16h-88q-11 5 -19.5 12t-8.5 16q0 16 8 27t20 18.5t25 13.5t23 12h82q1 0 5.5 3.5t6.5 4.5q1 1 6 4l10 9l13 10l9 9l46 99q23 48 40 98q24 63 44.5 125t52.5 122q0 16 -11 29t-27 23t-32.5 15.5t-27.5 5.5q-8 -2 -29 -5l-45 -6l-46 -7 q-22 -4 -31 -5q-4 -5 -10.5 -6t-15.5 -1q-18 0 -38.5 8t-42.5 8q-6 -2 -20.5 -5t-29.5 -7t-28 -6.5t-17 -2.5q-3 0 -17 2.5t-30.5 6.5t-30.5 7t-17 5h-82q-12 -2 -36.5 -3t-50.5 -3.5t-49 -7t-32 -12.5l-8 -14q-7 -25 -23.5 -44t-26.5 -39q-8 -20 -14 -42t-13 -43.5 t-16.5 -42.5t-22.5 -40l-28 -147q-5 -4 -9 -12t-7 -17.5t-4.5 -19t-1.5 -16.5q0 -22 13 -33.5t33 -17.5t43 -9t43 -9.5t33 -18.5t13 -35q0 -18 -7.5 -27.5t-19.5 -14.5t-26.5 -6t-27.5 -1q-23 0 -39 8t-36 13h-114l-31 -10l-151 -16q-20 -2 -34.5 -9.5t-32.5 -7.5 q-14 0 -30.5 2t-30 7.5t-22.5 16t-9 27.5z" />
<glyph unicode="I" horiz-adv-x="811" d="M294 490q1 1 3 2l3 1l3 2q20 16 32.5 40t17.5 51v42q2 14 8.5 29.5t15.5 30.5l16 29q7 15 12 27q8 23 11 39t3 30v59q0 14 6 29.5t15 30.5l17 31q9 15 14 27q0 1 1 8t2 15t1.5 15t0.5 8q10 26 22 48.5t22 45t16.5 46t6.5 51.5q0 23 -11.5 35t-28 17.5t-36.5 7.5t-36.5 6 t-28 11.5t-11.5 24.5q0 18 19 25.5t40 7.5l149 -9l103 9h42q7 -5 10 -5.5t11 -0.5q14 0 26.5 7t23.5 14q7 0 16.5 3.5t11.5 3.5h103q5 -4 5.5 -7.5t0.5 -8.5q0 -15 -20.5 -24.5t-47 -16.5t-52.5 -12.5t-36 -10.5q-12 -6 -23.5 -32.5t-21.5 -58t-16.5 -59.5t-7.5 -38 q-2 -3 -9 -14.5t-7 -13.5l-3 -9l-4 -11l-4 -10l-1 -4q-1 -5 -2 -17t-2 -26l-1 -27v-19q-7 -5 -17.5 -19.5t-21 -32.5t-18.5 -35t-9 -25v-62q-3 -17 -11 -28l-17 -22q-8 -12 -14 -26t-6 -37q0 -6 4 -13.5t4 -19.5l-19 -31q-15 -29 -19 -62t-15 -62l-31 -73q-3 -2 -5 -9 t-2 -12l7 -22q0 -33 -10.5 -62.5t-22.5 -58.5t-22.5 -58.5t-10.5 -61.5q0 -23 13.5 -37.5t33 -24.5t41 -16t38.5 -10q11 -5 13.5 -11.5t2.5 -19.5q0 -12 -5 -17.5t-16 -13.5l-4 -2l-38 -2q-18 0 -35 3t-39 8q-21 5 -40 8.5t-41 3.5q-1 0 -3 -0.5t-7.5 -3t-15.5 -6.5t-26 -11 q-17 -5 -32 -6t-29 -1h-66q-35 -4 -67 -10.5t-66 -6.5h-34q-9 4 -18.5 6t-17.5 5t-13 9.5t-5 20.5q0 16 11.5 25t29.5 14.5t39.5 9t42 8t36.5 11.5t23 19q13 23 14.5 42t5.5 44q0 2 3 6.5t4 5.5l9 9l14 14l14 14q7 7 8 10q4 4 6.5 12.5t3.5 17.5t1.5 16.5t0.5 10.5 q5 12 17 29.5t15 31.5q15 31 24.5 64t9.5 78z" />
<glyph unicode="J" horiz-adv-x="1098" d="M14 -407q0 18 4.5 35.5t13.5 31.5t23.5 23t34.5 9q16 0 28 -7t27 -9q1 0 7 -1l13 -2l11.5 -2t7.5 -1q12 -5 16.5 -14.5t12 -19.5t22.5 -17t49 -7q15 0 34 12.5t38.5 32.5t37.5 45t32 50t22.5 47.5t8.5 37.5q0 17 -8 26.5t-8 22.5q20 17 37 33q14 14 26.5 29t16.5 26 q1 2 2 12l2 21l2 21q1 10 1 12q11 48 21 99.5t24 102.5q3 10 9 18l11 15q6 7 10 15.5t4 19.5q0 5 -3 9l-8 9q-4 4 -7.5 9.5t-3.5 13.5l43 97q0 19 -16 32.5t-37.5 21t-43.5 11t-34 3.5h-42q-7 -5 -17 -13t-21 -8t-25.5 4.5t-28 12t-23 18.5t-9.5 24t20.5 24.5t51.5 22.5 t69 21l71 18l61 17q27 7 36 14q14 9 16 15t2 13q0 5 0.5 9.5t5.5 9.5q7 7 17 16l20 19q10 9 18 20t11 23q4 12 10.5 29t12.5 34.5t11 35t6 31.5l66 129q4 12 4.5 31t0.5 33v23q-11 17 -33.5 25t-40.5 8q-17 0 -28.5 -4.5t-27.5 -4.5q-19 16 -34 26.5t-30.5 16.5t-33.5 8.5 t-42 2.5l-57 -7q-3 0 -13 3.5t-11 3.5h-5q-7 0 -16 -3.5t-18 -7.5l-19 -9q-9 -4 -15 -6q-27 -11 -47 -14t-33.5 -10t-20.5 -24.5t-10 -57.5q0 -2 -0.5 -13.5t-0.5 -19.5q0 -13 0.5 -23t1.5 -20.5t3.5 -23.5t7.5 -31q3 -2 7 -6l6 -6q2 0 9.5 -8.5t9.5 -9.5l8 -20 q5 -13 16 -23l22 -20q11 -10 19.5 -21.5t8.5 -27.5q0 -5 -1.5 -9.5t-12.5 -9.5h-22q-21 0 -41 14.5t-38.5 37t-34 51t-27 57.5t-18 54.5t-6.5 43.5q0 86 35 152t100 123q3 2 14 7l12 6l42 16q18 7 36 12.5t38 9.5l47 9q22 -8 53 -8q10 0 21 0.5t19 2.5q1 -4 11.5 -12 t12.5 -10l37 6q22 0 47.5 -7t52.5 -16t53.5 -16t50.5 -7h8q6 0 6 1q3 1 12 5t20 10l21 10l14 8q4 20 16 39.5t29 34.5t37.5 24.5t40.5 9.5q23 0 38 -5l38 -13q10 -5 16 -14.5t8.5 -20.5t3 -22.5t0.5 -20.5q0 -49 -20.5 -82.5t-59.5 -65.5q-2 -2 -6 -4.5t-6 -2.5t-11 -0.5 t-19 -1.5t-19 -2.5t-11 -2.5q-1 0 -8 -5l-16 -12l-19 -15l-16 -13l-12 -12v-33q0 -2 -5.5 -7t-5.5 -9q-14 -21 -21.5 -43t-12.5 -45t-9 -48t-12 -52q-3 -20 -10 -40l-12 -41q-7 -21 -11.5 -42t-4.5 -43q0 -5 4.5 -10t11 -9t13 -6.5t9.5 -2.5h121q6 0 13 -5t13 -12t10 -15.5 t4 -15.5q0 -29 -30 -51q-5 -2 -17 -8l-28 -13l-27 -14l-19 -10q-21 -11 -47.5 -13t-44.5 -2q-1 -2 -6 -6l-10 -8l-9.5 -9.5t-5.5 -7.5q-4 -5 -6.5 -11t-2.5 -10l4 -30q-4 -1 -9 -10q-3 -4 -5 -10q-16 -41 -26 -84t-26 -86q-11 -22 -18 -46.5t-15 -45.5l-3 -5q-2 -5 -6 -10 l-8 -10q-3 -5 -5 -6q0 -1 -1 -3l-2 -4q-2 -3 -3 -6q0 -4 -2.5 -17t-5.5 -27t-6.5 -26.5t-4.5 -16.5q-3 -10 -9 -19l-10 -18q-5 -9 -9 -18t-4 -19v-8q0 -3 1 -8l-41 -83q-32 -78 -72.5 -139.5t-95.5 -123.5q-13 -13 -24 -32t-31 -32q-5 -5 -17 -14l-25 -18 q-12 -9 -23.5 -16.5t-14.5 -8.5q-2 -2 -11.5 -4.5t-10.5 -2.5q-3 -2 -12.5 -6t-13.5 -6l-44 -2q-13 0 -29 -1t-36 -1q-29 0 -53.5 4.5t-38.5 18.5q-6 5 -15 17t-17 25.5t-14 25.5t-6 18z" />
<glyph unicode="K" horiz-adv-x="1370" d="M1266 -439q-20 17 -32 32l-24 30q-11 14 -23.5 27t-32.5 26l-87 135q-14 10 -27.5 27t-26 35.5t-23.5 38.5l-18 34q-6 10 -19 37l-28 58l-29 62l-23 49q-1 5 -3 7.5t-3 4.5q-8 8 -17 20t-18 32q0 25 -8 45.5t-16 46.5q-4 14 -18 26.5t-20 23.5q-8 12 -10.5 24.5t-3.5 25 t-3 24.5t-9 23q-5 9 -8.5 12.5t-6.5 5.5t-6.5 5t-6.5 12q0 2 -1 6t-2 9q0 2 -1 4t-1 5l-12 56q-7 32 -18.5 60.5t-27.5 48.5t-37 20q-14 0 -20.5 -5t-9.5 -12.5t-5 -17.5t-7 -19l-34 -31q-8 -12 -11.5 -31t-5 -39t-2.5 -40t-4 -35q-5 -15 -14.5 -28t-20 -25.5t-19.5 -26.5 t-12 -31q-4 -9 -5.5 -25t-2 -33.5t-1.5 -34t-4 -26.5q-5 -14 -12 -23l-14 -17q-7 -8 -11.5 -18.5t-4.5 -28.5q0 -15 9.5 -26.5t23.5 -19t30 -11t30 -3.5l49 12q12 0 29.5 -6.5t33 -17t26.5 -23.5t11 -26q0 -11 -11.5 -19t-26.5 -13.5t-30.5 -8t-22.5 -2.5l-65 7 q-20 2 -38.5 3.5t-38.5 1.5q-30 0 -56.5 -1.5t-49.5 -3.5q-2 0 -9.5 -2.5t-9.5 -4.5q-11 -1 -37.5 -4t-56.5 -7l-57 -7q-27 -4 -37 -5l-37 -5q-12 0 -31.5 2.5t-38 10t-31.5 19.5t-13 32q0 14 22.5 26.5t52 23.5t58 20t40.5 15q2 3 9.5 10t16.5 14.5t17.5 13.5t13.5 9 q15 12 25 32t18 42.5t14.5 44.5t15.5 38q0 4 5 9l10 35q7 21 14.5 41t14.5 36t11 21q2 1 7.5 6l11.5 11l10 11q4 5 4 7q2 1 2 12t-1 23.5t-1 14.5q1 3 5 9l9 12l8 12q3 5 4 7l5 48q11 30 26.5 55t27.5 52q1 3 4 14t3 16q4 26 12 54t18 56l20 57q9 28 15 54l13 68q4 17 13 32 l17 30q8 15 14.5 31t6.5 36q0 24 -9.5 36t-24 17.5t-31 8.5t-31 8.5t-24 16.5t-9.5 34q0 17 12 26.5t28.5 14t34.5 5.5t30 1l85 -14q30 0 59 4t57.5 8.5t56.5 8.5t57 4q25 0 47 -13.5t22 -40.5q0 -19 -11.5 -27t-27 -11t-32.5 -4.5t-29 -6.5q-6 -5 -8.5 -10.5t-4 -11.5 t-3.5 -12.5t-7 -11.5q-9 -11 -15 -17l-12 -10q-5 -4 -8 -9.5t-6 -15.5q0 -2 -0.5 -9.5t-1.5 -16t-2 -16t-1 -8.5q0 -5 -9 -15.5t-9 -12.5q-6 -9 -8.5 -16.5t-3.5 -15.5t-1 -18.5t-2 -23.5q-3 -14 -11 -22t-17 -22q-20 -40 -35 -78.5t-15 -83.5q0 -8 5 -16.5t14 -8.5 q1 -1 3 0q4 0 4 4l21 11l32 16l31 16l21 11q4 3 11 10t16 14.5t19 13t20 5.5l63 71h20l78 81q0 7 3 14t7 9l75 22q8 5 24 28t32.5 51t28.5 55.5t12 42.5l-40 38q-2 2 -8.5 12.5t-8.5 14.5q2 4 7.5 11t11.5 13l12 12l7 8q6 5 12.5 5.5t14.5 0.5h52l38 -12q1 0 6.5 1.5t12 4 t12.5 4.5t7 2q10 0 21 -3t12 -3l104 15q13 0 20 -4.5t16 -4.5h2q4 1 13.5 4.5t19 8.5t17 9.5t9.5 7.5q7 -5 15.5 -6t19.5 -1h20q16 0 29 -3.5t13 -20.5q0 -9 -12.5 -20.5t-29 -22t-33 -18.5t-25.5 -9h-33q-29 -2 -42.5 -7t-21 -13t-15 -19.5t-25.5 -27.5q-12 -9 -24 -12.5 t-24 -6.5t-24.5 -7.5t-26.5 -16.5l-102 -104q-11 -8 -19 -13l-17 -9q-9 -5 -19.5 -12t-25.5 -20q-4 -2 -5 -9t-6 -17q-4 -6 -11 -9.5l-15 -7.5l-15 -7q-8 -3 -12 -7q-2 0 -6 -4l-8 -9q-5 -4 -9 -8.5t-5 -5.5q-5 -4 -14.5 -7.5t-20 -7t-21 -8t-16.5 -10.5l-70 -69 q-45 -15 -62 -38t-17 -70q0 -8 11 -28.5t26 -43.5l28 -43l20 -28l20 -115q14 -16 29 -36t27 -42.5t19.5 -45.5t7.5 -45q4 -8 10.5 -18t14.5 -20l14 -19q6 -8 10 -12q0 -1 2 -7.5t4 -14t3.5 -14.5t2.5 -8q4 -11 16 -29l24 -37l26 -37l19 -28q11 -14 19 -31t16 -36l15 -39 q8 -21 19 -43q8 -9 13 -20t9 -22.5t8.5 -22.5t10.5 -21q15 -20 33 -39l35 -36l33.5 -37t28.5 -41q0 -6 7 -6q1 -2 7 -5.5l13 -7.5l13 -6q6 -3 7 -4q9 -4 9 -16.5t3 -21.5q4 -11 23 -20.5t42.5 -17.5t45 -12.5t29.5 -4.5q36 0 56 22t20 56v24q0 11 -1.5 20t-4.5 19.5t-8 24.5 q0 1 -7 9.5t-8 10.5q0 15 2 32t7.5 31t15 23.5t25.5 9.5q52 0 85 -13.5t51.5 -38.5t25 -61t6.5 -81q-23 -64 -48.5 -101.5t-60 -57t-82 -25.5t-114.5 -6q-22 0 -41.5 0.5t-38 3.5t-36 10t-36.5 20q-14 8 -28.5 19.5t-30.5 23t-32 20.5t-32 12z" />
<glyph unicode="L" horiz-adv-x="1332" d="M532 1190q0 33 -3.5 52t-10.5 29t-16 13t-19 3l-31 -2q-14 0 -28.5 4.5t-28.5 21.5q-2 2 -8 15l-11 23l3 3q2 4 4 4q8 8 19 16l14 10l72 5q53 -2 102.5 -3.5t101.5 -1.5q51 0 102.5 1.5t103.5 3.5q12 -8 26 -8l33 2q9 0 15 -6t6 -26q0 -2 -0.5 -5t-0.5 -6q-1 -4 -1 -8 l-11 -6l-25 -13l-28 -15q-14 -7 -19 -11q-9 -5 -19 -6t-19.5 -1.5t-18 -2.5t-14.5 -9l-12 -10l-20 -20q-11 -11 -21 -22.5t-17.5 -23.5t-10.5 -24q-1 -2 -2 -11.5t-1.5 -20.5t-1 -20.5t-0.5 -11.5q-2 -3 -4 -8.5l-4 -11.5l-3 -12q-2 -5 -3 -6q0 -1 -3 -4l-7 -9 q-4 -5 -7 -9.5t-4 -6.5v-19q0 -8 -0.5 -19t-2 -23t-4.5 -23t-8 -19q-16 -18 -22.5 -34t-9.5 -32.5t-4.5 -34t-7.5 -37.5l-17 -40q-13 -35 -23 -78.5t-10 -83.5v-18q-4 -5 -11 -18l-16 -30l-16 -30l-11 -19q-4 -6 -8 -19t-4 -17v-53q-3 -13 -10 -30l-14 -37l-15 -37 q-8 -19 -13 -35q-4 -9 -8.5 -15t-13.5 -13l-3 -35q-2 -16 -2 -34q0 -20 7 -31t18 -18t25.5 -11t28.5 -9l42 -9h12q5 0 12 2q8 2 15 3t15 1l77 -7q16 0 30 5h126q13 1 31.5 2t36.5 4t34 8t24 14q4 4 15 14l21 20l20 19q9 8 10 11q16 18 35.5 47.5t42.5 58t48 49.5t52 21 q14 0 21.5 -6.5t11 -17.5t4 -25.5t0.5 -30.5q0 -5 -3 -14t-9 -20l-11 -25q-6 -13 -12 -24q-2 -3 -2 -7q-3 -3 -10 -14l-15 -24l-14 -24q-6 -11 -7 -15q-2 -2 -4.5 -8t-2.5 -8l7 -14l1 -17q0 -26 -20.5 -45.5t-41.5 -30.5h-16l-143 17l-123 -12q-12 0 -27.5 0.5t-30.5 2.5 t-28.5 6t-20.5 10l-209 10q-102 4 -206 4q-44 0 -88.5 -4.5t-90.5 -6.5q-15 -13 -23 -15t-22 -2q-9 0 -25.5 3t-32.5 9t-28 16t-12 24q0 23 25 36.5t57.5 22t63 14.5t42.5 14q6 3 10.5 9t8.5 14l7 15q3 7 7 13l33 39v41q1 16 7 34.5t14 38.5l14 37q7 18 10 32l32 127 q15 61 22 127q12 17 19 35t13 36l12 36q6 18 15 35q1 4 6 13l9 17q5 9 9 17t5 12q4 14 7 25.5t5.5 22.5t6.5 22t10 25q2 2 4 9l2 8v64q1 17 13.5 30.5t17.5 30.5q1 2 3.5 11t4.5 20t4 20.5t2 12.5q0 2 3 6t5 6t5.5 11t5.5 12v1z" />
<glyph unicode="M" horiz-adv-x="2068" d="M23 28q0 18 14.5 26t30.5 12q34 9 59.5 12t47 10t41.5 21.5t42 46.5q0 5 2 17.5t3 16.5q0 1 2 4l6 8q3 4 5.5 7t2.5 4q7 15 11 28.5t7 26.5l6 27l9 32q3 12 11 23l18 20q9 11 17 22.5t9 26.5q7 44 12 85.5t16 83.5l66 158q11 38 14.5 75t16.5 75q5 13 12 23t14 19l14 17 q7 8 13 19q8 14 11 33.5t3 37.5v6q0 4 2 9l-3 108q-2 10 -11.5 25t-22 28.5t-26 23t-23.5 9.5h-120q-13 5 -24 7t-21.5 6.5t-21 13t-21.5 27.5q0 27 19.5 48t42.5 30h66q48 0 96 -8t93 -8q27 0 55 13.5t47 24.5h10q38 -14 58.5 -27t30.5 -27t13.5 -30t6.5 -35t9.5 -42.5 t23.5 -52.5v-40q0 -30 1.5 -60.5t3.5 -60.5q4 -4 11.5 -16.5t9.5 -16.5q0 -18 -7 -29t-7 -23q0 -9 4 -18.5t10 -18.5l12 -19q6 -10 10 -18q2 -5 3.5 -13t2.5 -17.5t1.5 -18.5t1.5 -15q11 -34 24 -68t16 -69v-52q0 -2 3 -11l7 -20l7 -21q4 -10 5 -14t1.5 -16.5t1.5 -27.5 t1.5 -29t0.5 -20q9 -11 13 -27.5t10 -32.5t15.5 -27.5t29.5 -11.5q11 0 32 25t43 58l43 63q20 30 29 41q4 3 16 15l27 26l27 27l16 15q14 20 20 40.5t20 37.5q3 2 11.5 13t12.5 13l19 14q27 25 50 53l47 56q23 29 47.5 56.5t53.5 52.5q11 17 17.5 37.5t21.5 40.5 q26 32 57.5 62.5t58.5 68.5q28 38 43.5 68.5t32.5 51.5t44 32t78 11h12q11 0 21 -1t17 -8h55q30 0 56.5 4.5t52.5 4.5q10 0 22 -4t21.5 -10.5t16 -16t6.5 -21.5q0 -15 -11 -24t-26.5 -13.5t-31.5 -6t-25 -1.5q0 -2 -2.5 -5t-13.5 -12t-34.5 -26t-66.5 -45q-6 -9 -8 -19 t-3 -20t-2.5 -20t-5.5 -17l-32 -83q-16 -40 -29 -85q-9 -37 -22 -77l-25 -79q-12 -39 -21 -78.5t-10 -77.5q-4 -11 -12 -21t-10 -24q-13 -40 -18.5 -78t-16.5 -79q-9 -29 -19 -56t-19 -55q-1 -2 -2 -8t-2.5 -13.5t-2.5 -14t-1 -9.5q-2 -4 -8 -10l-13 -14q-7 -7 -12.5 -14 t-5.5 -12v-2l10 -6q9 -4 11 -6q6 -5 8 -12.5t3 -15.5l2 -16q1 -8 5 -15q9 -13 40 -27.5t65 -28t60.5 -23t26.5 -12.5q0 -11 -8 -15t-22 -8q-22 -3 -40 -5l-34 -3q-17 -1 -35 -1.5t-41 -0.5q-11 0 -20 1t-17 6h-225q-11 0 -20 -4l-18 -7l-19 -6.5t-22 -3.5q-8 0 -25.5 1 t-35.5 4.5t-32 11t-14 21.5q0 6 5.5 13.5t12.5 14.5t13.5 12t9.5 7q1 2 9.5 4t18.5 4t19 3t12 1l9 3l14 5l13 5q6 2 7 2q2 0 3.5 2t1.5 4q3 4 9 17.5t13.5 28t15 27.5t11.5 18q1 1 3 6l5 10q3 6 5.5 10.5t3.5 4.5l7 40q8 16 21 29.5t17 29.5q11 27 13.5 59.5t7.5 59.5 q2 7 5 11l8 10q5 6 9 12.5t6 18.5q0 3 1 15.5t2 27t2 26.5t1 14q0 3 3.5 12l7.5 19l9 18q4 9 5 10q1 3 3 10.5t2 10.5q4 19 8.5 44.5t11 51t16 49t24.5 38.5l2 31q0 29 -11 47.5t-42 18.5q-12 0 -27.5 -5.5t-24.5 -16.5q-14 -11 -21.5 -22.5t-12.5 -23.5l-8 -21 q-4 -9 -12 -15q-2 -1 -13 -7t-13 -8l-14 -23l-2 -4q-1 -2 -1.5 -3.5t-1.5 -2.5q-30 -23 -50 -46t-40 -58q-4 -5 -11.5 -8.5t-16.5 -7t-18.5 -9t-15.5 -15.5q-30 -44 -56 -91.5t-60 -94.5q-18 -24 -40.5 -50t-47.5 -52l-49 -50l-45 -44q-3 -15 -19.5 -45.5t-39.5 -61 t-47.5 -53.5t-43.5 -23q-12 0 -21.5 8t-16 19t-10 22.5t-4.5 19.5q-1 4 -2 16t-1.5 25.5t-1 24.5t-0.5 13q-2 8 -6 18l-10 22l-10 22q-5 11 -9 18v118q-1 2 -2 5q-2 6 -3 7q0 2 -7.5 10.5t-8.5 10.5l11 34q0 5 -3.5 11.5t-7 11.5l-6.5 9l-4 4q-6 16 -12 53l-15 84l-16 96 q-9 50 -19 91.5t-21 68t-23 26.5q-18 0 -31.5 -17.5t-24 -44.5t-18.5 -60t-14 -64l-12 -57q-5 -25 -9 -37q-4 -9 -11 -18l-14 -16q-6 -8 -11 -16t-5 -16l7 -14v-22l-4 -5l-8.5 -6.5t-8 -7t-3.5 -4.5v-45q-2 -8 -11 -24t-19 -32l-20 -30q-9 -13 -9 -17l10 -35q0 -5 1 -9 q0 -4 0.5 -8.5t0.5 -6.5q0 -11 -1.5 -22t-10.5 -20v-34l5 -68l-23 -66q0 -10 9 -15.5t22 -11t25.5 -12.5t20.5 -19q1 -5 4 -11l6 -10q4 -6 7 -12q6 -3 19 -4t27 -4t24.5 -9.5t10.5 -20.5q-30 0 -64.5 -8t-68.5 -8q-2 0 -7.5 2t-12.5 5l-13 5q-6 3 -7 4q-31 5 -60 6t-61 1 h-61q-17 -17 -43 -23.5t-48 -6.5q-13 0 -31 2t-34 9t-27.5 18.5t-11.5 31.5z" />
<glyph unicode="N" horiz-adv-x="1690" d="M347 9q-20 0 -40 -4.5t-43 -4.5h-38q-19 0 -42.5 1t-44 5.5t-34.5 13.5t-14 25l-1 22q0 10 2 16t10 10q7 5 20 8l25 7q12 3 21.5 7t11.5 10q4 3 13 11l17 17l17 17q8 9 11 13q14 18 23 40.5t15 47t11 49t10 45.5q11 47 32 87.5t34 83.5l5 44q5 17 14 32l18 29 q9 14 15.5 28.5t6.5 31.5l-9 20q0 32 12 51t42 39v12q0 26 5 54.5t14 54.5l7 18l19 46q10 25 18.5 50t14 48.5t5.5 43.5v11q0 4 -0.5 15t-1.5 23l-2 24q-1 12 -1 17q-15 19 -37 27.5t-47 13t-52 6.5t-52.5 7.5t-48 18t-38.5 36.5v11q0 10 7.5 18.5t18 15.5t22.5 13t21 11 q0 1 2 1.5t9 1t21.5 1t41.5 0.5q20 0 36.5 -1t36.5 -9l6 -1q5 -1 12 -3l13 -3q6 -1 9 -2q0 -1 6 -3q3 -1 7 -2q36 -5 69 -10.5t64 -15.5t61 -25t62 -38q9 -8 12.5 -16t5.5 -16.5t4.5 -18t9.5 -18.5l12 -15q13 -10 16.5 -17.5t4.5 -15t2.5 -15t10.5 -16.5q8 -11 14.5 -17.5 t11.5 -12.5t9.5 -13t9.5 -18q4 -15 6.5 -26.5t6.5 -22.5t9.5 -22.5t15.5 -25.5q2 -1 9 -7.5l15 -14.5l14 -15q6 -7 7 -9l26 -63q6 -15 10 -23l6 -16q3 -7 6 -16t8 -26q0 -1 15 -15l33 -32l34 -36q16 -17 18 -24q5 -14 10.5 -24.5t11.5 -20.5l12 -19q6 -10 13 -23 q0 -1 1 -5.5t3 -10.5l3 -11q1 -5 1 -6l3 -4l5 -8l6 -8q2 -4 2 -7q10 -15 19.5 -39t22 -47t29 -39.5t40.5 -16.5q21 0 30.5 17.5t13 41t4.5 47.5t5 36q1 3 5 9l7 12q3 7 6.5 12t4.5 6l-9 51v4q0 3 1 6q0 4 1 7l12 19l3 40q8 30 24.5 55.5t24.5 54.5q4 17 4.5 39t0.5 43v46v21 q0 10 2 19q0 9 2.5 14.5t6.5 9.5l7 10q4 5 8 13q13 25 20.5 57.5t7.5 60.5v26l-3 4l-6 8l-7 9q-3 4 -3 5q-5 10 -6.5 19.5t-4 18t-8.5 15.5t-21 12q-1 1 -9 1.5t-18.5 1.5t-20.5 1.5t-16 0.5h-21q-2 0 -9.5 -2.5t-14.5 -2.5q-9 0 -16.5 6t-13 14.5t-9 19t-3.5 19.5 q0 32 14 45.5t45 13.5q16 0 32 -5t34 -5q11 0 20.5 5t20.5 5q22 0 44 -14h136q10 4 27 7t35 4.5t35.5 2t29.5 0.5q13 0 25.5 -2t22.5 -7.5t16.5 -14.5t6.5 -23q0 -27 -19.5 -39.5t-46.5 -19.5l-54 -14q-28 -6 -43 -20q-12 -9 -24 -20t-22 -24t-16.5 -29.5t-6.5 -35.5 q2 -2 4.5 -12t2.5 -14q-4 -18 -7 -36.5t-8 -35.5t-13.5 -32.5t-23.5 -28.5q-2 -3 -5 -15l-8 -26l-7 -25q-4 -12 -6 -17q-5 -18 -12 -37l-15 -39q-7 -19 -12.5 -38.5t-5.5 -38.5q0 -9 2.5 -15.5t2.5 -13.5q0 -23 -13.5 -49.5t-22.5 -47.5q-7 -13 -11 -27.5t-7 -29.5l-7 -28 q-4 -14 -10 -27q0 -2 -5 -12t-9 -14q-9 -18 -13.5 -41t-7 -47.5t-4 -49t-4.5 -44.5q-9 -42 -21.5 -78.5t-23.5 -78.5q0 -2 -0.5 -11.5t-1.5 -20.5t-2 -20t-1 -11q0 -5 -2 -14.5t-5 -19.5l-5 -19l-4 -12q-13 -9 -26 -9q-11 0 -21.5 9t-20.5 22t-18 26.5t-12 21.5 q-15 19 -23.5 40.5t-15.5 43.5l-15 44q-7 21 -19 42l-89 156q-47 78 -101 150q-10 14 -13 32t-12 32l-10 15l-17 25l-17 25q-8 12 -9 15q-4 7 -5.5 14t-3.5 14.5t-5.5 14.5t-11.5 14l-38 38l-6 48q0 2 -2.5 5.5t-3.5 5.5q-3 3 -10 12l-14 20l-14 19q-6 8 -7 9l-28 54 q-6 11 -14.5 12.5t-18.5 2.5t-20 6t-20 22q-4 12 -12.5 23.5t-20.5 11.5q-6 0 -12.5 -1t-13.5 -8v-10q0 -32 -11 -55t-27 -52q-1 -2 -6.5 -8.5t-5.5 -9.5v-59q0 -2 -3 -9t-7 -15l-8 -15l-4 -9l-5 -83q-3 -34 -18 -67l-27 -65l-52 -176q-10 -26 -20.5 -49.5t-19.5 -47 t-15 -49t-6 -55.5q0 -15 6 -28t15.5 -24.5t21 -20.5t23.5 -17l28 -33h62q7 0 18.5 -2t22 -6t18.5 -11t8 -17q0 -20 -8.5 -32t-22 -18.5t-29.5 -9t-30 -2.5q-26 0 -56 1.5t-56 3.5q-2 0 -10 2t-18 5l-19 5l-12 4h-2z" />
<glyph unicode="O" horiz-adv-x="1210" d="M295 62q-52 43 -81 93.5t-42.5 106t-16 116t-2.5 124.5q0 40 12.5 72.5t23.5 69.5l28 91q15 47 34 92q5 15 13 29l16 27q8 14 15 28.5t10 31.5q19 19 34 38l28 38l27 37q13 18 29 37q56 68 125.5 118.5t149.5 82.5q5 2 12 5.5t9 3.5q31 6 58.5 17t56.5 16q7 -2 24 -6 l36 -8l36 -7q17 -4 24 -5q14 -5 27 -15t25 -18q0 -1 5 -3.5t10.5 -6t10 -7t5.5 -6.5q9 -5 22 -14t26.5 -20t24 -23t15.5 -24q6 -23 10 -36.5t8.5 -25l9.5 -23.5l15 -33v-104l14 -60v-14q0 -13 -3.5 -24.5t-3.5 -25.5q0 -11 3.5 -23t3.5 -24q0 -24 -6 -48t-15 -47.5t-19 -47 t-17 -45.5q-8 -14 -16 -24t-13 -23q-3 -13 -4 -29t-5 -32q-11 -20 -22.5 -32.5t-20.5 -31.5q-25 -59 -56.5 -107.5t-87.5 -85.5q-9 -8 -14.5 -20t-16.5 -20q-51 -35 -91 -69t-80.5 -61t-88.5 -43.5t-115 -16.5q-25 0 -55.5 3t-50.5 19q-4 0 -9 4.5t-5 5.5q-11 9 -20.5 14 t-19 7.5t-19 4.5t-20.5 7zM333 320q0 -12 3 -32.5t8 -45t12.5 -50t17 -46t20 -33.5t22.5 -13q8 0 14 3.5t11 8t10 8.5t12 6q6 3 21 8l33 11l32 10q15 4 21 6q2 0 14 2t17 5l69 67l62 75l33 91q13 23 30 43l33 40q16 20 30 41.5t21 47.5q1 2 3.5 11.5t4.5 20.5l5 21q2 9 3 12 q7 23 17 46l22 46q12 23 21.5 47t15.5 50l5 43q3 2 6.5 8t7 13t6 13t3.5 8q3 13 3.5 27t0.5 28t1.5 27.5t6.5 27.5q0 1 2 6t5 10t5 10t2 7l-14 23q-5 17 -9.5 41t-12.5 46t-22.5 37.5t-38.5 15.5q-34 0 -76 -24t-86.5 -62t-88 -85t-80.5 -93t-65.5 -86t-41.5 -64 q-23 -40 -36.5 -89t-29.5 -97q-5 -19 -14 -38l-18 -37l-17 -33q-8 -16 -15 -36q-4 -12 -4.5 -24.5t-0.5 -23.5v-25q0 -13 -1.5 -26.5t-8.5 -25.5q0 -2 -6 -11t-6 -14v-4z" />
<glyph unicode="P" horiz-adv-x="1172" d="M217 5l-62 7l-62 -7q-25 0 -44 5.5t-19 32.5q0 23 15.5 32.5t35.5 16.5l34 1q32 3 64.5 19t53.5 39q1 2 2 5q1 4 5 8q1 5 3 9l2 6q1 3 2 3q18 32 25.5 62t19.5 69q2 9 7 17.5t10 18.5q4 7 8.5 14t7.5 16q15 59 25.5 124t32.5 125l6 13l10 22q6 12 10 22.5t4 13.5 q1 3 2.5 14t3 24t3 24t1.5 14q11 50 24 97.5t33 92.5q5 21 6.5 48.5t5.5 50.5q7 22 21 45t14 50q0 15 -15.5 33.5t-37.5 34.5t-45 27t-39 11q-9 0 -15.5 -3t-13.5 -3q-21 0 -38 15.5t-17 35.5q0 12 15.5 21t39 14.5t52.5 9t56 5t49 2t31 0.5q32 0 63.5 -5.5t66.5 -7.5 q43 -3 85 -10t85 -16t86 -19t87 -19q3 0 12.5 -1t20.5 -2t20 -2t11 -2q13 -2 35 -21.5t45 -44.5t42 -50.5t25 -38.5l3 -35q4 -17 15 -31t11 -29q-8 -27 -16.5 -67t-19.5 -80t-27 -74t-39 -49q-14 -11 -32.5 -21.5t-41.5 -18.5q-2 -1 -8 -7l-14 -14l-15 -16q-7 -7 -13 -10 l-37 -11l-45 -12l-39 -11q-16 -4 -18 -4l-72 -3l-75 3q-8 4 -18 9.5t-18 11.5t-13.5 13.5t-5.5 17.5q0 17 20 27t46.5 16.5t52 11t36.5 9.5q19 7 29 14t17 15l14 16q8 8 22 19q7 9 18 17l23 15q12 7 22 15t15 19v41q2 4 6 10l11 14l19 21l-10 158q-28 66 -71.5 98t-115.5 32 h-37q-10 -2 -24 -17t-27.5 -34t-24.5 -38.5t-14 -30.5v-22q-6 -46 -21 -91.5t-32 -87.5q-2 -1 -6.5 -12.5t-4.5 -12.5v-45q0 -3 -5 -14t-7 -12q-10 -23 -15.5 -46t-9.5 -46t-7.5 -45.5t-8.5 -44.5q-2 -10 -7 -24l-11 -31l-11 -31q-6 -16 -9 -27q-2 -2 -7.5 -10.5t-8.5 -9.5 q-6 -11 -8.5 -26t-3.5 -31l-2 -31q-1 -15 -5 -26q-8 -27 -19 -55l-22 -58q-10 -28 -17.5 -56t-7.5 -56q0 -30 9.5 -48t23 -30t30 -19t30 -13.5t23 -15t9.5 -23.5q0 -10 -15 -16.5t-35 -10t-39 -5t-27 -1.5q-38 0 -77.5 6t-81.5 6z" />
<glyph unicode="Q" horiz-adv-x="1448" d="M914 -118q-16 5 -30 18l-26 25q-13 12 -26.5 22t-28.5 10q-23 0 -40 -5t-31.5 -12.5t-28.5 -16t-31 -15.5q-2 0 -8.5 -1t-14 -2t-14 -1.5t-8.5 -0.5l-21 -12q-57 -22 -116 -38.5t-123 -16.5q-52 0 -106.5 6t-99.5 26.5t-73.5 59.5t-28.5 105q0 26 22.5 59t54 63.5 t66 54.5t58.5 32l59 9q2 0 11 2l23 3q2 -2 12.5 -3.5t11.5 -1.5q2 0 9.5 0.5t17 1t19.5 1.5t18 2q1 -1 6.5 -3l11.5 -4l11 -5q5 -2 6 -2q2 -2 21 -2q17 0 34.5 1t22.5 1q27 -3 54 -10l54 -14q27 -8 54 -14.5t56 -8.5q9 -9 17.5 -24t23.5 -15q12 0 26.5 1t29.5 3.5t28.5 7 t23.5 10.5q1 2 5.5 6.5t4.5 5.5l40 49q21 23 40 48q8 11 9.5 23.5t9.5 23.5q0 1 5 5l11 9l11 10q5 4 6 5q0 3 1 10.5t1.5 15.5t1.5 14.5t1 8.5q2 13 15 22.5t18 17.5q13 15 23 36.5t18 45.5t13.5 46.5t10.5 38.5q8 23 18.5 44.5t14.5 47.5q4 21 3.5 47.5t8.5 51.5 q5 22 8 43.5t3 44.5t-3 45.5t-8 47.5q-2 13 -8 26.5t-13.5 26.5t-14 26t-9.5 25q-8 43 -17.5 79t-25 67t-39.5 57.5t-61 50.5q-35 24 -70.5 41.5t-78.5 17.5q-29 0 -57.5 -10.5t-56.5 -24.5l-57 -30q-29 -15 -57 -25l-19 -17l-12 -19l-18 -31l-18 -31q-8 -15 -11 -19 l-73 -90q0 -5 -2 -17t-5 -14q-16 -54 -27 -103l-23 -103q-2 -3 -8 -14t-6 -17q0 -35 12 -72.5t31 -72.5t43.5 -65.5t50.5 -51.5q16 -17 34 -33.5t45 -16.5q14 -4 28.5 -6.5t30.5 -2.5q14 0 26.5 2t23.5 7q1 0 6 2t11 5l13 6q6 3 10 4q42 25 63.5 55.5t21.5 83.5q0 13 -10 22 t-23 9q-22 0 -43 -6t-42 -6q-30 0 -52.5 15.5t-36.5 39t-21 52t-7 54.5q0 31 19.5 56.5t48 43.5t61.5 28t61 10q13 -2 33 -8.5t39 -15.5t34 -18t19 -15q3 -12 3.5 -18t0.5 -10t1 -8t5 -11l28 -33q-2 -9 -2 -21v-25q0 -14 1 -27.5t6 -24.5q-3 -47 -11 -83t-23.5 -66.5 t-39.5 -59t-58 -59.5q0 -1 -2.5 -2.5t-10 -3.5t-23 -5.5t-40.5 -7.5q-6 -11 -22 -17.5t-34.5 -9.5t-38 -3.5t-33.5 -0.5q-13 0 -29 0.5t-32 2.5l-32 3q-16 1 -28 4q-20 6 -53.5 23.5t-68 39t-63 42.5t-36.5 33q-11 21 -28 39t-26 39q-1 4 -4 20.5t-7 35.5l-8 35q-4 17 -7 23 q-2 8 -5 15l-7 16v130q8 14 10.5 21.5t3.5 13.5t1.5 14t5.5 24q3 13 7 21t8.5 15t10.5 14.5t13 18.5q10 20 18 39t16.5 36.5t18.5 35t24 34.5q6 7 22 21l32 30q16 15 29 28.5t15 19.5l19 38q2 3 8 8l12 9l12 9q5 4 8 5l40 18l44 20l45 20q22 9 42 15q4 1 12 4l16 5l15 4 q6 2 7 2q66 9 125 9q54 0 104 -9q1 0 13 -3l28 -7l32 -9q16 -5 24 -8q9 -2 16.5 -6.5t14.5 -9.5t14 -9.5t15 -5.5q12 -5 26 -8t27.5 -8t25 -12.5t20.5 -20.5q5 -6 12.5 -22t18.5 -23q1 -1 10 -3q4 -1 9 -2q23 -11 44.5 -38t41 -61.5t36.5 -72.5l30 -72q7 -17 5 -34.5 t7 -34.5q5 -29 6 -56.5t1 -54.5q0 -26 -1 -52.5t-4 -52.5q-3 -42 -24.5 -99t-51 -116t-61 -113t-55.5 -89l-9 -15l-16 -25l-16 -25q-8 -11 -11 -13q-4 -5 -15.5 -18t-24.5 -26l-26 -26q-13 -12 -17 -15q-14 -6 -38 -18t-48 -28t-41.5 -35.5t-17.5 -39.5q0 -3 11 -9.5 t25 -13.5l29 -16q14 -8 21 -15q28 -36 59.5 -68.5t65.5 -61.5l67 -58l68 -56l46 -40l46 -43q23 -22 47 -41.5t51 -34.5q3 -1 13 -4l23 -6q12 -4 24 -9t18 -10q3 -3 13 -11l20 -19l20 -18l11 -11l64 -33l16 -11l23 -19l22 -18q10 -9 13 -11q19 -16 44.5 -24.5t52.5 -15.5 t54.5 -15t51.5 -23q20 -14 44.5 -17t50.5 -3h48h20q10 0 22 -2q8 -2 16 -9.5t22 -7.5q6 0 21 4.5t34 12t39 17.5t36.5 20.5t27 21t10.5 19.5q0 1 -3 7.5t-6.5 15.5t-6.5 19.5t-3 19.5q0 16 7 29.5t12 27.5q8 20 15.5 41t18.5 38t28.5 28t46.5 11q7 0 22 -5t31 -12.5t30 -16 t19 -15.5q2 -8 7 -18l10 -20q6 -10 10 -19.5t4 -16.5q0 -45 -26 -85.5t-65.5 -73.5t-85 -56.5t-84.5 -33.5q-86 -21 -177.5 -40t-179.5 -19h-69q-4 4 -13.5 6.5t-15.5 2.5q-8 0 -18.5 -4.5t-21.5 -4.5q-16 0 -31 5t-29 11l-29 13q-15 6 -29 9l-157 56q-26 7 -50 21t-47 31 t-44 36l-41 34l-62 38q-13 12 -24.5 32t-27.5 36q-2 2 -9 5.5t-10 4.5q-47 26 -82.5 51t-73.5 62q-10 9 -19 21l-18 22q-8 12 -17.5 22.5t-19.5 17.5q-20 13 -38 23.5t-34 21t-31 23t-30 30.5zM217 5q0 -19 8.5 -32t22 -22t31 -15t34.5 -9l116 -10q0 -2 3 -2h6q16 0 26 8 t24 13l43 9q24 5 49 11.5t49 14.5t43 17q4 2 4.5 9t0.5 13q0 15 -6 27t-15.5 20.5t-21 13.5t-21.5 7q-3 1 -16 4l-27 7l-27 6q-13 3 -17 4q-18 5 -41 12.5t-56 7.5q-1 0 -6 -2l-10 -6q-5 -3 -10 -5t-7 -2q-23 -4 -53.5 -7.5t-58.5 -13t-47.5 -27.5t-19.5 -51z" />
<glyph unicode="R" horiz-adv-x="1341" d="M678 721q-20 0 -30.5 -6.5t-16.5 -18t-10 -25.5t-12 -29q-8 -18 -22 -39t-23 -44q-3 -11 -4.5 -20.5t-3 -18t-3.5 -17.5t-8 -20q-3 -8 -5.5 -11t-4.5 -4.5t-3.5 -4t-2.5 -8.5v-33q-2 -14 -7 -27t-10.5 -25.5t-10.5 -25t-6 -26.5v-38q0 -8 -6 -26l-32 -67q-1 -5 -1 -9 q-1 -4 -1 -8v-6q0 -31 15.5 -45.5t34.5 -22.5t34.5 -16t15.5 -26q-1 -3 -1 -5q-1 -3 -1 -6q-51 -30 -102.5 -38t-106.5 -8q-23 0 -54 3h-84q-3 -1 -12.5 -4.5t-22 -7.5t-24.5 -7t-19 -3q-18 0 -37.5 2t-35.5 8.5t-26 20t-10 36.5q0 21 9 32t23.5 16.5t33.5 6.5l36 2 q18 1 34 3t26 9q1 2 6 6.5t12 9.5l12 9l9 6q1 2 4 5l5 5q3 3 6 4q0 5 2 18t3 17q1 1 4.5 6t8.5 10l8 10l5 5q7 9 8 20t1 20v29q0 8 1 16l2 14l9 27l52 142q26 71 59 140q17 35 38 72t33 73q5 19 6 36.5t1 34.5v26q0 14 0.5 25.5t4.5 23.5q1 3 6 10l11 15l11 15q4 6 5 8 q4 5 9 19t9.5 29t8 28.5t4.5 18.5v2q0 4 -2.5 10.5t-2.5 8.5q-2 0 -2 4v7v9q0 6 2 8l8 15l11 23q6 12 12.5 22.5t9.5 13.5q3 11 5 16t2 12q0 18 -11.5 33.5t-29 27t-37 18.5t-34.5 7q-34 0 -69 -6.5t-66 -6.5q-6 0 -17.5 3.5t-22.5 9.5t-19.5 13.5t-8.5 14.5q0 15 16 28 t37.5 22.5t45 15t38.5 5.5q35 0 57.5 -3.5t47.5 -5.5q26 -1 51 -1h53q32 0 62.5 7.5t67.5 7.5q48 0 92.5 -4.5t89 -12t89.5 -18.5l94 -25q13 -5 33.5 -16.5t43.5 -26t46.5 -31.5t43 -33.5t32.5 -32t15 -26.5q1 -5 2 -14l2 -20q1 -10 2 -19t1 -13q0 -36 -9 -68t-24 -61.5 t-35 -56.5l-41 -53l-20 -22q-10 -11 -20.5 -21t-23.5 -17t-29 -9q-2 0 -10.5 -1t-18.5 -2t-18.5 -2t-9.5 -2q-3 -1 -14 -7l-25 -12l-24 -12q-12 -6 -15 -7q-22 -11 -34.5 -14t-20.5 -8t-13.5 -17.5t-12.5 -41.5l-5 -18q21 -17 36 -38t24.5 -45t15.5 -49t10 -49l7 -18 q1 -2 8.5 -10.5t15.5 -18.5l16 -21q7 -10 8 -14l6 -17l9 -30l9 -31.5t6 -18.5q0 -4 1.5 -11.5t3.5 -8.5q6 -11 8.5 -22t4.5 -22.5t4.5 -23t8.5 -22.5l14 -26q13 -23 23 -35.5t17 -35.5q0 -3 2 -13l3 -21q1 -11 2.5 -20t2.5 -12l7 -7l13 -12l12 -12q6 -5 8 -7q2 -3 8 -14 l14 -25l14 -26q7 -14 10 -21q7 -14 13 -23t13 -16l14 -17l19 -22q16 -19 29 -36l27 -34q13 -17 28 -34t34 -35q3 -2 13 -11l20 -21l20 -20l11 -12q4 -5 14 -7.5t20 -2.5t18.5 1.5t13.5 1.5l12 -16q7 -9 16 -17t19.5 -13.5t21.5 -5.5q6 0 13.5 4.5t15 10t12.5 10t6 5.5 q6 6 7.5 16t3 22t4.5 25t14 25v69q0 14 8.5 25.5t20.5 20t25.5 13.5t23.5 5q53 0 74 -32t21 -85q0 -40 -15.5 -71.5t-42 -55.5t-61 -41.5t-72 -28.5t-75 -16t-70.5 -5h-15l-57 20h-80q-2 0 -8 3l-15 7q-8 3 -15 7l-12 6q-29 18 -51 33.5t-40 32.5t-34 36.5t-34 44.5 q0 2 -2.5 6t-4.5 6q0 1 -1.5 6t-3.5 11l-5 11q-2 5 -2 7q-2 1 -6 6l-10 11l-10 11q-5 5 -5 6q-21 29 -36 63.5t-35 61.5l-4 5l-7 7l-7 7q-4 3 -5 3q-1 1 -2.5 9.5t-3.5 18.5t-3.5 19t-2.5 12q0 1 -4 7.5l-8 13.5l-9 12q-4 6 -5 7q-30 51 -55 112.5t-43 121.5q0 1 -0.5 6.5 t-1.5 12.5l-2 12q-1 6 -2 8q-3 11 -10 23l-15 22q-8 11 -14.5 22t-6.5 22v55q-1 8 -5 15.5t-9.5 14t-10.5 13.5t-8 14q-1 3 -3 13l-6 22l-5 20q-3 9 -4 11q-1 6 -8.5 20.5t-11.5 17.5q-2 2 -6 7t-8.5 10t-8.5 10t-5 7q-7 13 -13 31.5t-14.5 36t-21.5 29.5t-34 12zM676 830 q0 -14 12 -21.5t28 -7.5q2 0 8 1t13 2.5t12.5 2.5t6.5 1h71q6 8 27 18t46.5 19.5t49 16.5t34.5 10q15 6 27 14.5t23 18.5l24 21q11 10 25 19q2 1 12.5 8.5t13.5 10.5q7 9 12 29.5t7.5 44.5t3.5 47.5t1 37.5q0 27 -11.5 51.5t-30 47.5t-40.5 43l-44 38l-18 14h-26 q-47 0 -77 -8.5t-48 -24.5t-27.5 -38.5t-16.5 -51t-14 -63t-19 -72.5q-7 -20 -21 -49l-28 -62q-15 -33 -25.5 -64.5t-10.5 -53.5z" />
<glyph unicode="S" horiz-adv-x="1064" d="M387 2q-48 26 -99 44l-102 39q-2 4 -5.5 6t-4.5 2q-8 4 -26 15l-37 24l-36 24q-16 11 -21 15q-9 7 -14 20.5t-5 26.5q0 10 3.5 22.5t7.5 25.5l9 27q5 13 6 25q0 10 2 31t5 46.5t7.5 52t11 48t15.5 35.5t20 14q15 0 26.5 -12t19.5 -28.5t12 -34t4 -27.5q0 -20 -2.5 -40 t-2.5 -54q5 -32 20 -72t38 -77.5t52.5 -67t64.5 -39.5q4 0 14 -3l22 -7l22 -6q11 -3 16 -3q83 0 146.5 35.5t118.5 94.5q13 13 20 31.5t10 40t3.5 44.5t0.5 47q0 45 -10 76t-26 56.5t-37 50.5t-43 59q-1 4 -9 20l-18 34l-18 35l-10 20q-29 48 -66 91.5t-67 91.5 q-9 18 -18 45t-15.5 56t-11 56.5t-4.5 46.5q0 22 2 37.5t6.5 28.5t11.5 26t18 30q10 16 15.5 31t9.5 30l9 30q5 16 13 33q7 13 26.5 28.5t42 29.5t42 24t26.5 13q2 2 8.5 6t15 8t16 8t10.5 6q16 2 31 2.5t31 0.5q39 0 84.5 -8.5t83.5 -22.5q18 -3 35 -9l34 -13q17 -6 35 -11 t38 -5l74 21q14 0 25.5 -13.5t11.5 -24.5q-16 -32 -31 -74t-20 -77q-6 -19 -9.5 -37.5t-6.5 -41t-6 -50t-9 -64.5q-7 1 -12 1.5t-10 1.5t-11.5 3.5t-16.5 8.5q-8 22 -14 51l-11 58q-5 28 -11.5 50.5t-16.5 31.5q-3 0 -6.5 4t-7 9t-7 9t-4.5 5q0 2 -4 8l-7 14q-4 8 -8.5 14 t-6.5 7q-5 8 -26.5 19.5t-46 22t-45.5 18t-24 6.5q-2 0 -9 -2l-16 -3q-9 -2 -17 -4t-11 -3l-90 -7q-21 -6 -34 -30.5t-20.5 -53.5t-10.5 -57.5t-3 -43.5v-9v-15q0 -8 0.5 -16t1.5 -12q25 -27 45 -58l40 -65l40 -65q20 -33 45 -61q3 -4 12 -14l21 -20l20 -22q9 -9 11 -13 q8 -7 20 -16.5t23 -21t18.5 -25t7.5 -27.5q21 -19 33 -36t20 -35t14 -37.5t14 -42.5l23 -39q0 -42 -2.5 -86t-10 -86.5t-22 -82.5t-38.5 -76l-24 -36q-13 -21 -28.5 -41t-32.5 -37t-33 -24l-46 -5q-2 -1 -8 -6l-12 -13l-12 -13q-6 -6 -6 -8q-7 -7 -21 -14t-30 -13 t-31.5 -9.5t-25.5 -3.5q-23 0 -45 3l-44 8l-45 6q-23 4 -47 4z" />
<glyph unicode="T" horiz-adv-x="1574" d="M437 10q0 31 11.5 45t30 20t42 8t46.5 7q13 1 30 11t33 23.5t29.5 28t18.5 25.5v57q1 16 6.5 32t12.5 32l14 31q7 15 12 30q22 75 41.5 155.5t27.5 157.5q9 73 24 147t50 140v125l3 5l5 11l6 13l5 10q13 23 19.5 50.5t6.5 52.5q0 24 -9 40t-24 26t-34 16t-38 11 q-1 0 -6 2t-12.5 4.5t-15 4.5t-13.5 3l-42 -14q-9 0 -14 1.5t-13 3.5q-21 3 -48 5l-56 6q-30 2 -60.5 3.5t-57.5 1.5q-15 0 -27 -3l-23 -8l-25 -6.5t-29 -3.5q-7 -5 -16 -21.5t-17.5 -35.5t-14 -35.5t-5.5 -21.5l9 -13q5 -9 10.5 -20.5t9.5 -24t4 -24.5q0 -26 -3 -42.5 t-12 -25.5t-24.5 -12.5t-40.5 -3.5q-27 0 -45.5 21t-18.5 48q0 22 8 37t19 27.5t23.5 24.5t20.5 29v27q5 22 13.5 30t19.5 22l7 19q6 7 18 19t15 14q0 1 6 2l12 2l13 2q6 1 7 1l34 26q4 3 19 5t32.5 4t33.5 3t23 2q70 4 141 12.5t139 8.5h21q12 0 13 -2q2 0 8 -2t13 -5 t12.5 -5t6.5 -2h80q1 -1 7.5 -2.5t14.5 -2.5l14 -3q7 -2 9 -2h21l110 10q25 0 55.5 -5.5t48.5 -18.5q20 -3 38 -5t38 -2q14 0 28 1.5t28 3.5q8 2 18 2.5t18 0.5h22q8 0 14 -0.5t11 -0.5h13q32 1 58 5.5t49 13.5t45 23.5t46 35.5q11 10 12 23t3.5 25t12 20.5t36.5 8.5 q23 0 41 -5t31 -27q6 -48 6 -99q0 -20 -15 -41.5t-36.5 -41t-45 -34.5t-40.5 -20q-25 -6 -57.5 -5.5t-60.5 -6.5q-20 0 -39 4.5t-38 9.5l-36 9q-17 5 -34 5q-18 0 -34 -4.5t-30 -4.5l-121 9q-11 0 -21 -2.5t-19 -13.5q-10 -22 -16 -44t-11 -44l-10 -45q-5 -22 -13 -45 q-2 -2 -8.5 -8t-6.5 -7v-47q-5 -29 -14 -57l-19 -55q-10 -27 -18.5 -54.5t-12.5 -56.5v-44q-1 -4 -3 -14l-5 -24q-2 -13 -4 -24.5t-2 -16.5q-2 -11 -10 -20l-16 -19q-9 -9 -16 -18.5t-8 -20.5q-3 -15 -4 -27l-2 -25q-1 -12 -3 -24.5t-7 -27.5q-3 -10 -7 -17l-9 -15 q-4 -8 -7.5 -18t-4.5 -26q0 -17 2 -31t2 -28q0 -11 -2 -21t-9 -22q-6 -21 -13.5 -32t-13.5 -21.5t-10 -25t-4 -42.5q0 -21 1.5 -40t8 -34t20.5 -24t39 -9l66 5q15 0 32.5 -3t32.5 -10.5t25 -21t10 -33.5q0 -29 -22.5 -42t-48.5 -13q-36 0 -71 8t-69 8l-54 -7q-10 0 -18 1.5 t-20 10.5h-148q-14 -5 -30.5 -5t-33 -0.5t-31.5 -3t-25 -12.5h-83q-3 0 -9 3t-12.5 7.5t-11.5 9.5t-5 9z" />
<glyph unicode="U" horiz-adv-x="2083" d="M906 74q-11 9 -32.5 31t-44 47.5t-42 50.5t-25.5 39t-8.5 26.5t-3.5 24.5l-2 25q-1 12 -5 25l-13 35q-8 22 -15 46t-12 47t-5 38q0 18 8.5 40.5t12.5 38.5q8 75 28 144.5t50 141.5q16 38 42 72l51 69q25 34 43 70.5t18 80.5q0 11 -1 20.5t-6 14.5l-24 10q-9 4 -17 6.5 t-16.5 3t-19.5 0.5q-26 0 -56 -2t-72.5 -4.5t-102.5 -4t-147 -1.5q-5 0 -18.5 -1.5t-28.5 -4t-28.5 -5t-18.5 -3.5q-22 -15 -42 -22l-46 -17q-2 0 -3.5 -2t-1.5 -4q11 -18 29 -35.5t40 -24.5q19 -5 38 -9t33.5 -12t23.5 -22.5t9 -41.5l-2 -24q-5 -24 -10.5 -44.5 t-14.5 -38.5t-23 -35t-35 -33q-1 0 -6 -3l-11 -7q-6 -4 -12.5 -7t-10.5 -3q-27 0 -52 20t-44.5 48.5t-32 59t-13.5 50.5q0 1 1 6.5t2 12t2 12t1 7.5q6 81 36 149.5t95 125.5q2 2 13 6t13 6q9 4 17 12l17 16q9 8 18.5 14.5t20.5 9.5l34 11l44 12l39 11q18 4 21 4h97 q3 1 14 1.5t24.5 1.5t26 1.5t18.5 0.5q14 1 28 6l30 11q15 5 29.5 9t28.5 4q7 0 14.5 -3.5t15 -8t16 -8t18.5 -3.5q18 0 31.5 8t28.5 8l45 -7l125 7q18 0 29.5 -2t29.5 -14q0 -20 -1.5 -36t-12.5 -28q-45 -42 -78 -88t-57.5 -96.5t-44.5 -104.5l-38 -112l-10 -30 q-5 -18 -16.5 -37t-16.5 -39q-2 -13 -6 -28l-8 -30q-4 -15 -7 -29t-3 -23q5 -12 5 -31t1 -35l-12 -99q0 -40 2 -81t7 -75q8 -42 21.5 -74.5t47.5 -61.5q9 -9 17.5 -13.5t15.5 -12.5q1 -3 4.5 -11t8 -17t9 -17t6.5 -9q6 -15 27.5 -30.5t47.5 -28.5t51.5 -22t39.5 -12 q3 0 13 -0.5t21 -1.5t20.5 -2t11.5 -1q8 -1 16.5 -5l16.5 -8l16 -9q8 -4 15 -4q18 0 33 14l29 24q40 15 78 31.5t72.5 37.5t65.5 48.5t57 65.5l5 16q7 19 18 36l24 33q13 16 24.5 34t18.5 39l5 39q6 9 12.5 14t12.5 9t11 9t8 13q0 6 3 22t7 33.5t7 33t3 20.5 q12 42 23.5 88.5t11.5 89.5q0 48 -1.5 92.5t-3.5 89.5q0 3 -1.5 10.5t-3.5 16t-4 15t-3 8.5l-28 35q-5 8 -6.5 22t-3.5 21q-9 21 -24 42.5t-29 44.5t-24 48t-10 54q0 23 10.5 43t28 34.5t39.5 23t45 8.5q15 0 25 -3t17.5 -8t14 -12.5t16.5 -16.5q3 -5 9.5 -6t13.5 -2.5 t13 -4t9 -8.5q1 -2 3 -8.5t2 -10.5q3 -14 9.5 -26.5t14 -24.5t14 -24.5t10.5 -26.5q1 -8 3.5 -20t4 -24.5t3 -22.5t1.5 -14l-1 -45q0 -12 2 -24.5t11 -18.5q6 -66 6 -127v-33q0 -17 -5.5 -30.5t-12 -26.5t-12 -26t-5.5 -29q0 -10 4 -15.5t9 -10t9 -9.5t4 -14q0 -1 -0.5 -3 t-0.5 -4q-1 -3 -1 -6q-11 -45 -27 -86.5t-45 -78.5q-5 -6 -8.5 -15t-5.5 -20l-5 -22q-3 -12 -6 -22q-17 -35 -46.5 -67t-51.5 -61q-11 -12 -14 -27t-14 -27l-92 -102q-47 -51 -103 -99q-20 -15 -40.5 -22t-43.5 -16q-10 -4 -18 -10.5t-15.5 -13.5t-15.5 -13t-18 -9 q-36 -17 -74 -24.5t-75 -20.5q-22 -3 -42 -3.5t-43 -0.5q-22 0 -43 0.5t-41 3.5q-9 -7 -15 -8t-16 -1q-7 0 -12.5 3.5t-11 8t-11.5 8.5t-14 6q-25 7 -47 15l-45 16l-46 18q-23 9 -50 18z" />
<glyph unicode="V" horiz-adv-x="1328" d="M152 22q0 10 1 28.5t3 38t6 36.5t9 26q1 0 5.5 4t9.5 9l9 11q5 5 5 7q1 1 2 7.5t2 14t2 14t3 7.5q1 2 3.5 6.5t5.5 9t6 8.5t4 5q0 2 2 8.5t5 10.5q5 21 10.5 33t11 22t12 20.5t13.5 28.5q0 1 1.5 8t2.5 15.5t2 16t1 9.5q2 17 8 33.5t13.5 32.5t14.5 32.5t12 34.5 q9 23 12.5 46.5t8.5 46.5l24 67q13 35 21 70l7 22l18 69q9 33 23 71q0 1 2.5 7t6 12.5t6 12t2.5 7.5q3 6 7 17l8 22q4 12 7.5 21t3.5 12q0 2 0.5 9.5t1.5 16t2 16t2 8.5q8 21 17.5 35.5t18 29.5t14 33t5.5 46q-2 3 -7 9l-12 12q-7 7 -12.5 12t-8.5 7q-1 1 -6 3l-11 6 q-6 3 -12.5 5.5t-10.5 4.5q-10 4 -19 6l-20 5q-9 3 -18 8t-17 14q-2 2 -3.5 7.5t-1.5 7.5q2 16 13 26t27 12l143 -8q30 0 68.5 3t68.5 19l159 12q23 0 30.5 -13.5t7.5 -36.5q0 -18 -9.5 -28.5t-23.5 -16t-30.5 -7t-29.5 -2.5q-21 -17 -37.5 -49.5t-29 -69t-23 -71.5 t-19.5 -59q-2 -3 -8 -14l-13 -24l-14 -27l-9 -19q-8 -14 -17.5 -33t-9.5 -30l7 -69q0 -3 -6 -21l-13 -38l-14 -37q-6 -17 -7 -18q-1 -3 -6.5 -10t-12.5 -15t-12.5 -15t-6.5 -9q-2 0 -4 -5t-4 -12t-4 -13l-2 -11q-2 -9 -2 -16v-19q0 -5 -3 -5q-4 0 -11 -2t-19 -7 q-8 -3 -10.5 -12t-4 -19.5t-2 -21.5t-3.5 -17l-38 -94q0 -32 11 -45.5t37 -13.5q15 0 29.5 8.5t27 20t24 24t21.5 20.5q41 37 68 81.5t57 88.5q32 47 67 85l74 75l14 14q14 15 24 32l21 34q10 16 21.5 31.5t27.5 27.5l30 26q15 12 32 24q16 12 32 26l34 28l48 47 q23 23 41.5 49.5t30 56.5t11.5 66q0 38 -12.5 53.5t-27 23.5t-27 16.5t-12.5 31.5q0 14 14 28t33.5 25t39.5 18t32 7q20 0 40.5 -6t40.5 -6l243 20q4 0 15.5 -0.5t24.5 -1.5t23.5 -1.5t13.5 -1.5q7 -2 8 -6t1 -9q0 -22 -21 -38.5t-49.5 -29t-57 -22.5t-43.5 -19 q-16 -10 -25 -17l-18 -12l-16 -10q-9 -6 -24 -13q-8 -4 -11 -11.5t-5 -16.5l-4 -18q-2 -9 -8 -15q-23 -23 -51 -40.5t-53 -40.5q-20 -21 -36 -46l-32 -49l-32 -50q-17 -25 -36 -47q-38 -45 -84 -90l-95 -88q-6 -5 -10 -6.5t-6.5 -3t-5.5 -3.5t-7 -8q0 -2 -2.5 -7t-4.5 -7 q-5 -13 -9.5 -20t-10.5 -12t-13.5 -9t-18.5 -11l-40 -53q-45 -39 -85 -82l-80 -86l-79 -86q-40 -43 -83 -84q-10 -9 -23.5 -11t-26.5 -10t-22 -25t-17 -35l-16 -36q-7 -18 -16 -28l-114 -104q-3 -11 -11.5 -20t-19.5 -16.5t-23 -11.5t-22 -4q-6 0 -18.5 2t-25.5 6.5 t-22.5 11.5t-9.5 16z" />
<glyph unicode="W" horiz-adv-x="1956" d="M258 55l9 25l-9 19q0 18 1 24.5t8 20.5l31 105q0 16 4 30.5t9 28.5l11 26q6 13 9 26v71l9 19l-18 27q0 10 8.5 18.5t19 17t19.5 17.5t9 20l-9 33q0 23 9 46t12 46q5 70 16 144.5t31 147.5q6 29 16.5 59.5t14.5 65.5v38q0 1 6 8.5t8 10.5q0 23 -22.5 40.5t-60.5 37.5 q-17 8 -32.5 16.5t-27.5 18.5t-19.5 20.5t-7.5 23.5q0 9 5 17.5t12.5 16t16.5 12t18 4.5q27 -5 54 -7.5t51 -2.5q55 0 104 10q7 -4 17 -4.5t21 -0.5h18l62 5q9 0 18 -2.5t20 -2.5q20 0 37.5 5.5t40.5 5.5q10 0 21.5 -0.5t21.5 -4t16.5 -10.5t6.5 -20q0 -35 -11 -49.5 t-28.5 -19.5t-38.5 -6.5t-40 -11.5q-23 -12 -38.5 -27t-26.5 -32t-20.5 -36.5t-21.5 -40.5v-85q0 -2 -3 -8t-3 -8q-1 -1 -5.5 -9t-4.5 -10q-2 -1 -3.5 -5.5t-1.5 -6.5q-5 -45 -12 -88t-18 -88q-5 -30 -20 -58.5t-25 -57.5q-8 -29 -12.5 -55.5t-8 -52.5t-8 -53t-10.5 -55 l-9 -21q0 -2 8 -3.5t28 -1.5q21 0 36.5 4.5t29 13.5t24.5 22l26 27l7 12q4 2 17.5 6t17.5 6q4 3 5 7.5t1.5 9.5t1.5 10.5t4 10.5q17 29 41 54t44 54l24 22q6 10 7 19t2.5 17t6 14t18.5 9l33 33l36 37l36 38q18 19 32 36l38 58q12 14 29 23.5t30 14.5q2 17 6.5 25t11 13.5 t14 10t15.5 14.5q8 8 15 22t12 29.5t8 31.5t3 29q0 31 -9.5 52t-23 35.5t-30.5 24.5l-30 18q-13 8 -22.5 16t-9.5 19q0 13 10.5 20.5t25 11t31 4t28.5 0.5q17 0 35 -4.5t37 -10.5t37.5 -10.5t36.5 -4.5q26 0 54.5 7t57.5 7l40 -5l92 21q10 0 23.5 -1t25.5 -4.5t20.5 -10.5 t8.5 -20q0 -26 -9.5 -40.5t-24.5 -22.5t-35 -11l-40 -5q-20 -2 -39 -5t-34 -12q-14 -8 -27 -27t-20 -35l-14 -48q-2 -11 -9 -22t-15 -22t-14.5 -22t-6.5 -23v-88l-33 -53q0 -2 1 -10t1 -16q0 -12 -2 -14q0 -2 -6.5 -12t-8.5 -12q-17 -59 -31 -125l-26 -125q-11 -14 -24 -36 t-13 -45q0 -22 12.5 -34.5t32.5 -12.5q19 0 38 18t37 42.5t34 50t28 40.5l51 51q29 28 55 46q0 2 4 6t8 6l19 23l30 35l29 36q14 17 19 24q11 25 30.5 44.5t40.5 38t39.5 38.5t27.5 46l111 111q4 21 14 35l20 27q10 13 17.5 28t7.5 38l-6 16q-13 0 -32.5 3t-38 10t-32 18.5 t-13.5 28.5q0 7 5.5 13.5t14 12t17.5 9t15 3.5l40 -5l69 5l70 -5q15 0 27 3l24 8l25 6q12 4 27 4q10 0 25.5 -1t32.5 -4t33.5 -9t28.5 -16q24 -13 24 -45q-1 -9 -7 -17.5t-14 -15t-15.5 -11.5t-11.5 -6q0 -4 -6 -9l-10 -10l-64 -20q-3 0 -9.5 -9t-7.5 -10q-20 -12 -45 -18.5 t-44 -21.5q-21 -20 -38 -41l-33 -43q-16 -21 -33.5 -41.5t-40.5 -39.5l-36 -17q-14 -10 -17.5 -19t-6.5 -18.5t-12 -20t-35 -22.5l-49 -65q-32 -51 -77 -93l-92 -85l-36 -28q-27 -21 -51 -47l-48 -53l-46 -55q-23 -28 -48 -53l-84 -74q-14 -16 -34 -44l-45 -59l-51 -65 q-27 -34 -53.5 -60.5t-51 -43.5t-44.5 -17q-16 0 -31.5 11t-15.5 29q0 25 7 45.5t17 41.5l20 41q9 20 14 45q7 22 11.5 46t8 49t7.5 49.5t11 47.5l36 100q17 51 31 103.5t22.5 105.5t8.5 106q0 12 -4 16t-13 6q-47 -38 -91.5 -81t-85.5 -88q-22 -25 -36.5 -52.5t-33.5 -49.5 q-3 -2 -11 -9t-10 -7q-21 -15 -38.5 -37t-34.5 -46l-32 -48q-15 -24 -32 -43l-52 -67l-50 -65l-55 -54q-2 -2 -14 -19l-27 -41l-31 -45l-25 -36q-11 -18 -18.5 -32t-16.5 -24.5t-23 -16t-39 -5.5h-19q-16 0 -29 3.5t-13 20.5v10z" />
<glyph unicode="X" horiz-adv-x="1525" d="M1042 -19q-9 0 -15 -1t-20 -6q-20 -4 -41 -6.5t-42 -2.5q-23 0 -46 2.5t-45 6.5q-24 5 -39 24t-15 40q0 2 0.5 11t2.5 12q19 23 33 43t35 36l9 10q8 7 8 9h-2q0 15 -1.5 35.5t-3.5 41.5l-4 41q-2 19 -4 33q-2 9 -11.5 16.5t-16.5 21.5q-12 31 -14.5 65t-4.5 66 q-12 20 -28.5 31.5t-44.5 11.5q-18 0 -45 -22t-57.5 -56t-61 -76t-55 -82t-39.5 -72.5t-15 -49.5q0 -12 3.5 -21t7.5 -18t7.5 -19.5t3.5 -24.5q0 -33 -15.5 -49.5t-39 -23.5t-51 -8t-51.5 -3q-3 -2 -13.5 -4.5t-12.5 -2.5h-21q-9 0 -17.5 1t-23.5 6h-140q-3 -2 -14 -4.5 t-18 -2.5q-11 0 -23 2t-21.5 6.5t-16 12.5t-6.5 20q0 25 11 40t29 23.5t40.5 13t45 8t42.5 8t34 14.5l94 66l36 38q34 45 76.5 87t94.5 69q0 4 2.5 9t4.5 6q15 39 48.5 74t68 67t60.5 62t26 59q0 12 -4.5 30t-11 37.5t-14.5 37.5l-12 30q-2 5 -7 15l-11 22l-12 22 q-6 10 -10 15q0 2 1 4.5t1 4.5q0 13 -8 19t-11 22v38q-5 13 -15 25l-20 24q-10 12 -19 24t-12 26q0 2 -0.5 8.5t-1.5 14t-1.5 14t-1.5 8.5q-5 10 -15 27.5t-22.5 35.5t-26 33t-24.5 20q-8 6 -25 15l-37 18l-42 20q-21 10 -38.5 20.5t-28.5 20t-11 18.5q0 16 16.5 24.5 t39 12.5t45.5 4.5t36 0.5l73 -16q10 0 19 3t17.5 6.5t17 6.5t18.5 3l125 -12l47 9q6 0 15.5 -3t19.5 -7.5t19 -9.5l13 -8q4 -2 4.5 -8t0.5 -8q0 -15 -12 -25.5t-27 -19.5t-29 -19t-18 -25q0 -12 1 -27.5t4 -31.5l5 -32q2 -16 5 -29q2 -2 9 -8.5t7 -8.5q8 -13 10 -26t2 -26 v-38q2 -9 16 -34t33 -51t38.5 -46.5t31.5 -20.5q24 0 51.5 19.5t54 47t50.5 56.5l38 46q0 24 16.5 49t36.5 49l37 42q16 19 16 31q-2 10 -9.5 28.5t-16.5 38.5l-16 36q-7 16 -7 22q0 15 8 26t20.5 18.5t27 11t27.5 3.5q14 0 30.5 -4.5t33.5 -4.5l111 14q2 0 12 -2.5t19 -2.5 q21 0 43 4t44.5 9t45 9t44.5 4q24 0 37.5 -10.5t13.5 -32.5q0 -11 -1.5 -21.5t-11.5 -15.5q-30 -18 -66.5 -27t-70.5 -25q-3 -1 -14 -6l-22 -12l-22 -13t-13 -8q-25 -10 -50.5 -18.5t-53.5 -25.5q-1 -3 -6 -12l-11 -19l-10 -18q-5 -9 -6 -10q-8 -13 -21 -24.5t-27 -22.5 t-27.5 -23t-22.5 -25q-11 -12 -17 -24t-10.5 -23.5t-10 -23.5t-14.5 -24q-5 -7 -11.5 -18t-14.5 -22.5t-16.5 -21.5t-16.5 -14q-13 -10 -24.5 -17.5t-21.5 -15t-19 -17.5t-18 -24q-1 -1 -2.5 -6t-3 -11t-2.5 -11.5t-1 -6.5q-4 -15 -11.5 -23.5t-15 -16t-13 -16.5t-5.5 -25 q0 -32 3.5 -52t10 -33t15.5 -22l19 -19q10 -10 21.5 -23t22.5 -35q11 -23 16.5 -51t21.5 -51q9 -18 22 -30t18 -30q1 -7 5.5 -20t10.5 -27l10 -27q4 -13 5 -18q3 -1 9 -7l13 -12l11 -13t7 -8l15 -33q7 -13 23 -24.5t29 -25.5q0 -2 6.5 -4.5t23.5 -2.5q3 0 7 -4t8 -8.5t7 -9 t4 -5.5l109 -44q8 -8 10 -20t2 -23q0 -18 -14.5 -24.5t-34.5 -9t-40 -3.5t-32 -8q-17 -2 -34.5 -2.5t-33.5 -0.5q-18 0 -34 0.5t-33 2.5q-17 9 -35 11.5t-38 2.5h-50z" />
<glyph unicode="Y" horiz-adv-x="1329" d="M505 7q-38 0 -77 -8.5t-78 -8.5q-16 0 -37 1.5t-40 7.5t-32.5 18t-13.5 33q0 8 6 15.5t13.5 14t15.5 11.5l13 8l23 12q10 6 22 9.5t28.5 6.5t42.5 6q22 2 43 19.5t40.5 43.5t36.5 57.5t30 63t21.5 59.5t10.5 46q4 22 4.5 42.5t2 40t6 38.5t15.5 38q0 2 5 8l11 15 q6 8 11 15.5t5 10.5v38q2 2 9 12t12 14q-2 9 -2 16v15q0 25 3.5 50t3.5 52t-1 47t-4 50q-15 13 -21 33t-8.5 42t-6 43t-14.5 38q-1 0 -1 1t-0.5 1t-0.5 1q-1 1 -1 2q-16 10 -27 22l-24 23q-11 11 -24.5 18.5t-32.5 7.5q-14 0 -30.5 -2t-33.5 -5.5t-31.5 -7.5t-23.5 -8 q-25 -5 -39 -13t-20.5 -20.5t-8 -28.5t-1.5 -35v-27q13 -9 33 -9t41 4.5t43 4.5q11 -2 21.5 -8.5t18 -16t12 -20t4.5 -19.5q0 -21 -10.5 -39t-26.5 -30.5t-36.5 -20t-39.5 -7.5h-33q-6 6 -12.5 9.5t-13.5 5.5t-13.5 4.5t-11.5 6.5q-26 22 -42.5 59t-16.5 69q0 95 38 166.5 t130 116.5l30 10q16 6 32 6q28 0 60.5 -2.5t64 -9t61.5 -17.5t54 -28l9 -19q8 -14 22 -36t27.5 -45.5t24.5 -45.5t14 -34q2 -9 2 -24.5t2.5 -30.5t8 -26t18.5 -11q17 0 29 8t21.5 19.5t18 24t18.5 21.5l36 36l30 32l28 32q14 17 29 38q11 12 25 17.5t30 13.5q2 2 5 4.5 t5 4.5l40 29q21 16 44.5 29.5t47.5 22.5t45 9t45 -5.5t48.5 -13.5t47.5 -17.5t40 -17.5q10 -7 23 -19t24.5 -26.5t19.5 -28.5t8 -26v-3q-2 -5 -5 -18l-6 -27l-7 -28q-4 -13 -5 -19q-8 -11 -22.5 -24.5t-29.5 -18.5l-29 -4q-28 0 -46.5 11t-32.5 27t-24.5 35t-22 35t-26.5 27 t-38 11q-32 0 -65 -18t-63 -45t-54.5 -58t-39.5 -56q0 -1 -2 -6l-6 -11q-3 -5 -5 -10t-2 -6q-2 -4 -3 -7t-2 -5l-8 -9l-14 -14l-14 -14q-7 -6 -8 -8t-4 -14t-3 -14q-10 -22 -26.5 -40.5t-28.5 -35.5q-16 -32 -23 -68t-13 -70q-9 -30 -25.5 -59t-21.5 -59q-1 -1 -2.5 -8 t-2.5 -15t-1.5 -14.5t-0.5 -7.5q-5 -12 -11 -19l-11 -13q-5 -5 -8 -11t-3 -17t3.5 -19t3.5 -19q0 -12 -8 -20.5t-13 -17.5q-8 -24 -17.5 -44t-17 -40t-12.5 -42t-5 -49q0 -35 15 -51t37.5 -22.5t49 -8t49 -7t37.5 -19.5t15 -46v-14q-14 -23 -32 -30.5t-43 -7.5 q-20 0 -40.5 4t-41 9t-41 9t-39.5 4q-23 -2 -45 -2.5t-45 -0.5q-2 0 -6.5 1.5l-10.5 3.5l-10 2q-5 2 -6 3h-35z" />
<glyph unicode="Z" horiz-adv-x="1364" d="M1314 -535q-9 2 -30 13t-48 28l-58 37l-57 39l-49 35q-22 16 -31 25q-5 3 -16 13l-22 22l-22 21q-11 10 -15 15q-11 4 -19.5 10t-16.5 14l-17 17q-10 9 -23 18q-25 17 -55.5 34.5t-62.5 22.5q-14 12 -28 26l-29 27q-15 13 -30.5 25t-33.5 20q-3 3 -10.5 8l-15.5 10l-14 8 q-7 3 -8 4q-3 0 -12.5 1t-21 2.5t-21.5 3t-13 1.5q0 1 -3.5 4.5t-7.5 6.5l-9 8q-5 3 -6 4q-48 23 -91.5 39t-94.5 32q-3 1 -7 2q-3 1 -5.5 2t-3.5 1q-2 2 -9 5.5t-8 3.5l-45 -9q-35 -7 -67.5 -8t-64.5 -13q-1 0 -5.5 -1.5l-10.5 -3.5l-13 -5q-7 -3 -11 -5 q-14 -9 -25.5 -12.5t-22 -7.5t-19.5 -10t-17 -19q-26 -9 -43 -11.5t-40 -2.5q-5 0 -12.5 1t-15.5 3.5t-13.5 7.5t-5.5 13q0 6 3.5 16t8.5 20t11.5 19t11.5 14q6 8 14 12t17.5 6.5t19 5.5t18.5 10q72 59 146.5 112t152.5 103q42 42 92 83l98 78q9 8 13 16l9 16q5 8 11.5 16.5 t20.5 17.5q2 1 12 3t12 2q17 5 28.5 14.5t20.5 20.5l19 22q10 12 22 22q23 16 46 30l46 27q23 16 44 37l43 43l42 45q21 23 42 42t52 32.5t59.5 29t48.5 38t20 60.5q0 14 -3 24t-13 18h-24q-34 0 -63 8t-58 30q-70 22 -143.5 35t-145.5 13q-15 0 -33.5 -2.5t-34 -9.5 t-26 -19.5t-10.5 -33.5q0 -18 10.5 -35.5t25.5 -33.5t31 -29t27 -23q4 -5 4.5 -8.5t0.5 -7.5l5 -31q0 -18 -5 -34t-5 -18l-23 -17q-11 -5 -23.5 -8.5t-26.5 -3.5t-29.5 3.5t-29.5 8.5q-16 0 -34 23t-33.5 53t-25.5 58.5t-10 39.5q0 16 8 25t11 22q0 1 1.5 7t3.5 13l4 13 q2 7 4 10q0 1 0.5 6t1.5 10.5t2.5 10.5t2.5 6q9 18 30.5 41t47 44t51.5 35.5t44 16.5h63q13 3 25 9l24 11q12 6 26.5 10t33.5 4q4 -1 19.5 -4t33.5 -6l32 -6q15 -2 20 -3q3 0 16 -1t28.5 -2.5t29 -2.5t18.5 -2q1 0 6.5 -2.5t12.5 -6.5l11 -6q5 -2 6 -2q68 -21 147.5 -37.5 t150.5 -16.5l32 6l41 8l38 7l22 5q31 8 47 26.5t31 38t37.5 34.5t66.5 15q18 0 22.5 -11t4.5 -25q0 -12 -1 -23t-6 -22l-78 -82q-44 -44 -89 -76q-2 0 -7.5 -2.5t-13 -5.5t-15 -5.5t-11.5 -3.5q-26 -11 -53.5 -31.5t-54 -45t-50.5 -49.5l-45 -45q-6 -5 -18 -10l-27 -11 q-15 -5 -29 -11t-22 -13q-26 -18 -49 -47t-41 -55l-14 -15l-27 -27l-27 -26q-13 -11 -15 -12q-12 -7 -20 -10.5t-14 -7t-12.5 -8.5t-16.5 -15q-17 -15 -30.5 -28.5t-27.5 -24t-31 -16.5t-41 -6q-19 -11 -23.5 -24t-14.5 -24q-10 -7 -20 -10t-19 -6t-17.5 -7.5t-15.5 -14.5 q-1 -1 -4 -5.5t-6 -10.5l-7 -11q-3 -5 -4 -6q-11 -14 -26 -25.5t-31 -21.5l-33 -20q-16 -10 -28 -20q-1 -1 -5 -6l-10 -11l-10 -10q-5 -5 -8 -6l-13 -9l-22 -13t-22 -13.5t-13 -7.5q0 -25 12.5 -40t26.5 -17q30 -6 68.5 -15t76.5 -21.5t72.5 -29.5t57.5 -39l94 -35 q46 -17 93 -31q18 -6 31.5 -20t26 -29.5t25 -29.5t28.5 -20l48 -3l16 -16l98 -89q48 -43 97 -82q9 -7 14.5 -14.5t10.5 -13.5t12 -10.5t19 -6.5l41 -30q19 -14 35.5 -29.5t31.5 -33t29 -39.5q6 -9 19.5 -8.5t24.5 -6.5q3 -3 11 -15l9 -15q1 -1 7 -4q5 -3 15 -8t28 -13 q24 -15 42.5 -31t36.5 -29.5t39 -22.5t51 -9q59 0 92.5 10t51 34t25.5 63.5t16 98.5q11 13 19 25t17 20.5t21 13.5t32 5q4 0 18 -3.5t29 -10.5t27 -16t12 -19q7 -14 7 -29q0 -20 -7 -35q2 -1 5.5 -7t3.5 -20v-7q0 -3 -2 -7q-14 -46 -46.5 -90t-78.5 -71l-57 -19 q-20 -11 -36.5 -21.5t-33.5 -18.5t-35.5 -13.5t-41.5 -5.5l-104 7l-69 -7q-40 13 -78.5 27.5t-74.5 32.5t-69 41.5t-63 55.5z" />
<glyph unicode="[" horiz-adv-x="852" d="M883 1436q13 -3 16 -11.5t3 -19.5v-14q0 -22 -1.5 -39.5t-10.5 -40.5q-1 -5 -6 -8.5t-11 -5.5t-11.5 -3.5t-7.5 -1.5q-35 -6 -66.5 -8t-63.5 -2h-52q-13 -9 -28 -9h-10q-23 0 -43 5.5t-40 5.5h-15q-9 0 -11 -2q-9 0 -22 -1l-27 -3l-25 -3.5t-13 -1.5t-7 -5l-12 -11 q-6 -6 -11.5 -12.5t-7.5 -9.5q-6 -13 -8 -38.5t-2 -47.5v-23q0 -47 2.5 -102.5t7.5 -96.5q0 -3 3 -10l7 -15q3 -9 6 -15.5t3 -7.5v-16q0 -11 -2.5 -18.5t-16.5 -14.5v-67q0 -2 -1.5 -7.5t-3.5 -12t-3.5 -12t-1.5 -6.5q0 -3 0.5 -10.5t0.5 -17t0.5 -20.5t0.5 -21v-18 q0 -8 -2 -10q0 -2 -2.5 -7.5t-5.5 -11.5l-7 -12q-3 -6 -4 -7v-5v-5q0 -1 2 -6l3 -13q2 -7 3.5 -13t1.5 -7v-41v-16q0 -2 2 -8l3 -12q1 -7 2.5 -12.5t1.5 -6.5v-9v-10q0 -2 -1.5 -7.5t-3 -12t-3 -12t-1.5 -6.5v-6v-3q0 -4 1.5 -17t3 -27.5t3 -27t1.5 -16.5q0 -2 0.5 -15.5 t1.5 -29.5l1 -34v-27v-21l-1 -32l-1 -31q-1 -15 -1 -21q-2 -5 -5.5 -19.5t-3.5 -18.5q0 -5 -0.5 -19t-0.5 -30t0.5 -29.5t0.5 -18.5q-5 -5 -12 -14.5t-7 -13.5t4.5 -16t4.5 -13q5 -25 5 -50.5t14 -48.5l7 -7l9 -11q5 -6 9 -11.5t4 -6.5q1 -3 4.5 -11.5t6.5 -18.5l6 -18 q2 -8 2 -9q5 -7 15.5 -14t14.5 -9q7 0 24.5 -1.5t37.5 -3t37.5 -3t24.5 -1.5h16h15q2 0 13.5 1.5t24.5 3t24 3t13 1.5q2 2 7 2h12q14 0 30 -1t18 -1q4 2 15.5 6t15.5 4h23h26q2 0 13 -4t13 -6q2 0 11.5 1t17.5 1h8q3 0 4 -2q18 -2 29 -12.5t17 -25t8.5 -31.5t2.5 -31v-6 q-14 -17 -31 -26.5t-36 -14t-39.5 -6t-41.5 -1.5q-44 0 -87 3.5t-86 8t-86 8t-86 3.5h-67q-1 0 -6 -2l-12 -4q-6 -3 -12 -5t-8 -2q-20 0 -44 5.5t-44 16.5t-33.5 28.5t-13.5 41.5q0 52 5 104t5 105q0 46 -8 91.5t-11 90.5v28v69q0 4 -1.5 22.5t-3 39.5t-3 39.5t-2.5 23.5v3 v7q1 9 2 29.5t2 46.5l2 53q1 28 1.5 54t1.5 46t1 30q3 3 6 14t3 16v3v5q-2 3 -8.5 14.5t-10.5 15.5v308q2 2 6 12.5t4 15.5q0 3 -1.5 14.5t-3.5 24t-3.5 24t-1.5 14.5v173q0 1 -1.5 7t-3 13t-2.5 13l-2 5q0 1 -0.5 12t-0.5 25v28v22v18v26q0 14 0.5 25.5t0.5 16.5 q14 18 29.5 26t32 10.5t34.5 2.5t37 1q3 0 13 2l22 2l21.5 3.5t11.5 1.5h29h80q2 0 13 5t13 5q6 1 25 2.5t42.5 3t45.5 2.5t34 1h17h50q2 2 13.5 6t12.5 4h12h7q5 0 17 -2l23 -2l23 -4q12 -1 17 -2z" />
<glyph unicode="\" horiz-adv-x="755" d="M618 -445q-3 17 -7 24t-8 12l-9 10q-5 6 -11 22v29q-2 14 -7.5 22.5t-12.5 15.5t-14.5 13.5t-13.5 17.5q-5 5 -8 15t-4.5 21t-1.5 23v19v25q-7 5 -13 16t-6 22l-19 36q-4 4 -10.5 14.5t-6.5 18.5q0 5 3.5 11t3.5 8q0 19 -4 31.5t-9.5 22t-12 16.5t-11.5 15q-3 11 -5 29.5 t-4.5 37.5t-6 36t-10.5 25l-6 5q-7 5 -15 12l-14 13q-7 6 -8 9l-7 40q0 2 -3.5 6t-8 7.5t-8 7t-4.5 3.5q-11 11 -11 32l2 43q0 16 -2 28t-8 24l-19 24l-24 30l-22 30q-10 14 -13 23q-4 18 -4.5 36t-16.5 38q-9 14 -12.5 22.5t-5.5 16t-5.5 16.5t-12.5 25v28l-40 116 q-5 5 -10 12t-9 19v29q0 9 2 17q-38 47 -50 109v33q0 11 -1.5 17t-10.5 11l-20 27l-26 34l-25 35q-12 17 -18 30q0 30 -0.5 39t-4.5 18q-10 13 -18.5 22.5t-15 18.5t-10.5 20t-4 28v53q-2 1 -5 6l-6 11q-3 5 -5 10t-2 6v64q14 7 34 15t36 8q31 0 51 -14t39 -37q3 0 10 -21.5 t14.5 -49t13 -52.5t5.5 -32q11 -29 27.5 -56t27.5 -57l37 -114q18 -58 41 -112q7 -18 17 -30l18 -23q8 -11 14 -24t6 -32l2 -21q0 -2 5 -10l5 -11q12 -12 19.5 -33t13.5 -44l10 -47q5 -23 11 -39q3 -16 10.5 -30.5t15.5 -28.5t15.5 -28.5t10.5 -31.5q0 -4 1 -11.5t6 -21.5 q11 -40 26 -83t36 -78q3 3 12 -16t22 -50l28 -70l30 -75l27 -66q12 -30 21 -44q4 -11 7.5 -19.5t3.5 -24.5q0 -14 0.5 -21t2.5 -13l6 -6l12 -10q6 -5 11 -10t6 -7q0 -2 1 -9.5t2 -16.5t1.5 -17.5t0.5 -12.5q4 -14 13.5 -24t14.5 -19v-19q3 -20 12 -39l19 -37q9 -19 16.5 -38 t7.5 -40q0 -3 -8 -15.5t-18.5 -26.5t-21 -25t-16.5 -11z" />
<glyph unicode="]" horiz-adv-x="901" d="M103 -471q-14 3 -16.5 12t-2.5 20v13q0 23 1.5 40.5t10.5 39.5q0 4 5 8t11.5 6t12 3.5t7.5 1.5q35 7 66.5 8.5t63.5 1.5h52q13 9 27 9h11q22 0 42 -5t41 -5h14q9 0 12 1q8 0 22 1l27 3l24.5 3.5t12.5 1.5q2 1 7.5 5.5t11.5 10.5t11.5 12.5t7.5 9.5q7 13 9 38.5t2 48.5v22 q0 47 -3 102.5t-8 96.5q0 3 -2.5 10t-6 15.5t-6.5 15t-4 7.5v16q0 12 2.5 19t16.5 14v67q0 2 1.5 8t4 12t4 11.5t1.5 6.5q0 3 -0.5 10.5t-0.5 17.5t-0.5 21t-0.5 21v18q0 7 2 9q0 2 2.5 8t5.5 12l6 11q3 6 5 7v6v5q0 1 -1.5 6.5t-4 12t-4 12t-1.5 7.5v41v16q0 2 -2 8l-3 13 l-2 11.5t-1 7.5v8v11q0 1 1 6.5t2.5 12t3 12t1.5 7.5v5v3q0 4 -1.5 17t-3 27.5t-2.5 27.5t-1 17q0 2 -0.5 15t-1.5 29.5t-1.5 33.5t-0.5 27q0 6 0.5 21t1.5 32t1.5 32t0.5 21q1 4 4.5 19t3.5 19q0 5 1 18.5t1 29.5t-1 30t-1 19q5 4 12 13.5t7 13.5q0 5 -4 16.5t-4 13.5 q-5 25 -5 50t-14 48q-2 1 -7 6.5t-9.5 12t-8.5 11.5t-5 7l-4 12q-3 8 -6 18l-6 17q-2 8 -3 10q-4 6 -14.5 13t-14.5 9q-7 0 -25 2l-38 3l-37 3q-18 1 -25 1h-15h-16q-2 0 -13 -1.5t-24 -3t-24 -3t-13 -1.5q-2 -1 -8 -1h-11q-14 0 -30 0.5t-19 0.5q-4 -2 -15.5 -6t-15.5 -4 h-22h-26q-2 0 -13.5 4t-12.5 6q-3 0 -12.5 -0.5t-17.5 -0.5q-10 0 -12 1q-18 2 -29 12.5t-17 25.5t-8.5 32t-2.5 31v5q13 17 30.5 26.5t37 14.5t40 6t41.5 1q43 0 86.5 -3.5t86.5 -7.5t85.5 -7.5t85.5 -3.5h68l5 2l12 4l13 4q6 2 8 2q20 0 43.5 -5.5t44 -16.5t34 -28.5 t13.5 -41.5q0 -52 -5.5 -103.5t-5.5 -105.5q0 -46 8.5 -91t10.5 -91v-27v-70q1 -5 2 -22.5t2.5 -38.5t3 -39.5t3.5 -23.5v-4v-7q-1 -10 -2 -30t-2 -45l-2 -54l-2 -53q-1 -26 -2 -46.5t-1 -30.5q-2 -3 -5 -14t-3 -16v-3v-5q1 -3 7.5 -14t11.5 -16v-308q-3 -2 -7 -12.5 t-4 -14.5q0 -3 1.5 -14.5t4 -24.5t4 -24.5t1.5 -14.5v-173q0 -1 1 -7t2.5 -12.5t3 -12t1.5 -6.5q1 -2 1.5 -12.5t0.5 -24.5v-28v-22v-19v-26q0 -13 -0.5 -25t-1.5 -16q-14 -18 -29 -25.5t-32 -10.5t-35 -3t-37 -1q-3 0 -14 -1l-21 -4q-11 -1 -20.5 -2.5t-11.5 -1.5h-30h-79 q-1 0 -5 -1.5t-8.5 -3.5t-8.5 -3l-4 -2q-6 -1 -25.5 -2.5t-42.5 -3t-45 -2.5t-34 -1h-18h-50q-2 -1 -13 -5.5t-13 -4.5h-12h-7q-5 1 -17 3l-23 2l-23 4q-11 1 -16 1z" />
<glyph unicode="^" horiz-adv-x="992" d="M339 1028h-7q-14 -8 -25 -23.5t-20.5 -33.5t-17.5 -35.5t-15 -30.5q-1 -2 -6 -7.5t-10 -12.5l-9 -12q-5 -6 -6 -8q-9 -16 -13.5 -35t-10.5 -36t-17.5 -28.5t-34.5 -11.5q-5 0 -11 2t-11.5 6t-9 9.5t-1.5 12.5q3 19 12 35.5t20 31.5l21 32q10 16 16 34q9 25 15.5 53.5 t14 58t17 57t24.5 51.5q4 7 15 22l21 32l21 29q9 14 12 19q3 4 15 14.5t17 12.5q1 0 3 1q2 0 2.5 0.5t2.5 0.5t5 -1t6 -1q29 -6 45.5 -12.5t33.5 -26.5q2 -3 5 -10.5t6 -8.5q18 -64 32 -127l28 -126q3 -17 11 -39t8 -42v-9q0 -1 -2 -7l-3 -13l-2 -11.5t-1 -6.5v-7 q0 -14 4 -29.5t4 -29.5q0 -20 -6 -37t-23 -30q-3 3 -10.5 9t-16 12t-15 11.5t-8.5 7.5q-3 1 -6 9.5t-5 12.5q-1 2 -4 9t-6 15l-5 16q-3 7 -4 8q-1 2 -5 8l-7 14l-6 13q-3 6 -3 7q-1 3 -4 18t-6 32l-6 32q-2 14 -3 17q-5 18 -19 43.5t-31 39.5h-5z" />
<glyph unicode="_" horiz-adv-x="769" d="M-174 -142q16 32 36.5 58.5t46.5 43.5q8 2 16 2h17h11q7 0 13 -2h9q22 0 43.5 10.5t44.5 10.5l61 -14q16 0 28 3.5t24 3.5q19 0 25 -3.5t9 -7t8 -7t23 -3.5l135 14l45 -9q8 0 16.5 4.5t16.5 6.5q9 4 18 7t20 3q28 0 48.5 -11t31.5 -34q-2 -7 -5 -12l-5 -9q-3 -5 -5.5 -14 t-3.5 -25l-12 -21q-25 -18 -54 -23.5t-54 -5.5h-74q-17 1 -31 3.5t-28 2.5q-41 0 -70 -1l-58 -2l-56 -2q-30 -1 -72 -1q-35 -2 -74 -7.5t-71 -5.5q-27 0 -50 13.5t-23 33.5z" />
<glyph unicode="`" horiz-adv-x="1054" d="M499 1403q0 42 25.5 61t64.5 19q15 0 34 -12.5t38 -32.5t37 -44.5t31.5 -49t21 -46t6.5 -35.5q9 -7 22.5 -26t28 -44.5t28.5 -54.5t25.5 -55.5t18.5 -48t7 -31.5q0 -15 -6.5 -22t-24.5 -7q-17 0 -28 10t-20 23l-17 27q-9 13 -20 21l-29 22q-8 6 -11 10.5t-6 11t-15 22.5 q-13 19 -29 35l-33 33l-34 32q-17 16 -32 35l-5 10l-9 17l-7.5 17t-4.5 10q-6 10 -15.5 20.5t-18.5 22.5t-16 24.5t-7 25.5z" />
<glyph unicode="a" d="M433 7v24q0 27 8 53t18 51.5t18 52.5t8 56q-15 0 -20 -1t-6.5 -4.5t-2.5 -9.5t-9 -16q-8 -14 -27 -29t-41 -29l-43 -28q-21 -13 -31 -23l-16 -14q-18 -22 -42 -39.5t-52 -29.5t-57.5 -18t-57.5 -6q-38 17 -51 29.5t-17.5 25t-7 28.5t-17.5 39v14l1 19q1 10 2 19t2 12 q0 2 1.5 11t4.5 19.5t7 21t8 16.5q4 14 3 32t7 32q2 1 8 8l13 14q7 7 12.5 13.5t6.5 7.5q2 2 2 9.5t1 18.5q2 9 3 17t3 10l5 13q6 13 20 30.5t18 34.5q4 14 4 24t10 21q6 5 20 19l29 30l28 29q13 14 18 19q1 1 6 8l9 13l8 12q4 6 4 7q11 13 28 27.5l35 28.5l34 25 q17 12 28 21q22 6 44 16l44 18q22 9 45 15t47 6l109 -20q16 0 30 7t28 15.5t29 15.5t34 7q7 0 13.5 -7t11 -16.5t7.5 -19t3 -13.5q0 -15 -3.5 -23t-9.5 -15l-11 -17q-6 -9 -11 -26l-5 -64q0 -2 -3 -5l-7 -8l-7 -8q-3 -4 -4 -5q-10 -14 -15 -27.5t-8 -27.5t-5 -28t-5 -29 q-2 -9 -11.5 -34.5t-21.5 -53.5l-23 -51q-11 -24 -15 -28q-8 -10 -15 -16.5t-12.5 -12.5t-9 -13t-3.5 -18v-17q0 -12 1 -25t3 -23t5 -11q4 -9 14 -16.5t21 -7.5l5 6q16 0 33 14t38 34t47.5 43t61.5 41q2 0 3.5 -2.5t1.5 -4.5v-19q0 -23 -10.5 -40.5t-25.5 -33.5l-30 -33 q-15 -17 -24 -38q-5 -6 -20 -20l-32 -30l-32 -30q-15 -15 -20 -21q-11 -10 -25.5 -21.5t-31 -21t-34 -16t-33.5 -6.5q-20 0 -45 5t-45 7zM148 189q0 -12 6.5 -23.5t16 -20.5t21.5 -14t23 -5q19 0 51 19t66 45t64.5 53.5t45.5 45.5q17 18 27.5 46.5t22.5 52.5q13 22 28 43 t27 43t20 46.5t8 52.5q0 12 -6.5 35t-18.5 46t-29 40t-39 17q-5 -2 -14.5 -8.5t-19.5 -14.5l-19 -16q-9 -8 -13 -11q-11 -10 -19 -20.5t-14 -21.5l-13 -22q-7 -12 -16 -23q-8 -13 -20 -26l-25 -28q-13 -15 -23.5 -30.5t-13.5 -32.5v-18q-6 -14 -15 -27.5t-20 -26.5 t-22.5 -24t-21.5 -18q-1 -6 -3 -19l-6 -29q-3 -15 -6 -27l-4 -17q-2 -11 -6 -18t-8.5 -13.5t-8 -13.5t-3.5 -17z" />
<glyph unicode="b" horiz-adv-x="796" d="M52 163q0 13 3.5 40.5t9.5 61t14 70.5t17.5 69t19.5 55.5t21 30.5q4 57 20.5 113.5t36.5 107.5q0 1 4 8l8 15l9 17q4 9 6 14q2 4 8.5 20.5t13.5 36.5l18 50q0 11 -3.5 19t-3.5 16q4 4 10 13.5t14 20.5q7 9 12 19t9 12q1 3 2 12l2 19q1 9 2 17t1 9q13 64 37 125.5 t41 125.5q5 17 13 32.5t8 35.5q0 15 -6.5 29.5t-15.5 28t-19 26t-16 23.5q-3 2 -3.5 7t-0.5 7q0 19 14 27t33 11t39 4.5t32 7.5h123q1 0 9.5 -7.5t10.5 -11.5v-12q-5 -30 -7 -60.5t-13 -50.5q-12 -30 -27 -61.5t-22 -62.5q-1 -3 -3.5 -14t-4.5 -23q-3 -11 -5 -22t-4 -12 q-1 -2 -4 -7l-8 -10q-4 -5 -8 -9.5t-6 -5.5q0 -1 1.5 -10t1.5 -16q0 -2 -0.5 -5t-2.5 -3q-2 -21 -9.5 -44.5t-18 -47t-22 -45t-21.5 -38.5l-24 -34v-59q0 -1 -2 -4.5t-5 -7.5t-5 -8t-2 -5v-15q0 -12 6 -19t15 -10t20 -3.5t20 -0.5q8 0 28 12l44 28q24 16 49.5 28.5 t44.5 12.5q41 -4 72.5 -12t53 -26t32.5 -48t11 -76v-28q0 -20 -0.5 -37t-4.5 -29q-1 -1 -5 -7l-8 -12q-5 -6 -8.5 -12.5t-4.5 -9.5q-12 -20 -19 -47.5t-21 -49.5q-7 -8 -21.5 -21t-29.5 -28t-26.5 -30t-12.5 -27q0 -2 2 -7t2 -6l5 -14q0 -12 -5 -24t-12.5 -24t-16 -23.5 t-14.5 -22.5q-17 -30 -32.5 -61t-28.5 -63q-3 -6 -10 -8.5t-15 -4t-15 -2.5t-10 -3q-2 0 -4 -10q-2 -4 -3 -9q-15 -20 -44.5 -37t-63 -29.5t-66 -19.5t-53.5 -7q-61 0 -109.5 32t-73.5 86v64zM194 197q0 -2 6 -9.5t11 -9.5q0 -2 1.5 -7t3.5 -7q3 -10 5 -21.5t6.5 -21 t12.5 -16t23 -6.5q5 0 22 12.5t39 31.5l45 41l45 42q20 19 33.5 33.5t14.5 17.5q1 1 3 8.5t4 16t3.5 16t3.5 9.5q4 12 20 21t23 15q8 11 11.5 23t5 24t3.5 22.5t8 19.5q0 1 5.5 7.5l12.5 14.5l13 13q5 6 7 8q1 2 5.5 8t4.5 7q4 37 10 79t6 81q0 18 -1.5 36.5t-8 34t-19.5 25 t-35 9.5q-17 0 -31.5 -4.5t-29.5 -10.5l-30 -13q-16 -7 -34 -10q-4 -2 -12 -11t-17 -18q-12 -12 -21.5 -22.5t-13.5 -12.5q-11 -11 -17 -23.5t-11.5 -25.5t-10.5 -26t-13 -24l-15 -15q0 -2 -0.5 -8t-1.5 -13l-2 -13q-1 -7 -2 -9q0 -2 -1 -7.5t-3 -11.5l-4 -11q-2 -6 -4 -7 q-20 -45 -45.5 -89t-33.5 -89q0 -1 1 -6l3 -12q1 -7 2 -13t1 -9v-19q0 -13 -3.5 -21.5t-3.5 -21.5v-2z" />
<glyph unicode="c" horiz-adv-x="617" d="M14 204q0 19 4 36t10 33l11 32q6 17 11 36q1 1 2.5 8.5t2.5 16.5t1.5 16.5t0.5 8.5l14 26q2 2 9.5 13.5t9.5 15.5q1 1 3 9t4 17.5t4 18t3 11.5q4 14 12.5 27t18.5 26l20 25q9 12 15 25v32q0 3 8 16t20 30l28 37l26 36l22 28q9 11 10 12q35 21 65.5 34.5t61.5 21.5 t65 11.5t76 3.5q16 0 32.5 -15.5t30 -37.5t22.5 -45t9 -39q-8 -27 -25.5 -40.5t-37.5 -13.5q-32 0 -51 15t-33 33.5t-27 33.5t-32 15q-23 0 -28.5 -11t-9.5 -32q-32 -29 -56.5 -56.5t-44 -57t-35 -62.5t-30.5 -71q-2 -2 -8 -12l-11 -21q-6 -12 -11 -21l-5 -12v-43 q-3 -29 -14 -57t-24 -49v-67q3 -10 9 -22t15.5 -22.5t23 -18t30.5 -7.5q12 0 21 5.5t16.5 13.5t14.5 17t17 16q13 10 23.5 14.5t18 9t13.5 12t11 23.5l84 82q0 2 4.5 2.5t6.5 0.5t9.5 -1t7.5 -8q0 -26 -6 -43t-16.5 -31t-23.5 -28t-27 -33q-1 -1 -3.5 -9t-2.5 -10 q-8 -17 -21 -30t-28 -24l-30 -23q-15 -12 -27 -26l-24 -40q-3 -3 -21 -11l-40 -18q-21 -10 -41 -17.5t-26 -7.5q-18 0 -38 8t-37.5 21.5t-31 30t-20.5 34.5q-6 14 -8 29.5t-2 32.5v81z" />
<glyph unicode="d" horiz-adv-x="963" d="M482 138q1 9 6 23l9 30q5 15 9 29t4 22t-5.5 11t-13.5 3q-7 0 -24 -12t-35.5 -27.5t-34.5 -30.5t-21 -22q-18 -22 -52.5 -50t-75 -53.5t-82 -43t-72.5 -17.5q-6 0 -8.5 1.5t-10.5 5.5l-11 7l-17 12l-17 11q-8 6 -10 8q-13 10 -20 30.5t-10.5 44t-4 45.5t-0.5 34 q0 9 8.5 38t19.5 61t21.5 58.5t14.5 31.5q10 5 25.5 16t19.5 18l3 9q2 6 3 12.5t2 11.5t1 7l2 8q2 8 3 9t7 9l13 19l13 18q6 9 9 11q17 34 38 63l43 62q3 3 13.5 12t21.5 20l21 21q10 10 12 13q2 1 6 7.5t4 11.5l57 38q30 21 61.5 38.5t64 29t66.5 11.5q4 0 11 -3l12 -5 q6 -2 11 -4.5t6 -2.5l21 7q24 -2 45.5 -10.5t44.5 -8.5q19 0 37 25.5t32 59t23.5 67t12.5 48.5v49q1 13 2.5 17t3.5 6.5t6 5.5t9 14q8 19 15 42.5t12 47.5t8 47t3 41q0 17 -9 28.5t-20.5 22.5t-20.5 23t-9 30v14l29 31q1 1 3.5 2t4.5 3l6 4h153q35 0 49.5 -19.5t14.5 -51.5 q0 -15 -5 -26.5t-12 -22t-13 -21t-8 -22.5q-1 -3 -2 -11t-2 -17t-1.5 -16.5t-0.5 -9.5l-7 -15q-3 -4 -6 -12l-7 -14q-3 -7 -5 -12.5t-2 -6.5q-1 -2 -2.5 -14l-3.5 -27l-5 -26q-2 -12 -3 -15q-3 -14 -10 -28.5t-15 -29.5l-15 -30q-8 -14 -12 -26q-16 -35 -27.5 -75t-31.5 -73 l-26 -116q-10 -15 -14.5 -25t-7.5 -19l-6 -17q-3 -9 -10 -21q-3 -3 -10 -12.5t-14 -21.5l-15 -23q-7 -10 -8 -14q0 -1 -1.5 -7.5t-2.5 -14t-2 -14t-1 -7.5q-5 -34 -18 -59l-27 -53q5 -5 6 -12t1 -16q0 -1 -0.5 -3t-0.5 -4v-5q-9 -26 -22 -53.5t-25 -56t-20.5 -58t-8.5 -59.5 q0 -12 5.5 -19t14 -10t19 -3.5t21.5 -0.5h16l105 37q7 4 13 13t12 19t12.5 17.5t14.5 7.5q9 0 17.5 -10.5t8.5 -19.5q0 -12 -17.5 -30.5t-42.5 -39t-53 -40.5l-46 -33l-19 -12q-18 -16 -43.5 -17.5t-48.5 -3.5q-11 -2 -18.5 -7t-15.5 -11t-17.5 -10.5t-22.5 -4.5 q-12 0 -30 5.5t-35 14t-29 19.5t-12 23zM141 180q0 -14 8.5 -28t21 -24.5t27 -17t26.5 -6.5h2l11 6q7 3 13 6.5t10.5 6.5t5.5 3l12 11l21 20l21 21q9 9 11 12q1 1 5.5 4t10.5 6.5t10.5 6.5t5.5 6q22 17 54 50.5t63 71.5t56 75t34 61q6 16 16 34t19.5 37t16.5 38.5t7 37.5 l-5 43q0 8 2.5 14.5t2.5 18.5q0 19 -11 34t-27.5 24.5t-35.5 14.5t-35 5q-2 0 -6.5 -1t-7.5 -1q-52 -48 -91 -96t-77 -105q-12 -18 -29 -32l-36 -28q-18 -14 -34.5 -29t-26.5 -34q-1 -3 -3.5 -13.5t-5 -23t-5 -23t-3.5 -12.5l-18 -47q-10 -23 -18 -47t-13 -49t-5 -51z" />
<glyph unicode="e" horiz-adv-x="681" d="M-1 201q1 7 6.5 23t13.5 34l14 34l11 26q14 34 31 69.5t26 67.5q3 6 4 14l2 16q1 8 3 16t7 13l52 60q6 7 9.5 17t5.5 20l6 21q2 11 6 18q0 3 4.5 11t6.5 10l14 16q8 11 17 21t15.5 18t6.5 9q4 6 18 20l30 29l31 30q14 15 20 22q18 13 42.5 16t47.5 3h31q16 0 26.5 -2.5 t19.5 -7.5t20 -13t29 -19q54 -32 75.5 -76t21.5 -107v-44q-2 -2 -8 -9l-12 -14l-12 -14q-5 -6 -6 -9q-12 -13 -36 -28t-51.5 -29.5t-54.5 -26t-45 -17.5q-44 -22 -76 -25.5t-66 -3.5q-18 0 -36 -0.5t-42 -2.5q-12 -11 -17.5 -22t-8 -22t-3 -23.5t-2.5 -26.5q0 -1 -2 -7 l-4 -12l-6 -12q-2 -6 -3 -7v-10q0 -18 2 -41t9 -43.5t21 -35t39 -14.5h17q12 0 25 1t25.5 3.5t18.5 6.5q1 1 3 5.5t4 9.5t4.5 9.5t4.5 4.5q18 14 45.5 24.5t47.5 25.5q12 7 23.5 9t23.5 2h29q0 -20 -7 -36.5t-18 -30.5t-25 -25.5t-28 -21.5l-8 -9l-47 -16q-1 0 -3.5 -3.5 t-5.5 -7t-6 -6.5t-6 -3q-1 -1 -6 -3l-10 -2q-5 -2 -9.5 -3t-5.5 -1q-15 -3 -29 -13l-26 -20q-13 -10 -26.5 -18t-29.5 -8q-6 0 -13.5 3.5t-12.5 3.5q-15 0 -27.5 -6t-29.5 -6q-32 0 -59 16.5t-46.5 43t-30.5 58.5t-11 62zM271 486q0 -4 4 -7t9 -5.5t10 -3.5t8 -1 q29 0 61.5 18t62.5 44t55 54t39 48q4 16 4.5 28t0.5 26v24q-7 12 -16.5 16.5t-23.5 4.5q-15 0 -36.5 -13.5t-45.5 -35.5t-47.5 -49.5t-42.5 -54.5t-30.5 -52t-11.5 -41z" />
<glyph unicode="f" horiz-adv-x="620" d="M-413 -408q0 13 4.5 30t13.5 31t21.5 24t27.5 10q29 0 62 -5t56 -23q13 -8 25 -20t25 -23.5t27.5 -19.5t33.5 -8q6 0 17.5 3t23.5 8.5t22 12t13 14.5q0 4 1 12t2.5 15.5t3 14t3.5 8.5q1 2 7 10l14 17l15 18t9 11l5 29q1 6 6 21l12 33l13 33l8 21v32q0 46 5.5 96.5 t13.5 87.5q0 3 3 9t7 12.5t7.5 11.5t4.5 7v31q1 19 8 35l14 33q8 17 14.5 34.5t6.5 37.5l-12 57q0 10 5 22.5t11 26t11.5 28.5t7.5 30v50l26 25q0 2 1.5 10t3 17t3 17t2.5 9l28 31v12q0 31 -10 48.5t-27 28.5t-38.5 19.5t-44.5 21.5q-5 5 -6 11.5t-1 11.5q0 17 5 27.5t13 16 t18.5 7.5t22.5 2l52 -2q16 0 27.5 2.5t19.5 10.5q13 11 19 18t8.5 13.5t3.5 15.5t4 24q0 1 5 10.5t7 11.5q6 8 9 18t4.5 21.5t4 23t8.5 22.5l12 26l49 97q26 50 56 97.5t65 90.5t77 78l61 28q19 6 34 15t30 16.5t31.5 13t37.5 5.5l48 -5q14 0 28.5 2.5t25.5 2.5q7 -3 13 -5 q5 -2 9.5 -3.5t6.5 -2.5q25 -9 47 -19t38.5 -24.5t25.5 -35.5t9 -52v-17q0 -14 -3.5 -27.5t-17.5 -22.5h-33q-36 0 -52.5 12.5t-23 31.5t-7 41.5t-5 41.5t-17.5 31.5t-44 12.5q-32 0 -59.5 -6t-50.5 -29q-17 -14 -28.5 -33t-25.5 -36l-60 -85q-28 -40 -52 -80t-46 -82.5 t-43 -91.5q-6 -15 -14 -28l-15 -24q-7 -12 -11.5 -25t-4.5 -29q0 -20 17 -37t35 -28h37q11 0 19 2t16.5 5t17.5 5t21 2q3 0 12.5 -1t20.5 -2t20.5 -2.5t12.5 -1.5q12 -17 23 -23.5t18.5 -12.5t12 -16t4.5 -33q0 -15 -12.5 -23t-30 -12t-36.5 -4.5t-31 -0.5q-20 0 -37 8 t-38 8l-33 -16q-20 -3 -43 -3q-25 0 -53 3q-3 -2 -7 -4q-3 -2 -6.5 -4t-5.5 -4t-8 -21l-15 -48l-19 -61l-18 -63l-16 -54q-7 -23 -9 -30q-11 -30 -14 -64l-6 -66q-3 -34 -10 -66.5t-27 -61.5q0 -9 -1.5 -30.5t-4 -45.5t-4.5 -45.5t-2 -30.5q-2 -3 -6 -15l-8 -27l-8 -30.5 t-6 -24.5q-1 -2 -2 -5l-2 -4q-1 -2 -1 -3q-10 -16 -14.5 -35.5t-7.5 -40.5l-5 -41q-2 -21 -6 -40q0 -2 -3 -7t-6 -7q-11 -16 -16 -38t-17 -42l-4 -4l-9 -9q-5 -5 -10 -9.5t-8 -6.5l-74 -61q-37 -30 -77.5 -52.5t-85.5 -36t-97 -13.5q-27 0 -56 10t-53 28t-39.5 42t-15.5 52z " />
<glyph unicode="g" horiz-adv-x="775" d="M-285 -490q0 29 6 52.5t18 44.5t28.5 41.5t37.5 43.5q40 48 97 69q2 1 13 2.5t23.5 3.5t23 4t12.5 4q9 1 24.5 6.5t31 13t27 17t11.5 18.5q0 12 -6.5 20.5t-12.5 18.5q-7 6 -11.5 14.5t-4.5 17.5q0 8 2.5 26t6 38.5t7 38t5.5 24.5q2 2 6 5l10 5q7 3 20 7q4 3 17.5 17.5 t27.5 32.5t25 34.5t11 22.5q0 12 -5 20t-13 15t-17.5 12.5t-17.5 11.5q-7 4 -8 9.5t-1 14.5v10q0 6 -2 11q-2 3 -5 12t-7 18.5t-7 17.5t-5 11v154q4 8 5.5 15.5t1.5 13.5q3 8 8 20l10 23l9 21q4 9 6 12q1 2 3 10t4.5 17t5 16.5t4.5 10.5q1 1 5 8.5t9.5 15.5t10 15.5t6.5 8.5 l13 30l50 55q25 28 53.5 51.5t61.5 39t75 15.5q27 -7 53.5 -11.5t52.5 -9.5t52 -12.5t51 -20.5l189 -17q7 0 12 -7.5t8 -17.5t4.5 -20.5t1.5 -16.5q0 -20 -11.5 -34.5t-33.5 -14.5q-26 0 -53 10.5t-56 10.5q-14 0 -21 -11.5t-7 -23.5v-52q-2 -37 -12.5 -79.5t-27.5 -87 t-39.5 -87.5t-49.5 -81.5t-57 -69.5t-61 -51q-13 -9 -29.5 -13.5t-34.5 -8.5t-35.5 -7t-32.5 -9l-18 -12l-31 -21l-29 -22t-13 -11v-85q0 -2 4 -6l6 -6q2 -5 9 -14l15 -20l15 -18q7 -9 9 -12q2 -2 7.5 -4.5t6.5 -2.5q4 -2 18 -6l30 -9l32 -8q16 -4 24 -5q10 -1 17 -5.5 t13 -9.5l13 -10q7 -5 16 -8q30 -9 61.5 -10.5t62.5 -14.5q31 -14 66.5 -38t65.5 -55t49.5 -67.5t19.5 -75.5q0 -14 -5 -30t-13 -32t-17 -31.5t-17 -27.5q-29 -51 -67 -82t-84 -47.5t-97.5 -22t-105.5 -5.5h-68q-2 1 -3 2t-4 1l-27 -5l-97 -3l-90 5l-45 -5q-7 0 -23.5 1.5 t-34.5 2.5l-36 3l-26 3q-9 0 -17.5 11.5t-15.5 16.5l-64 26q-15 9 -30 28.5t-27 42.5t-19.5 46.5t-7.5 42.5zM-104 -483q0 -3 6.5 -19l14.5 -35l16 -34q7 -15 8 -15l40 -20q29 -17 51.5 -23.5t44.5 -9.5t45.5 -4t54.5 -7q1 0 13 -7t26 -9q57 0 111.5 11.5t108.5 17.5 q7 1 14.5 6.5t13.5 12.5l12 12q6 5 9 7l83 19l5 7q0 3 0.5 11t1 18t1.5 18.5t2 11.5l12 14q-3 4 -5 8q-5 7 -5 9l10 28q0 2 -5 6t-7 6l-23 28q-52 61 -126 96t-152 51q-20 6 -34.5 12.5t-33.5 6.5q-21 0 -43.5 -4.5t-45 -11t-43.5 -14t-39 -12.5q-2 -2 -5.5 -5t-8.5 -3 q-7 -6 -10.5 -11t-7 -9.5t-9 -10t-16.5 -11.5q-2 0 -9.5 -2t-9.5 -5q-32 -20 -49 -59t-17 -76zM215 258q0 -13 1 -27t4.5 -26t10 -19.5t18.5 -7.5q21 0 44 19.5t47 50t46 68.5l43 75q20 37 35 69l24 50q12 19 12.5 42t8.5 40q14 32 27 69t13 71q0 5 -5 16t-12.5 22t-15 19.5 t-11.5 8.5q-5 1 -10 1h-10q-12 0 -24 -2t-25 -5q-13 -13 -17.5 -27t-13.5 -30l-38 -45q-17 -21 -31 -43t-25 -47.5t-19 -59.5l-2 -4q-1 -2 -1.5 -4t-1.5 -4q-5 -11 -12.5 -23.5t-14.5 -26t-12.5 -27t-5.5 -25.5l7 -23q0 -8 -3.5 -14.5t-8 -12t-9.5 -11t-8 -12.5 q-4 -18 -4.5 -35t-0.5 -38v-22z" />
<glyph unicode="h" horiz-adv-x="864" d="M2 66q0 11 5.5 30t13.5 39l15 39l11 30q1 2 3 11.5t2 14.5q1 7 4 22.5t6 33t5.5 33.5t3.5 24q20 26 33 55t22 59l18 62q8 32 19 62l20 40q11 22 22 48.5t20 54t16.5 55t11.5 51.5l13 77q11 32 25 63t22 63q2 3 4 10t4 15t3 16t1 11q7 31 16 63l18 65q8 33 14 66t6 65 q0 9 -9 19.5t-20.5 22.5t-20.5 25.5t-9 27.5q0 6 14.5 15.5t34 19t38.5 16t27 6.5q13 0 40 -2t54.5 -8.5t48 -19.5t20.5 -35q0 -18 -6.5 -32t-15 -28t-15 -29t-6.5 -34q0 -13 4 -24t4 -25q0 -5 -5.5 -14.5t-12.5 -20.5l-13 -22l-10 -15q-2 -3 -4 -14l-6 -24q-3 -13 -5 -26 l-3 -18q0 -4 -1 -13t-2 -19t-1.5 -18t-0.5 -10q-8 -27 -24 -49.5t-29 -47.5q-9 -17 -14 -34l-10 -34q-5 -16 -12 -32.5t-20 -32.5v-88q0 -12 11.5 -14t18.5 -2l21 16l25 22l23 20q10 10 15 13q2 3 12.5 7.5t23 9t23.5 7.5t14 4q1 0 9.5 4t19 8.5t20 9t12.5 5.5q14 0 32 -1 t36.5 -3.5t36 -8t30.5 -14.5q9 -25 24 -49t26 -50v-61q0 -10 -0.5 -21t-4.5 -20q0 -3 -6.5 -11t-7.5 -10q-8 -13 -12 -30t-6 -35.5t-3.5 -37t-4.5 -33.5q-4 -16 -12.5 -27.5t-17.5 -22t-16.5 -21t-10.5 -23.5q-12 -38 -23.5 -70t-25 -61t-31.5 -57t-45 -59l-10 -12 q-8 -23 -27 -44.5t-43.5 -38.5t-52 -27t-52.5 -10q-36 0 -63 20.5t-27 62.5q0 28 15 38t35.5 12.5t42 3t35.5 10.5q13 7 17 10.5t5.5 7.5t3 9.5t9.5 17.5l11 10l16 16l15.5 18t10.5 15l22 72q11 37 27 72l27 34q12 19 23 49.5t19.5 63.5t13.5 65t5 54q0 48 -17.5 77 t-69.5 29q-24 0 -37.5 -5t-27.5 -30q-5 -2 -17 -9.5t-25 -17.5l-25 -18q-12 -8 -15 -12q-31 -24 -53 -54t-42 -62l-38 -64q-20 -32 -45 -61q0 -17 2.5 -25.5t2.5 -15.5q0 -18 -4.5 -32t-11 -26.5t-14 -25t-13.5 -27.5q-5 -11 -9 -27l-10 -35l-7.5 -34.5t-7.5 -26.5l-2 -4 l-8 -16l-18 -35l-31 -62q-5 -7 -11 -16.5t-12 -17.5q-7 -10 -15 -20q-14 -3 -26 -3q-14 0 -26 3t-19 16.5t-11.5 30t-6 31.5t-1.5 21z" />
<glyph unicode="i" horiz-adv-x="589" d="M29 40q0 25 2 44t7.5 36t14 33.5t21.5 36.5q2 3 3.5 12t1.5 11q11 20 27.5 36t24.5 38l5 15l9 25l7.5 23t4.5 13q5 15 11.5 26t14.5 20t18 18l22 19q2 16 6.5 42t15.5 43q8 16 20.5 28.5t12.5 30.5q0 26 -14.5 40.5t-40.5 14.5q-20 0 -34 -9t-28 -19.5t-31 -19.5t-42 -9 q4 25 12 41t20 27t27 20.5t32 22.5l12 13l20 21l21 21q9 9 13 11q12 11 21.5 14.5t19 4.5t20.5 2t26 6q16 3 26 12l22 19q11 9 26.5 17t42.5 8q4 0 13.5 -1.5t19 -5t16.5 -8t7 -10.5v-72q0 -5 -4 -13t-9 -16t-9.5 -16t-5.5 -14q-2 -9 -6.5 -22.5t-7.5 -15.5q0 -2 -3.5 -7 t-8 -10.5t-8 -10.5t-4.5 -7v-19q-2 -10 -4.5 -15.5t-7 -10t-10 -9.5t-11.5 -15q0 -2 -3.5 -9t-5.5 -10q-5 -23 -9.5 -38t-10.5 -27l-13 -26q-7 -14 -15 -32q-9 -20 -15.5 -42t-14 -43.5t-18 -40.5t-27.5 -31q0 -12 0.5 -25t5 -23.5t13 -17.5t25.5 -7q20 0 41 13.5t44 30 t50 30t59 13.5q0 -9 -4 -22.5t-10 -21.5l-158 -160q-2 -1 -3.5 -2t-3.5 -2q-3 -1 -5 -2q-50 -32 -98.5 -53t-105.5 -21q-9 0 -25 4t-31.5 11.5t-27 18.5t-11.5 25zM456 1289q0 22 9 40.5t24.5 32t36 20.5t43.5 7q14 0 34.5 -0.5t37.5 -4.5q10 -4 19 -19t16 -33.5t11 -36.5 t4 -27q0 -13 -6 -20t-13 -23l-16 -36q-7 -14 -17 -21.5t-25 -10.5t-42 -3q-28 0 -49.5 11.5t-36.5 30t-22.5 43t-7.5 50.5z" />
<glyph unicode="j" horiz-adv-x="530" d="M-364 -616q0 18 11.5 29t28 17t35.5 7.5t33 1.5l79 -13q26 0 45 11t34 27.5t27 36.5l26 39q1 1 8 9l15 17l15 17q7 8 8 10q7 19 7 35l-3 54q1 0 3 4l4 9q3 5 4.5 10t2.5 8q9 19 13.5 38.5t7.5 39.5l7 39q4 19 12 39l25 67q2 4 8 24l14 43l13 44q6 21 9 26q0 1 3.5 13 t4.5 16q9 19 13.5 35.5t7.5 33t5.5 33.5t8.5 35q5 23 14 51t15 51q9 14 19.5 27t10.5 30q0 11 -3.5 16t-3.5 12q1 3 3.5 9.5t5.5 19.5l7 34q5 20 10 51q2 11 6 18.5t8.5 14.5t8 15.5t3.5 20.5q0 13 -4 26.5t-12 24.5t-19.5 18t-27.5 7t-34 -24l-40 -54q-21 -30 -47 -54.5 t-58 -24.5q-3 0 -8 1t-6 6q15 35 37 63.5t48 54t55 48.5l59 45l38 27q37 47 80 68t105 21q13 0 21.5 -6.5t13.5 -16.5t7.5 -21.5t2.5 -21.5q0 -11 -3.5 -18.5t-8 -14t-8 -13t-3.5 -15.5v-85q-14 -12 -27 -41.5t-23 -67t-16.5 -78t-9.5 -72.5q-2 -2 -8.5 -9.5t-6.5 -9.5 q-2 -4 -4 -9t-2 -7q-19 -92 -45 -184.5t-48 -183.5q-3 -16 -8 -29l-11 -25q-6 -13 -10 -26t-4 -29l9 -78q0 -17 -11.5 -30.5t-23.5 -24.5q-8 -53 -26 -108t-45 -107t-61.5 -98.5t-76.5 -82.5q-39 -7 -78 -10.5t-81 -5.5q-23 -2 -48.5 -6t-48.5 -4q-17 0 -36.5 1.5t-36.5 7.5 t-28.5 18t-11.5 33zM515 1278q0 22 4 43t14 37t27 25.5t43 9.5q41 0 64 -18t23 -57q0 -24 -10.5 -46t-28 -39.5t-40 -27.5t-46.5 -10l-26 4q-17 17 -24 40v39z" />
<glyph unicode="k" horiz-adv-x="821" d="M223 301q-14 -3 -22.5 -14.5t-14 -26.5t-9.5 -29.5t-8 -22.5q-3 -10 -7.5 -16.5t-9.5 -13t-9 -13t-5 -16.5q-4 -24 -6.5 -51.5t-11 -51.5t-25 -40t-47.5 -16q-29 0 -47.5 21.5t-18.5 59.5q16 66 46 127t56 127q3 3 6 11l6 16q3 8 5 14.5t2 7.5l33 98q15 49 33 97 q9 25 21 47.5t19 46.5q7 23 13 47t13.5 47t18 45t27.5 42l13 12v87q17 18 23.5 35t8.5 34t3 36t6 40q0 1 2.5 5.5t6.5 9.5t7 10t5 6q1 7 4 18.5t6 24.5t5 24.5t2 17.5q0 12 -7.5 19.5t-16 14.5t-16 14t-7.5 18q0 13 10.5 20.5t25 12t29 8t22.5 9.5q26 18 50.5 22t56.5 4h37 q14 -7 19 -26t5 -33q-9 -33 -23 -63t-30 -60l-31 -58q-15 -29 -25 -59q-2 -2 -3 -9t-1.5 -14.5t-2 -14t-2.5 -7.5q-11 -35 -29 -73.5t-35 -79t-30 -80.5t-13 -77l3 -22q0 -3 -1.5 -11.5t-1.5 -9.5q-3 0 -3.5 -4t-0.5 -7q0 -8 4 -16t12 -8q12 0 25.5 12.5t28.5 31.5l33 43 q18 23 38.5 43.5t44 35.5t50.5 19q18 3 35 5t37 2q14 0 28.5 -1.5t28.5 -3.5q16 -3 29 -15.5t23 -29t15.5 -33.5t5.5 -28v-12q0 -5 -1 -15.5t-2 -22.5t-2 -21.5t-2 -12.5q-11 -17 -22.5 -25.5t-22.5 -21.5q-13 -14 -21 -34t-24 -32q-14 -10 -26 -15t-24 -8l-25 -6 q-12 -3 -25 -9l-17 -22q-9 -4 -23 -8.5t-30.5 -8t-33 -6.5t-29.5 -5q-3 0 -5 -1t-4 -1q-3 0 -12.5 -1.5t-20 -3t-20 -2.5t-13.5 -1q-14 -7 -17 -25t-3 -34v-12q0 -7 0.5 -14.5t2 -14t3.5 -9.5l42 -38q1 -2 4 -11l5 -20q3 -10 6 -18.5t4 -9.5l4 -8l5 -13q3 -7 6 -13l4 -8 q8 -21 9 -32.5t4 -18.5t12.5 -11t35.5 -10l39 -9q14 0 31 7t33.5 15.5t31.5 15.5t27 7q14 0 16.5 -9.5t2.5 -23.5q0 -26 -14 -44t-36.5 -30t-50.5 -18t-55.5 -9t-51.5 -3.5t-39 -0.5q-125 0 -140 131v50q-1 4 -5.5 13.5t-9.5 18.5l-11 16q-5 8 -5 9l-13 49q-1 4 -5 10.5 t-10 12t-12 9.5t-12 4zM359 467q0 -2 0.5 -6t5.5 -6q13 12 25.5 15.5t25.5 3.5h66q18 0 37 5.5t38 25.5l67 71q5 14 17 23.5t12 21.5q0 26 -12 44t-38 18q-9 0 -32.5 -10.5t-50.5 -24t-50.5 -26.5t-32.5 -17q-6 -4 -18.5 -21.5t-26 -39.5t-23.5 -42.5t-10 -29.5v-5z" />
<glyph unicode="l" horiz-adv-x="478" d="M8 135q0 18 3.5 36t8 35.5t8 35t3.5 33.5l-4 19q0 2 3.5 4.5t5.5 2.5q22 16 34 39l25 48l2 2q3 3 5 3q1 1 8 7.5t7 7.5q10 17 14.5 38t8.5 44l7 44q3 22 10 40q11 20 22 36.5t20 34.5q8 20 11 45t11 42q0 2 10.5 7t12.5 7q1 1 5.5 11t4.5 15q39 117 66 242l33 36 q4 9 7 21.5t5 25.5l4 26q2 12 6 21q3 11 9 23l13 25q6 12 11 24t5 24q0 34 -12 56t-27 35.5t-27 22t-12 16.5q0 9 12.5 17t28 14t29.5 10t17 4l41 -7l102 7q16 0 26.5 -1t17 -5.5t9.5 -14.5t3 -29q0 -29 -5 -46t-13.5 -30.5t-19 -28t-21.5 -39.5q-11 -29 -15.5 -61.5 t-17.5 -64.5q-5 -9 -15.5 -22t-10.5 -18q-1 -2 -5 -13l-8 -26q-5 -14 -8.5 -26.5t-4.5 -15.5q-5 -16 -15 -30l-22 -29q-11 -14 -20.5 -29t-13.5 -31q-8 -32 -15 -64.5t-16 -63.5q-4 -11 -10 -21t-14 -21q-7 -9 -12.5 -18.5t-10.5 -21.5q-5 -11 -16.5 -33t-15.5 -38l-7 -43 l-40 -74q0 -2 -1 -6.5t-1.5 -9.5t-1.5 -9.5t-1 -5.5v-52q-1 -9 -7 -18t-13.5 -18t-14.5 -16.5t-10 -11.5q-16 -25 -24.5 -55t-8.5 -58q0 -10 6.5 -19.5t15.5 -17.5t19 -13t16 -5q23 0 42 21t38 46.5t41 46.5t52 21l12 -7v-9q-19 -12 -30 -25t-19 -27.5t-15 -30.5t-16 -33 q0 -2 -3.5 -4.5t-4.5 -2.5q-25 -17 -43 -38l-36 -41q-18 -21 -38.5 -41t-50.5 -37h-12q-46 0 -83 28.5t-49 71.5v54z" />
<glyph unicode="m" horiz-adv-x="1404" d="M462 55q0 1 3 9l7 18l9 20q4 11 6 17q2 2 8 10l6 8q2 2 4 11.5t3 21.5q2 8 3 13.5t1 6.5q10 24 20.5 40t19 31t14.5 31.5t6 41.5q5 2 13 8.5t15 10.5q1 5 6 19t11.5 29.5t12 30t8.5 20.5q8 19 19 38.5t21.5 40.5t18 42.5t7.5 44.5l-5 22q-7 20 -15 39t-20 34t-31 24 t-47 9q-22 0 -36.5 -12t-25 -29t-19 -35.5t-18.5 -31.5q-6 -6 -16.5 -9.5t-15.5 -14.5q-1 -1 -2.5 -5t-4 -8.5t-4 -8t-2.5 -4.5q-1 -3 -6 -9l-12 -12l-12 -11.5t-8 -7.5l-92 -219l-35 -83l-32 -75l-26 -57q-11 -23 -15 -29q-8 -16 -16.5 -27t-18 -20.5t-21 -18.5t-26.5 -19 l-24 -5q-16 0 -27.5 7.5t-18.5 19t-10.5 26t-3.5 28.5q0 16 14 48.5t32 68.5l35 68q16 33 22 49q8 18 10.5 40.5t15.5 42.5q3 6 13 16l21 23q11 13 20 26.5t12 25.5q5 22 15 41l18 39q9 19 16 38.5t7 41.5q0 5 -1 16t-3 13q-13 24 -38 38h-14q-14 0 -22 -4t-12.5 -10.5 t-7.5 -16t-8 -19.5q-3 -3 -18 -16l-32 -27l-32 -25.5t-17 -11.5q-6 0 -7 5t-3 9q10 18 20 34q8 14 16.5 27t13.5 20l17 35q1 1 7 4l13 6l13 7q6 3 9 4q6 4 10.5 11.5t9 16t10 17t13.5 15.5q10 7 22 11t24 7.5t24 7.5t24 11h76q12 0 19 -17l14 -36q8 -19 21.5 -35t40.5 -16 q21 0 29 13t21 27q16 15 39 31t50 29t56 21.5t56 8.5q22 -9 46 -27.5t42 -29.5q13 -10 16.5 -25.5t6 -30.5t9.5 -25.5t29 -10.5q20 0 30 4t16.5 10.5t12.5 14t17 14.5q1 2 8 5.5t9 3.5q30 13 50 29l39 29q19 13 42.5 22.5t60.5 9.5q21 0 45.5 -11t45 -29t34 -40t13.5 -43 q0 -14 -6.5 -42.5t-15.5 -59.5t-18.5 -57t-16.5 -35q-2 -2 -8 -8.5t-12 -14.5l-12 -15q-6 -7 -7 -10v-52q-3 -9 -10 -16.5t-15.5 -15t-16.5 -16.5t-12 -20q-3 -9 -4.5 -19t-14.5 -17q-1 -3 -2 -11l-2 -16q-1 -8 -2 -15t-1 -10v-40q-3 -8 -8 -15l-12 -14q-6 -8 -10.5 -15.5 t-4.5 -17.5q0 -8 8 -16.5t19 -15.5t21.5 -11t15.5 -4q9 0 22 15l29 33q16 19 37.5 34t48.5 15q0 -14 -3 -29.5t-16 -29.5l-2 -2q-1 -1 -1 -6q-33 -27 -63 -60t-63 -61.5t-70.5 -48t-84.5 -19.5q-34 0 -52.5 22t-30.5 51v36q0 34 5 63.5t14.5 58t22.5 56t29 56.5q3 1 7 13.5 t5 19.5q7 15 17 30l19 28q9 14 17 29t13 32q0 3 1 10t2 15t2 14.5t2 8.5q6 16 15 31l18 31q8 15 13.5 31t5.5 34q0 9 -4.5 25.5t-12 33t-16.5 29t-19 12.5q-18 0 -42 -15t-48 -36t-44 -42.5t-30 -34.5q-2 -3 -3.5 -14t-3.5 -14q-1 -3 -5 -10l-9 -15q-5 -8 -10 -15t-6 -10 q-5 -6 -14 -13l-18 -12q-9 -7 -16 -14t-7 -15q2 -6 4 -11l5 -18q0 -24 -12 -46.5t-27 -43.5l-28 -42q-14 -20 -18 -41q-1 -2 -2 -8.5t-1 -13.5l-1 -15q-1 -7 -1 -8q-2 -4 -10.5 -14t-10.5 -12q-13 -20 -20.5 -35.5t-13.5 -29.5t-11.5 -28.5t-15.5 -32.5q-1 0 -5 -4.5 t-8.5 -10.5t-10 -12.5t-9.5 -10.5l-18 -18q-11 -12 -24.5 -24.5t-26 -21.5t-19.5 -9q-32 0 -53 21.5t-21 53.5z" />
<glyph unicode="n" horiz-adv-x="960" d="M48 24q0 30 7 56.5t17.5 51.5t23 50t23.5 52q1 2 3 9.5t4 16t4 16t3 9.5q4 16 8 24.5t9 15t11 13.5t15 20q2 0 3.5 5t1.5 7q1 3 5 14l10 24l9 24q4 11 6 13l13 39q8 21 14 42.5t10 42.5t4 38l-5 37q-8 14 -15.5 23t-27.5 9q-23 0 -37 -17.5t-26.5 -38.5t-27 -38.5 t-39.5 -17.5q-9 0 -11.5 4.5t-2.5 12.5q0 17 15.5 41t37 48t44 44t35.5 28q13 18 24.5 31.5t23.5 22.5t27.5 13t36.5 4q34 0 53.5 -11t34.5 -28.5t29 -39.5t36 -44q1 -1 2 -1h3h5q18 0 34.5 8.5t31.5 21t29 25.5t26 22l118 75q30 0 55.5 -10t44.5 -27t31 -40t17 -50v-1 q0 -4 -2 -12.5t-4 -10.5q0 -5 -0.5 -17.5t-1.5 -26t-2 -25.5t-2 -17q-9 -13 -14 -24t-8 -22l-7 -26q-3 -15 -9 -34q-4 -10 -11 -19l-13 -17l-12 -18.5t-9 -19.5q-1 -3 -2.5 -11t-2.5 -17t-1.5 -16.5t-0.5 -9.5q-1 -2 -2 -5q-2 -6 -3 -7q-10 -15 -22.5 -41.5t-24 -56 t-19.5 -57.5t-8 -46q0 -17 10 -32.5t30 -15.5t32.5 15t25.5 33.5t31.5 33.5t50.5 15q5 0 10 -1t5 -8q0 -22 -10.5 -35t-25.5 -21.5t-32 -15t-29 -16.5q-4 -3 -12.5 -11t-17.5 -18l-17 -19q-8 -9 -11 -13q-3 -1 -11 -3t-10 -2q-16 -6 -31 -15l-31 -17q-15 -9 -31 -15t-35 -6 q-20 0 -38.5 8t-32.5 21.5t-22 31t-8 37.5q0 14 1 29t6 27q1 0 5 5l8 9q5 5 8.5 9.5t3.5 5.5q17 26 30.5 58t24.5 61q3 12 8.5 23t12 21.5t12.5 21.5t10 23l7 16q5 9 10 19l8 16q4 7 5 7q0 2 3 6.5t7 11.5q9 9 9 12q11 30 19 59.5t31 54.5v35q0 40 -16.5 63t-52.5 33 q-2 2 -11.5 4t-11.5 2q-1 0 -5 -3l-7 -6l-7 -6q-3 -3 -5 -3q-5 -4 -17 -8t-14 -4q-5 -5 -16 -15l-23 -22l-22 -21l-14 -14l-13 -26q-3 -8 -11 -22l-16 -27l-16 -24q-7 -11 -8 -14q0 -1 -4 -5l-9 -7l-10 -8q-4 -3 -6 -4q-12 -19 -18 -33t-10 -27l-9 -28q-4 -15 -11 -35 q0 -2 -3.5 -8t-5.5 -7q-17 -30 -25.5 -58.5t-24.5 -59.5l-46 -70q-23 -35 -43 -74q-8 -21 -12.5 -39.5t-11.5 -32.5t-20.5 -22t-38.5 -8q-24 0 -37 8t-13 37z" />
<glyph unicode="o" horiz-adv-x="746" d="M54 208q0 72 14 152.5t34 149.5l11 11q7 8 7 10q6 12 9 26t5 28.5t6 29t12 27.5q10 17 23.5 33t28.5 31t30 28.5t27 26.5q12 16 21 34.5t23 26.5q4 2 15 8t12 6q1 2 6 5.5t11 7t11 7.5t7 6l46 8q23 4 46 4q20 0 38.5 -4t39.5 -8q1 -3 7.5 -7t9.5 -6q19 -10 40.5 -26.5 t40 -37t31 -43t12.5 -45.5q0 -6 -2.5 -12t-2.5 -17q0 -14 2.5 -29t2.5 -27q0 -15 -4.5 -29t-9.5 -27l-11 -27q-5 -13 -6 -26q-1 -6 -2 -21l-2 -32l-2 -31q-1 -15 -1 -21q-1 -2 -5 -12.5t-9 -11.5q-14 -24 -23 -48.5t-16 -49.5l-15 -50q-8 -25 -18 -48q-6 -16 -14.5 -27 t-18 -20.5t-20.5 -18t-23 -20.5q-13 -12 -18.5 -16.5t-9 -6t-8 -4t-16.5 -11.5l-33 -33q-1 -1 -6 -2t-10.5 -1.5t-10.5 -1t-6 -0.5q-2 0 -9.5 -3t-9.5 -4l-86 -2q-23 0 -45 2t-33 7q-21 6 -43 29t-39.5 52.5t-29 59.5t-11.5 51zM201 240q0 -17 3.5 -42.5t13 -49t27 -40 t44.5 -16.5q6 4 17.5 14t23.5 22l23 22l14 14l10 25q1 2 5 6.5t9 9t9.5 8t6.5 3.5l5 45l5 9l8 16l8 16q4 8 7 11q0 1 3 6t7 11l8 10q3 4 4 4q18 25 27.5 57t21.5 59q0 2 1.5 10t1.5 13q1 3 2 11l2 17q1 8 2 15t1 9q1 1 4 5t7 8.5t7 8.5t3 5q0 2 1.5 4t1.5 5q0 2 -1.5 6 t-1.5 15q0 4 2 7t5 8q2 14 3.5 26.5t1.5 25.5t-1.5 26.5t-3.5 27.5q-3 10 -19 34q-10 8 -16.5 15.5t-8.5 14.5q0 14 -13 14q-12 0 -30 -7t-35.5 -17.5t-31.5 -23.5t-18 -25q0 -2 -0.5 -7.5t-1.5 -12t-1.5 -12.5t-1.5 -8q-32 -33 -59 -97q-13 -31 -18.5 -64t-12.5 -65 q-2 -8 -6.5 -14.5t-10 -13t-9.5 -14t-5 -16.5v-39q-5 -14 -13 -28l-16 -29q-9 -14 -15 -28.5t-6 -29.5z" />
<glyph unicode="p" horiz-adv-x="816" d="M-317 -604q-11 5 -15 11.5t-4 19.5q0 18 13.5 27t32.5 13.5t38.5 6.5t31.5 7q10 4 16 7l13 6q6 3 13 5.5t18 5.5q10 4 15 14t7.5 22.5t4 24.5t4.5 21l47 76q7 15 11.5 34t7 39t4 39.5t3.5 35.5q3 19 13 37t23 36l25 35q12 18 19 36l8 66q4 1 6.5 6.5t2.5 7.5q13 20 16 35 t10 37l2 6q1 4 6 12q5 6 7.5 14t5.5 13q12 26 19.5 54t13.5 57l12 58q6 29 15 58q3 9 7 18l10 20q5 11 11 20.5t8 20.5l16 52q9 30 17 61t13.5 61t5.5 55q0 12 -1.5 24t-6 22t-12.5 16.5t-21 6.5q-23 0 -43.5 -8.5t-43.5 -8.5q-11 0 -22 5.5t-11 16.5q0 17 14 27t36 15.5 t49 9t52 9t45.5 13.5t30.5 23q14 25 21 57l13 65q7 32 16 59.5t28 41.5q4 3 14 5.5t21 3.5t21 1.5t15 0.5q17 0 30.5 -9.5t21.5 -18.5l3 -26q0 -24 -8.5 -44.5t-19 -39t-19 -37t-8.5 -38.5t14 -27.5t33 -7.5l86 5q22 0 53 -16.5t60 -40t52 -50t29 -45.5q3 -8 4 -14.5t2 -14 t1 -17.5v-25q0 -34 -8 -73t-22 -77.5t-33.5 -74t-42.5 -62.5q-8 -10 -14.5 -23t-12.5 -27l-12 -28q-7 -14 -14 -24q-2 -2 -8 -13l-15 -23l-17 -26q-8 -12 -11 -18q-4 -5 -10 -7.5t-12.5 -5.5t-12 -7.5t-8.5 -11.5q-5 -6 -6.5 -14t-2.5 -16t-3.5 -15.5t-8.5 -13.5 q-3 -3 -18.5 -9t-37.5 -13l-48 -15l-49 -15l-42 -13q-19 -5 -26 -8q-6 -2 -23 -5.5l-36 -7.5l-37 -6q-18 -3 -25 -3q-6 -7 -8 -10t-2 -5.5t-0.5 -4.5t-3.5 -8l-29 -33v-41l-28 -108q2 -8 5.5 -17.5t3.5 -11.5q0 -6 -5 -14t-12 -16l-14 -17q-6 -9 -9 -17q-3 -7 -10 -31 l-15 -53q-8 -29 -14 -55.5t-6 -38.5q0 -9 7.5 -12t16.5 -4l20 -2q10 -1 16 -5l4 -5l8 -7l7 -7q4 -4 6 -5q2 -2 8 -4t13 -5l15 -6q7 -3 12 -6q1 -3 2 -8l3 -12q2 -6 3 -11.5t1 -6.5q-2 -8 -10 -11.5t-16 -3.5q-74 -6 -147 -6q-76 0 -155.5 8t-152.5 25zM224 131 q0 -14 11.5 -22t27.5 -12t31.5 -4.5t23.5 -0.5q6 0 16.5 5.5t21.5 13t21 16.5l18 15l83 79q5 12 7.5 24t12.5 21q8 14 19.5 20.5t19.5 14.5q21 26 37 57.5t36 60.5q6 12 12 34.5t12 48t11 49t10 37.5q0 47 -15.5 91t-53.5 72q-12 11 -35 18t-40 16q-6 3 -11 9.5t-16 6.5 q-31 0 -52 -14.5t-34.5 -38t-21.5 -53t-13.5 -59.5t-10 -58.5t-10.5 -48.5q-1 -3 -7 -15l-13 -24l-13 -24q-6 -11 -7 -14q-11 -21 -17 -43t-23 -42v-66q-16 -17 -21 -34.5t-17 -34.5v-101z" />
<glyph unicode="q" horiz-adv-x="853" d="M143 -611q-7 1 -14.5 6.5t-13.5 12t-11 13.5t-8 10q0 22 16.5 33t38 16.5t43.5 9t34 10.5q2 2 7 6t5 6l5 33l9 9l13 12q6 7 11.5 12t7.5 7v91q2 1 8 5.5t12 10t11 12t6 12.5v35q5 12 14.5 22t18.5 20.5t15.5 23t6.5 29.5q0 13 -3.5 23.5t-3.5 26.5q0 18 8 38t18 42.5 t18 47t8 52.5v17q-2 3 -6.5 9t-10 11t-10.5 9t-7 4h-16q-1 0 -11 -4l-25 -9q-14 -5 -28.5 -11t-23.5 -9q-13 -6 -26.5 -14t-27.5 -15.5t-28.5 -13t-28.5 -5.5q-52 0 -96.5 24.5t-64.5 75.5q-1 1 -4 7l-6 12l-7 12q-3 6 -4 7q0 32 6 65t15 62q4 5 10.5 9t13 9t12 11t9.5 16 l14 34q6 15 12.5 28t15 27.5t22.5 34.5q10 13 17 29l14 32q7 17 14.5 32.5t18.5 27.5l6 5q4 5 10 9.5t11 9t6 6.5q27 22 45 43l35 43q17 21 39 41.5t57 40.5q17 9 31.5 18t34.5 9q12 0 24.5 -5t25.5 -5h2q3 0 13.5 5t12.5 5q28 0 44.5 -6.5t27.5 -15.5l20 -15q9 -6 21 -6 q24 0 41.5 8t34.5 18t37.5 18t50.5 8q0 -48 -12 -101t-28 -98q-11 -23 -24 -45.5t-17 -44.5q-5 -41 -18 -84l-26 -82q0 -2 -7 -10.5t-8 -8.5q0 -8 5 -13t5 -13q-1 -5 -5.5 -11t-9.5 -12t-9.5 -10.5t-4.5 -6.5l5 -24q0 -26 -7 -56t-17 -60t-21 -59l-19 -50 q-20 -54 -30.5 -108.5t-28.5 -111.5q-5 -14 -15.5 -25t-10.5 -25l7 -40l-15 -57l-16 -55q-5 -12 -11 -24l-13 -23q-7 -11 -11.5 -23.5t-4.5 -26.5q0 -27 14 -41.5t31 -26.5t31 -26.5t14 -40.5q0 -4 -4 -8.5t-9 -8.5l-10 -7q-5 -3 -6 -4h-57q-149 28 -279 28zM174 171 q22 -15 35.5 -22t35.5 -7q13 0 46 12t69.5 29.5t67.5 36t40 31.5q5 8 15 22l19 28l17 27q7 12 8 15l12 55l28 28q8 10 10.5 16.5t3 12.5t1.5 14t6 22q4 16 10.5 33t12.5 34.5t10.5 35.5t4.5 36q0 21 -5.5 31.5t-14.5 18t-21 13.5t-25 18l-23 24q-11 11 -36 11 q-36 -32 -64 -68t-55 -78q-8 -14 -27 -24t-32 -26q-1 -1 -5 -9t-9 -17l-10 -17q-5 -8 -7 -9l-9 -9l-17 -15q-9 -11 -16.5 -18t-9.5 -10q-14 -20 -19.5 -42.5t-13.5 -43.5q-8 -16 -17.5 -28t-17.5 -23.5t-13.5 -24.5t-5.5 -31q0 -24 4.5 -44t16.5 -38z" />
<glyph unicode="r" horiz-adv-x="696" d="M90 57q2 68 24 123.5t54 111.5q8 15 13.5 33.5t9.5 37.5l8 37q4 19 10 34l21 78l9 25q6 17 11 38t9.5 43t4.5 39q0 7 -2.5 17t-7 19.5t-11 16t-15.5 6.5q-21 0 -41.5 -18t-41.5 -41l-41 -44q-20 -21 -42 -27q-5 2 -5 7q0 27 9.5 49.5t25.5 40t35 30.5t39 22q5 4 6 11 t1 24q0 13 7 17q1 1 12 5l17 7l4 4q4 4 7.5 8.5t6 8.5t3.5 5q26 17 51.5 28.5t55.5 18.5q3 -2 10.5 -5.5t15.5 -8t15.5 -8t10.5 -4.5q7 -5 13.5 -18t12.5 -28l11 -28q5 -13 8 -19q8 -5 18.5 -8t21.5 -3q7 0 16 5t16.5 12.5t13 16.5t6.5 16l57 61q4 2 10 2.5t14 0.5h24 q3 0 7 2t5 2t4.5 3t7.5 6l9 7q4 3 5 3q0 2 7 2h12q27 0 43 -8t25 -22t12 -33.5t3 -42.5q0 -22 -1.5 -38.5t-8 -27t-20 -15.5t-37.5 -5q-27 0 -54 6.5t-62 6.5q-3 0 -11.5 -1t-19 -2.5t-19.5 -3t-12 -1.5q-13 -8 -21 -18t-14 -22t-11 -24.5t-11 -24.5l-30 -34v-31 q-1 -16 -7.5 -28t-15.5 -23l-16 -20q-7 -9 -11 -21v-52q0 -2 -6 -10.5t-8 -10.5q-10 -15 -16 -33t-10.5 -36t-8.5 -36.5t-10 -35.5l-40 -80q-12 -36 -16.5 -67.5t-16 -54t-35.5 -35.5t-75 -13q-11 0 -20.5 8.5t-17 20.5t-12.5 24.5t-7 19.5z" />
<glyph unicode="s" horiz-adv-x="584" d="M-58 204q7 12 11 20.5t9 14.5t13 9t25 3q36 0 61 -22t41.5 -48.5t27 -48.5t17.5 -23q0 -2 4.5 0t7.5 3q40 26 56 52.5t16 70.5l-19 201q0 72 7 128.5t29.5 101t63 78.5t108.5 62q21 8 40.5 12.5t44.5 4.5q27 0 40.5 -4.5t20.5 -14.5t10.5 -24.5t9.5 -33.5q1 -2 4 -7l5 -9 q3 -5 5 -10t2 -7v-19q0 -26 -17.5 -43.5t-45.5 -17.5q-26 0 -45.5 11.5t-34.5 25.5l-29 26q-14 12 -27 12q-14 0 -20 -11t-8 -22q0 -5 1.5 -13t1.5 -10t1 -3q0 -2 0.5 -2.5t0.5 -1.5q0 -13 -3.5 -27t-3.5 -30v-6q0 -4 2 -9q7 -46 11 -90t6 -95q0 -3 0.5 -9.5t1.5 -14 t2.5 -14t2.5 -9.5q0 -3 2.5 -12t2.5 -14q0 -6 -2 -17t-5 -22.5l-6 -22.5l-6 -16q-4 -21 -4 -43t-11 -42q-5 -5 -13 -16l-16 -23l-16 -24l-11 -15q-4 -6 -8.5 -8t-10 -3t-10.5 -3t-9 -6q-16 -13 -27.5 -19t-22.5 -8t-25.5 -2.5t-36.5 -3.5q-3 -1 -13 -3l-24 -3 q-13 -2 -26 -3.5t-20 -1.5q-12 0 -23.5 5t-22.5 12l-21 15q-11 7 -20 12q-29 18 -41 47.5t-12 66.5z" />
<glyph unicode="t" horiz-adv-x="662" d="M26 93q0 22 8 49t19 54t23.5 52.5t20.5 45.5q7 15 16 23t18 15t16 17t9 30l-7 36q0 12 5 25t11 26.5t11 27t6 28.5l54 108q0 30 -15.5 43.5t-34 22.5t-34 20t-15.5 35q0 10 6 17.5t14.5 12.5t18 8t17.5 3l43 -10q10 0 22.5 2t24.5 6t21.5 10t14.5 15l13 23l18 34l17 34 q8 16 11 23q13 25 21.5 46.5t19.5 37.5t28.5 25t47.5 9q14 0 23.5 -10t14.5 -16v-30q0 -21 -7 -40t-15.5 -37t-15.5 -35t-7 -35q0 -15 8.5 -23.5t23 -12.5t34.5 -5l40 -2q23 -1 45.5 -3t40.5 -8.5t29 -18t11 -32.5v-12q-25 -29 -45.5 -44t-54.5 -15t-67 9.5t-68 9.5 q-3 0 -14.5 -4.5t-24 -11t-23 -14t-12.5 -12.5v-5q-1 -5 -2 -11.5t-1.5 -12t-0.5 -7.5q-2 -7 -6 -16t-4 -12l-38 -86v-9q0 -8 -1.5 -18t-4.5 -20.5t-8 -16.5l-10 -10l-15 -16l-15 -15q-8 -8 -12 -11q0 -11 -3.5 -18.5t-7.5 -14t-7.5 -14t-4.5 -17.5v-33q-3 -12 -11 -24 l-18 -24q-9 -12 -16 -25t-7 -27q0 -25 18.5 -32.5t39.5 -7.5q36 0 68 22t64 48t65.5 48t71.5 22q0 -23 -13 -45t-32.5 -42.5t-43.5 -38.5l-45 -35q-2 -1 -3.5 -2.5t-7.5 -4.5l-15 -8q-9 -5 -26 -13q-25 -20 -48.5 -42t-49.5 -41t-55 -31t-65 -12q-26 0 -47 10.5t-36 28 t-23.5 40.5t-8.5 47z" />
<glyph unicode="u" horiz-adv-x="938" d="M29 90q0 25 10.5 54t26 58t32.5 57l30 51q1 2 4.5 9.5t7 16t7 15.5t3.5 9l35 19q1 1 2.5 2t2.5 3l2 4q0 11 -6 23t-15 20l6 11l9 16l7.5 17t5.5 11v30q4 13 11 23l15 21q7 11 12 22.5t5 28.5q0 20 -1.5 33t-10.5 34h-5q-18 0 -30 -13.5t-24 -31.5q-11 -18 -25.5 -35 t-40.5 -17q-4 0 -6.5 1t-5.5 6l-1 23q0 24 19 48.5t49.5 47.5t68 42.5t74.5 34t70 23t54 8.5q14 0 22.5 -10t8.5 -23q0 -20 -4 -42t-10 -45t-14 -45t-17 -41q0 -2 -3 -6l-6 -8q-3 -4 -5.5 -8t-2.5 -6v-15q-5 -29 -20 -57.5t-34 -56.5t-39 -54t-33 -49q-4 -4 -14.5 -10.5 t-13.5 -11.5q0 -3 -0.5 -10.5t-1.5 -16t-1.5 -15t-1.5 -8.5q-1 -3 -3.5 -12t-6.5 -19l-6 -19q-3 -8 -5 -9q0 -2 1 -14.5t1 -23.5v-10q0 -4 -2 -6q0 -1 -6 -13.5t-8 -20.5q0 -23 18.5 -30t38.5 -7h23q3 3 11 10l17 15l17 16q9 8 12 11q35 29 63 59l63 66l37 67q20 35 36 71 q1 1 3.5 9.5t5.5 17.5t5 17t3 10q1 3 9 9l17 13q10 7 18.5 12t11.5 6l9 12q6 7 6 8v33q5 16 13 30l17 28q9 14 16.5 27.5t12.5 27.5q11 22 19 44t20 40t30.5 29t49.5 11q18 0 27.5 -5t14 -14.5t5 -22t0.5 -27.5q0 -27 -8 -47.5t-19 -38.5t-23.5 -34.5t-22.5 -36.5 q0 -4 -3.5 -14.5t-8.5 -21.5l-8 -22q-3 -9 -4 -10q-1 -3 -7 -9l-13 -13q-6 -7 -12.5 -12.5t-7.5 -6.5q-24 -28 -29 -62l-9 -68q-1 -6 -12 -24l-24 -37l-23 -37q-10 -17 -10 -23q0 -12 11 -27t25 -15q19 0 42 10t46 24.5t44 29.5l38 28q4 4 7.5 4.5t9.5 0.5q11 0 12.5 -6 t1.5 -18q0 -2 -0.5 -4t-0.5 -4q-1 -3 -1 -6q0 -1 -3 -5l-7 -8q-3 -5 -6.5 -8.5t-3.5 -4.5l-4 -19q-8 -21 -32 -46.5t-54 -49.5t-60.5 -44t-50.5 -31q-2 -2 -13 -3.5t-13 -1.5q-1 -1 -6 -2l-11 -3q-5 -2 -10.5 -4t-7.5 -3q-11 -5 -23.5 -6t-24.5 -1q-13 0 -26.5 1t-27.5 6 q-6 3 -19.5 15t-28.5 28l-31 33q-15 16 -24 27q-20 -11 -39.5 -27.5t-40.5 -25.5q-14 -5 -26 -15l-23 -20q-11 -10 -21.5 -17t-21.5 -7l-26 2q-29 4 -52.5 8.5t-40 15t-26 30t-9.5 53.5z" />
<glyph unicode="v" horiz-adv-x="966" d="M216 116q-11 36 -18 72t-15 70l-8 21l10 36q6 25 14 52.5t16 51t13 31.5q14 20 25 38.5t22 39.5q7 11 19.5 19.5t24.5 18t20.5 22t8.5 30.5q0 14 -7 24t-17.5 16.5t-23.5 9.5t-25 3q-23 0 -38.5 -10t-27 -25.5t-21.5 -33.5t-21.5 -33.5t-25.5 -25.5t-35 -10 q-23 0 -33.5 14t-10.5 34t7 37t17.5 32t22.5 29.5t21 29.5l21 39q10 17 20 32t23 28t34 26q25 0 47.5 1.5t44.5 3.5q22 4 44 5.5t44 1.5h82q10 5 18.5 6t22.5 1q13 0 28.5 -2t29 -9t22 -19t8.5 -32q-1 -7 -9 -16.5t-10 -11.5q0 -3 -5.5 -16t-9.5 -17q-7 -20 -18.5 -34 t-25 -26t-29 -22.5t-29.5 -22.5q-25 -21 -46.5 -55.5t-38 -74t-26 -79.5t-9.5 -72q0 -10 0.5 -26t3 -32t6.5 -30.5t11 -21.5q13 -21 31 -41.5t47 -38.5q15 0 36.5 5.5t43.5 13.5t41 17t28 16q9 6 12 9t4.5 7t3.5 10t9 17q21 29 47 61t48.5 66.5t38 72t15.5 77.5 q0 38 -9.5 76t-9.5 73q0 10 1.5 27t5 35t8.5 34t11 25q9 9 27.5 18.5t36.5 12.5h17q23 0 37.5 -9.5t23 -24t12 -32.5t3.5 -36q0 -40 -8.5 -79t-22 -76.5t-31 -73t-35.5 -67.5q-1 -3 -5 -10l-8 -15l-9 -16q-5 -7 -7 -11q0 -2 -2 -10.5t-3 -10.5q-44 -58 -87 -108l-95 -108 q-4 -3 -6.5 -9.5t-5.5 -13.5t-7 -12.5t-10 -7.5q-3 -2 -15 -9l-25 -14l-27 -14q-12 -7 -16 -10q-8 -5 -26.5 -11.5t-39.5 -13t-40 -11t-29 -4.5q-27 0 -51.5 9t-47 24t-42 34t-36.5 39z" />
<glyph unicode="w" horiz-adv-x="1375" d="M683 38q0 27 11.5 53.5t14.5 53.5v68l24 38q0 3 -1.5 10t-5 15t-9.5 14t-15 6q-5 0 -10.5 -2.5t-11 -6t-9.5 -6.5t-5 -4l-22 -18l-30 -26l-30 -26q-13 -12 -17 -17q-11 -3 -20 -10.5t-18 -16.5l-16 -17q-8 -9 -15 -13q-5 0 -13 -3.5t-10 -3.5q-29 -12 -54 -33l-51 -41 q-25 -21 -53 -35.5t-63 -14.5q-16 0 -28 0.5t-22.5 4.5t-20 11.5t-21.5 21.5q-1 2 -4 7.5t-3 7.5l-2 21q-1 10 -1 21q0 9 1 18l2 18q22 16 27 32.5t11 38.5q1 1 4 5l7 8q4 4 7 8t3 7q3 2 5 14.5t2 14.5l6 15q4 9 6 13q2 1 6.5 4.5t9 8t8 8.5t4.5 5l3 52q8 35 18 69.5 t18.5 71t14.5 75t6 81.5q0 20 -1 34t-6 24.5t-17 19t-33 17.5l-5 3l-12 5q-7 3 -13.5 5.5t-8.5 2.5q-3 0 -8.5 -1t-7.5 -2q-1 -1 -5 -3.5t-9.5 -5.5t-10 -6t-6.5 -6q-10 -6 -14 -19t-8.5 -26t-12 -23t-22.5 -10h-9q-8 1 -12.5 7t-6.5 13.5t-2.5 15t-0.5 11.5q0 12 10.5 35.5 t25.5 48t31 43.5t28 21q32 14 67 24.5t71 10.5q20 0 45.5 -8.5t48 -23t38 -34.5t15.5 -43q0 -14 -3.5 -23t-3.5 -20q0 -8 4.5 -12.5t11.5 -7t15 -3.5t14 -1q14 0 28.5 19.5t34.5 42.5t47.5 42.5t66.5 19.5q23 0 53 -1.5t51 -12.5q20 -11 34 -29l30 -34q15 -17 32 -29.5 t42 -12.5h31q11 11 19.5 23.5t20.5 19.5q48 39 105 64.5t120 25.5h17q8 0 17 -2q25 -15 46.5 -38t37.5 -50.5t25 -57.5t9 -58q0 -45 -21 -97.5t-55.5 -107.5t-78.5 -109t-90 -101t-89.5 -85t-77.5 -60q-7 -5 -16 -7l-17 -4q-9 -2 -19 -4.5t-19 -9.5q-11 -9 -19 -24t-19 -19 q-27 -18 -64 -26t-67 -8q-25 0 -32.5 8t-7.5 33zM650 746q-16 0 -26.5 -2.5t-19.5 -8.5t-17 -16l-20 -25q-17 -21 -41.5 -39t-38.5 -39q-1 -2 -3 -9t-3.5 -14.5t-3 -14t-2.5 -7.5q-4 -13 -9 -21l-10 -17q-4 -8 -8 -17.5t-5 -24.5l-6 -78q-3 -12 -9 -29.5t-13.5 -36.5 t-15.5 -36l-14 -29q-2 -4 -3 -7t-3 -5q-2 -8 -3 -17.5t-1 -17.5q0 -9 1 -18t3 -20q1 -6 5 -10t8.5 -6t9.5 -4.5t8 -5.5q3 -2 8 -7l10 -10q5 -5 9 -10t6 -6q14 0 30 13t32 30l31 33q14 15 26 21q3 3 9 4.5t12 3.5t11 5t8 8q21 39 48 77t52 79t42 85.5t17 97.5q0 2 -5 13 t-9 13l-11 41q-5 22 -14.5 41t-26.5 31t-45 12zM885 232q0 -21 16.5 -29t30.5 -8q22 0 48 14.5t52 38.5t50.5 53.5t44.5 59t34 56.5t18 45q1 5 3 17.5t4 26.5l5 25q2 11 2 14q5 27 15.5 51t10.5 53v21q0 14 -2.5 30t-16.5 27l-59 39q-2 1 -3.5 2t-3.5 2q-3 1 -5 2 q-4 0 -8.5 -2t-6.5 -4l-36 -25l-34 -22q-17 -11 -35 -21t-39 -20q-7 0 -7 -5q0 -1 -2 -7l-3 -12q-1 -7 -2.5 -12.5t-2.5 -6.5l-10 -20q-6 -14 -13.5 -28.5t-14.5 -26.5t-11 -15q-8 -14 -16 -21.5t-8 -23.5q0 -18 1.5 -36t3.5 -38q5 -19 6 -37.5t1 -35.5v-92q-7 -11 -7 -29z " />
<glyph unicode="x" horiz-adv-x="985" d="M-19 164q0 25 9 39.5t23.5 23t32.5 13.5l37 9q3 2 17.5 6t22.5 4q16 -6 31 -15.5t33 -9.5l31 5q3 1 12 3t19 3.5t18.5 2.5t11.5 1q17 4 23.5 16.5t15.5 21.5q37 42 63.5 88.5t26.5 105.5q0 21 -3.5 37.5t-9.5 32.5l-13 32q-7 16 -13 36q-5 20 -9 41t-14 37.5t-28 27 t-50 10.5q-5 0 -10.5 -1.5t-11.5 -3.5q-7 -1 -14.5 -7t-14.5 -13.5t-11 -14.5t-3 -10q-5 -23 -8 -46t-15 -53q-4 -11 -10.5 -15t-17.5 -4q-14 0 -21.5 11.5t-7.5 25.5q0 13 3.5 28t9.5 30t13 28.5t14 23.5l33 67q17 35 39 64t52 48t73 19q46 0 71 -22.5t37 -57t17 -74 t11 -74t18.5 -57t40.5 -22.5q10 0 15.5 4.5t8.5 11.5t5 15t6 14l13 17l23 27l24 30q12 14 18 22q21 27 43 52t47.5 45t56 32t69.5 12q22 0 42.5 -7t36 -20.5t25 -32.5t9.5 -43q0 -27 -6.5 -52t-20 -44.5t-34.5 -31.5t-50 -12q-20 0 -37 8.5t-34.5 19t-35 19t-38.5 8.5 q-9 0 -24.5 -7t-31 -17.5t-27.5 -21.5t-13 -20v-34q0 -5 -11 -9.5t-24.5 -11t-27 -16t-18.5 -22.5l2 -33l-2 -38q1 -3 3.5 -13t6 -22t6.5 -24t5 -19q9 -29 14.5 -57t16 -50t30 -36t57.5 -14q19 0 32.5 22t24 48t18.5 48t16 22q8 5 21 5q11 0 24 -5q3 -2 9 -11q3 -4 5 -10 q0 -27 -6 -62t-16 -70.5t-23 -68t-26 -53.5q0 -2 -3.5 -4t-5.5 -2l-29 -24q-16 -15 -34.5 -28t-38 -22t-38.5 -9q-17 0 -32.5 3t-29.5 15q-5 9 -14 22l-19 27q-11 14 -20 28t-13 26q0 3 -0.5 6.5t-0.5 11.5l-8 44q-4 26 -13 50t-22.5 41t-33.5 17q-29 0 -44.5 -14.5 t-24.5 -35.5t-16 -43t-17 -37q-17 -24 -35 -54t-40 -56t-48 -43.5t-60 -17.5q-49 0 -80.5 7.5t-49.5 26.5t-24.5 50.5t-6.5 79.5z" />
<glyph unicode="y" horiz-adv-x="767" d="M-269 -521q0 19 3 29.5t10 16.5t18.5 11t28.5 14q11 5 16.5 9t8.5 6.5t6.5 4t10.5 1.5q13 0 25 -9l25 -20q13 -10 28 -19t36 -9l33 3q59 37 106 77t91 93q6 9 9 20t5 22.5t4.5 23t7.5 22.5l5 5l7 7q4 4 8 7.5t6 4.5q4 3 8 12.5t6 13.5q0 3 4 17l8 31l8 30q3 14 4 19 q9 30 25.5 56.5t21.5 56.5v64q1 24 7.5 51.5t6.5 50.5q0 13 -3.5 24.5t-7.5 22.5l-9 23q-5 11 -6 23q-2 3 -3 16t-2 27.5t-1.5 26.5t-0.5 15q-7 39 -15.5 74.5t-12.5 77.5q-6 9 -14.5 20t-17.5 20.5t-18 16.5t-17 7q-29 0 -42 -16.5t-20 -35.5l-14 -36q-6 -17 -21 -17 q-16 0 -25.5 3.5t-18.5 16.5q2 35 10 66.5t19.5 61.5t25.5 60l30 60l5 12q2 2 5 11l8 18q4 10 8 19t7 11q11 12 17 15.5t10.5 6.5t9.5 9t15 24l40 5h15q10 0 19.5 -1.5t17.5 -4.5t12 -9q14 -16 17.5 -36t8.5 -40q10 -36 21.5 -73t21 -74.5t16 -74.5t6.5 -74 q0 -14 -3.5 -25.5t-3.5 -24.5q4 -15 9 -36t13 -40t20 -32.5t31 -13.5q7 0 14.5 1.5t11.5 9.5q12 14 20 36.5t13.5 46.5t9.5 47l7 39q8 29 21.5 54.5t18.5 54.5q3 15 4.5 40t4 54.5t7.5 60t14.5 55t25.5 40t41 15.5q5 0 16 -3.5t22.5 -9t21.5 -11.5t14 -12v-33 q0 -16 -2 -35.5t-6.5 -38.5t-12 -37t-18.5 -31q-2 -1 -7 -6l-11 -11q-6 -5 -11 -10.5t-6 -7.5t-2.5 -11t-3 -20t-3 -20.5t-1.5 -12.5q-6 -15 -21 -36l-30 -43q-16 -22 -28.5 -41.5t-14.5 -31.5q-6 -33 -18.5 -62.5t-28.5 -58.5l-33 -57q-16 -29 -29 -61l-14 -84 q-14 -48 -31 -94.5t-28 -96.5q0 -1 -1.5 -3t-3.5 -2q-10 -7 -16 -14.5t-10 -14.5l-10 -16q-5 -8 -12 -17l-24 -23q-1 -3 -1.5 -11.5t-1.5 -18t-2 -18t-2 -9.5q-2 -8 -5.5 -19t-8 -22.5t-9 -21.5t-8.5 -16q-8 -10 -17 -18.5t-17.5 -17.5t-15 -19.5t-9.5 -22.5l-17 -16 l-24 -24l-24 -24q-11 -11 -15 -17l-19 -37q-26 -37 -52.5 -57t-56.5 -29.5t-65.5 -11.5t-79.5 -2q-11 -2 -22 -3t-21 -1q-14 0 -26.5 1t-24.5 3q-27 14 -46 36.5t-19 56.5z" />
<glyph unicode="z" horiz-adv-x="772" d="M455 -237q0 1 -0.5 4t-0.5 6q-1 4 -1 7q0 1 -1.5 7t-4 13t-5 12.5t-3.5 5.5q-8 45 -13.5 91.5t-19.5 86.5t-41.5 70.5t-79.5 44.5q-15 6 -32 14t-37 8q-21 0 -36 -14.5t-29.5 -32t-31.5 -32t-41 -14.5q-7 0 -11 6t-6.5 15t-3 18.5t-0.5 15.5q0 11 2 19.5t5 17t7.5 17.5 t9.5 22q8 16 22.5 25.5t31.5 16.5l33 13q16 7 27 16l101 96q48 47 93 103l19 30q1 2 6.5 7t12.5 10l13 10q6 5 8 7q4 4 9 16.5t8.5 27.5t6 29t2.5 21q0 15 -6 23t-15.5 12.5t-21.5 8.5t-23 13l-34 24q-16 11 -32 18t-34 11t-42 4q-22 0 -40.5 -5.5t-18.5 -31.5v-8 q2 -3 7 -14l11 -22q5 -12 9 -22.5t5 -14.5v-8q0 -3 0.5 -6t0.5 -5q0 -27 -21 -36t-48 -9q-26 0 -40 8.5t-20.5 22.5t-7.5 32.5t-1 38.5q0 16 0.5 33t4 32.5t11.5 29t22 23.5q1 2 10 8.5t21 13.5l24 15q12 7 18 10q1 1 7 3.5t8 2.5l49 11q2 1 8 6l12 11q6 6 11 11.5t7 7.5 q11 5 15 6t11 1h14q8 0 20.5 -0.5t24.5 -1.5t23 -2.5t16 -2.5q27 -10 44 -25l34 -28q16 -13 37.5 -23t57.5 -10l16 -2q5 0 11 1t11 2q11 3 23 13t12 24l-10 22q-2 4 -2 11q0 11 6.5 23.5t17 23.5t24.5 18t28 7q5 0 12.5 -1t20.5 -4l22 -24q10 -10 16.5 -20.5t10 -23 t3.5 -29.5t-7.5 -26t-15.5 -21q-13 -41 -40 -72.5t-60.5 -57.5t-70.5 -49.5t-69 -48.5q-29 -23 -53 -49l-48 -52l-48 -52q-23 -26 -50 -51q-11 -6 -19.5 -10t-14.5 -9t-9.5 -12.5t-3.5 -20.5q0 -8 4.5 -12.5t11.5 -7.5t15.5 -6t15.5 -7q22 -12 40 -25l35 -25 q17 -12 35.5 -22.5t43.5 -17.5q10 -5 18 -14.5t14 -22t11.5 -25.5t11.5 -24q-3 -4 -3 -14q0 -14 3 -32.5t8 -37.5l8 -34q4 -16 7 -24q6 -18 13 -31t7 -30l-12 -162v-57q1 -9 14.5 -26t30.5 -33t34 -28t25 -12q3 2 7.5 7.5t8.5 12.5l6 13q3 5 4 7l2 2q1 1 5 3q1 1 6 4l10 6 q5 4 10 6.5t7 2.5q8 8 9 21t1 31q4 16 15 28.5t25.5 21t31.5 13t34 4.5q15 0 22 -6t10 -14.5t4 -18.5t4 -18q1 -4 5.5 -15t4.5 -12q2 -3 4.5 -11t2.5 -10q0 -36 -13 -63t-34.5 -46t-49.5 -31.5t-57 -20.5q-18 -7 -38.5 -18t-46.5 -11q-45 13 -92.5 34.5t-86.5 53.5t-64 74 t-25 95z" />
<glyph unicode="{" horiz-adv-x="820" d="M468 -167v18q0 11 1 22q0 12 1 26l95 188v19q0 60 -22.5 116.5t-72.5 94.5l-24 18l-31 21l-26 19q-12 8 -13 9l-268 95q-14 5 -15.5 14t-1.5 18q0 23 15.5 35.5t37.5 19.5t45.5 10.5t39.5 8.5l53 20q31 12 64 27t65 34t58 41.5t41.5 48.5t15.5 56q0 36 -3.5 77.5 t-11.5 72.5t-20 59l-23 57q-11 28 -18.5 57.5t-7.5 63.5q0 55 20 109t56 97.5t85.5 70.5t108.5 27q19 0 40.5 -2t40 -9.5t30.5 -22t12 -38.5v-14q0 -9 -2 -11q-12 -28 -36.5 -39t-54 -15t-61 -6t-57.5 -12t-42.5 -32.5t-16.5 -67.5q0 -59 19 -112t42 -105t42 -105.5 t19 -111.5q0 -20 -1.5 -33.5t-12.5 -31.5q-37 -47 -75.5 -79t-81 -54.5t-90.5 -38.5t-103 -31q-3 -2 -7.5 -6t-6.5 -6v-9q0 -13 30 -26t74.5 -30.5t97 -41.5t97 -58.5t74.5 -82t30 -111.5q0 -47 -12 -88t-30 -80.5t-39.5 -79t-39.5 -82.5q0 -1 -1 -9l-4 -19l-4 -21 q-2 -10 -3 -16q0 -2 -1 -4t-1 -4l2 -6q1 -8 3 -21l4 -26l4 -22q1 -10 1 -11q0 -2 5.5 -7.5t8.5 -7.5l13 -7l16 -9l16 -7t9 -3q8 -2 29 -6.5t45 -8.5l44 -8q21 -3 29 -4q23 -8 26 -22t3 -31q0 -34 -18.5 -58t-55.5 -24q-43 0 -86 17t-80.5 45.5t-66 65t-43.5 75.5 q-7 17 -10.5 38t-5 42.5t-1.5 42.5v38z" />
<glyph unicode="|" horiz-adv-x="513" d="M205 -427v62q0 78 -2.5 155.5t-7.5 152.5q-2 32 -7 65.5t-5 71.5l17 45q0 15 -8.5 27t-8.5 33q4 48 5 86.5t1 74.5q0 26 -1 55t-4 59v102q-9 37 -13 71t-4 66q0 39 3 75t13 79q-2 4 -7.5 17.5t-6.5 22.5l14 50q0 11 -7 26.5t-7 33.5l7 116l-16 343q0 9 3.5 23t19.5 17 l24 4q11 1 21 1q19 0 30.5 -5t22.5 -9q0 -4 2.5 -20.5t2.5 -24.5q3 0 5 -10l4 -21v-21l10 -47l-26 -138l16 -123l-9 -45q4 -15 6.5 -23.5t4 -13t1.5 -6.5v-4q0 -15 -2 -21t-10 -17q7 -8 12.5 -33.5t9.5 -55t6 -56.5t2 -38l-21 -142q0 -13 3 -27l8 -28l6 -28q4 -14 4 -26 q0 -16 -4 -33l-6 -34l-8 -33q-3 -17 -3 -31q0 -29 8 -60.5t8 -62.5l-6 -38v-46q0 -17 -0.5 -25.5t-0.5 -10.5v-6q3 -5 8 -29l12 -52q6 -29 10 -54.5t4 -34.5l-15 -59q0 -18 3.5 -27t3.5 -19l-21 -142q0 -26 6 -48.5t8 -53.5q-11 -3 -11 -18v-3q0 -9 -1 -20t-7 -21t-18 -16.5 t-34 -6.5q-17 0 -27.5 5t-19.5 28z" />
<glyph unicode="}" horiz-adv-x="825" d="M42 -450v5q0 4 1 7q0 4 1 7q17 30 44 43.5t57 19.5t60.5 9t55 12.5t39.5 30t15 61.5q0 53 -10.5 109.5t-30.5 105.5q-14 33 -26.5 57.5t-22.5 48t-15.5 48.5t-5.5 59q0 37 11 66t30 53t44 44l52 42q11 3 40 12l60 19l61 20l40 14q3 1 11 5l17 8l15.5 9.5t9.5 6.5 q-6 9 -17 15.5t-22 11.5q-47 19 -95 35.5t-92.5 37.5t-83 51t-66.5 76l-11 19l-12 26q-7 13 -11.5 23.5t-4.5 13.5q-1 0 -1.5 5t-0.5 11v14v11q0 60 21.5 114t47 106.5t47 106.5t21.5 114q0 41 -19 60t-48 27.5t-62 10.5t-62 9t-48 23t-19 52q0 21 8 35.5t22 23.5t32.5 13 t39.5 4q53 0 92 -24t76 -58q33 -29 54 -61t33.5 -68t17 -75.5t4.5 -82.5q0 -48 -15 -81.5t-33.5 -65t-33.5 -66t-15 -84.5q0 -54 23 -95t58.5 -73.5t78.5 -58.5l84 -49q21 -12 57 -22l74 -18q37 -9 65 -18.5t31 -21.5q4 -13 -6 -25.5t-27 -23.5t-39 -21t-42.5 -18t-37.5 -13 l-22 -8q-41 -15 -78.5 -32.5t-71.5 -40t-63.5 -50.5t-54.5 -65q-3 -3 -7.5 -13.5t-6.5 -13.5v-6v-8q2 -16 6 -43l9 -52q5 -25 8 -44.5t3 -20.5q1 -4 7 -16l13 -26l13 -25q6 -12 8 -15q7 -15 10.5 -25t4.5 -19.5t0.5 -20.5t-0.5 -29v-14v-17q0 -8 -0.5 -14.5t-1.5 -7.5 q-1 -12 -4.5 -33.5t-7.5 -43.5t-8.5 -39t-6.5 -20q-2 -5 -15.5 -19.5t-31.5 -31.5l-34 -33q-17 -15 -26 -22q-5 -4 -17 -10l-24 -14q-12 -6 -24 -11t-16 -6q-1 0 -7.5 -0.5t-14.5 -0.5t-16.5 -0.5t-13.5 -0.5q-17 0 -38.5 1.5t-41 8t-32.5 19t-13 34.5z" />
<glyph unicode="~" horiz-adv-x="942" d="M465 768h-6q-4 -1 -20.5 -2.5t-36 -3.5t-37 -3.5t-22.5 -2.5h-19q-18 0 -34.5 5t-16.5 28q0 2 12 19l29 37l32 41q16 19 23 26q7 5 17.5 11.5t22 12t23 9t20.5 3.5q5 0 15.5 -1.5t12.5 -1.5h4q6 0 12 4t12.5 9t14 9t16.5 4q13 0 26 -3.5t26.5 -8t27.5 -8t29 -3.5h5 q8 2 27 5l39 7l40 6q18 3 26 5q12 4 21 11l18 12q9 6 19.5 10.5t24.5 4.5h10q5 0 11 -2.5t6 -10.5q0 -6 4.5 -9.5t4.5 -19.5q0 -8 -0.5 -11t-1 -5t-1 -4.5t-0.5 -8.5q0 -11 -5.5 -20t-7.5 -20q-7 -25 -13 -36t-14.5 -16.5t-20 -10.5t-29.5 -17q-24 -14 -40 -26t-32 -22 t-34.5 -15.5t-46.5 -5.5q-49 0 -97 9.5t-96 9.5z" />
<glyph unicode="&#xa1;" horiz-adv-x="575" d="M578 1176v-34q0 -2 -2 -7l-4 -11l-6 -12.5t-5 -9.5q-1 -2 -5 -7.5t-8.5 -12.5t-8.5 -12.5t-4 -7.5q-1 -1 -3 -6t-5 -11t-7 -11t-9 -5q-70 0 -117.5 29t-72.5 101v7q0 23 4.5 38t13.5 27t23 23l31 28q3 1 11 2.5t17 3.5t17.5 3.5t11.5 2.5h7q12 0 29 -4.5t33.5 -12.5 t31 -18t22.5 -22q4 -7 5.5 -15t1.5 -16v-9v-11q0 -5 -2 -10zM485 855q-2 -25 -15 -48t-20 -49q-5 -17 -7 -31t-2 -28l-1 -29q-1 -15 -2 -33q-1 -13 -5 -27l-9 -27q-5 -13 -9 -27t-4 -28t3.5 -25.5t3.5 -25.5q1 -36 -8 -70.5t-13 -69.5v-48q0 -25 -2 -49.5t-9 -49.5 q0 -2 -3.5 -7.5t-7 -12t-7 -12t-4.5 -7.5v-40q1 -5 -4.5 -19.5t-13 -30.5t-15 -29.5t-10.5 -15.5q-1 -2 -4 -4l-8 -5q-5 -2 -9 -4t-5 -3l-5 -5q-5 -1 -16.5 -2t-24 -1.5t-23 -1t-14.5 -0.5h-12q-14 0 -29.5 11.5t-24.5 20.5q-23 20 -27 42t-4 54q0 11 2 40t7 61t12.5 59 t19.5 33v99q3 2 6 5q2 2 5 3.5t5 3.5q22 18 34.5 47.5t18.5 63.5t7.5 68t3.5 60q21 20 27.5 51t11.5 67t14.5 73t36.5 68q8 9 15 18t14.5 16.5t17 12.5t22.5 5h9q38 -20 59.5 -46.5t21.5 -70.5z" />
<glyph unicode="&#xa2;" horiz-adv-x="704" d="M63 204q0 19 4 36t9 33l12 33q6 16 11 35q1 1 2.5 8.5t2.5 16.5t1.5 16.5t0.5 8.5l14 26q2 2 9.5 13.5t9.5 15.5q1 1 3 9t4 17.5t4 18t3 11.5q4 14 12.5 27t18.5 26l19 25q10 12 16 25v32q0 3 8 16t20 30l27 37l27 36l22 28q9 11 10 12q30 18 57.5 31t54.5 21t55.5 12.5 t61.5 5.5q7 14 13.5 30t10.5 27q6 17 13.5 30t27.5 15h9q4 0 11 -1q9 0 20.5 -5t16.5 -15l-4 -37q-1 -1 -5.5 -7.5t-4.5 -7.5q-7 -14 -7 -28.5t-7 -28.5q-2 -3 -4 -7q18 -23 30.5 -52.5t12.5 -48.5q-8 -27 -25.5 -40.5t-37.5 -13.5q-25 0 -41.5 8.5t-28.5 22.5 q-2 -4 -2.5 -6t-0.5 -4v-1l-5 -21q-6 -18 -15.5 -34.5t-19.5 -26.5q-2 -7 -1 -11.5t0 -7.5q-4 -24 -9.5 -30t-10.5 -12q-5 -8 -12.5 -24t-8.5 -27q-2 -18 -8 -30t-12 -19.5t-11 -12t-6 -7.5q0 -3 -4 -8t-5 -6q-6 -29 -20 -44l-31 -36q-6 -7 -8.5 -14.5t-5.5 -14.5 q0 -23 -2 -31.5t-4 -13.5q-11 -11 -15.5 -22.5t-6.5 -12.5q-2 -5 -13.5 -12t-14.5 -8q-4 -5 -7 -14.5t-5.5 -21.5t-5.5 -23.5t-6 -19.5h4q12 0 21 5.5t16.5 13.5t14.5 17t17 16q13 10 23.5 14.5t18 9t13.5 12t11 23.5l84 82q0 2 4.5 2.5t6.5 0.5t9.5 -1t7.5 -8q0 -26 -6 -43 t-16.5 -31t-23.5 -28t-27 -33q-1 -1 -3.5 -9t-2.5 -10q-8 -17 -21 -30t-28 -24l-30 -23q-15 -12 -27 -26l-24 -40q-2 -2 -14.5 -8.5t-29.5 -13.5l-34 -15q-18 -8 -31 -12q-3 -11 -9.5 -18.5t-20.5 -16.5q-9 -7 -9 -18t-3 -23q-5 -8 -9 -10l-6 -5q-3 -2 -5.5 -6t-4.5 -14 l-40 -7q-5 1 -10 8.5t-9.5 16t-7 16t-2.5 9.5q1 12 4.5 20.5t8.5 16.5l9 15q5 8 10 19l9 19v3q-17 13 -30.5 29.5t-20.5 34.5q-6 14 -8 29.5t-2 32.5v81zM462 662q14 25 25 51l23 53q-5 3 -10 5t-11 2q-23 0 -28.5 -11t-9.5 -32q-32 -29 -56.5 -56.5t-44 -57t-35 -62.5 t-30.5 -71q-2 -2 -8 -12l-11 -21l-11 -22l-5 -11v-43q-3 -29 -14 -57t-24 -49v-67q1 -8 8 -21q5 9 9 18t4 12q0 2 6 17t14 32.5t16.5 31.5t15.5 15q19 24 30 56l22 58l37 64q10 31 17.5 49.5t12 27.5t7 12t4.5 4l13 26q3 11 6.5 18t8 13t9.5 12t10 16z" />
<glyph unicode="&#xa3;" horiz-adv-x="1418" d="M439 249v33q0 2 -5 6t-7 4q-3 1 -11 3t-17 4t-16.5 4t-10.5 3h-134q-23 7 -28.5 16t-5.5 31v17q0 9 2 17.5t10 15.5q3 3 9 8l13 11l13 10q6 4 8 6q8 2 27 5.5t40 7t40 6t26 3.5h26h9q1 0 7 4l12 9q7 5 14 11t12 9q4 3 12.5 11t8.5 10l13 25l17 34l17 33q7 15 10 20 q1 3 4 16l7 28l6 28q3 13 4 16t6 13l11 22l10 21q5 10 5 12q3 6 11 31l18 52l18 53q8 24 11 30q0 2 3 7t7 11t7.5 10.5t4.5 6.5q20 40 34 83.5t33 82.5q1 2 4 7t7 10.5t7 10.5t3 6l8 13q4 8 4 10q1 1 2.5 9t3 17.5t3 17.5t2.5 9q2 3 11.5 13t21.5 21l21 21l13 13q1 2 4 9 l7 14q3 7 6.5 13.5t5.5 8.5q0 1 5 6l11 11l10 10l7 7q1 1 4 8l7 14l6 14q3 6 3 8l16 16l27 26l28 28q13 13 19 20q2 1 10.5 4.5t10.5 5.5q3 0 7.5 5t6.5 5q15 12 30 21l29 18l31 19q15 10 33 24q30 11 57 15t52 4q29 0 56 -3t56 -8q15 -9 27 -18l22 -15l17 -13q2 0 5.5 -4.5 t4.5 -6.5q7 -7 16.5 -17.5t18.5 -21.5q11 -12 22 -26v-23q0 -22 -1 -38.5t-9 -39.5q-5 -10 -25 -19.5t-44 -17.5t-46.5 -13t-31.5 -5q-23 0 -41.5 11t-34.5 25l-33 27q-16 12 -35 15h-5q-5 0 -12 0.5t-13 0.5h-11q-7 0 -21 -0.5t-15 -0.5q-2 0 -7 -3l-10 -7l-10 -8t-6 -5 q-17 -10 -32.5 -25.5t-30 -33.5t-26.5 -37l-22 -35l-16 -30l-21 -39l-19 -36q-9 -16 -10 -20q-8 -14 -11 -27t-4.5 -26t-3 -27.5t-5.5 -31.5q0 -2 -3 -8t-7 -13l-8 -13q-4 -7 -5 -9q0 -2 -1.5 -10t-3 -17.5t-3 -18t-2.5 -10.5q-1 -1 -4 -6l-7 -10l-7 -11q-3 -5 -4 -6 q-25 -44 -37.5 -87t-30.5 -89q-20 -55 -37.5 -108.5t-17.5 -113.5v-12q0 -8 2 -15t10 -9h66q22 0 40 2l35 4l34 4q18 2 39 2q11 0 27.5 -3t32 -9.5t26.5 -17t11 -25.5q0 -10 -5.5 -21t-14 -22t-18 -20.5t-17.5 -16.5q-18 2 -35.5 3t-35.5 1q-56 0 -110.5 -7t-109.5 -18 q-4 -3 -13.5 -12l-20.5 -20l-19 -21q-9 -10 -12 -14q-3 -3 -11 -19l-18 -36q-10 -19 -18 -36t-11 -21q0 -2 -5 -8l-11 -13l-10 -14q-5 -7 -6 -9q-1 -1 -3 -6l-3 -10l-3 -11q-1 -5 -2 -6q-1 -5 -9 -21l-18 -34l-19 -35q-8 -16 -11 -20q-1 -3 -6 -15l-9 -25q-5 -14 -10 -25 t-6 -13q-2 -5 -6 -12l-6 -14l-7 -13l-4 -8q-5 -6 -13 -12l-14 -14q-8 -7 -13.5 -15.5t-5.5 -18.5v-3q0 -3 3 -3q16 -22 36.5 -36.5t50.5 -18.5h57h21q8 0 21.5 -0.5t27 -3.5t25 -10t16.5 -19q6 -1 23.5 -3t37.5 -4t37.5 -3.5t23.5 -1.5h38q46 0 83 4t67.5 16.5t55 37 t45.5 65.5q8 16 10 33t2 34v16q0 25 -5.5 44.5t-14.5 36.5t-21.5 33.5t-25.5 35.5l-13 18q-8 11 -15 22l-12 19q-5 8 -5 9q-1 4 -1 8q-1 3 -1 6v5q0 17 3 27.5t21 10.5l6 -2q2 -1 5 -1q2 -1 10 -6l18 -12l22 -14l17 -12q0 -1 5 -4.5t7 -5.5q4 -7 17 -25l27 -37l27 -37 q13 -18 18 -24q0 -4 1 -13.5t2.5 -20.5t2.5 -21t1 -14v-17l1 -21q1 -11 1.5 -19.5t0.5 -10.5q-1 -10 -5 -27l-7 -35q-3 -17 -6.5 -30.5t-3.5 -16.5q-2 -3 -12 -14l-20 -24l-21 -24q-10 -11 -13 -14q-4 -4 -12 -17t-11 -17q0 -2 -3.5 -8.5t-7 -14t-7.5 -14t-6 -7.5 q-1 -1 -5.5 -3t-9.5 -3l-10 -3q-5 -2 -6 -3q-3 0 -13 -5l-20 -10l-20.5 -11.5t-12.5 -6.5q-3 0 -11.5 -2t-18 -3.5t-18 -3t-9.5 -1.5q-2 -2 -11 -6.5t-11 -7.5q-5 0 -25.5 1t-38.5 1q-21 0 -25 -2q-2 0 -8.5 -1.5t-13.5 -3.5t-13.5 -3.5t-7.5 -1.5q-3 1 -9 5l-14 7l-15 8 l-9 4h-46h-19q-38 9 -74 22.5t-72 25.5t-73.5 21t-78.5 9q-3 0 -7 -0.5t-8 -0.5q-4 -1 -9 -1q-2 0 -6 -5t-7.5 -11t-7 -11t-3.5 -6q-30 -43 -68.5 -71.5t-92.5 -28.5h-26q-3 1 -9 4l-13 7l-15 6q-7 3 -10 5q-3 3 -9 8t-11 11l-9 10q-4 4 -4 6q-8 30 -8 57t8 54q0 1 4 5l9 9 l11 11q6 5 9 8l17 11l21 14l19 12q8 5 11 6q3 2 16 4t28.5 4t29 3t16.5 1q1 2 10 6t10 4q2 1 10 4.5t17.5 7t18 7.5t10.5 6q1 0 5 8t7 12l34 82q17 41 32 84q10 32 16.5 63t15.5 60l32 83q15 40 15 85z" />
<glyph unicode="&#xa4;" horiz-adv-x="1037" d="M71 339q3 10 23 31t44.5 43t48.5 40t35 24l5 13q0 1 5.5 10.5t7.5 13.5q2 15 0 31.5t-3.5 34.5t-1 38t8.5 43l22 66q7 5 21 23t28.5 39t25.5 40t14 27q3 10 -3 23.5t-15.5 27t-19 25t-12.5 19.5q-2 1 -7 9.5t-10 19.5l-9 20q-5 9 -6 12q9 16 21 27.5t26 19t28.5 11 t27.5 3.5q10 0 15.5 -4.5t10 -10t10 -10t15.5 -5.5q1 -13 4.5 -28t10 -28.5t18 -22.5t29.5 -9h12l47 19q25 10 51 19t52 15t49 6h14q10 0 11 -2q2 -6 20 -15t40.5 -17t44.5 -14t32 -6q13 0 26 6t24.5 14t22 17t20.5 15l92 64h29q2 0 5.5 -4.5t7 -11t6.5 -13.5t3 -11 q0 -1 -3.5 -13t-4.5 -16l-11 -30q-10 -13 -30.5 -19t-34.5 -15q-5 -3 -18 -14t-27 -25l-26 -25q-12 -12 -15 -17l-1 -2q-5 -16 -1.5 -33.5t8.5 -36.5t8 -38.5t-3 -40.5l-40 -92q-2 0 -8 -8.5t-12 -20.5l-13 -22l-9 -13q-11 -6 -16.5 -10t-7.5 -5q-10 -6 -13 -18 q-3 -8 -4.5 -19t-2.5 -20t0.5 -15.5t4.5 -5.5l26 -12q14 -12 21.5 -40.5t12.5 -54.5q3 -5 3 -8.5t-1 -5.5q-3 -9 -12.5 -19.5t-21 -19t-24 -14.5t-21.5 -6l-11 4l-12 6t-9 5l-4 2l-67 92q-4 2 -9.5 4.5t-10.5 2.5h-2q-23 -3 -45 -12l-45 -18q-24 -10 -48 -17t-51 -7 q-4 0 -7 1.5t-5 9.5h-12q-43 0 -74.5 8.5t-54.5 20.5q-8 4 -11 7.5t-4.5 6.5t-3.5 5t-9 2q-10 0 -32 -19l-51 -42q-29 -24 -61.5 -43t-61.5 -19q-19 4 -27.5 20t-1.5 37zM404 509l15 -25q16 -5 31 -9q13 -4 26 -7l21 -6h20q66 0 120 25.5t105 85.5l11 11l18 18l19 18l15 15 l5 43l20 36l5 13q-2 21 -6.5 36.5t-11.5 28.5l-13 26q-6 14 -11 31q-1 2 -1.5 4.5t-2.5 2.5q-15 3 -26.5 8t-22 12t-21.5 15.5t-27 16.5q-12 -2 -36 -6.5t-50.5 -9l-49.5 -8.5l-33 -7q-19 -13 -37.5 -32t-40.5 -28l-82 -106l-28 -86q4 -3 9.5 -18.5t10.5 -33.5t7.5 -34.5 t0.5 -21.5z" />
<glyph unicode="&#xa5;" horiz-adv-x="1307" d="M395 709q5 10 10 17.5t13 13.5t20 9.5t32 5.5h48q20 2 42 9.5t47 7.5q6 0 14 -5t25 -7q2 17 3.5 33.5t1.5 33.5q0 27 -1 47t-4 50q-15 13 -21 33t-8.5 42t-6 43t-14.5 38q-1 0 -1 1t-0.5 1t-0.5 1q-1 1 -1 2q-16 10 -27 22l-23 23q-12 11 -25.5 18.5t-32.5 7.5 q-14 0 -30.5 -2t-33.5 -5.5t-31.5 -7.5t-23.5 -8q-25 -5 -39 -13t-20.5 -20.5t-8 -28.5t-1.5 -35v-27q13 -9 33 -9t41 4.5t43 4.5q11 -2 21.5 -8.5t18 -16t12 -20t4.5 -19.5q0 -21 -10.5 -39t-26.5 -30.5t-36.5 -20t-39.5 -7.5h-33q-6 6 -12.5 9.5t-13.5 5.5t-13.5 4.5 t-11.5 6.5q-26 22 -42.5 59t-16.5 69q0 95 38 166.5t130 116.5l30 10q16 6 32 6q28 0 60.5 -2.5t64 -9t61.5 -17.5t54 -28l9 -19q8 -14 22 -36t27.5 -45.5t24.5 -45.5t14 -34q2 -9 2 -24.5t2.5 -30.5t8 -26t18.5 -11q17 0 29 8t21.5 19.5t18 24t18.5 21.5l36 36l30 32l28 32 q14 17 29 38q11 12 25 17.5t30 13.5q2 2 5 4.5t5 4.5l40 29q21 16 44.5 29.5t47.5 22.5t45 9t45 -5.5t48.5 -13.5t47.5 -17.5t40 -17.5q10 -7 23 -19t24.5 -26.5t19.5 -28.5t8 -26v-3q-2 -5 -5 -18l-6 -27l-7 -28q-4 -13 -5 -19q-8 -11 -22.5 -24.5t-29.5 -18.5l-29 -4 q-28 0 -46.5 11t-32.5 27t-24.5 35t-22 35t-27 27t-37.5 11q-32 0 -65 -18t-63 -45t-54.5 -58t-39.5 -56q0 -1 -2 -6l-6 -11q-3 -5 -5 -10t-2 -6q-2 -4 -3 -7t-2 -5l-8 -9l-14 -14l-14 -14q-7 -6 -8 -8t-4 -14t-3 -14q-10 -22 -26.5 -40.5t-28.5 -35.5q-9 -20 -15 -39 q20 2 40.5 5.5t40.5 3.5l38 -7q8 0 14.5 3t18.5 5q12 9 31 9q22 0 39 -9t25 -22v-8q-1 -2 -6 -7q-2 -2 -4 -3l-2 -6v-1q1 0 1 -0.5t-3 -4.5l-9 -13l-17 -24q-26 -16 -57.5 -21.5t-56.5 -5.5q-11 0 -23 1l-25 2q-14 2 -27 3t-29 1h-10q-8 -26 -22 -51.5t-22 -51.5 q18 4 36.5 7.5t36.5 3.5l38 -10q8 0 14.5 4t18.5 8q11 12 31 12q22 0 39 -12.5t25 -30.5v-12q-1 -2 -2.5 -4.5t-3.5 -4.5q-2 -3 -4 -5q-1 -4 -1.5 -5.5t-0.5 -3.5v-2q1 1 1 0t-3 -7l-9 -19l-17 -34q-26 -23 -57.5 -30.5t-56.5 -7.5q-11 0 -23 1.5t-25 3.5q-14 2 -27 3.5 t-29 1.5h-19q2 -10 2 -15q0 -12 -8 -20.5t-13 -17.5q-8 -24 -17.5 -44t-17 -40t-12.5 -42t-5 -49q0 -35 15 -51t37.5 -22.5t49 -8t49 -7t37.5 -19.5t15 -46v-14q-14 -23 -32 -30.5t-43 -7.5q-20 0 -40.5 4t-41 9t-41 9t-39.5 4q-23 -2 -45 -2.5t-45 -0.5q-2 0 -6.5 1.5 t-10.5 2.5l-10 3q-5 2 -6 3h-35q-38 0 -77 -8.5t-78 -8.5q-16 0 -37 1.5t-40 7.5t-32.5 18t-13.5 33q0 8 6 15.5t13.5 14t15.5 11.5l13 8l23 12q10 6 22 9.5t28.5 6.5t42.5 6q30 3 58.5 33.5t52.5 72t41.5 86t25.5 76.5l-69 -3q-30 -2 -64 -7t-64 -5q-21 0 -39 15.5 t-18 37.5v4l15 43q5 14 10 25.5t13 20t20 13.5t32 7h48q20 4 42 14t47 10q7 0 16.5 -8t31.5 -9q2 5 4.5 10.5t6.5 11.5q0 2 5 9l11 14q6 8 11 15.5t5 10.5v19q-15 -1 -30 -1.5t-30 -0.5q-30 -1 -64 -4.5t-64 -3.5q-21 0 -39 10.5t-18 26.5v2z" />
<glyph unicode="&#xa6;" horiz-adv-x="624" d="M183 -130q0 20 -8.5 41t-8.5 35q0 23 8.5 44t8.5 45q0 10 -2 18t-5 16q-10 20 -10 43q0 38 10.5 76.5t10.5 79.5v17q18 23 38 36t46 13q25 0 47.5 -8.5t39.5 -24.5t26.5 -37.5t9.5 -47.5q0 -11 -3.5 -24.5t-3.5 -27.5q0 -11 0.5 -23t3.5 -23q3 -29 3 -56v-33 q0 -13 -1 -23t-6 -18q-5 -18 -6 -37t-1 -36q0 -18 1 -34.5t6 -36.5q9 -15 10.5 -23.5t1.5 -24.5q0 -14 -2.5 -33t-10 -36t-20 -29.5t-31.5 -12.5q-30 0 -61 7t-56 22.5t-41 40t-16 60.5v3q0 1 3 7l6 12l7 12q3 6 3 7zM183 981q0 20 -8.5 41.5t-8.5 39.5q0 23 8.5 43.5 t8.5 43.5q0 9 -2 16l-5 18q-5 9 -7.5 20t-2.5 22q0 39 10.5 75.5t10.5 78.5v22q18 21 38 32.5t46 11.5q25 0 47.5 -8t39.5 -22.5t26.5 -35.5t9.5 -47l-7 -54q0 -13 0.5 -24.5t3.5 -26.5q3 -24 3 -54v-33q0 -9 -1 -21t-6 -20q-5 -19 -6 -37.5t-1 -32.5q0 -18 1 -36t6 -36 q9 -14 10.5 -24t1.5 -23q0 -14 -2.5 -33.5t-10 -37.5t-20 -30.5t-31.5 -12.5q-30 0 -61 7t-56 22.5t-41 41t-16 62.5q0 3 3 9l7 13l6 13q3 5 3 7z" />
<glyph unicode="&#xa7;" horiz-adv-x="1001" d="M151 -322q0 34 18 55.5t45.5 33.5t59.5 16t61 4q20 0 39 -4t38 -8.5t38.5 -8t40.5 -3.5h24q2 3 7 13l12 22l11 22q6 11 8 16v53v21q0 12 -1 25.5t-2.5 26.5t-5 24t-7.5 17q-2 4 -13 15l-23 23l-23 22q-10 10 -12 13q-3 3 -10 13l-14 22l-14 21q-6 10 -8 15q-2 1 -3.5 7 t-3.5 12t-3.5 11.5t-2.5 5.5q-4 2 -13 7t-11 7q-21 14 -33.5 30.5t-21 35.5t-15.5 39t-16 41q-2 3 -9 17l-15 29l-15 30q-7 14 -8 19q-4 6 -9 19.5t-5 18.5q0 4 1 28.5t1 47.5v20q0 9 -2 11q0 2 -3 10.5t-8 19.5l-8 19q-4 8 -7 10v7v5q3 4 5 13.5t3.5 19t2.5 17.5t1 10 q9 30 14 60l11 58l12.5 56.5t16.5 56.5q0 2 3 9l6 14l7.5 15t4.5 10l45 113q23 57 50.5 110t60.5 98.5t77 79.5t100 53.5t129 19.5q31 0 61 -8t53.5 -24.5t38 -42t14.5 -60.5q0 -109 -109 -109q-8 2 -15 4l-13 4q-6 2 -8 4q-5 1 -23 8l-39 15l-38 16q-17 8 -21 11h-5 q-5 0 -27 -11.5t-46.5 -26t-44.5 -28t-22 -18.5q-2 -3 -3.5 -8.5t-3.5 -11.5t-3 -11t-1 -7q-2 0 -2.5 -4.5t-0.5 -6.5q0 -45 20.5 -84.5t50.5 -75.5t63.5 -69t60.5 -65q57 -66 86.5 -139.5t34.5 -159.5v-45v-113l1 -7q2 -7 4.5 -15t4 -15.5t1.5 -10.5v-19q0 -23 -9.5 -49.5 t-14.5 -52.5q-1 -2 -2.5 -12t-3.5 -22l-4 -23q-2 -11 -2 -14q-10 -38 -24.5 -80.5t-34.5 -77.5q-9 -15 -14.5 -31t-10 -33t-10 -34.5t-14.5 -34.5q-16 -28 -32 -49.5t-34 -41t-38 -37.5l-43 -40q-27 -24 -53.5 -51t-56 -50.5t-63 -38.5t-74.5 -15q-55 0 -88.5 35t-50.5 86 v10zM335 714q1 -2 4 -10t7 -17.5t7 -19t4 -13.5q0 -4 -0.5 -25.5t-0.5 -42.5v-17q0 -8 1 -10q0 -3 7 -10t16 -15l17 -15q8 -7 10 -9q23 -29 41 -64l37 -69q20 -35 43.5 -66.5t57.5 -52.5q2 0 3.5 -1t3.5 -1q31 0 49 14.5t27.5 37t12 49.5t2.5 51q0 31 -10 57.5t-24 51.5 l-27 50q-14 24 -23 52q-2 2 -6 13t-8 24l-8 23q-3 10 -4 11q-2 2 -7 9l-11 16l-12 15q-6 7 -7 9q-1 3 -6 14l-11 23l-10 23q-5 11 -6 14q-1 1 -8 9l-14 17l-16 19q-8 9 -12 16q-9 11 -11.5 13t-14.5 2q-10 0 -19.5 -7.5t-17.5 -18t-14 -22t-9 -19.5l-7 -21l-11 -31l-9.5 -33 t-5.5 -23z" />
<glyph unicode="&#xa8;" horiz-adv-x="1056" d="M518 1213q0 11 2.5 20.5t4.5 20.5q8 23 19.5 39.5t40.5 16.5q24 0 45 -8t36.5 -21.5t25 -33t9.5 -41.5q0 -14 -3.5 -31t-11 -31.5t-19 -24.5t-26.5 -10q-41 0 -68.5 15.5t-51.5 46.5zM880 1208q0 9 2.5 19.5t3.5 19.5q5 25 19 44t44 19q23 0 44 -8.5t37 -23t25.5 -34 t9.5 -40.5q0 -15 -4 -32t-12.5 -32t-20.5 -24.5t-27 -9.5q-39 0 -67.5 18t-48.5 44z" />
<glyph unicode="&#xa9;" horiz-adv-x="1549" d="M485 1045q17 17 31 35t35 32q22 20 49.5 30.5t50.5 23.5q42 0 80.5 9.5t73.5 9.5q14 0 26 -1.5t26 -3.5q37 -13 67.5 -20t60.5 -10q16 0 20.5 7t12.5 18q26 0 26 -25l5 -45v-57q0 -15 5.5 -35t5.5 -36v-14q0 -7 -2 -13q-3 -11 -7.5 -17.5t-6.5 -8.5t-5 -2q-11 0 -17.5 9 t-8.5 14q0 10 -4.5 13t-4.5 14q-6 21 -17 40t-30 33q-18 13 -33 32t-31 30q-27 17 -52 24t-50 7q-7 1 -25 -4t-37.5 -12t-35 -14t-17.5 -8q-35 -23 -67.5 -53t-57.5 -75q-13 -40 -16 -62.5t-3 -39.5q0 -22 -1.5 -39t-5.5 -35l-3 -37l15 -114q21 -35 36 -56l26 -34 q10 -12 15.5 -20t7.5 -16q25 -14 41 -25l25 -18q10 -7 14 -10.5t5 -3.5l71 -26q24 -1 38 -1.5t22 -1t11.5 -1t5.5 -0.5q4 -2 17.5 2.5t27.5 12t24 16t8 13.5q9 1 20.5 12t22 24.5t19.5 26.5t14 18q3 4 7.5 11t10 14t11 12.5t10.5 5.5q10 0 14.5 -10.5t4.5 -15.5 q-2 -26 -4 -36q-2 -7 -4 -12q-15 -33 -25 -50t-19.5 -29t-22.5 -23t-34 -31q-8 -9 -13.5 -12.5t-22.5 -5.5l-57 -24q-20 -9 -31.5 -13t-17 -5t-11.5 -1q-10 0 -22 1t-30 3q-7 0 -20 1l-26 3q-13 2 -24 3.5t-15 2.5q-14 -5 -33 1.5t-37 16t-31 18.5t-13 11q-38 36 -58 57 t-22 26q-20 40 -37 65t-25 51v3q0 3 -1 14l-3 34q-2 23 -5 63l-8 71q6 48 10 85.5t12 57.5l12 40q14 11 21 31.5t14 36.5zM181 362l-38 68q-18 35 -33 71.5t-24 74.5t-9 76v42q0 49 1.5 98.5t9.5 97.5t24 95t45 91l124 196q33 40 77.5 76.5t92.5 64t96.5 43.5t89.5 16 l68 -12q16 0 25.5 1.5t28.5 10.5h81q34 0 62 -2t54.5 -8.5t52 -20.5t54.5 -38l111 -114l67 -33q33 -22 46 -54.5t20.5 -67t16 -68.5t30.5 -59q21 -23 36 -35t25.5 -23.5t17.5 -27t12 -46.5q2 -21 4 -48.5t3 -56t1.5 -56t0.5 -50.5v-29q-2 -16 -7 -36.5t-12.5 -41.5 t-16.5 -41.5t-19 -36.5q0 -2 -2 -5t-4 -7q-5 -21 -14.5 -55.5t-21.5 -70t-24.5 -64.5t-23.5 -40q-7 -2 -12 -5q-5 -2 -8.5 -4t-4.5 -3q-33 -13 -57.5 -30.5t-45.5 -35.5l-41 -36q-20 -17 -44 -30q-23 -12 -51 -18.5t-56.5 -12t-56.5 -13.5t-52 -23h-97q-81 0 -141.5 11 t-109 31t-89 49.5t-80.5 66.5l-84 82q-43 45 -98 96zM167 787q0 -22 6 -56t16.5 -74t24 -82.5t27.5 -81.5q16 -33 37 -64t43 -57.5t43 -48t38 -34.5l48 -36l54.5 -38t61 -36t68.5 -27q47 -13 93.5 -17.5t91.5 -4.5q34 0 61 0.5t50 0.5q16 0 35 7.5t48 20.5q-2 0 4 3l16 9 l17 9q8 5 10 7q23 12 37 18.5t25 15t22 20.5t28 34q21 28 41.5 48t38 40.5t30.5 45t18 62.5q3 2 6.5 13.5t6.5 25.5q4 16 6 35l14 45q7 20 12 39.5t7.5 40.5t2.5 50q0 33 -2 64t-9.5 58.5t-22.5 50t-42 38.5l-15 19q0 48 -7.5 79t-21 54t-31.5 44t-37 48q-34 41 -62.5 65 t-54.5 38t-51 21l-51 15q-27 8 -58 20t-69 36l-190 21q-1 0 -16.5 -6.5l-37.5 -16.5l-44 -22q-22 -11 -37 -21q-32 -21 -67.5 -57.5t-71 -82t-68 -98t-58.5 -105.5t-43 -103.5t-21 -91.5z" />
<glyph unicode="&#xaa;" horiz-adv-x="788" d="M378 1088q0 -13 5 -27.5t19 -14.5q11 0 19 4l17 10q1 2 11.5 8t13.5 8l11 10l16 16l15 17t10 11q3 2 6.5 9.5t3.5 10.5q4 3 13 11l19 17l17 17l11 12q2 3 8 13.5t7 11.5q0 2 4.5 5.5t4.5 5.5q1 1 1.5 6t1.5 10.5t1.5 10.5t0.5 7q3 16 6.5 32t3.5 32q0 17 -6 33t-26 16 q-17 0 -36.5 -8.5t-38 -21t-34.5 -27.5t-25 -28q-2 -1 -6 -8.5t-6 -9.5q-4 -7 -8 -9.5t-5 -10.5q0 -2 -1 -9l-2 -13l-2 -14q-1 -6 -1 -8t-2.5 -7t-6 -11t-7 -11t-4.5 -7q-13 -23 -21 -46.5t-8 -52.5zM515 962q0 14 3 23t3 22q0 10 -2.5 22t-15.5 12q-7 0 -12 -4t-9 -9 l-8 -11q-4 -6 -8 -10q-1 -2 -7 -5.5t-8 -5.5q-23 -17 -43.5 -36.5t-43.5 -36.5q-1 0 -4 -3l-8 -6l-7 -7q-4 -3 -5 -4q-8 -4 -18.5 -4.5t-18.5 -0.5h-18q-2 2 -5.5 6t-4.5 6q-18 14 -31 29t-13 40v4q6 45 17 84t27 75.5t36 71.5l43 73q5 9 8.5 17.5t10.5 16.5l13 14l19 19 l20 19q9 9 13 12q0 2 1.5 5.5t1.5 4.5q2 1 6.5 4.5t9.5 8.5l9 8q4 3 5 3l33 27q16 14 34 24.5t37.5 17t42.5 6.5q15 0 29 -3t30 -3q25 0 44 10t39 10q32 0 39.5 -16t7.5 -46q0 -28 -11 -56l-11 -23q-6 -12 -14 -22q-1 0 -5 -4.5t-6 -4.5q-8 -11 -14 -28l-12 -34 q-6 -18 -13.5 -33.5t-17.5 -21.5q-2 -4 -4 -13l-6 -18l-6 -17.5t-4 -12.5q-2 -2 -3 -4l-2 -4q0 -2 -2 -7t-3.5 -11t-3 -11t-1.5 -7q-1 -1 -4.5 -6.5t-4.5 -7.5q-7 -11 -8.5 -22.5t-1.5 -24.5v-2q1 -2 4.5 -6t5.5 -4q7 0 14 5.5t13.5 13t11.5 14.5t10 11q18 17 46.5 31 t52.5 14q2 0 4.5 -0.5t3.5 -4.5q0 -5 -1 -20t-2 -20q-5 -12 -12.5 -21t-16 -18t-15.5 -18t-11 -21l-54 -54q-28 -28 -60 -50q-11 -8 -25 -8t-29 -2h-2q-8 0 -19.5 5t-23 12t-20 15.5t-9.5 16.5v20z" />
<glyph unicode="&#xab;" horiz-adv-x="919" d="M217 239q-8 0 -13 9t-9 20.5t-7 21.5t-7 13l-24 12q-11 5 -24.5 16t-25 25t-19 30.5t-7.5 33.5q0 16 1 21q7 19 25 35.5t41.5 31.5t48.5 27l48 22q14 3 31.5 15t33.5 25l29 24q13 10 18 10q7 5 29 19l45 29l43 26q20 11 23 11q2 0 11 -0.5t18.5 -1.5t17 -3t7.5 -5 l-35 -57q-15 -25 -32.5 -41t-37.5 -30l-40 -32q-21 -17 -43 -44q-8 0 -16.5 -8t-17.5 -18t-17 -20t-14 -13q4 -5 7 -14l5 -18q2 -9 5 -16t8 -7q4 -3 7 -11.5t6 -18.5t5 -18.5t4 -10.5q14 -23 17 -31l4 -16l12 -71v-14l-7 -26q-20 -13 -27 -16t-18 -3h-50q0 18 -7.5 28.5 t-16.5 18.5l-20 17q-10 9 -15 23zM555 251q-6 0 -10.5 8.5t-8.5 19.5t-8.5 21.5t-11.5 14.5l-19 9q-11 6 -24.5 18t-25.5 27t-20.5 32t-8.5 33q0 4 1 7.5t2 8.5q9 21 28 38t42.5 31.5t48 26.5t44.5 23q16 2 33.5 14t33.5 26l28 24q12 11 17 11q7 4 28 18l46 29l44 27 q20 12 23 12q1 0 10 -0.5t19.5 -2.5t19 -5t8.5 -8q-2 -3 -6.5 -10.5t-10.5 -15.5l-12 -15l-8 -12q-16 -26 -34 -42t-36.5 -30.5t-38 -32t-39.5 -44.5q-8 0 -17.5 -7.5t-19 -17t-18.5 -19.5t-16 -16q2 -5 4 -14.5t5 -18.5t7 -16t10 -7q3 -1 6 -9t6 -17l6 -19q3 -10 6 -15 l21 -47l3 -26q1 -12 2.5 -18.5t3 -11t2.5 -8.5t1 -10v-6l-9 -29q-18 -11 -26.5 -13.5t-16.5 -2.5h-54q0 18 -7 29t-17 20l-19 16q-9 8 -14 22h-3z" />
<glyph unicode="&#xac;" horiz-adv-x="1246" d="M105 472q1 3 7.5 8.5t11.5 7.5q56 34 104.5 44.5t102.5 10.5q5 0 18 -1t16 -1q1 0 7 -1t13 -2t13 -2t8 -1q3 0 10 1t15 2t14.5 2t8.5 1l18 3l23 3q12 1 20.5 2t9.5 1h102q1 0 8 1t14.5 1.5t14.5 1.5t8 1q3 0 14.5 2t16.5 2q40 0 80 -4.5t79 -4.5q37 0 57 2.5t40 2.5 q4 1 19 4t32.5 6t33 5t20.5 3h19q18 0 34.5 -3t27.5 -11t15 -21.5t-3 -34.5q-2 -6 -5.5 -13.5t-7.5 -15t-9 -13.5t-10 -8q-2 -6 -4.5 -11.5t-4.5 -12.5q-6 -18 -10 -34t-9 -32l-4 -10q-2 -5 -4 -9q-5 -13 -10 -29q-3 -9 -6 -17t-5 -16t-5 -15.5t-6 -12.5q-17 -32 -34 -46 t-27 -14q-17 0 -11 52q1 6 4 14l5 17q2 9 4.5 17t4.5 19q3 16 7 33l9 36l11 39q5 20 10 43q-14 0 -30 0.5t-35 0.5l-335 -7q0 2 -7.5 4.5t-11.5 2.5l-1 2h-1q-5 0 -5 -2l-67 -12q-33 -5 -65 -5q-18 0 -34.5 3t-32 6.5t-31 6.5t-33.5 3l-4 -2q-8 0 -19.5 -1t-23 -2.5 t-20 -2.5t-9.5 -1q-2 0 -8 -5l-12 -10l-13 -10q-6 -5 -8 -6q-8 -5 -20.5 -6t-22.5 -1q-30 0 -51 7.5t-33 30.5q-3 2 -2.5 7.5t0.5 6.5z" />
<glyph unicode="&#xad;" horiz-adv-x="909" d="M535 467q-12 -2 -26.5 -3.5t-37.5 -1.5q-22 0 -35 7q-14 -5 -26.5 -7t-23.5 -2q-19 0 -37 3l-37 7l-38 7q-19 4 -40 4h-21q-23 24 -23 54q0 46 21.5 61.5t58.5 15.5h21q11 0 22 -1l52 -6h25q12 0 25 2l123 -12q16 0 35 1t39 6q21 8 30.5 9t25.5 1q13 0 29.5 -2t31.5 -7 t25.5 -14.5t10.5 -24.5q0 -5 -1 -9t-3 -8q-12 -32 -23 -51t-27.5 -28.5t-41 -12.5t-62.5 -3q-2 0 -7 4l-12 6l-11 7q-5 3 -6 3z" />
<glyph unicode="&#xae;" horiz-adv-x="1549" d="M181 368l-38 68q-18 35 -33 71.5t-24 75t-9 78.5v38q0 49 1.5 99t9.5 98.5t24 95t45 89.5l124 196q33 40 77.5 76.5t92.5 64t96.5 43.5t89.5 16l68 -10q16 0 25.5 2t28.5 8h81q34 0 62 -2t54.5 -8.5t52 -20.5t54.5 -38l111 -112l67 -33q33 -22 46 -54.5t20.5 -67.5 t16 -69.5t30.5 -59.5q21 -23 36 -34.5t25.5 -22t17.5 -26t12 -47.5q2 -22 4 -49.5t3 -56t1.5 -56.5t0.5 -50v-28q-2 -16 -7 -36.5t-12.5 -42t-16.5 -42.5t-19 -37q0 -1 -2 -4t-4 -8q-5 -21 -14.5 -55t-21.5 -69.5t-24.5 -65t-23.5 -40.5l-12 -4q-5 -2 -8.5 -3t-4.5 -1 q-33 -15 -57.5 -33t-45.5 -37l-41 -35q-20 -17 -44 -30q-23 -12 -51 -19l-57 -12q-28 -6 -56 -14t-52 -23h-97q-81 0 -142 10.5t-109.5 31t-89 50t-80.5 67.5l-82 82q-44 45 -99 96zM163 794q0 -23 3 -56.5t10.5 -72.5t20 -81.5t32.5 -83.5q17 -35 39 -66.5t45.5 -58 t46 -47.5t40.5 -34l48 -36q25 -20 54.5 -39t62.5 -35.5t69 -27.5q45 -14 92.5 -18.5t92.5 -4.5q35 0 61.5 1t47.5 1q29 0 55 14t56 33q5 4 11.5 4t10.5 4l38 19q14 7 25 15t21.5 20.5t26.5 35.5q21 28 42.5 48t39.5 40t31 45t18 63q2 2 5.5 14t5.5 26q3 16 5 34l16 47 q7 20 12 39t7.5 40.5t2.5 50.5q0 36 -2 67.5t-9.5 59t-22 50.5t-40.5 41q-12 15 -14 21.5t-2 12.5q0 41 -8.5 69t-23 50.5t-33.5 43.5t-39 48q-33 44 -60.5 68.5t-52.5 37.5t-50 19l-51 13q-27 7 -58.5 18.5t-69.5 35.5l-190 19q-1 0 -17 -6l-38 -16q-21 -9 -44 -20t-38 -20 q-32 -21 -68 -58t-71.5 -83t-68.5 -99t-59.5 -106.5t-43 -104.5t-20.5 -94zM971 432q-32 26 -57 59t-43 70q-9 28 -21 39.5t-17 20.5l-10 23l-7 8l-13 11l-13 12q-7 5 -11 7q0 16 -13 31t-31 26.5t-37 18.5t-31 7q-5 0 -13.5 -1.5t-16.5 -4.5t-13.5 -8.5t-5.5 -13.5v-38 q0 -4 1 -11t3 -13l-5 -87v-76q2 -18 19 -21l22 -15q11 -8 30.5 -9.5t38.5 -3.5t33 -7.5t14 -21.5q0 -7 -5.5 -13.5t-14 -11t-18 -7t-17.5 -2.5q-14 0 -27 5l-27 10q-21 4 -40 6t-41 6l-30 -1l-60 -4q-35 1 -54 2t-28 2t-11 2.5t-2 3.5q0 12 12.5 19.5t28.5 12.5t30.5 8.5 t19.5 8.5q3 3 3.5 10t2 14.5t4 12.5t8.5 4q6 16 8 30.5t2 30.5l-3 61l7 91l-7 54q2 15 3.5 24.5t2 14.5t1 8.5t0.5 6.5q0 21 0.5 34.5t1 21t1 11t0.5 5.5v62l-7 90q-23 29 -47 42t-62 22q-5 3 -5 9q0 8 9 13.5t21 8.5t24 4.5t17 1.5l31 -4l29 4l51 -9l102 2l45 3 q23 0 45.5 -3.5t45.5 -8.5q19 -8 35.5 -11.5t39.5 -14.5q21 -13 37.5 -24.5t28 -25.5t18 -32.5t9.5 -45.5l5 -53q0 -12 -4 -14.5t-8 -11.5q-5 -16 -7 -29.5t-7 -24.5l-22 -17q-11 -9 -23 -23q-5 -7 -14 -12l-20 -10q-9 -5 -16.5 -12t-7.5 -18q0 -9 7 -11.5t13 -8.5 q2 -1 6 -7l8 -14l8 -14q4 -6 4 -7l73 -106q11 -14 22.5 -24.5t27.5 -21.5q3 -2 5.5 -8t5.5 -12.5t7 -13t10 -9.5q16 -17 32 -27.5t37 -26.5q8 -5 19 -8.5t21.5 -8.5t18 -13t7.5 -22q0 -12 -10.5 -14.5t-17.5 -2.5h-76q-17 9 -34.5 9.5t-38.5 2.5q-9 2 -26 11.5t-26 15.5z M613 843q0 -28 16.5 -39.5t39.5 -11.5h19q1 9 14 15t30.5 10t34.5 7t26 5q11 4 20 15t18 18l18 34q19 33 19 59l-11 35q2 8 3 14t1 10q0 5 -3 9.5t-9 11.5q-23 45 -63 61t-95 16q-2 0 -9 -1t-14.5 -2.5t-14 -2.5t-7.5 -1q-4 -4 -6.5 -12t-3.5 -13q-3 -18 -5 -33l-4 -30 q-2 -15 -5 -29.5t-7 -30.5q7 -32 7 -47z" />
<glyph unicode="&#xaf;" d="M424 1151q19 11 34 14t35 5l18 3l179 -9l64 6q13 1 19.5 2.5t12.5 2.5l12 1h20q55 0 109 -6q15 -3 24.5 -13t7.5 -15q0 -5 -3 -15.5t-5 -15.5q-4 -11 -10.5 -21t-19.5 -21q-5 -9 -20.5 -16t-34.5 -7q-14 1 -22.5 1.5t-15 1t-15 1t-22.5 0.5q-32 0 -62.5 -1t-62.5 -3 q-3 -3 -26 -4.5t-54 -1.5q-36 0 -53.5 2.5t-29.5 7.5l-51 3h-27q-9 3 -15.5 9.5t-9.5 15.5t-3.5 17t1.5 14q5 11 13 23z" />
<glyph unicode="&#x2c9;" d="M424 1151q19 11 34 14t35 5l18 3l179 -9l64 6q13 1 19.5 2.5t12.5 2.5l12 1h20q55 0 109 -6q15 -3 24.5 -13t7.5 -15q0 -5 -3 -15.5t-5 -15.5q-4 -11 -10.5 -21t-19.5 -21q-5 -9 -20.5 -16t-34.5 -7q-14 1 -22.5 1.5t-15 1t-15 1t-22.5 0.5q-32 0 -62.5 -1t-62.5 -3 q-3 -3 -26 -4.5t-54 -1.5q-36 0 -53.5 2.5t-29.5 7.5l-51 3h-27q-9 3 -15.5 9.5t-9.5 15.5t-3.5 17t1.5 14q5 11 13 23z" />
<glyph unicode="&#xb0;" horiz-adv-x="687" d="M349 1074q-20 41 -31 67t-11 46q0 50 6 92t27 74l49 78q7 9 25.5 22.5t39.5 26t41 21.5t32 9h81q25 0 44 -5t41 -22l45 -44l28 -13q12 -9 17 -22t8 -26l6 -28q3 -13 12 -23q7 -10 13 -15l10 -8q4 -4 7.5 -10.5t7.5 -20.5q0 -5 0.5 -14.5t0.5 -21.5t0.5 -24.5t0.5 -22.5 q0 -5 -3.5 -16.5t-7.5 -22.5l-7 -20q-4 -9 -5 -10q-3 -8 -9 -21.5t-13 -27.5l-15 -26q-7 -12 -11 -18q-16 -7 -25.5 -15.5t-16 -17t-13.5 -15t-18 -9.5q-18 -12 -40 -15t-43 -10h-34q-48 0 -79.5 9t-56.5 25.5t-48 39.5zM364 1235q0 -15 8 -39.5t20.5 -50t27.5 -47.5t29 -31 q16 -12 39 -21.5t48.5 -16.5t50 -11t42.5 -4q8 0 13 7.5t13 9.5l16 7l11 4q5 2 9.5 6.5t10.5 13.5q6 10 14 17l16 14q8 6 15 14t10 21q0 4 1 16t3 12q4 18 8.5 28t4.5 30q0 15 -5 26.5t-11.5 22.5t-11.5 22t-5 23q0 21 -9.5 33t-26.5 29q-15 23 -28 33t-26 15l-27 9 q-14 4 -31 16h-66q-1 0 -6.5 -2.5l-12.5 -5.5l-15 -8q-7 -4 -13 -8q-19 -10 -39.5 -31.5t-37.5 -48t-28 -54.5t-11 -50z" />
<glyph unicode="&#xb1;" horiz-adv-x="1199" d="M129 699q11 11 32.5 16.5t48.5 5.5h19q12 0 23 -5h149q34 0 58 3.5t33 12.5q18 18 18 71l-19 235q0 26 4.5 48t14.5 33q16 14 51 14q24 0 45 -6.5t30 -17.5l28 -61l1 -2q1 -2 2.5 -9t3.5 -21.5t5 -39.5q-9 -3 -16 -11q-7 -11 -11 -21t-4 -24q0 -23 3.5 -50.5t8.5 -47.5 q1 -14 2 -18t1 -8q0 -16 -1.5 -32t-1.5 -27v-2q0 -1 1 -1q7 -7 9 -7q35 0 72.5 8.5t69.5 8.5q14 0 25.5 -3t22.5 -7h154q5 0 13 -3t10 -4q8 -10 8 -30v-76l-17 -19q-33 -33 -90 -33q-45 0 -91 10.5t-84 12.5l-20 -9l-64 -5q-5 -9 -8.5 -26.5t-6.5 -39.5t-4.5 -46.5 t-1.5 -46.5q0 -21 1.5 -38t5.5 -26q16 -17 18.5 -23.5t2.5 -14.5q0 -2 -3 -8l-8 -11q-3 -6 -6.5 -10.5t-3.5 -5.5l3 -48q0 -22 -8 -30q-13 -10 -45 -10q-26 0 -49 6t-29 11q-13 24 -18.5 53t-8.5 60.5t-5.5 64t-9.5 63.5l21 77q0 11 -7 21q-22 19 -45 19q-16 0 -33 -4 t-38 -4q-24 0 -29 1q-6 7 -24 7l-23 -2q-16 -2 -31 -3.5t-29 -1.5q-19 0 -37 1.5t-36 3.5q-14 0 -26 3.5t-21 17.5q-14 22 -14 61q3 31 6 39.5t3 10.5zM112 42v46q0 14 1 27.5t7 25t19 19.5t37 11h65q28 4 57.5 5.5t60.5 1.5h62q10 0 17.5 1t13.5 2.5t12 2.5t14 1 q44 0 87 -11t86 -11l147 17q16 0 28.5 -4.5t23.5 -4.5q14 0 21 3t16 8h1q1 0 2 0.5t4 0.5q1 0 12.5 -1t32.5 -6q35 0 56 -3t37 -22q4 -4 4 -9q0 -7 -2 -12l-4 -12q0 -1 1 -5q0 -3 0.5 -7.5t0.5 -10.5v-22q0 -5 -2 -9l-7 -28q-12 -11 -27 -17.5t-32 -10.5t-34 -5t-33 -1 q-13 0 -27.5 0.5t-43.5 2.5l-37 3q-17 2 -34 2q-95 0 -188 -2t-187 -6q-43 -2 -86 -5.5t-82 -3.5q-14 0 -30 3.5t-31 10.5t-25.5 15.5t-13.5 19.5z" />
<glyph unicode="&#xb2;" horiz-adv-x="755" d="M301 787q1 3 5 12.5t6 15.5q2 3 9 7.5l15 9.5l16 8q8 4 12 7q20 15 43.5 27t43.5 30q19 16 39 39.5t37 50t28 55t11 54.5q0 25 -21.5 46t-50.5 21l-23 -8h-23q-5 0 -11.5 -1t-11.5 -7q-9 -7 -16 -18l-15 -20q-7 -11 -16 -18.5t-22 -7.5q-7 0 -13.5 1t-10.5 6v17 q0 16 2.5 24t7.5 12.5t11 9t14 15.5l8 11q14 18 29.5 34t39.5 23l45 6l30 6q14 0 33.5 -2.5t40 -7.5t38.5 -14.5t29 -22.5q4 -5 7 -11.5t5 -7.5l19 -30v-69q0 -11 -8 -20l-15 -19q-1 -1 -3.5 -9t-13.5 -35q-1 -1 -1 -2q-1 -1 -2 -1q-12 -8 -14.5 -18.5t-12.5 -19.5 q-12 -11 -24.5 -12t-24.5 -8q-1 0 -5 -4l-9 -7l-8 -7l-5 -5q-1 0 -5 -3l-10 -7l-11 -7q-5 -4 -6 -5q-3 -2 -8 -7l-11 -12q-5 -6 -8.5 -12t-3.5 -9t4 -3h19q16 0 29 -1.5t25 -6.5h31q32 0 64 4.5t61 17.5q5 4 6 8t3 8q8 10 20.5 18t25.5 14l9 -30q0 -10 -4.5 -21t-10.5 -22 q-2 -4 -4 -15t-5.5 -22.5t-9.5 -20.5t-16 -9l-10 -1q-23 -3 -45.5 -6.5t-45.5 -3.5q-14 0 -27.5 7.5t-26.5 7.5t-28 -2t-25 -4q-2 0 -7.5 -3t-8.5 -6l-55 15q-7 0 -14 -4t-15 -5q-23 -2 -42 -4t-46 -2q-10 0 -21 3t-11 13v2z" />
<glyph unicode="&#xb3;" horiz-adv-x="651" d="M285 578q0 23 6 29t29 11q6 2 16 6t15 4q9 0 17 -4.5t16.5 -10t17 -10t19.5 -4.5q29 0 53 19t38 44q1 2 2 9t1 11q5 5 12 7t7 12v60q0 4 -2.5 9.5t-6 11t-6.5 9.5t-4 5q-20 26 -43 42l-49 33q-1 2 -7 9.5t-9 7.5q-14 0 -29 -8.5t-27 -8.5q-8 0 -14.5 8.5t-6.5 15.5 q0 12 10 21t23.5 15.5t27.5 10.5t22 7q1 1 8.5 9.5t10.5 9.5q12 11 26 17.5t22 20.5l8 10q16 26 29.5 54t13.5 58q0 3 -12 15t-20 23q-5 9 -16.5 12t-20.5 3q-23 -8 -37.5 -12t-34.5 -4l-28 1q-9 1 -12 10t-3 15q0 14 3 17l15 8q13 7 20.5 16.5t18.5 18.5q21 14 50 21.5 t55 7.5q13 0 22.5 -5t22.5 -11q21 -8 34 -15.5t21.5 -18t13.5 -24.5t10 -34q1 -6 3.5 -12.5t2.5 -12.5q0 -14 -4.5 -30.5t-11.5 -33t-16.5 -32t-18.5 -25.5q-8 -12 -20 -14t-21 -12q-10 -9 -12.5 -18t-9.5 -17q-12 -4 -12 -17v-4q4 -8 15 -18t24 -20l25 -19q12 -9 17 -16 q2 -18 7.5 -29.5t11.5 -22t10.5 -23t4.5 -32.5q0 -6 -1 -18.5t-3.5 -26.5t-5 -26t-5.5 -17l-16 -20q-8 -8 -11.5 -22t-12.5 -22q-16 -17 -43.5 -36.5t-59.5 -36.5t-63.5 -28t-55.5 -11q-10 0 -16.5 8t-14.5 16q-16 10 -25.5 20.5t-9.5 33.5z" />
<glyph unicode="&#xb4;" horiz-adv-x="1060" d="M738 1022q0 22 10.5 33.5t24.5 19.5l30 17q16 9 27 24q7 9 12.5 17t10 16.5t10 16.5t13.5 17q21 26 45.5 50.5t44.5 50.5q19 22 29 40t19.5 31t24.5 21.5t45 10.5q4 4 10 4q4 0 9 -0.5t10 -3.5q11 -4 14.5 -15t3.5 -23v-11q0 -6 -2 -13q0 -20 -8 -38.5t-19.5 -36 t-24 -34.5t-21.5 -33l-2 -6l-3 -11q-1 -6 -3.5 -11.5t-3.5 -5.5q-2 -5 -13 -13t-13 -10q-14 -13 -25 -34t-27 -38q-15 -17 -28.5 -24.5t-26.5 -12.5l-25 -10q-12 -5 -24 -16q0 -1 -5 -6l-9 -11q-5 -6 -10 -10.5t-8 -5.5l-10 -2q-4 -1 -8 -1h-7q-29 0 -48 20t-19 47z" />
<glyph unicode="&#xb5;" horiz-adv-x="1279" d="M-113 -310l110 312q5 1 8 14.5t3 18.5q1 3 3 14t3.5 24t3 24.5t2.5 14.5q1 7 4 20.5l6 27.5l7 26q3 12 4 15q0 2 3.5 8.5t8 14t8 14t4.5 8.5q1 5 4 14l7 17l7 17q3 7 3 9q1 3 3 17.5t3.5 31.5t3 31.5t2.5 17.5q0 3 2.5 17.5l5.5 32.5l7 35q4 18 5 28q1 1 2.5 7.5t3.5 14 t3.5 14t1.5 7.5q9 42 15.5 92t18 99t32 92.5t57.5 72.5q3 0 9.5 0.5t13.5 1.5t13.5 1.5t9.5 0.5q56 0 78.5 -31t22.5 -83q0 -41 -18.5 -94t-44.5 -107t-53.5 -103.5t-44.5 -83.5q0 -4 1 -6.5t1 -7.5q0 -14 -4 -28.5t-8.5 -28.5t-8.5 -28.5t-4 -28.5q0 -21 4 -43.5t14 -42 t27.5 -32t43.5 -12.5q56 1 108.5 20.5t95.5 48t75 61t47 59.5q1 1 4 8l7 18l8 22q4 11 6 18q11 40 26.5 79t28.5 78q17 61 22.5 122t20.5 122q12 19 27 31t32 20t36 14t39 13l5 2q0 -1 1 -1h3q2 -1 3 -1q21 -11 33.5 -21.5t19.5 -24t9.5 -30.5t2.5 -40v-31q0 -17 -1 -32.5 t-9 -31.5l-13 -27l-20 -40l-20 -41l-14 -27q3 -8 -2 -18.5t-13 -21.5t-16.5 -20.5t-12.5 -15.5q-8 -12 -16.5 -29.5t-16.5 -36.5l-15 -36l-11 -31q0 -5 -2 -13l-3 -18q-1 -9 -2 -16.5t-1 -9.5q1 -3 3.5 -17.5t6.5 -31.5l8 -33q3 -16 6 -21q2 -5 7 -12l10 -15q5 -8 9.5 -13 t6.5 -5q20 -8 48 -8q29 0 63 8q9 12 22 23l26 22q14 11 27 25t23 34q16 16 28 35l25 37q12 17 25.5 31t30.5 20q13 3 20.5 -5t11 -20.5t4.5 -26t1 -21.5q0 -38 -18.5 -75t-45.5 -71t-58 -63l-57 -52q-9 -8 -24 -18t-31.5 -18.5t-32.5 -14.5t-28 -6q-2 0 -3 1q-1 0 -3 1 l-18 3l-25 3q-12 1 -22 2.5t-12 1.5q-35 6 -57.5 25.5t-37 44t-23.5 51.5l-16 50q-7 23 -16 37.5t-24 14.5l-4 -1q-1 0 -3 -3l-5 -7l-3.5 -7t-2.5 -4l-8 -15q-5 -10 -11 -18l-9 -15l-4 -7q-22 -22 -52 -44.5t-64.5 -40.5t-70 -29t-68.5 -11q-29 0 -59.5 7.5t-52.5 27.5 q-11 10 -22 27t-21 34.5t-19 30t-16 13.5q-10 1 -18 -16t-15 -40t-12.5 -46.5t-9.5 -35.5q-1 -2 -4.5 -8.5l-7.5 -13.5l-6 -14q-3 -7 -3 -9t-0.5 -9.5t-0.5 -17t-0.5 -19.5t-0.5 -17q0 -23 3.5 -43.5t8 -40t8.5 -40t4 -43.5q0 -20 -0.5 -40.5t-5 -39.5t-14 -36.5 t-26.5 -32.5l-11 -8l-13 -11l-13 -9t-7 -5q-1 0 -7 -1t-10 -1q-2 0 -9 1t-8 1q-12 -1 -25 2.5t-23.5 9.5t-18 14t-9.5 17q-6 24 -6 45q0 28 6 57z" />
<glyph unicode="&#x3bc;" horiz-adv-x="1279" d="M-113 -310l110 312q5 1 8 14.5t3 18.5q1 3 3 14t3.5 24t3 24.5t2.5 14.5q1 7 4 20.5l6 27.5l7 26q3 12 4 15q0 2 3.5 8.5t8 14t8 14t4.5 8.5q1 5 4 14l7 17l7 17q3 7 3 9q1 3 3 17.5t3.5 31.5t3 31.5t2.5 17.5q0 3 2.5 17.5l5.5 32.5l7 35q4 18 5 28q1 1 2.5 7.5t3.5 14 t3.5 14t1.5 7.5q9 42 15.5 92t18 99t32 92.5t57.5 72.5q3 0 9.5 0.5t13.5 1.5t13.5 1.5t9.5 0.5q56 0 78.5 -31t22.5 -83q0 -41 -18.5 -94t-44.5 -107t-53.5 -103.5t-44.5 -83.5q0 -4 1 -6.5t1 -7.5q0 -14 -4 -28.5t-8.5 -28.5t-8.5 -28.5t-4 -28.5q0 -21 4 -43.5t14 -42 t27.5 -32t43.5 -12.5q56 1 108.5 20.5t95.5 48t75 61t47 59.5q1 1 4 8l7 18l8 22q4 11 6 18q11 40 26.5 79t28.5 78q17 61 22.5 122t20.5 122q12 19 27 31t32 20t36 14t39 13l5 2q0 -1 1 -1h3q2 -1 3 -1q21 -11 33.5 -21.5t19.5 -24t9.5 -30.5t2.5 -40v-31q0 -17 -1 -32.5 t-9 -31.5l-13 -27l-20 -40l-20 -41l-14 -27q3 -8 -2 -18.5t-13 -21.5t-16.5 -20.5t-12.5 -15.5q-8 -12 -16.5 -29.5t-16.5 -36.5l-15 -36l-11 -31q0 -5 -2 -13l-3 -18q-1 -9 -2 -16.5t-1 -9.5q1 -3 3.5 -17.5t6.5 -31.5l8 -33q3 -16 6 -21q2 -5 7 -12l10 -15q5 -8 9.5 -13 t6.5 -5q20 -8 48 -8q29 0 63 8q9 12 22 23l26 22q14 11 27 25t23 34q16 16 28 35l25 37q12 17 25.5 31t30.5 20q13 3 20.5 -5t11 -20.5t4.5 -26t1 -21.5q0 -38 -18.5 -75t-45.5 -71t-58 -63l-57 -52q-9 -8 -24 -18t-31.5 -18.5t-32.5 -14.5t-28 -6q-2 0 -3 1q-1 0 -3 1 l-18 3l-25 3q-12 1 -22 2.5t-12 1.5q-35 6 -57.5 25.5t-37 44t-23.5 51.5l-16 50q-7 23 -16 37.5t-24 14.5l-4 -1q-1 0 -3 -3l-5 -7l-3.5 -7t-2.5 -4l-8 -15q-5 -10 -11 -18l-9 -15l-4 -7q-22 -22 -52 -44.5t-64.5 -40.5t-70 -29t-68.5 -11q-29 0 -59.5 7.5t-52.5 27.5 q-11 10 -22 27t-21 34.5t-19 30t-16 13.5q-10 1 -18 -16t-15 -40t-12.5 -46.5t-9.5 -35.5q-1 -2 -4.5 -8.5l-7.5 -13.5l-6 -14q-3 -7 -3 -9t-0.5 -9.5t-0.5 -17t-0.5 -19.5t-0.5 -17q0 -23 3.5 -43.5t8 -40t8.5 -40t4 -43.5q0 -20 -0.5 -40.5t-5 -39.5t-14 -36.5 t-26.5 -32.5l-11 -8l-13 -11l-13 -9t-7 -5q-1 0 -7 -1t-10 -1q-2 0 -9 1t-8 1q-12 -1 -25 2.5t-23.5 9.5t-18 14t-9.5 17q-6 24 -6 45q0 28 6 57z" />
<glyph unicode="&#xb6;" horiz-adv-x="1189" d="M126 90q2 2 6.5 9.5t6.5 9.5q13 27 30.5 50.5t40 41t49.5 28t58 10.5q17 0 30.5 -0.5t27.5 -2t30 -4.5l36 -7q3 -12 17 -24t31 -24l32 -24q16 -12 24 -23v-19q0 -18 1.5 -42.5t5 -47t9.5 -38.5t15 -16q10 0 18 5t14 12.5t11.5 15.5t10.5 14q1 1 6 5.5l11 9.5l10 11 q5 5 6 7v10v33q2 26 15.5 45t24.5 40q20 42 31.5 90t11.5 95v12q0 12 -3 26.5t-14 14.5q-28 0 -55.5 -6t-57.5 -6q-22 0 -43.5 5.5t-46.5 6.5h-64h-26q-56 7 -93 28t-64 52.5t-48 70.5l-47 83v48v49q0 2 2 9l5 17l4 16q2 8 2 10q5 32 8 57t8.5 47.5t16 45t31.5 49.5 q3 5 13 17l22 25q11 14 22 25.5t16 15.5q4 15 10 22.5t13.5 12.5t16 9.5t17.5 14.5q3 3 12 14l20 25l20 24q9 12 12 14q12 14 26 21t28.5 12t28.5 10.5t28 15.5q1 1 5 5.5t10 9.5l10 11q5 5 8 7q7 6 28.5 13t50 13.5t61 12t62 9.5t52.5 6.5t33 2.5h2q2 0 8.5 -1t14.5 -2.5 t14.5 -2.5t8.5 -1q28 0 58 7t60 7q27 0 47.5 -3.5t47.5 -3.5h19q5 -5 11 -6t15 -1q18 0 34.5 10.5t34.5 10.5q14 0 20 -3.5t17 -3.5h8q3 0 11.5 2.5t11.5 2.5h13q9 0 20.5 -1t21.5 -2t14 -2q12 -11 14 -23.5t2 -28.5q0 -4 -1 -14t-1 -12q-1 -7 -3.5 -16.5t-4.5 -19.5l-6 -23 l-19 -13h-180q-8 -8 -17.5 -13.5t-18.5 -11.5t-17 -13t-13 -19q-1 -2 -4 -17t-3 -22v-39q0 -3 -2 -11l-6 -16q-3 -9 -6.5 -17.5t-4.5 -12.5q0 -3 -5 -12l-11 -20l-11 -21q-5 -10 -5 -13q-5 -21 -6 -39.5t-2 -35t-4.5 -33t-12.5 -34.5q-13 -23 -27.5 -43t-24.5 -47 q-10 -31 -14 -64.5t-13 -65.5q0 -1 -1.5 -6t-4 -10t-4 -9.5t-1.5 -5.5q-13 -38 -20.5 -76t-16 -75t-20.5 -73.5t-33 -72.5q0 -1 -0.5 -2t-0.5 -2v-3q0 -8 4 -16t4 -17q0 -6 -5 -21l-12 -33l-13 -34q-7 -17 -9 -26q-14 -34 -33.5 -60t-32.5 -58q-2 -2 -4.5 -9t-2.5 -8 q-9 -45 -26.5 -80.5t-42 -64.5t-56 -52.5t-67.5 -43.5q-12 -6 -22.5 -17.5t-24.5 -13.5q-1 0 -9.5 -1t-19.5 -2l-23 -3q-12 -2 -19 -3h-5h-2l-3 3l-8 5l-8 6q-4 2 -5 2q-2 0 -9 -2l-16 -6l-16 -5q-8 -3 -9 -3h-12q-16 0 -24.5 3t-14.5 7.5t-12 10.5t-17 12q-2 1 -7.5 2.5 t-11.5 3.5l-13 4q-6 2 -8 2q-30 11 -50 29t-32.5 41t-19.5 49t-13 54q-2 3 -4.5 8.5t-2.5 7.5q-1 2 -2 4.5t-2 5.5q-1 4 -2 7v137zM689 619q0 -12 6.5 -24t17 -21t23 -14.5t24.5 -5.5q20 0 30.5 8t26.5 19q3 6 9 20l11 29l11 30l7 20q8 19 12 39.5t8.5 39.5t13 36.5 t25.5 31.5q-2 25 6 55.5t18.5 63t22 63.5t17.5 58q1 8 10.5 15t9.5 17v83q5 5 7 14.5t2 17.5v9q0 17 -3.5 30t-25.5 13q-21 0 -38 -16.5t-32 -43t-27 -58.5t-21.5 -62.5t-16.5 -57t-12 -40.5q-11 -28 -25 -57t-20 -59q0 -3 -1 -12.5t-2 -20.5t-2.5 -20t-1.5 -11 q-5 -21 -16.5 -39t-16.5 -39q0 -2 -1 -8.5t-2 -14.5t-2 -15t-2 -9q-3 -13 -11.5 -20t-17 -13t-15 -12.5t-6.5 -18.5z" />
<glyph unicode="&#xb7;" horiz-adv-x="458" d="M161 763q2 5 19 18.5t38 28t40.5 25.5t26.5 11q30 0 58.5 -13t50 -34.5t34.5 -50t13 -58.5q0 -40 -25.5 -65.5t-58.5 -39.5t-65 -19.5t-45 -5.5q-26 0 -42.5 18.5t-26.5 45t-13.5 54.5t-3.5 48v37z" />
<glyph unicode="&#x2219;" horiz-adv-x="458" d="M161 763q2 5 19 18.5t38 28t40.5 25.5t26.5 11q30 0 58.5 -13t50 -34.5t34.5 -50t13 -58.5q0 -40 -25.5 -65.5t-58.5 -39.5t-65 -19.5t-45 -5.5q-26 0 -42.5 18.5t-26.5 45t-13.5 54.5t-3.5 48v37z" />
<glyph unicode="&#xb8;" horiz-adv-x="964" d="M390 -3v-2q0 -2 -1.5 -8t-3.5 -13l-4 -12q-1 -6 -1 -7q-9 -25 -22 -47t-13 -48q0 -20 7.5 -39t16 -38t16 -38.5t7.5 -38.5v-2q0 -2 -2.5 -10t-2.5 -11q-1 -3 -3 -14t-4 -24t-4 -24t-3 -14q0 -2 -2 -7t-5 -11l-6 -12q-3 -6 -4 -10q-29 -48 -67 -76.5t-98 -28.5 q-2 0 -7 0.5t-11 1.5l-11 1h-9q-26 8 -35.5 23.5t-9.5 42.5q0 39 14 52.5t32.5 17t38 6t31.5 19.5q2 5 2 16v14q0 13 -4 29.5t-11 32t-17 29.5t-22 23v102l8 16l6 12l5 10q6 11 19.5 18t29 12t31.5 9.5t27 10.5q2 8 4.5 13t5.5 9.5t6.5 10.5t6.5 16z" />
<glyph unicode="&#xb9;" horiz-adv-x="655" d="M340 802q0 18 14 25t32 10l37 6q18 3 25 13q2 4 4 11l6 15l4 14.5t2 11.5l-16 78q0 4 2 13t4 19l5 17q2 8 2 10l-13 110q0 6 2 11l5 12q-24 25 -54 38q-9 3 -20.5 5t-22.5 6t-18.5 10.5t-7.5 18.5q0 7 4.5 11.5t10.5 6.5t12.5 2.5t11.5 0.5l64 -4q8 0 12 0.5t14 3.5 q13 -2 25 -3t24 -1q11 0 22 1t23 3q4 4 14.5 7.5t22 5t23 2.5t19.5 1q5 0 12.5 -0.5t14 -2.5t11.5 -6.5t5 -11.5q0 -15 -10 -24t-24 -14t-29 -8.5t-24 -6.5q-8 -3 -15 -17l-12 -24l-8 -112l11 -86l-11 -15q0 -1 2 -7t3 -7v-1q0 -7 -2.5 -14t-2.5 -16q0 -14 6 -24.5t8 -24.5 q3 0 17 -3l21 -3l15 -8q12 -6 24 -14t21.5 -16.5t9.5 -15.5v-1q-3 -11 -17 -25l-85 -3q-1 0 -5 2q-2 1 -4 1q-5 1 -17 1h-27q-29 0 -59.5 -1t-57.5 -5l-11 -6q-19 0 -32.5 8.5t-21.5 19.5z" />
<glyph unicode="&#xba;" horiz-adv-x="804" d="M271 1197l7 52q15 58 48 116l35 45l34 24q10 7 16 7q7 0 12 5l62 28q5 2 16 4.5t15 2.5q28 2 43 2.5t20 0.5q29 0 47.5 -5.5t35.5 -9.5q4 0 6 0.5t6 0.5q8 0 14 -3l6 -6l6 -6l59 -35q13 -9 19 -19.5t15 -21.5q5 -4 12 -16t11 -17l27 -83q5 -5 6 -15t1 -15l-3 -74l-31 -88 q-11 -17 -23 -33l-27 -31l-9 -11q-5 -5 -13.5 -10.5t-21.5 -12t-34 -15.5q-2 0 -12 -2.5t-14 -2.5q-12 -2 -19.5 -5t-18.5 -3l-61 -4q-3 0 -10.5 0.5t-16.5 1.5t-17.5 1.5t-12.5 0.5l-55 5l-80 50q-11 5 -17.5 17t-13.5 21q-8 11 -15.5 20t-12.5 18l-22 36q-12 18 -12 40z M400 1166q9 -11 9 -16q0 -4 1 -8t3 -9q4 -21 15 -40.5t23 -33.5l22 -23q6 -8 12 -15t14 -13.5t19 -12t28 -9.5q16 0 30.5 2.5t28.5 7.5q10 0 17 1.5t22 12.5q14 9 27 18.5t22 18.5l43 64q3 10 4 18t1 16q0 14 -1.5 25t-3.5 22q-2 9 -6 18t-4 20l5 23q-4 15 -6 35.5t-11 29.5 l-32 35q-4 4 -12 16.5t-22 28.5q-11 11 -21 19t-26 12l-31 2q-16 4 -27 6t-27 2l-39 -22l-59 -64q-1 -3 -2 -6.5t-3 -11.5t-5 -22l-8 -38l6 -31v-6q0 -3 -0.5 -10.5t-2 -22t-3.5 -39.5z" />
<glyph unicode="&#xbb;" horiz-adv-x="919" d="M539 239q-14 -14 -30 -23l-32 -17q-15 -8 -30 -18.5t-27 -28.5h-52q-9 0 -14.5 3t-14.5 16l7 26q6 10 10 15l10 9l12 13q8 7 21 22l21 23q4 4 7.5 8t9.5 9l15 13q10 8 27 20q3 2 11 11l18 18l19 18.5t14 11.5q5 0 14 6t18.5 14.5t18.5 18.5l17 16q-3 4 -5 14t-4.5 20 t-7 17.5t-13.5 7.5q-1 26 -7 43t-13.5 31.5t-13.5 30t-6 37.5q0 13 0.5 33t3.5 29q3 3 13 5t22 3t21.5 1.5t10.5 0.5q4 0 15.5 -11.5t23.5 -26t21.5 -28.5t10.5 -19q7 0 12 -10l13 -24q7 -13 15.5 -25t20.5 -15l5 -2l25 -18q14 -10 26 -22.5t20.5 -27t8.5 -30.5v-8 q0 -4 -2 -8q-8 -18 -29.5 -38t-47 -37.5t-51.5 -31t-42 -19.5l-27 -12q-7 -3 -19 -13t-24.5 -21.5t-24.5 -20.5t-19 -9h-2zM207 251q-16 -14 -32 -22t-31 -16.5t-29.5 -19.5t-26.5 -29h-52q-9 0 -15 2.5t-18 13.5l14 29q4 9 8 14t9 9.5t13 11t20 19.5l21 26q3 4 6 7.5 t8.5 8.5t15.5 12l27 19q4 5 13 15l18 19l19.5 17t15.5 9q4 0 12 7t17 16l18 19q10 9 17 14q-4 5 -6 15l-3 20q-1 10 -4 17.5t-12 7.5l-45 145q1 5 1 14l1 17l2 15.5t3 10.5q3 5 12.5 8t20.5 5t20 2.5t10 0.5q4 0 15.5 -12t23.5 -27l24 -29q12 -14 15 -18q4 0 9 -11l11 -24 q7 -14 16 -26t22 -14l28 -21q14 -11 25.5 -23t19 -25.5t7.5 -28.5q0 -5 -0.5 -10.5t-3.5 -10.5q-5 -18 -25.5 -37t-46 -36.5t-52 -31.5t-43.5 -21l-26 -9q-7 -4 -19 -15l-25 -21q-12 -11 -23 -19.5t-16 -8.5h-4z" />
<glyph unicode="&#xbc;" horiz-adv-x="1623" d="M245 -183q3 17 9 29t14 22l15 22q8 10 16 24l15 27q4 16 11 25t13 22l21 47q0 2 4.5 5t10.5 6l10 6q5 2 6 4l9 43q3 12 10 20.5t15 16.5l16 16q7 7 12 16q4 4 11 14t13.5 20.5t11.5 20t6 13.5q1 3 11 23.5t23.5 44t28 42.5t24.5 19q29 33 49 77l37 81l61 86l30 68 q12 25 19.5 37.5t12 16.5t7.5 6q11 27 29 60l40 68l44 70l42 65q20 31 34.5 56t19.5 39q10 23 22.5 40.5t41.5 17.5q13 0 28 -3q13 -2 25 -10.5t27 -22.5l-10 -52q-2 -2 -9 -10.5t-9 -10.5q-10 -18 -12.5 -38.5t-13.5 -40.5q-6 -13 -16.5 -17.5t-24.5 -13.5q-4 -7 -6 -13.5 t-4 -24.5q-31 -50 -50.5 -77.5t-31 -40.5t-15.5 -15t-5 -1.5t0.5 -1t2.5 -11.5q-4 -16 -8.5 -25.5t-9 -15t-9 -9t-8.5 -7.5q-3 -5 -9 -13.5t-11.5 -18.5t-9.5 -20t-5 -17q-5 -26 -15 -42.5t-19.5 -26.5t-17.5 -16t-10 -10q0 -4 -6 -10.5t-8 -8.5q-6 -20 -14 -34.5t-18.5 -26 t-23 -22.5t-25.5 -24q-9 -9 -13.5 -20t-9.5 -20q-4 -32 -6.5 -44.5t-6.5 -19.5q-19 -13 -27 -29t-10 -18q-1 -3 -7 -7t-13 -8l-13 -6q-6 -3 -8 -3q-7 -7 -13 -24t-12 -36.5t-12 -36.5t-13 -24q-2 -3 -7 -6t-10 -6.5t-8.5 -6.5t-2.5 -5q2 -7 2 -11v-8q0 -6 -2 -9 q-5 -23 -19.5 -34.5t-22.5 -14.5q-9 -20 -11.5 -31t-14.5 -15q-1 -4 -1.5 -13t-5.5 -20q-2 -15 -5.5 -25.5t-9 -19t-14.5 -15.5t-22 -14q-7 -4 -10.5 -10.5t-4.5 -13.5l-4 -16q-1 -8 -4 -16q-8 -11 -13.5 -14.5t-10 -6t-8.5 -7.5t-8 -19l-59 -6q-6 2 -12.5 13t-11.5 24 t-8 24t-2 13zM148 522q0 18 14 25t32 10l37 6q18 3 25 13q2 4 4 11l6 15l4 14.5t2 11.5l-16 78q0 4 2 13t4 19l5 17q2 8 2 10l-13 110q0 6 2 11l5 12q-24 25 -54 38q-9 3 -20.5 5t-22.5 6t-18.5 10.5t-7.5 18.5q0 7 4.5 11.5t10.5 6.5t12.5 2.5t11.5 0.5l64 -4q8 0 12 0.5 t14 3.5q13 -2 25 -3t24 -1q11 0 22 1t23 3q4 4 14.5 7.5t22 5t23 2.5t19.5 1q5 0 12.5 -0.5t14 -2.5t11.5 -6.5t5 -11.5q0 -15 -10 -24t-24 -14t-29 -8.5t-24 -6.5q-8 -3 -15 -17l-12 -24l-8 -112l11 -86l-11 -15q0 -1 2 -7t3 -7v-1q0 -7 -2.5 -14t-2.5 -16q0 -14 6 -24.5 t8 -24.5q3 0 17 -3l21 -3l15 -8q12 -6 24 -14t21.5 -16.5t9.5 -15.5v-1q-3 -11 -17 -25l-85 -3q-1 0 -5 2q-2 1 -4 1q-5 1 -17 1h-27q-29 0 -59.5 -1t-57.5 -5l-11 -6q-19 0 -32.5 8.5t-21.5 19.5zM1035 -186l12 32l-5 38q0 12 3 22.5t6 22.5q3 13 5 25t2 24q0 6 -6 12.5 t-10 8.5l-68 3q-8 0 -19.5 -1t-24.5 -3q-27 -6 -48 -6l-23 5q-2 0 -5 -1.5t-10 -3.5q-5 0 -7.5 1.5t-5 4t-6.5 4t-11 1.5q-8 0 -11 -1q-4 9 -5.5 16t-1.5 16q0 13 1.5 19.5t5.5 14.5q27 38 51 76l47 78l14 23q6 8 13.5 8.5t14.5 9.5q1 4 2 9.5t1 7.5l4 4l8 8l8 8q3 3 3 5 l8 22l11 10q1 3 5 9l9 14l8 15l7 10q0 1 0.5 6.5t2.5 5.5l32 33q0 3 1 5l2 4q0 1 2.5 9.5t3.5 9.5l19 20q8 9 13 17t10.5 13t13 8t21.5 3q10 0 16 -14t9 -33t4 -37t1 -26l-1 -28q-8 -10 -9 -17t-1 -17q0 -11 3 -16t3 -14l-5 -43v-11l5 -18l-8 -108q0 -9 2 -17t13 -10t20 -2 h20h22q10 0 21 2q10 8 19 9.5t22 1.5q6 0 17.5 -4t23.5 -10.5t21 -14.5t9 -16q0 -31 -14.5 -55.5t-48.5 -24.5q-14 0 -25 4.5t-31 4.5q-7 -1 -14 -1.5t-15 -0.5q-11 0 -22 -1t-20 -5.5t-14.5 -13t-5.5 -23.5q-2 -2 -2 -6v-9v-49q0 -13 2 -17q-5 -10 -5 -18t4.5 -11.5 t6.5 -12.5q3 -23 3 -42q0 -22 -3 -40q0 -5 -6 -12.5t-13.5 -14t-15 -11t-10.5 -4.5q-5 0 -10.5 5.5t-12.5 6.5q-20 4 -28.5 9t-12 12t-4.5 17.5t-6 27.5zM911 114q0 -8 5.5 -12t13.5 -5.5t17 -2t17 -0.5q7 0 26 2t38 5.5t34 9.5t15 14q0 7 -1 19l-2 24q-1 12 -2 21t-1 10 l-6 10v26q0 10 -1.5 21.5t-6 21.5t-12 16t-18.5 6t-21 -9t-19 -21t-17 -24l-12 -21l-39 -80q-5 -11 -6.5 -16t-1.5 -15z" />
</font>
</defs>
</svg>
